<?xml version="1.0" encoding="utf-8"?>
<!-- Generator: Avocode 2.6.0 - http://avocode.com -->
<svg height="50" width="50" xmlns:xlink="http://www.w3.org/1999/xlink" xmlns="http://www.w3.org/2000/svg" viewBox="0 0 50 50">
    <path stroke-linejoin="miter" stroke-linecap="round" stroke-width="2" stroke="#c2c2c2" fill="none" fill-rule="evenodd" d="M 25 1 C 38.25 1 49 11.75 49 25 C 49 38.25 38.25 49 25 49 C 11.75 49 1 38.25 1 25 C 1 11.75 11.75 1 25 1 L 25 1 Z M 25 1" />
    <path fill="#c2c2c2" fill-rule="evenodd" d="M 29.93 35.53 C 29.79 33.92 29.84 32.79 29.84 31.32 C 30.57 30.94 31.88 28.49 32.1 26.43 C 32.68 26.38 33.58 25.82 33.85 23.61 C 33.99 22.43 33.42 21.76 33.08 21.55 C 34.01 18.74 35.95 10.05 29.49 9.15 C 28.82 7.98 27.12 7.39 24.91 7.39 C 16.05 7.55 14.98 14.08 16.92 21.55 C 16.58 21.76 16.01 22.43 16.15 23.61 C 16.42 25.82 17.32 26.38 17.9 26.43 C 18.12 28.49 19.48 30.94 20.21 31.32 C 20.21 32.79 20.26 33.92 20.12 35.53 C 18.86 38.92 12.38 39.18 8.65 42.45 C 12.55 46.38 18.88 49.2 25.56 49.2 C 32.24 49.2 40.09 43.92 41.4 42.49 C 37.69 39.19 31.2 38.93 29.93 35.53" />
</svg>
