<?xml version="1.0" encoding="UTF-8"?><!DOCTYPE svg PUBLIC "-//W3C//DTD SVG 1.1//EN" "http://www.w3.org/Graphics/SVG/1.1/DTD/svg11.dtd"><svg xmlns="http://www.w3.org/2000/svg"><symbol id="icon-bulb" viewBox="0 0 31 35"><path fill-rule="evenodd" d="M25 8.96c.29 0 .56-.11.76-.31l2.22-2.22c.2-.2.31-.47.31-.76 0-.28-.11-.55-.31-.76a1.1 1.1 0 0 0-.76-.31c-.29 0-.56.11-.76.31l-2.22 2.22c-.2.2-.31.47-.31.76 0 .29.11.56.31.76.2.2.47.31.76.31zm2.29 16.73zm-1.63-3.39c-.2-.2-.47-.31-.76-.31-.28 0-.55.11-.76.31-.2.2-.31.47-.31.76 0 .29.11.56.31.76l2.22 2.21c.2.21.47.32.76.32.29 0 .56-.11.76-.32.42-.41.42-1.1 0-1.52l-2.22-2.21zm4.26-6.4c.25 0 .45-.2.45-.44a.448.448 0 0 1 0 0c0 .24-.2.44-.45.44zm0-1.52h-3.13c-.59 0-1.07.49-1.07 1.08 0 .59.48 1.07 1.07 1.07h3.13c.6 0 1.08-.48 1.08-1.07 0-.59-.48-1.08-1.08-1.08zM5.24 8.65c.2.2.47.31.76.31.29 0 .56-.11.76-.31.2-.2.31-.47.31-.76 0-.29-.11-.56-.31-.76L4.54 4.91c-.2-.2-.47-.31-.76-.31-.28 0-.55.11-.76.31-.2.21-.31.48-.31.76 0 .29.11.56.31.76l2.22 2.22zm1.17 14.1l-.06-.06.06.06c.02.02.04.04.06.07-.02-.03-.04-.05-.06-.07zm-.34-.13h.03-.03zm.03-.63c-.29 0-.56.11-.76.31l-2.22 2.21c-.42.42-.42 1.11 0 1.52.2.21.47.32.76.32.29 0 .56-.11.76-.32l2.22-2.21c.2-.2.31-.47.31-.76 0-.29-.11-.56-.31-.76a1.1 1.1 0 0 0-.76-.31zm9.44-17.34c.25 0 .45-.2.45-.44V1.08v3.13c0 .24-.2.44-.45.44h-.06.06zm0 .63c.59 0 1.08-.48 1.08-1.07V1.08c0-.6-.49-1.08-1.08-1.08-.59 0-1.07.48-1.07 1.08v3.13c0 .59.48 1.07 1.07 1.07zM5.28 15.46c0-.59-.48-1.08-1.07-1.08H1.08c-.6 0-1.08.49-1.08 1.08 0 .59.48 1.07 1.08 1.07h3.13c.59 0 1.07-.48 1.07-1.07zm19.06-.68a8.686 8.686 0 0 0 0 0zm-11 9.21c0-.03-.01-.07-.01-.11v-.04.04c0 .04.01.08.01.11zm7.39-3.21l-.03.03-.05.04-.03.05-.03.04c-.98 1.47-1.58 3.12-1.76 4.82h-.16c0-1.2-1.21-1.6-2.39-1.9 1.18-.3 2.39-.7 2.39-1.9 0-1.17-1.15-1.58-2.31-1.88 1.16-.3 2.31-.71 2.31-1.88s-1.15-1.58-2.31-1.88c1.16-.3 2.31-.71 2.31-1.88a1.071 1.071 0 0 0-2.05-.44c-.3.12-.95.28-1.19.34-1.28.31-2.73.67-2.73 1.98 0 1.17 1.16 1.58 2.31 1.88-1.15.3-2.31.71-2.31 1.88s1.16 1.58 2.31 1.88c-1.15.3-2.31.71-2.31 1.88v.04c0 1.18 1.17 1.58 2.33 1.88h-2.48c-.18-1.7-.79-3.35-1.77-4.82l-.02-.04-.04-.05-.05-.04-.03-.03a7.163 7.163 0 0 1-2.13-5.11c0-3.96 3.22-7.18 7.18-7.18 3.96 0 7.18 3.22 7.18 7.18 0 1.93-.76 3.75-2.14 5.11zm1.1 1.05c-.07.1-.13.2-.2.31.07-.11.13-.21.2-.31zm-.69-.57l.03-.04-.03.04zm-.55 3.3c.06-.21.12-.43.2-.63-.08.2-.14.42-.2.63zm-.28 1.75zm-.6-1.91c.05-.19.11-.37.16-.55-.05.18-.11.36-.16.55zm-1.86.83zm.91 2.05h-1.3 1.3zm-3.01-1.99c-.06-.01-.12-.03-.17-.04-.05-.01-.11-.03-.16-.04.05.01.11.03.16.04.05.01.11.03.17.04zm-.05-1.94c.03-.01.06-.01.09-.02.18-.05.36-.09.54-.14-.18.05-.36.09-.54.14-.03.01-.06.01-.09.02zm-.2-7.46c.11-.03.21-.05.29-.08.15-.03.29-.07.43-.1-.14.03-.28.07-.43.1-.08.03-.18.05-.29.08zm.29 4.7c-.11-.03-.25-.07-.4-.11.15.04.29.08.4.11zm-3.17 6.69h2-2zm6.14.9h-6.14v-.27h6.14v.27zm0 2.24h-6.14v-.09h6.14v.09zm-1.64 2.4h-2.87c-.3 0-.58-.09-.82-.25h4.52a1.5 1.5 0 0 1-.83.25zM15.69 7.86zm0-1.52c-5.15 0-9.33 4.18-9.33 9.33 0 2.47.95 4.8 2.69 6.56a8.37 8.37 0 0 1 1.4 4.61v1.07h.02v3.13c0 2.17 1.69 3.93 3.78 3.93h2.87c2.09 0 3.79-1.76 3.79-3.93v-3.13h.01v-1.07c0-1.62.49-3.21 1.4-4.61a9.278 9.278 0 0 0 2.7-6.56c0-5.15-4.19-9.33-9.33-9.33zm0 0"/></symbol><symbol id="icon-calendar" viewBox="0 0 20 22"><path fill-rule="evenodd" d="M7.69 1.54V0H6.15v3.08h1.54V1.54zm-3.07 0V0H3.08v3.08h1.54V1.54zm12.3 0V0h-1.54v3.08h1.54V1.54zm-3.07 0V0h-1.54v3.08h1.54V1.54zm-3.08 0V0H9.23v3.08h1.54V1.54zM6.15 9.23v1.54h1.54v6.15h1.54V9.23H6.15zm4.62 0v1.54h1.54v6.15h1.54V9.23h-3.08zM0 3.08V20l1.54 1.54h16.92L20 20V3.08l-1.54-1.54v3.08H1.54V1.54L0 3.08zM1.54 20V6.15h16.92V20H1.54zm0 0"/></symbol><symbol id="icon-check" viewBox="0 0 172 120"><path stroke-linecap="round" stroke-width="15" d="M7.57 56.91l66.62 52.59L164 8"/></symbol><symbol id="icon-doc" viewBox="0 0 16 18"><path fill-rule="evenodd" d="M7.1 5.4c-.01.16 0 .33.03.53.01-.2-.01-.38-.03-.53zm.31 4.12c-.14.36-.29.72-.45 1.06.36-.1.73-.18 1.09-.25-.12-.14-.23-.28-.34-.42l-.3-.39zM3.18 15.6c-.19 0-.39-.05-.56-.15-.43-.26-.62-.72-.51-1.25.2-.95 1.44-2.13 3.1-2.94.44-.91.91-1.99 1.34-3.12-.56-1.07-.82-2.07-.75-2.89.11-1.17.56-1.58.92-1.71a.96.96 0 0 1 .33-.06c.27 0 .55.13.77.36.61.64.92 2.15.21 4.08-.01.03-.02.07-.04.1.22.35.46.71.73 1.06.31.39.64.78.99 1.12h.02c1.71 0 3.04.53 3.48 1.4.2.4.16.85-.1 1.16-.21.25-.53.37-.92.37-.24 0-.52-.05-.8-.15-.63-.23-1.4-.73-2.17-1.44-.09 0-.17.01-.25.02-.96.09-1.91.33-2.81.72-.08.16-.16.32-.24.47-.88 1.63-1.61 2.51-2.3 2.77-.15.05-.29.08-.44.08zm7.34-11.21v.01c-.01.11.02.46.2.66.13.14.35.21.66.21h2.65c-.92-1.02-2.5-2.56-3.51-3.4v2.52zM1.77 1.38c-.26 0-.54.16-.54.44v14.36c0 .28.28.44.54.44h12.42c.28 0 .47-.17.47-.44V6.65h-3.28c-.7 0-1.25-.22-1.64-.66-.57-.62-.57-1.47-.57-1.65V1.38h-7.4zm0 16.62C.78 18 0 17.2 0 16.18V1.82C0 .8.78 0 1.77 0h8.08c.18 0 .75 0 3.43 2.61C15.67 4.93 16 5.61 16 6v10.18c0 1-.81 1.82-1.81 1.82H1.77zm0 0"/></symbol><symbol id="icon-donation" viewBox="0 0 41 27"><path fill-rule="evenodd" d="M18.17 17.55v-5.46h4.17c2.53 0 3.45.99 3.45 2.72 0 1.7-.92 2.74-3.45 2.74h-4.17zm0 7.67v-.79h5.64v-1.99h-5.64v-2.38h4.59c3.77 0 5.92-1.99 5.92-5.28 0-3.23-2.15-5.19-5.92-5.19h-7.43v12.85h-1.98v1.99h1.98v.79H4.7a16.52 16.52 0 0 1-1.42-6.7c0-9.23 7.52-16.74 16.77-16.74s16.77 7.51 16.77 16.74c0 2.31-.48 4.57-1.42 6.7H18.17zm19.15 0c.85-2.15 1.28-4.39 1.28-6.7C38.6 8.31 30.28 0 20.05 0S1.5 8.31 1.5 18.52c0 2.3.44 4.55 1.28 6.7H0V27h41v-1.78h-3.68zm0 0"/></symbol><symbol id="icon-dummy" viewBox="0 0 98 80"><title>Page 1</title><path d="M68.7 34.6l-9.1 4.1 9 5.5c.8.5 1.1 1.6.6 2.4-.3.5-.9.8-1.5.8-.3 0-.6-.1-.9-.3l-11.9-7.2c-.6-.3-.9-1-.8-1.6.1-.6.4-1.2 1-1.5l12.1-5.4c.9-.4 1.9 0 2.3.9.5.8.1 1.9-.8 2.3m-25.6 5.3l-11.9 7.2c-.3.2-.6.3-.9.3-.6 0-1.2-.3-1.5-.8-.5-.8-.2-1.9.6-2.4l9-5.5-9.1-4.1c-.9-.4-1.3-1.4-.9-2.3.4-.9 1.4-1.3 2.3-.9l12.1 5.4c.6.3 1 .8 1 1.5s-.1 1.3-.7 1.6m22.1 23.7c.5.8.2 1.9-.6 2.4s-1.9.2-2.4-.6c-2.5-4.3-7.5-7-13.1-7s-10.7 2.7-13.2 7.1c-.3.6-.9.9-1.5.9-.3 0-.6-.1-.9-.2-.8-.5-1.1-1.5-.7-2.4 3.1-5.5 9.3-8.9 16.2-8.9 6.9-.1 13.1 3.3 16.2 8.7M28.9 12.4c-.3-.3-.5-.8-.5-1.2 0-.4.2-.9.5-1.2.6-.7 1.8-.7 2.5 0 .3.3.5.8.5 1.2 0 .4-.2.9-.5 1.2-.3.3-.8.5-1.2.5-.6 0-1-.2-1.3-.5m-9.5 0c-.3-.3-.5-.8-.5-1.2 0-.4.2-.9.5-1.2.6-.7 1.8-.7 2.5 0 .3.3.5.8.5 1.2 0 .4-.2.9-.5 1.2-.3.3-.8.5-1.2.5-.4 0-.9-.2-1.3-.5m-9.4 0c-.3-.3-.5-.8-.5-1.2 0-.4.2-.9.5-1.2.6-.7 1.8-.7 2.5 0 .3.3.5.8.5 1.2 0 .4-.2.9-.5 1.2-.3.3-.8.5-1.2.5-.5 0-1-.2-1.3-.5m81.2 63.1H6.8c-1.8 0-3.3-1.5-3.3-3.3V22.4h91v49.9c0 1.8-1.5 3.2-3.3 3.2M6.8 3.5h84.4c1.8 0 3.3 1.5 3.3 3.3v12.1h-91V6.7c0-1.8 1.5-3.2 3.3-3.2M91.2 0H6.8C3.1 0 0 3 0 6.8v65.5c0 3.7 3 6.8 6.8 6.8h84.4c3.7 0 6.8-3 6.8-6.8V6.7C98 3 94.9 0 91.2 0" fill-rule="evenodd"/></symbol><symbol id="icon-fb" viewBox="0 0 28 28"><title>Facebook</title><path fill-rule="evenodd" d="M14.96 28H1.55C.69 28 0 27.31 0 26.45V1.55C0 .69.69 0 1.55 0h24.9C27.31 0 28 .69 28 1.55v24.9c0 .86-.69 1.55-1.55 1.55h-7.13V17.16h3.64l.54-4.23h-4.18v-2.7c0-1.22.34-2.05 2.09-2.05h2.24V4.4c-.39-.06-1.71-.17-3.26-.17-3.23 0-5.43 1.97-5.43 5.58v3.12h-3.65v4.23h3.65V28zm0 0"/></symbol><symbol id="icon-gplus" viewBox="0 0 38 24"><title>Google plus</title><path fill-rule="evenodd" d="M33.82 9.86V5.7h-2.99v4.16h-4.3v2.97h4.3v4.28h2.99v-4.28H38V9.86h-4.18zm-21.75-.24v4.76s4.64-.01 6.52-.01c-1.02 3.08-2.61 4.76-6.52 4.76-3.96 0-7.05-3.19-7.05-7.13s3.09-7.13 7.05-7.13c2.09 0 3.44.73 4.69 1.75.99-.98.9-1.13 3.43-3.5A12.047 12.047 0 0 0 12.07 0C5.4 0 0 5.37 0 12s5.4 12 12.07 12c9.96 0 12.4-8.63 11.59-14.38H12.07zm0 0"/></symbol><symbol id="icon-heart" viewBox="0 0 42 37"><path stroke-width="2" d="M5.74 2.46C7.39 1.49 9.28 1 11.2 1c2.3 0 4.66.7 6.68 2.17 1.08.79 2.04 1.8 2.84 3.02C21.56 5 22.56 4 23.67 3.24c2.1-1.44 4.52-2.13 6.9-2.13 2.59 0 5.16.82 7.15 2.53.98.86 1.82 1.94 2.39 3.21.58 1.27.89 2.73.89 4.32 0 11.97-18.97 24.41-19 24.43-.61.42-1.39.42-1.99 0-.05-.04-4.67-3.23-9.35-7.8-2.34-2.28-4.7-4.91-6.52-7.71-.9-1.4-1.68-2.84-2.24-4.33-.56-1.49-.9-3.03-.9-4.59 0-1.59.3-3.05.86-4.33a9.406 9.406 0 0 1 3.88-4.38zm0 0"/></symbol><symbol id="icon-icons"/><symbol id="icon-in" viewBox="0 0 28 28"><title>Instagram</title><path fill-rule="evenodd" d="M24.5 25.38h-21a.88.88 0 0 1-.87-.88V11.38h3.5c-.46.65-.61 1.88-.61 2.65 0 4.69 3.82 8.5 8.51 8.5 4.7 0 8.52-3.81 8.52-8.5 0-.77-.11-1.98-.67-2.65h3.5V24.5c0 .48-.4.88-.88.88M14.03 8.66c2.98 0 5.39 2.41 5.39 5.37 0 2.97-2.41 5.37-5.39 5.37-2.97 0-5.38-2.4-5.38-5.37 0-2.96 2.41-5.37 5.38-5.37M21 3.5h2.63c.48 0 .87.39.87.88V7c0 .48-.39.88-.87.88H21a.88.88 0 0 1-.87-.88V4.38c0-.49.39-.88.87-.88M24.67 0H3.33C1.49 0 0 1.49 0 3.32v21.36C0 26.51 1.49 28 3.33 28h21.34c1.84 0 3.33-1.49 3.33-3.32V3.32C28 1.49 26.51 0 24.67 0"/></symbol><symbol id="icon-lightning" viewBox="0 0 6 9"><path fill-rule="evenodd" d="M4.67 0L0 5.18h2.55L1.29 8.86 6 3.61H3.65L4.67 0zm0 0"/></symbol><symbol id="icon-locked" viewBox="0 0 12 17"><path fill-rule="evenodd" d="M11.38 6.74h-1.02v-2.4C10.36 1.95 8.41 0 6 0S1.64 1.95 1.64 4.35v2.39H.63c-.34 0-.63.28-.63.62v7.25c0 .86.71 1.56 1.58 1.56h8.85c.87 0 1.57-.7 1.57-1.56V7.36c0-.34-.28-.62-.62-.62zM2.89 4.35a3.111 3.111 0 0 1 6.22-.01v2.4H2.89V4.35zm7.85 10.26c0 .17-.13.32-.31.32H1.58c-.18 0-.32-.15-.32-.32V7.99h9.48v6.62zm0 0"/><path fill-rule="evenodd" d="M6.13 13.3c.36 0 .65-.27.65-.6v-2.18c0-.34-.29-.61-.65-.61-.36 0-.65.27-.65.61v2.18c0 .33.29.6.65.6"/></symbol><symbol id="icon-reg" viewBox="0 0 26 26"><path fill-rule="evenodd" d="M18.53 15.56c-.53 0-.96.43-.96.97v7.53H1.94V8.43h7.53a.965.965 0 1 0 0-1.93H.97c-.54 0-.97.43-.97.97v17.56c0 .54.43.97.97.97h17.56c.54 0 .97-.43.97-.97v-8.5c0-.54-.43-.97-.97-.97zM23.88 4.4l-1.87 1.87-2.28-2.28 1.87-1.87c.24-.24.66-.24.91 0l1.37 1.37c.25.25.25.66 0 .91zM10.36 17.92H8.08v-2.28L18.36 5.36l2.28 2.28-10.28 10.28zm14.89-15.8L23.88.76C23.39.27 22.74 0 22.05 0c-.69 0-1.34.27-1.82.76L6.14 14.84v5.02h5.02L25.25 5.77c1-1 1-2.64 0-3.65zm0 0"/></symbol><symbol id="icon-ruble" viewBox="0 0 277.971 362.803"><path d="M267.684 55.638c-5.868-15.141-14.416-24.125-23.472-32.601S219.073 6.375 205.743 3.55C196.108 1.086 181.981 0 163.87 0H23.038v168.072H0v37.671h23.038v15.286H0v37.672h23.038v104.102H63.39V258.701h144.6v-37.672H63.39v-15.286h103.669c38.903 0 66.795-10.866 84.182-32.021 16.59-20.212 26.731-37.889 26.731-68.895 0-17.966-4.998-34.484-10.359-49.263l.071.074zm-53.03 95.192c-10.143 11.591-23.545 17.242-47.017 17.242H63.462V38.613h103.379c16.518 0 27.964 1.087 33.831 3.188 9.708 6.158 17.314 10.939 22.966 21.444 5.868 10.939 8.766 23.907 8.766 38.686 0 21.082-8.187 37.671-17.821 48.9h.071z"/></symbol><symbol id="icon-search" viewBox="0 0 18 18"><title>&#x41F;&#x43E;&#x438;&#x441;&#x43A;</title><path fill-rule="evenodd" d="M0 6.75c0 3.73 3.02 6.75 6.75 6.75s6.75-3.02 6.75-6.75S10.48 0 6.75 0 0 3.02 0 6.75zm2.57 0c0-2.3 1.88-4.18 4.18-4.18s4.18 1.88 4.18 4.18-1.88 4.18-4.18 4.18-4.18-1.88-4.18-4.18zm10 7.95l3.02 3.01c.34.35 1.09.39 1.69.08.65-.33.91-1.66.57-2.08l-2.97-3.03c-.51-.63-1.53-.62-2.2.04-.59.59-.61 1.48-.11 1.98zm0 0"/></symbol><symbol id="icon-thumbs-up" viewBox="0 0 17 14"><path fill-rule="evenodd" d="M5.56 5.28c0-.29-.24-.53-.53-.53H.53c-.29 0-.53.24-.53.53V12c0 .29.24.53.53.53h4.5c.29 0 .53-.24.53-.53V5.28zm10.25.37h-3.83l.3-1.48c.07-.34.11-.69.13-1.04l.08-1.9c.02-.59-.4-1.12-1-1.21-.71-.12-1.35.4-1.38 1.08l-.1.96c-.07.67-.38 1.3-.87 1.79l-2.66 2.6c-.13.13-.21.31-.21.5v4.59c0 .31.19.6.49.73l.79.34c.8.35 1.67.96 2.54.96h4.16c.61 0 1.12-.48 1.12-1.08 0-.28-.11-.53-.29-.72.53-.11.94-.58.94-1.13 0-.31-.14-.6-.35-.81.5-.14.86-.58.86-1.11 0-.32-.14-.61-.36-.82.48-.15.83-.58.83-1.09 0-.64-.54-1.16-1.19-1.16zm0 0"/></symbol><symbol id="icon-vk" viewBox="0 0 28 28"><title>Vkontakte</title><path fill-rule="evenodd" d="M0 3c0-1.66 1.35-3 3-3h22c1.66 0 3 1.35 3 3v22c0 1.66-1.35 3-3 3H3c-1.66 0-3-1.35-3-3V3zm9.26 3.11h4.73c.5 0 .95.02 1.33.05.39.04.74.1 1.06.2.32.1.62.24.89.41.28.18.55.4.83.66.62.62.93 1.45.93 2.48 0 .69-.15 1.27-.43 1.73-.29.47-.69.85-1.21 1.15.83.15 1.51.55 2.05 1.2.54.64.81 1.44.81 2.39 0 1.33-.43 2.41-1.28 3.25-.44.44-1.02.77-1.75 1.01s-1.75.36-3.06.36h-4.9V6.11zm4.58 5.8c.7 0 1.2-.15 1.49-.44.16-.16.28-.34.38-.55.1-.21.15-.45.15-.73 0-.17-.03-.35-.09-.53a1.09 1.09 0 0 0-.29-.48c-.17-.17-.36-.29-.59-.36-.22-.07-.55-.1-.99-.1h-1.49v3.19h1.43zm.55 6.46c.92 0 1.59-.16 2-.49.42-.33.62-.81.62-1.44 0-.24-.03-.48-.1-.74s-.19-.47-.36-.64c-.25-.26-.54-.41-.87-.48-.33-.06-.72-.09-1.17-.09h-2.1v3.88h1.98zm0 0"/></symbol></svg>