<?xml version="1.0" encoding="utf-8"?>
<!-- Generator: Avocode 0.4.0 - http://avocode.com -->
<svg height="51" width="41" xmlns:xlink="http://www.w3.org/1999/xlink" xmlns="http://www.w3.org/2000/svg" viewBox="0 0 41 51">
    <path fill="none" fill-rule="evenodd" d="M 0.58 0.2 L 40.01 0.2 L 40.01 50.34 L 0.58 50.34" />
    <path fill="#9b9b9b" fill-rule="evenodd" d="M 8.82 14.52 C 5.04 17.24 2.32 21.19 1.17 25.81 C -1.46 36.39 4.96 47.11 15.53 49.75 C 26.09 52.39 36.79 45.95 39.42 35.36 C 42.05 24.78 35.63 14.06 25.06 11.42 C 24.66 11.32 24.25 11.57 24.14 11.98 C 24.04 12.38 24.29 12.79 24.7 12.9 C 34.45 15.33 40.38 25.23 37.95 35 C 35.52 44.76 25.64 50.71 15.89 48.27 C 6.14 45.84 0.21 35.94 2.64 26.17 C 3.7 21.91 6.21 18.26 9.71 15.76 C 11.38 14.56 13.24 13.65 15.22 13.08 C 15.62 12.96 15.85 12.54 15.73 12.13 C 15.62 11.73 15.2 11.5 14.79 11.62 C 12.66 12.24 10.64 13.23 8.82 14.52 Z M 8.82 14.52" />
    <path fill="#9b9b9b" fill-rule="evenodd" d="M 29.16 25.48 C 28.86 25.19 28.38 25.2 28.09 25.5 L 21.05 32.81 L 21.05 0.96 C 21.05 0.54 20.71 0.2 20.3 0.2 C 19.88 0.2 19.54 0.54 19.54 0.96 L 19.54 32.81 L 12.5 25.5 C 12.21 25.2 11.73 25.19 11.43 25.48 C 11.13 25.77 11.12 26.25 11.41 26.55 L 19.75 35.22 C 19.75 35.22 19.75 35.22 19.75 35.22 L 19.76 35.23 C 19.77 35.24 19.77 35.24 19.77 35.24 C 19.79 35.26 19.82 35.27 19.85 35.29 C 19.89 35.32 19.92 35.35 19.96 35.37 C 19.98 35.37 19.99 35.39 20 35.39 C 20 35.39 20.01 35.39 20.01 35.4 C 20.06 35.41 20.11 35.42 20.15 35.42 C 20.2 35.43 20.24 35.45 20.29 35.45 C 20.29 35.45 20.29 35.45 20.3 35.45 C 20.3 35.45 20.3 35.45 20.3 35.45 C 20.35 35.45 20.39 35.43 20.44 35.42 C 20.48 35.42 20.53 35.41 20.58 35.4 C 20.58 35.39 20.59 35.39 20.59 35.39 C 20.6 35.39 20.61 35.37 20.63 35.37 C 20.67 35.35 20.7 35.32 20.74 35.29 C 20.77 35.27 20.8 35.26 20.82 35.24 C 20.82 35.24 20.82 35.24 20.83 35.23 L 20.84 35.22 C 20.84 35.22 20.84 35.22 20.84 35.22 L 29.18 26.55 C 29.47 26.25 29.46 25.77 29.16 25.48" />
</svg>