<?xml version="1.0" encoding="utf-8"?>
<!-- Generator: Avocode 2.6.0 - http://avocode.com -->
<svg height="28" width="28" xmlns:xlink="http://www.w3.org/1999/xlink" xmlns="http://www.w3.org/2000/svg" viewBox="0 0 28 28">
    <title>Instagram</title>
    <path fill="#76553c" fill-rule="evenodd" d="M 24.5 25.38 L 3.5 25.38 C 3.02 25.38 2.63 24.98 2.63 24.5 L 2.63 11.38 L 6.13 11.38 C 5.67 12.03 5.52 13.26 5.52 14.03 C 5.52 18.72 9.34 22.53 14.03 22.53 C 18.73 22.53 22.55 18.72 22.55 14.03 C 22.55 13.26 22.44 12.05 21.88 11.38 L 25.38 11.38 L 25.38 24.5 C 25.38 24.98 24.98 25.38 24.5 25.38 M 14.03 8.66 C 17.01 8.66 19.42 11.07 19.42 14.03 C 19.42 17 17.01 19.4 14.03 19.4 C 11.06 19.4 8.65 17 8.65 14.03 C 8.65 11.07 11.06 8.66 14.03 8.66 M 21 3.5 L 23.63 3.5 C 24.11 3.5 24.5 3.89 24.5 4.38 L 24.5 7 C 24.5 7.48 24.11 7.88 23.63 7.88 L 21 7.88 C 20.52 7.88 20.13 7.48 20.13 7 L 20.13 4.38 C 20.13 3.89 20.52 3.5 21 3.5 M 24.67 0 L 3.33 0 C 1.49 0 0 1.49 0 3.32 L 0 24.68 C 0 26.51 1.49 28 3.33 28 L 24.67 28 C 26.51 28 28 26.51 28 24.68 L 28 3.32 C 28 1.49 26.51 0 24.67 0" />
</svg>
