<?xml version="1.0" encoding="utf-8"?>
<!-- Generator: Avocode 2.6.0 - http://avocode.com -->
<svg height="17" width="12" xmlns:xlink="http://www.w3.org/1999/xlink" xmlns="http://www.w3.org/2000/svg" viewBox="0 0 12 17">
    <path fill="#ffffff" fill-rule="evenodd" d="M 11.38 6.74 L 10.36 6.74 L 10.36 4.34 C 10.36 1.95 8.41 0 6 0 C 3.59 0 1.64 1.95 1.64 4.35 L 1.64 6.74 L 0.63 6.74 C 0.29 6.74 0 7.02 0 7.36 L 0 14.61 C 0 15.47 0.71 16.17 1.58 16.17 L 10.43 16.17 C 11.3 16.17 12 15.47 12 14.61 L 12 7.36 C 12 7.02 11.72 6.74 11.38 6.74 L 11.38 6.74 Z M 2.89 4.35 C 2.89 2.64 4.29 1.25 6 1.25 C 7.71 1.25 9.11 2.64 9.11 4.34 L 9.11 6.74 L 2.89 6.74 L 2.89 4.35 L 2.89 4.35 Z M 10.74 14.61 C 10.74 14.78 10.61 14.93 10.43 14.93 L 1.58 14.93 C 1.4 14.93 1.26 14.78 1.26 14.61 L 1.26 7.99 L 10.74 7.99 L 10.74 14.61 L 10.74 14.61 Z M 10.74 14.61" />
    <path fill="#ffffff" fill-rule="evenodd" d="M 6.13 13.3 C 6.49 13.3 6.78 13.03 6.78 12.7 L 6.78 10.52 C 6.78 10.18 6.49 9.91 6.13 9.91 C 5.77 9.91 5.48 10.18 5.48 10.52 L 5.48 12.7 C 5.48 13.03 5.77 13.3 6.13 13.3" />
</svg>