<?xml version="1.0" encoding="utf-8"?>
<!-- Generator: Avocode 2.6.0 - http://avocode.com -->
<svg height="18" width="18" xmlns:xlink="http://www.w3.org/1999/xlink" xmlns="http://www.w3.org/2000/svg" viewBox="0 0 18 18">
    <title>Поиск</title>
    <path fill="#ffffff" fill-rule="evenodd" d="M 0 6.75 C 0 10.48 3.02 13.5 6.75 13.5 C 10.48 13.5 13.5 10.48 13.5 6.75 C 13.5 3.02 10.48 0 6.75 0 C 3.02 0 0 3.02 0 6.75 L 0 6.75 Z M 2.57 6.75 C 2.57 4.45 4.45 2.57 6.75 2.57 C 9.05 2.57 10.93 4.45 10.93 6.75 C 10.93 9.05 9.05 10.93 6.75 10.93 C 4.45 10.93 2.57 9.05 2.57 6.75 L 2.57 6.75 Z M 12.57 14.7 L 15.59 17.71 C 15.93 18.06 16.68 18.1 17.28 17.79 C 17.93 17.46 18.19 16.13 17.85 15.71 L 14.88 12.68 C 14.37 12.05 13.35 12.06 12.68 12.72 C 12.09 13.31 12.07 14.2 12.57 14.7 L 12.57 14.7 Z M 12.57 14.7" />
</svg>
