<?xml version="1.0" encoding="utf-8"?>
<!-- Generator: Avocode 2.6.0 - http://avocode.com -->
<svg height="28" width="28" xmlns:xlink="http://www.w3.org/1999/xlink" xmlns="http://www.w3.org/2000/svg" viewBox="0 0 28 28">
    <title>Vkontakte</title>
    <path fill="#40778d" fill-rule="evenodd" d="M 0 3 C 0 1.34 1.35 0 3 0 L 25 0 C 26.66 0 28 1.35 28 3 L 28 25 C 28 26.66 26.65 28 25 28 L 3 28 C 1.34 28 0 26.65 0 25 L 0 3 Z M 9.26 6.11 L 13.99 6.11 C 14.49 6.11 14.94 6.13 15.32 6.16 C 15.71 6.2 16.06 6.26 16.38 6.36 C 16.7 6.46 17 6.6 17.27 6.77 C 17.55 6.95 17.82 7.17 18.1 7.43 C 18.72 8.05 19.03 8.88 19.03 9.91 C 19.03 10.6 18.88 11.18 18.6 11.64 C 18.31 12.11 17.91 12.49 17.39 12.79 C 18.22 12.94 18.9 13.34 19.44 13.99 C 19.98 14.63 20.25 15.43 20.25 16.38 C 20.25 17.71 19.82 18.79 18.97 19.63 C 18.53 20.07 17.95 20.4 17.22 20.64 C 16.49 20.88 15.47 21 14.16 21 L 9.26 21 L 9.26 6.11 Z M 13.84 11.91 C 14.54 11.91 15.04 11.76 15.33 11.47 C 15.49 11.31 15.61 11.13 15.71 10.92 C 15.81 10.71 15.86 10.47 15.86 10.19 C 15.86 10.02 15.83 9.84 15.77 9.66 C 15.72 9.48 15.62 9.32 15.48 9.18 C 15.31 9.01 15.12 8.89 14.89 8.82 C 14.67 8.75 14.34 8.72 13.9 8.72 L 12.41 8.72 L 12.41 11.91 L 13.84 11.91 Z M 14.39 18.37 C 15.31 18.37 15.98 18.21 16.39 17.88 C 16.81 17.55 17.01 17.07 17.01 16.44 C 17.01 16.2 16.98 15.96 16.91 15.7 C 16.84 15.44 16.72 15.23 16.55 15.06 C 16.3 14.8 16.01 14.65 15.68 14.58 C 15.35 14.52 14.96 14.49 14.51 14.49 L 12.41 14.49 L 12.41 18.37 L 14.39 18.37 Z M 14.39 18.37" />
</svg>
