<?xml version="1.0" standalone="no"?>
<!DOCTYPE svg PUBLIC "-//W3C//DTD SVG 1.1//EN" "http://www.w3.org/Graphics/SVG/1.1/DTD/svg11.dtd" >
<svg xmlns="http://www.w3.org/2000/svg">
<metadata></metadata>
<defs>
<font id="vw_headline_otbook" horiz-adv-x="1187" >
<font-face units-per-em="2048" ascent="1638" descent="-410" />
<missing-glyph horiz-adv-x="555" />
<glyph unicode="&#xfb01;" horiz-adv-x="1069" d="M43 754v143h133v334q0 150 63.5 231.5t219.5 81.5q35 0 78 -5t71 -13l-24 -152q-23 6 -52.5 11.5t-54.5 5.5q-74 0 -102.5 -41t-28.5 -131v-322h569v-897h-170v754h-399v-754h-170v754h-133zM707 1280q0 51 35.5 87t86.5 36t87 -36t36 -87t-36 -87t-87 -36t-86.5 36 t-35.5 87z" />
<glyph unicode="&#xfb02;" horiz-adv-x="1071" d="M43 754v143h133v215q0 238 108.5 336t307.5 98q29 0 77 -4t81 -8h168v-1534h-170v1380q-35 6 -82.5 11.5t-92.5 5.5q-61 0 -104 -14.5t-70.5 -49.5t-40 -94t-12.5 -147v-195h234v-143h-234v-754h-170v754h-133z" />
<glyph horiz-adv-x="0" />
<glyph unicode="&#xd;" horiz-adv-x="555" />
<glyph unicode=" "  horiz-adv-x="555" />
<glyph unicode="&#x09;" horiz-adv-x="555" />
<glyph unicode="&#xa0;" horiz-adv-x="555" />
<glyph unicode="!" horiz-adv-x="534" d="M182 117q0 55 40 95t95 40t95.5 -40t40.5 -95t-40.5 -95t-95.5 -40t-95 39.5t-40 95.5zM236 379v1073h163v-1073h-163z" />
<glyph unicode="&#x22;" horiz-adv-x="860" d="M135 1489h209l-43 -596h-123zM516 1489h209l-43 -596h-123z" />
<glyph unicode="#" horiz-adv-x="1394" d="M92 428v150h283l47 317h-266v152h286l56 405h164l-56 -405h318l57 405h160l-51 -405h217v-152h-238l-47 -317h219v-150h-244l-61 -428h-164l64 428h-318l-65 -428h-168l69 428h-262zM539 578h319l45 317h-317z" />
<glyph unicode="$" d="M168 270l160 82q31 -90 89 -144t140 -67v527q-61 31 -121.5 65.5t-110 82.5t-80 113.5t-30.5 160.5q0 72 25.5 136t70.5 115.5t108.5 85t137.5 43.5v181h107v-183q233 -18 340 -235l-148 -84q-29 63 -79 105t-113 57v-494q63 -31 126.5 -66.5t114.5 -84t84 -116 t33 -161.5q0 -78 -25.5 -147.5t-71.5 -122.5t-113 -89t-148 -46v-230h-107v226q-129 8 -233.5 81.5t-155.5 208.5zM401 1100q0 -78 44 -131.5t112 -94.5v435q-76 -20 -116 -81t-40 -128zM664 147q82 20 124.5 83t42.5 143q0 88 -48 143t-119 96v-465z" />
<glyph unicode="%" horiz-adv-x="1650" d="M80 1044q0 221 84 323.5t225 102.5q147 0 219 -102t72 -315q0 -221 -80 -325.5t-227 -104.5q-59 0 -112.5 19.5t-93.5 68.5t-63.5 130t-23.5 203zM244 1053q0 -86 9 -143.5t26.5 -90.5t43 -46t58.5 -13q70 0 102.5 62.5t32.5 221.5q0 156 -30.5 223.5t-104.5 67.5 q-72 0 -104.5 -61.5t-32.5 -220.5zM369 -10l770 1526l125 -60l-770 -1524zM963 403q0 221 83.5 323.5t225.5 102.5q147 0 219 -102t72 -315q0 -221 -80.5 -325.5t-227.5 -104.5q-59 0 -112 19t-93 68.5t-63.5 130.5t-23.5 203zM1126 412q0 -86 9.5 -143.5t27 -90.5t43 -46 t58.5 -13q70 0 102.5 62.5t32.5 221.5q0 156 -31 223.5t-104 67.5q-72 0 -105 -61.5t-33 -220.5z" />
<glyph unicode="&#x26;" horiz-adv-x="1337" d="M88 391q0 86 27.5 151.5t72.5 116t102.5 89t119.5 75.5q-80 98 -119 172t-39 160q0 70 26.5 127t72.5 98t108.5 64.5t134.5 23.5q86 0 147.5 -26.5t100.5 -69.5t57.5 -95t18.5 -103q0 -70 -23 -125.5t-60.5 -99.5t-87 -81t-104.5 -69l315 -387q45 47 90.5 104t94.5 117 l112 -123q-49 -61 -96 -118.5t-94 -106.5l190 -234v-51h-178l-135 168q-104 -90 -208.5 -138t-227.5 -48q-82 0 -157 26.5t-133 78.5t-93 129t-35 175zM266 403q0 -55 17.5 -103t51.5 -84t81 -56.5t108 -20.5q80 0 156 38t162 114l-342 422q-47 -29 -89 -59.5t-75 -67.5 t-51.5 -82t-18.5 -101zM428 1163q0 -72 33 -128t92 -128q35 20 68.5 47t60.5 57.5t43 68.5t16 85q0 63 -43 107.5t-110 44.5q-76 0 -118 -44t-42 -110z" />
<glyph unicode="'" horiz-adv-x="479" d="M133 1489h213l-47 -596h-119z" />
<glyph unicode="(" horiz-adv-x="563" d="M145 612q0 256 65.5 501t170.5 454l135 -49q-47 -102 -87 -216t-67.5 -231t-43 -232.5t-15.5 -220.5q0 -104 13.5 -219.5t40 -233.5t65.5 -236.5t92 -231.5l-135 -55q-123 246 -178.5 496.5t-55.5 473.5z" />
<glyph unicode=")" horiz-adv-x="563" d="M47 -309q47 100 87 214.5t67.5 231.5t43 232.5t15.5 220.5q0 104 -13.5 219t-40 233.5t-66.5 237.5t-91 231l135 56q123 -246 178.5 -497t55.5 -474q0 -256 -65.5 -501t-170.5 -453z" />
<glyph unicode="*" horiz-adv-x="798" d="M41 995l225 125l-223 125l57 101l224 -134l-5 263h117l-4 -258l219 131l60 -101l-228 -127l230 -127l-60 -102l-221 133l4 -256h-117l5 260l-226 -135z" />
<glyph unicode="+" horiz-adv-x="1392" d="M113 500v164h497v491h172v-491h498v-164h-498v-500h-172v500h-497z" />
<glyph unicode="," horiz-adv-x="491" d="M37 -270q63 55 103 112.5t40 110.5q0 31 -7 53.5t-15 43t-15.5 42t-7.5 45.5q0 45 32 79t85 34q51 0 91 -42t40 -136q0 -113 -71.5 -222.5t-200.5 -205.5z" />
<glyph unicode="-" horiz-adv-x="704" d="M94 494v145h518v-145h-518z" />
<glyph unicode="." horiz-adv-x="483" d="M106 117q0 55 40 95t96 40q55 0 95 -40t40 -95t-40 -95t-95 -40t-95.5 39.5t-40.5 95.5z" />
<glyph unicode="/" horiz-adv-x="901" d="M115 0l635 1452h163l-634 -1452h-164z" />
<glyph unicode="0" d="M86 715q0 162 32 301t96.5 240.5t159.5 159t224 57.5q133 0 228.5 -55.5t156.5 -153t90 -231.5t29 -294q0 -164 -33 -303t-97.5 -241.5t-160.5 -161t-225 -58.5q-131 0 -225.5 55.5t-156 155t-90 234.5t-28.5 295zM276 735q0 -133 16.5 -243.5t54.5 -189.5t98.5 -123 t150.5 -44q84 0 143.5 47t98.5 126t56 183.5t17 219.5q0 135 -16 246.5t-54 191.5t-100.5 123t-152.5 43q-80 0 -139.5 -45t-97.5 -124t-56.5 -184.5t-18.5 -226.5z" />
<glyph unicode="1" d="M188 0v172h328v1108h-287v172h463v-1280h307v-172h-811z" />
<glyph unicode="2" d="M109 958q-6 242 112.5 380.5t347.5 138.5q123 0 211 -37t145.5 -98.5t84 -139.5t26.5 -160q0 -100 -31.5 -187t-85 -166t-121 -150.5t-141.5 -139.5l-254 -233h676v-166h-954v117l377 364q88 86 152.5 158t105.5 136.5t61.5 126t20.5 126.5q0 123 -67.5 205t-213.5 82 q-84 0 -137 -33t-84 -85t-40 -114.5t-3 -124.5h-188z" />
<glyph unicode="3" d="M129 397h182q4 -53 24.5 -101t55.5 -83t83 -55.5t106 -20.5q70 0 123 21.5t89.5 58.5t55 86t18.5 105q0 55 -20.5 105t-59 88t-94 60.5t-125.5 22.5h-73v160h67q125 0 188.5 70.5t63.5 168.5q0 49 -17.5 92.5t-49 75t-74.5 50t-94 18.5q-55 0 -100.5 -18.5t-77 -51 t-48 -78t-12.5 -96.5h-174q-2 82 24.5 155t81 128t133 87t179.5 32q98 0 176 -32t132 -84t83 -121t29 -140q0 -135 -61.5 -215t-154.5 -113q49 -8 97.5 -39t87.5 -78t62.5 -105t23.5 -122q0 -90 -31 -171t-92.5 -144.5t-152.5 -100.5t-214 -37q-96 0 -176 32t-138 88.5 t-91 133t-35 168.5z" />
<glyph unicode="4" d="M68 348v137l614 967h215v-942h221v-162h-221v-348h-176v348h-653zM264 510h457v727l-76 -123z" />
<glyph unicode="5" d="M129 133l107 135q57 -63 142 -98t169 -35q80 0 140.5 25.5t101 69.5t62 103.5t21.5 127.5q0 66 -20.5 125t-63.5 103t-110.5 69.5t-161.5 25.5q-72 0 -153.5 -17t-145.5 -40l51 725h670v-164h-520l-27 -373q27 4 71 11.5t79 7.5q129 0 225 -36t160.5 -98.5t97.5 -145.5 t33 -177q0 -100 -34 -190t-100.5 -159t-163.5 -110t-222 -41q-123 0 -227.5 40t-180.5 116z" />
<glyph unicode="6" d="M121 436q0 139 61.5 297t196.5 357q70 104 143.5 200t128.5 162h232q-61 -66 -129 -147.5t-131 -161.5q-66 -84 -125.5 -173t-96.5 -149q51 29 111.5 45.5t120.5 16.5q88 0 167 -33t137 -90.5t93 -138t35 -175.5q0 -102 -36 -187t-99.5 -148.5t-150.5 -98.5t-189 -35 q-115 0 -202 39t-146.5 103.5t-90 147.5t-30.5 169zM305 434q0 -61 22.5 -116.5t62.5 -95.5t93.5 -63.5t116.5 -23.5q57 0 108.5 22.5t89.5 63.5t60.5 98.5t22.5 124.5q0 59 -22.5 111.5t-60.5 92.5t-91.5 62.5t-114.5 22.5t-113.5 -22.5t-90.5 -62.5t-60.5 -94t-22.5 -120z " />
<glyph unicode="7" d="M127 1288v164h932v-129l-643 -1323h-205l643 1288h-727z" />
<glyph unicode="8" d="M125 403q0 135 66.5 223.5t187.5 135.5q-100 39 -158.5 123t-58.5 194q0 76 28.5 147.5t84 127t137.5 89.5t186 34q88 0 167 -29t138.5 -81t93 -122.5t33.5 -157.5q0 -121 -59.5 -198.5t-161.5 -124.5q111 -35 182.5 -123t71.5 -231q0 -90 -37 -169t-100.5 -137.5 t-149.5 -92.5t-186 -34q-96 0 -180 31t-147.5 86.5t-100.5 134t-37 174.5zM303 408q0 -59 23.5 -109.5t63.5 -87.5t92.5 -58.5t111.5 -21.5q66 0 120 21.5t92 58.5t59.5 87t21.5 110q0 57 -22.5 107t-61.5 87t-92.5 58.5t-112.5 21.5q-61 0 -114.5 -21.5t-93.5 -58.5 t-63.5 -87t-23.5 -107zM334 1087q0 -49 17.5 -94t51 -80.5t82 -56t109.5 -20.5q59 0 108.5 19t84 52t53 78t18.5 94t-17.5 93.5t-51 78t-83 54t-112.5 20.5q-123 0 -191.5 -69.5t-68.5 -168.5z" />
<glyph unicode="9" d="M119 1004q0 100 35.5 186t99 149.5t151 98.5t189.5 35q113 0 202 -39t148.5 -102.5t91 -146.5t31.5 -169q0 -80 -16.5 -155t-50 -153.5t-83 -163.5t-116.5 -184q-70 -104 -141.5 -200.5t-127.5 -161.5h-237q59 66 126.5 147.5t131.5 161.5q68 84 130 173t99 149 q-51 -29 -111.5 -45.5t-119.5 -16.5q-88 0 -167 33t-137.5 90.5t-93 137t-34.5 176.5zM303 1006q0 -59 22.5 -111.5t61.5 -92.5t91.5 -62.5t113.5 -22.5t113.5 22.5t90.5 62.5t60.5 94t22.5 120q0 61 -22.5 116.5t-61.5 95.5t-93.5 63.5t-115.5 23.5q-57 0 -108.5 -22.5 t-90.5 -63.5t-61.5 -98.5t-22.5 -124.5z" />
<glyph unicode=":" horiz-adv-x="716" d="M223 117q0 55 40 95t95 40t95.5 -40t40.5 -95t-40.5 -95t-95.5 -40t-95 39.5t-40 95.5zM223 645q0 55 40 95t95 40t95.5 -40t40.5 -95t-40.5 -95t-95.5 -40t-95 40t-40 95z" />
<glyph unicode=";" horiz-adv-x="716" d="M139 -270q63 55 103.5 112.5t40.5 110.5q0 31 -7.5 53.5t-15.5 43t-15 42t-7 45.5q0 45 31.5 79t84.5 34q51 0 91 -42t40 -136q0 -113 -71.5 -222.5t-200.5 -205.5zM223 645q0 55 40 95t95 40t95.5 -40t40.5 -95t-40.5 -95t-95.5 -40t-95 40t-40 95z" />
<glyph unicode="&#x3c;" horiz-adv-x="1392" d="M113 489v177l1147 489v-176l-947 -395l947 -402v-182z" />
<glyph unicode="=" horiz-adv-x="1392" d="M133 301v164h1127v-164h-1127zM133 705v163h1127v-163h-1127z" />
<glyph unicode="&#x3e;" horiz-adv-x="1392" d="M113 0v182l946 402l-946 395v176l1147 -489v-177z" />
<glyph unicode="?" horiz-adv-x="1042" d="M106 1038q-6 88 25 165t88 135.5t137 92t172 33.5q90 0 166 -29.5t131.5 -83t86 -126t30.5 -156.5t-30.5 -153.5t-80 -121t-113 -82t-128.5 -36.5v-299h-170v434h94q117 0 187.5 70.5t70.5 181.5q0 53 -19.5 99t-53 81t-80 55.5t-97.5 20.5t-97 -21.5t-81 -58.5 t-53.5 -88t-14.5 -113h-170zM373 109q0 55 40 95t95 40t95 -40t40 -95t-40 -95.5t-95 -40.5t-95 40t-40 96z" />
<glyph unicode="@" horiz-adv-x="2158" d="M119 559q0 207 77.5 388t213 316.5t315.5 214t387 78.5q223 0 393 -73.5t285 -191t174 -263t59 -289.5q0 -131 -37.5 -243.5t-111.5 -195.5t-184.5 -130t-257.5 -47h-132v129q-41 -68 -118.5 -108t-175.5 -40q-94 0 -173 35t-136.5 96.5t-89.5 145.5t-32 182 q0 100 33 187.5t90.5 151t136 100t171.5 36.5q92 0 168.5 -36.5t125.5 -106.5v125h170v-744q180 0 276.5 118t96.5 345q0 109 -43 224.5t-132 212t-227 158t-327 61.5q-170 0 -317.5 -65.5t-257 -179.5t-173 -266.5t-63.5 -324.5t63.5 -324.5t173 -266t257 -179t317.5 -65.5 q141 0 279.5 45t261.5 127l78 -152q-129 -86 -295 -134t-326 -48q-207 0 -387 78.5t-315.5 214t-213 316.5t-77.5 388zM750 571q0 -66 20.5 -124t57 -101t88 -67.5t112.5 -24.5q66 0 118 23.5t89 65.5t56.5 100.5t19.5 127.5q0 145 -78 231.5t-205 86.5q-61 0 -112.5 -24.5 t-88 -67.5t-57 -101.5t-20.5 -124.5z" />
<glyph unicode="A" horiz-adv-x="1347" d="M31 0l569 1452h154l563 -1452h-201l-145 389h-600l-146 -389h-194zM430 545h479l-133 352q-10 27 -28.5 75t-34.5 95q-20 55 -43 119q-20 -63 -41 -117q-16 -47 -35 -94t-29 -76z" />
<glyph unicode="B" horiz-adv-x="1132" d="M174 0v1452h361q94 0 170.5 -24.5t132 -70.5t85 -111.5t29.5 -149.5q0 -117 -56 -199t-148 -131q51 -14 99 -45t85 -75t58.5 -103.5t21.5 -130.5q0 -86 -30 -161t-91.5 -131.5t-157.5 -88t-231 -31.5h-328zM358 162h168q156 0 228.5 62.5t72.5 181.5t-76.5 190.5 t-252.5 71.5h-140v-506zM358 825h134q51 0 100 15.5t87 46.5t60.5 76t22.5 106q0 98 -59.5 160.5t-188.5 62.5h-156v-467z" />
<glyph unicode="C" horiz-adv-x="1331" d="M98 721q0 170 56.5 308t156 235.5t233.5 150.5t290 53q106 0 199 -20.5t175 -58.5v-199q-72 45 -172 76.5t-215 31.5q-111 0 -206 -43t-165.5 -118.5t-110.5 -180t-40 -229.5q0 -123 41 -227.5t113.5 -180t172 -118.5t214.5 -43q106 0 207.5 25.5t179.5 78.5v-190 q-86 -41 -187.5 -63.5t-214.5 -22.5q-160 0 -293 56t-230 154.5t-150.5 232.5t-53.5 292z" />
<glyph unicode="D" horiz-adv-x="1368" d="M174 0v1452h348q168 0 306.5 -48t234.5 -141.5t149.5 -228.5t53.5 -307q0 -131 -37 -261t-127 -233.5t-246 -168t-391 -64.5h-291zM358 166h125q170 0 283 42t180.5 116.5t96 175t28.5 217.5q0 123 -31.5 228.5t-101.5 181t-177.5 118.5t-256.5 43h-146v-1122z" />
<glyph unicode="E" horiz-adv-x="1087" d="M174 0v1452h758v-172h-574v-444h551v-164h-551v-502h580v-170h-764z" />
<glyph unicode="F" horiz-adv-x="999" d="M174 0v1452h719v-174h-535v-455h519v-166h-519v-657h-184z" />
<glyph unicode="G" horiz-adv-x="1593" d="M102 727q0 150 59.5 286t162 239.5t240.5 164t298 60.5q190 0 339 -73t265 -212l-143 -125q-92 125 -208 182.5t-263 57.5q-123 0 -225.5 -46.5t-176 -125t-114.5 -183t-41 -221.5q0 -123 41 -228.5t113.5 -184t173 -123.5t219.5 -45q111 0 199.5 34.5t153.5 94 t101.5 138.5t42.5 165h-397v174h596v-62q0 -145 -47 -276t-137 -229.5t-220 -156t-296 -57.5q-162 0 -297 59.5t-232.5 161t-152 238.5t-54.5 293z" />
<glyph unicode="H" horiz-adv-x="1429" d="M174 0v1452h184v-586h713v586h184v-1452h-184v696h-713v-696h-184z" />
<glyph unicode="I" horiz-adv-x="532" d="M174 0v1452h184v-1452h-184z" />
<glyph unicode="J" horiz-adv-x="790" d="M8 127l123 131q29 -47 74 -79t98 -32q59 0 94 51.5t35 135.5v1118h184v-1104q0 -78 -17 -146.5t-55 -118.5t-101.5 -79t-155.5 -29q-39 0 -78 11.5t-76 32t-68.5 48t-56.5 60.5z" />
<glyph unicode="K" horiz-adv-x="1214" d="M174 0v1452h184v-641l535 641h221l-561 -666l600 -786h-242l-553 741v-741h-184z" />
<glyph unicode="L" horiz-adv-x="921" d="M174 0v1452h184v-1282h476v-170h-660z" />
<glyph unicode="M" horiz-adv-x="1820" d="M84 0l213 1452h192l318 -891q14 -39 32.5 -96t34.5 -111q20 -63 39 -131q20 63 39 123q16 51 32.5 102.5t29.5 86.5l332 917h178l200 -1452h-184l-100 770q-12 94 -22.5 201.5t-18.5 199.5q-27 -94 -56.5 -185t-58.5 -171l-301 -815h-160l-295 819q-29 78 -57.5 168 t-56.5 184q-8 -92 -19.5 -197.5t-25.5 -203.5l-103 -770h-182z" />
<glyph unicode="N" horiz-adv-x="1607" d="M174 0v1452h174l920 -1171v1171h166v-1452h-174l-918 1171v-1171h-168z" />
<glyph unicode="O" horiz-adv-x="1722" d="M102 723q0 152 60.5 289t165 240.5t243 164t293.5 60.5q160 0 298 -58.5t239.5 -160t160 -237.5t58.5 -292q0 -158 -60.5 -295t-165 -238.5t-242.5 -161t-294 -59.5t-293 58.5t-240.5 159t-163 236.5t-59.5 294zM295 729q0 -117 45 -222.5t122 -185t180 -125.5t220 -46 q123 0 225.5 44t178 120.5t117.5 182t42 226.5q0 123 -41 229.5t-115.5 185.5t-179 124t-229.5 45q-121 0 -224.5 -47.5t-179 -126t-118.5 -183t-43 -221.5z" />
<glyph unicode="P" horiz-adv-x="999" d="M174 0v1452h318q215 0 336.5 -102.5t121.5 -307.5q0 -90 -33.5 -167.5t-98 -135t-157 -90.5t-208.5 -33h-95v-616h-184zM358 776h103q141 0 220 71t79 183q0 123 -66.5 192.5t-226.5 69.5h-109v-516z" />
<glyph unicode="Q" horiz-adv-x="1722" d="M102 723q0 152 60.5 289t165 240.5t243 164t293.5 60.5q160 0 298 -58.5t239.5 -160t160 -237.5t58.5 -292q0 -94 -21.5 -177t-57.5 -154.5t-84 -132t-101 -105.5l192 -240l-174 -61l-162 204q-72 -39 -158.5 -63.5t-195.5 -24.5q-156 0 -293 58.5t-240.5 159t-163 236.5 t-59.5 294zM295 729q0 -117 44 -222.5t120 -185t178 -125.5t219 -46q61 0 123.5 12t122.5 39l-234 293l174 61l205 -256q74 72 126 176.5t52 247.5q0 123 -41 229.5t-115.5 185.5t-179 124t-229.5 45q-121 0 -224.5 -47.5t-179 -126t-118.5 -183t-43 -221.5z" />
<glyph unicode="R" horiz-adv-x="1087" d="M174 0v1452h361q117 0 201.5 -28.5t142 -80t85 -122t27.5 -154.5q0 -160 -99 -267.5t-294 -131.5l473 -668h-227l-438 651h-48v-651h-184zM358 811h111q180 0 256 63.5t76 176.5q0 51 -13.5 96t-46 76.5t-89 50t-142.5 18.5h-152v-481z" />
<glyph unicode="S" horiz-adv-x="1026" d="M74 270l159 82q29 -90 97.5 -151.5t173.5 -61.5q55 0 99 18.5t74 50.5t45 75t15 90q0 86 -46 139t-113.5 94t-148.5 78t-148.5 88t-113.5 126t-46 192q0 78 29.5 148.5t84 122.5t128 83t159.5 31q135 0 231.5 -60.5t155.5 -177.5l-147 -84q-35 74 -98.5 118t-143.5 44 q-92 0 -152.5 -59.5t-60.5 -155.5q0 -82 46 -135.5t115 -94.5t149.5 -78.5t149.5 -89t115 -125t46 -188.5q0 -86 -32 -161.5t-88 -131t-136 -87.5t-176 -32q-154 0 -264.5 82t-157.5 211z" />
<glyph unicode="T" horiz-adv-x="935" d="M18 1284v168h902v-168h-359v-1284h-184v1284h-359z" />
<glyph unicode="U" horiz-adv-x="1429" d="M174 545v907h184v-885q0 -127 30 -209t80 -130t113.5 -66.5t131.5 -18.5q55 0 119.5 13.5t118 56.5t89 122t35.5 210v907h180v-887q0 -170 -46 -282.5t-121.5 -179t-174 -94t-202.5 -27.5q-121 0 -219.5 32.5t-169 102t-109.5 175t-39 253.5z" />
<glyph unicode="V" horiz-adv-x="1349" d="M31 1452h200l340 -897q10 -29 27.5 -77t34.5 -95q20 -55 43 -117q20 59 41 115q16 47 34.5 95t28.5 77l342 899h195l-569 -1452h-154z" />
<glyph unicode="W" horiz-adv-x="2134" d="M43 1452h199l313 -920q18 -53 35.5 -117.5t34.5 -129.5q16 66 32.5 127t36.5 120l295 920h162l295 -920q18 -59 35.5 -120.5t34.5 -124.5q16 63 33.5 126.5t35.5 118.5l313 920h193l-506 -1452h-153l-295 911q-20 59 -37 125t-33 131q-16 -70 -34.5 -137t-35.5 -121 l-295 -909h-153z" />
<glyph unicode="X" horiz-adv-x="1214" d="M68 0l432 750l-408 702h201l311 -557l303 557h207l-414 -702l447 -750h-209l-338 602l-332 -602h-200z" />
<glyph unicode="Y" horiz-adv-x="1175" d="M31 1452h209l354 -629l352 629h199l-467 -801v-651h-184v651z" />
<glyph unicode="Z" horiz-adv-x="1091" d="M10 0l744 1290h-631v162h921l-735 -1282h746v-170h-1045z" />
<glyph unicode="[" horiz-adv-x="634" d="M205 -348v1902h352v-133h-195v-1634h195v-135h-352z" />
<glyph unicode="\" horiz-adv-x="749" d="M63 1452h164l457 -1452h-164z" />
<glyph unicode="]" horiz-adv-x="634" d="M78 -213h196v1634h-196v133h354v-1902h-354v135z" />
<glyph unicode="^" horiz-adv-x="1519" d="M301 690l387 762h160l371 -762h-199l-256 537l-264 -537h-199z" />
<glyph unicode="_" horiz-adv-x="1044" d="M-10 -281h1065v-163h-1065v163z" />
<glyph unicode="`" horiz-adv-x="696" d="M131 1325l135 109l258 -275l-94 -76z" />
<glyph unicode="a" horiz-adv-x="1163" d="M92 440q0 100 35 187.5t95.5 151t141 100t173.5 36.5q92 0 170.5 -36.5t132.5 -106.5v125h170v-897h-170v129q-45 -68 -125 -107.5t-178 -39.5q-94 0 -175 34.5t-141.5 96t-94.5 145.5t-34 182zM266 449q0 -66 22.5 -124.5t62.5 -101.5t93.5 -67.5t114.5 -24.5 q66 0 119 23.5t92 65.5t59.5 100.5t20.5 128.5q0 145 -82 231t-209 86q-61 0 -114.5 -24.5t-93.5 -67.5t-62.5 -101.5t-22.5 -123.5z" />
<glyph unicode="b" horiz-adv-x="1163" d="M154 0v1534h170v-766q45 68 124.5 107.5t178.5 39.5q94 0 175 -34.5t140 -96t94 -145.5t35 -182q0 -100 -35 -187.5t-95 -151t-141 -100t-173 -36.5t-171 36.5t-132 106.5v-125h-170zM313 449q0 -145 82 -231.5t209 -86.5q61 0 114.5 24.5t93.5 67.5t62.5 101.5 t22.5 124.5t-22.5 124t-62.5 101t-93 67.5t-115 24.5q-66 0 -119 -23.5t-92 -65.5t-59.5 -100.5t-20.5 -127.5z" />
<glyph unicode="c" horiz-adv-x="909" d="M92 440q0 98 37 184.5t101.5 151t153.5 101t194 36.5q63 0 123.5 -13t113.5 -36v-172q-53 29 -112.5 46.5t-124.5 17.5q-68 0 -123.5 -24.5t-95.5 -65.5t-61.5 -97.5t-21.5 -117.5t21.5 -116.5t61.5 -97.5t95.5 -67t123.5 -25q57 0 120.5 14.5t118.5 47.5v-174 q-53 -25 -119.5 -38t-132.5 -13q-117 0 -206 40.5t-148 105.5t-89 146.5t-30 165.5z" />
<glyph unicode="d" horiz-adv-x="1163" d="M92 440q0 100 35 187.5t95.5 151t141 100t173.5 36.5q92 0 171.5 -37.5t131.5 -105.5v762h170v-1534h-170v129q-45 -68 -125 -107.5t-178 -39.5q-94 0 -175 34.5t-141.5 96t-94.5 145.5t-34 182zM266 449q0 -66 22.5 -124.5t62.5 -101.5t93.5 -67.5t114.5 -24.5 q66 0 119 23.5t91 65.5t58.5 100.5t20.5 128.5q0 145 -81 231t-208 86q-61 0 -114.5 -24.5t-93.5 -67.5t-62.5 -101.5t-22.5 -123.5z" />
<glyph unicode="e" horiz-adv-x="1048" d="M92 446q0 109 36 196t95.5 147.5t139 93t167.5 32.5q94 0 172 -31.5t134.5 -91t88 -142.5t31.5 -183q0 -27 -1 -41t-1 -29h-684q2 -57 24.5 -106t60.5 -85t88.5 -56.5t109.5 -20.5q86 0 155.5 38t116.5 99l117 -92q-80 -98 -178 -145t-227 -47q-98 0 -180.5 32.5 t-140.5 93t-91 146.5t-33 192zM272 535h506q0 49 -17.5 93t-50 76.5t-79.5 52t-107 19.5q-55 0 -99 -20.5t-77 -54t-52.5 -77.5t-23.5 -89z" />
<glyph unicode="f" horiz-adv-x="622" d="M43 754v143h133v334q0 150 63.5 231.5t219.5 81.5q35 0 70.5 -4t58.5 -8v-154q-25 4 -55.5 8.5t-55.5 4.5q-74 0 -102.5 -41t-28.5 -131v-322h234v-143h-234v-754h-170v754h-133z" />
<glyph unicode="g" horiz-adv-x="1148" d="M92 449q0 98 34 184t93.5 148.5t139 98t169.5 35.5q92 0 169 -36.5t128 -104.5v123h170v-858q0 -113 -22.5 -201t-75.5 -149.5t-139 -93t-213 -31.5q-193 0 -296.5 93t-115.5 253h160q8 -86 70.5 -148.5t187.5 -62.5q70 0 122 15.5t86 51t50 95t16 147.5v135 q-43 -66 -121.5 -104.5t-175.5 -38.5q-92 0 -172 35t-138 94t-92 141t-34 179zM264 457q0 -66 22.5 -122t61.5 -98t91.5 -67t111.5 -25q63 0 115.5 24t90.5 64.5t58.5 98t20.5 125.5q0 72 -21.5 129t-59.5 98t-90.5 62.5t-113.5 21.5q-59 0 -111.5 -24.5t-91.5 -66.5 t-61.5 -98.5t-22.5 -121.5z" />
<glyph unicode="h" horiz-adv-x="1079" d="M154 0v1534h170v-756q41 57 117.5 96t168.5 39q147 0 231.5 -84t84.5 -266v-563h-170v539q0 117 -47 172t-144 55q-49 0 -93 -18.5t-77 -52t-52 -80t-19 -101.5v-514h-170z" />
<glyph unicode="i" horiz-adv-x="477" d="M115 1268q0 51 35.5 87t87.5 36q51 0 86.5 -36t35.5 -87t-35.5 -87t-86.5 -36t-87 36t-36 87zM154 0v897h170v-897h-170z" />
<glyph unicode="j" horiz-adv-x="477" d="M115 1268q0 51 35.5 87t87.5 36q51 0 86.5 -36t35.5 -87t-35.5 -87t-86.5 -36t-87 36t-36 87zM154 -412v1309h170v-1309h-170z" />
<glyph unicode="k" horiz-adv-x="913" d="M154 0v1534h170v-1016l333 379h224l-392 -408l414 -489h-225l-354 436v-436h-170z" />
<glyph unicode="l" horiz-adv-x="477" d="M154 0v1534h170v-1534h-170z" />
<glyph unicode="m" horiz-adv-x="1570" d="M154 0v897h157v-121q37 59 107.5 98t156.5 39q98 0 159 -37.5t95 -101.5q47 59 121 99t172 40q135 0 215 -84t80 -266v-563h-168v539q0 117 -40 172t-128 55q-92 0 -151.5 -68.5t-59.5 -177.5v-520h-170v541q0 117 -38.5 171t-126.5 54q-47 0 -85 -18.5t-67 -52t-44 -80 t-15 -101.5v-514h-170z" />
<glyph unicode="n" horiz-adv-x="1079" d="M154 0v897h163v-119q41 55 112 95t169 40q156 0 242 -84t86 -266v-563h-170v539q0 117 -47 172t-144 55q-49 0 -93 -18.5t-77 -52t-52 -80t-19 -101.5v-514h-170z" />
<glyph unicode="o" horiz-adv-x="1122" d="M92 442q0 96 38 182.5t102.5 151t150.5 101t182 36.5q98 0 183.5 -34.5t147.5 -97t98 -147.5t36 -183t-37 -184.5t-101.5 -150t-150.5 -100t-184 -36.5t-183 34.5t-147.5 97t-98.5 147.5t-36 183zM266 453q0 -66 23.5 -123.5t63.5 -99.5t94.5 -66.5t117.5 -24.5 q61 0 114.5 23.5t92.5 65.5t61.5 97.5t22.5 118.5q0 66 -23.5 123.5t-63.5 99.5t-94 66.5t-118 24.5q-61 0 -114.5 -23.5t-92.5 -65.5t-61.5 -97.5t-22.5 -118.5z" />
<glyph unicode="p" horiz-adv-x="1159" d="M154 -412v1309h170v-129q45 68 124.5 107.5t178.5 39.5q94 0 175 -34.5t140 -96t92 -145.5t33 -182q0 -102 -34 -189.5t-93 -151t-139 -99t-174 -35.5q-92 0 -172 37.5t-131 105.5v-537h-170zM315 449q0 -72 21.5 -130.5t60.5 -100.5t92.5 -64.5t114.5 -22.5t114.5 24.5 t91.5 66.5t59.5 100.5t21.5 126.5q0 66 -22.5 124t-60.5 101t-90 67.5t-114 24.5q-66 0 -119 -23.5t-91 -65.5t-58.5 -100.5t-20.5 -127.5z" />
<glyph unicode="q" horiz-adv-x="1161" d="M92 440q0 100 35 187.5t94.5 151t140 100t173.5 36.5q92 0 170.5 -36.5t132.5 -106.5v125h170v-1309h-170v541q-45 -68 -125 -107.5t-178 -39.5q-96 0 -177.5 34.5t-139.5 96t-92 145.5t-34 182zM268 449q0 -68 22.5 -125.5t60.5 -100.5t91.5 -67.5t114.5 -24.5 q66 0 119 23.5t92 65.5t59.5 100.5t20.5 128.5q0 145 -82 231t-209 86q-61 0 -113.5 -24.5t-91.5 -67.5t-61.5 -101.5t-22.5 -123.5z" />
<glyph unicode="r" horiz-adv-x="722" d="M154 0v897h163v-139q41 74 105.5 115.5t157.5 41.5q29 0 59.5 -4t52.5 -10l-18 -178q-61 31 -142 31q-88 0 -148 -73t-60 -202v-479h-170z" />
<glyph unicode="s" horiz-adv-x="786" d="M84 127l127 100q29 -43 72 -69.5t98 -26.5q53 0 93 26.5t40 86.5q0 45 -29.5 71.5t-73.5 46t-96.5 39t-96.5 49t-73.5 77.5t-29.5 126q0 51 20.5 99.5t57 84t89 57t117.5 21.5q98 0 162 -35.5t109 -107.5l-131 -78q-23 37 -60 58.5t-84 21.5q-51 0 -82.5 -30.5 t-31.5 -75.5q0 -47 29.5 -75t74.5 -48.5t98.5 -40t98.5 -49t74.5 -77.5t29.5 -124q0 -55 -20.5 -104.5t-60.5 -86t-97 -59t-129 -22.5q-100 0 -172 36.5t-123 108.5z" />
<glyph unicode="t" horiz-adv-x="534" d="M20 752v145h142v332h170v-332h182v-145h-182v-752h-170v752h-142z" />
<glyph unicode="u" horiz-adv-x="1085" d="M154 399v498h170v-477q0 -59 8 -111.5t31.5 -91.5t67.5 -62.5t116 -23.5q70 0 112.5 25.5t65.5 66.5t30 91.5t7 99.5v483h170v-471q0 -86 -16.5 -166t-60.5 -142.5t-121 -99t-195 -36.5q-117 0 -192 36.5t-118 95t-59 133.5t-16 152z" />
<glyph unicode="v" horiz-adv-x="968" d="M14 897h195l184 -442q25 -59 49.5 -127t44.5 -127q23 59 48.5 126.5t46.5 114.5l188 455h184l-391 -897h-151z" />
<glyph unicode="w" horiz-adv-x="1423" d="M25 897h188l170 -483q16 -47 31.5 -101.5t25.5 -101.5q8 47 21.5 100.5t25.5 94.5l150 491h154l149 -483q16 -53 30.5 -105.5t24.5 -97.5q4 23 14.5 55.5t20.5 63.5q10 37 23 76l166 491h180l-332 -897h-154l-153 492q-10 35 -24.5 89t-26.5 107q-12 -53 -26.5 -107.5 t-25.5 -88.5l-147 -492h-154z" />
<glyph unicode="x" horiz-adv-x="921" d="M10 0l355 459l-332 438h211q63 -86 116.5 -159.5t102.5 -145.5q51 72 109.5 150.5t115.5 154.5h201l-330 -438l352 -459h-215q-27 37 -58.5 81t-62 89t-60.5 88t-54 78q-47 -72 -114.5 -162t-131.5 -174h-205z" />
<glyph unicode="y" horiz-adv-x="964" d="M12 897h201l158 -322q31 -63 67.5 -138t67.5 -142q29 63 55.5 124.5t54.5 125.5l160 352h178l-620 -1309h-172l252 523z" />
<glyph unicode="z" horiz-adv-x="919" d="M45 0l514 748h-457v149h772l-518 -745h490v-152h-801z" />
<glyph unicode="{" horiz-adv-x="749" d="M104 551v133q61 0 98.5 16.5t59 50t28.5 84t7 119.5v273q0 180 86 253.5t248 73.5h47v-133q-55 0 -96 -9t-67 -33.5t-39 -67.5t-13 -109v-203q0 -98 -7 -162.5t-25.5 -107.5t-51.5 -69.5t-84 -45.5q51 -18 85 -45.5t52.5 -77t25.5 -123t7 -184.5v-159q0 -72 11 -117 t36 -73t65.5 -38t100.5 -10v-135h-76q-76 0 -133 15.5t-95 59.5t-57.5 121.5t-19.5 202.5v205q0 78 -7 133t-28.5 91t-59.5 53.5t-98 17.5z" />
<glyph unicode="|" horiz-adv-x="491" d="M164 -412v2052h166v-2052h-166z" />
<glyph unicode="}" horiz-adv-x="749" d="M72 -213q59 0 100 10t65.5 38t36 73t11.5 117v159q0 111 7 184.5t25.5 123t51 77t86.5 45.5q-51 18 -84 45t-51.5 70t-25.5 107.5t-7 162.5v203q0 66 -13.5 109t-39 67.5t-66.5 33.5t-96 9v133h47q162 0 248 -73.5t86 -253.5v-273q0 -70 7 -120t28.5 -83.5t58.5 -50 t98 -16.5v-133q-59 0 -97 -17.5t-59.5 -53.5t-28.5 -91t-7 -133v-205q0 -125 -19.5 -202.5t-58.5 -121.5t-95.5 -59.5t-132.5 -15.5h-75v135z" />
<glyph unicode="~" horiz-adv-x="1519" d="M258 610q49 70 122 115t165 45q57 0 113.5 -22.5t111.5 -50t108.5 -50t102.5 -22.5q57 0 113.5 31.5t95.5 80.5l78 -147q-59 -66 -133 -107t-160 -41q-59 0 -115.5 22.5t-110 50.5t-104.5 50.5t-102 22.5q-66 0 -116 -37t-85 -90z" />
<glyph unicode="&#xa2;" d="M205 719q0 90 31.5 171t88 144.5t134.5 103.5t172 50v264h106v-262q102 -10 191 -47v-172q-86 49 -191 61v-606q47 4 97.5 18.5t95.5 40.5v-174q-41 -18 -90 -31.5t-103 -17.5v-262h-106v262q-104 8 -184 50t-134.5 106.5t-81 142.5t-26.5 158zM389 729 q0 -111 65.5 -194.5t176.5 -104.5v598q-111 -20 -176.5 -104t-65.5 -195z" />
<glyph unicode="&#xa3;" d="M131 659v146h123q-29 63 -49.5 125.5t-20.5 122.5q0 84 29 159.5t84 134t134 92.5t179 34q180 0 284.5 -88.5t141.5 -231.5l-153 -57q-29 115 -105 172t-174 57q-111 0 -176.5 -70.5t-65.5 -193.5q0 -70 22 -132.5t50 -123.5h379v-146h-311q23 -53 36 -107t13 -116 q0 -53 -25.5 -114.5t-72.5 -106.5q51 0 90 -11t75.5 -24.5t77.5 -25t101 -11.5q72 0 124 18.5t95 55.5l69 -139q-119 -96 -294 -96q-51 0 -96.5 12t-89.5 27.5t-87 27.5t-90 12q-57 0 -113.5 -23.5t-85.5 -51.5l-77 127q45 29 87 60.5t73.5 68.5t50 82t18.5 104 q0 57 -17.5 114.5t-44.5 116.5h-188z" />
<glyph unicode="&#xa5;" d="M45 1452h209l346 -614l344 614h199l-459 -786v-2h334v-146h-334v-180h334v-145h-334v-193h-184v193h-334v145h334v180h-334v146h334v2z" />
<glyph unicode="&#xa7;" horiz-adv-x="1083" d="M127 614q0 55 16.5 111.5t52 105t89 82t127.5 45.5q-121 57 -168 126t-47 173q0 63 25.5 119t71.5 96.5t110.5 65.5t142.5 25q166 0 260 -87t84 -257h-174q6 86 -36 140t-142 54q-66 0 -119 -39t-53 -119q0 -57 42 -108t134 -94l157 -74q117 -53 179.5 -150.5 t62.5 -214.5q0 -129 -70.5 -218t-195.5 -128q115 -49 159 -122.5t44 -165.5q0 -78 -27 -138.5t-74 -101.5t-111.5 -62.5t-140.5 -21.5q-100 0 -167.5 28.5t-109.5 74.5t-60.5 106.5t-18.5 126.5h176q0 -86 50 -135.5t136 -49.5q92 0 133.5 50.5t41.5 115.5q0 66 -38 115 t-130 88l-123 51q-129 53 -209 145.5t-80 241.5zM303 614q0 -47 18.5 -89t50 -73.5t74 -50t89.5 -18.5t89 18.5t73.5 50t50 73.5t18.5 89t-18.5 89t-50 74t-73.5 50.5t-89 18.5t-89.5 -18.5t-74 -50.5t-50 -73.5t-18.5 -89.5z" />
<glyph unicode="&#xa8;" horiz-adv-x="696" d="M49 1268q0 49 35 83.5t84 34.5t84 -34.5t35 -83.5t-35 -84t-84 -35t-84 35t-35 84zM410 1268q0 49 34.5 83.5t83.5 34.5t84 -34.5t35 -83.5t-35 -84t-84 -35t-83.5 35t-34.5 84z" />
<glyph unicode="&#xa9;" horiz-adv-x="1734" d="M106 727q0 158 60.5 296t164 241.5t242 164t295.5 60.5q158 0 296.5 -60.5t241.5 -164t163.5 -241.5t60.5 -296t-60.5 -296t-163.5 -241.5t-241.5 -164t-296.5 -60.5t-296 60.5t-241.5 164t-164 241.5t-60.5 296zM205 727q0 -137 52 -258t142 -211t211 -142.5t258 -52.5 t258 52.5t211 142.5t142.5 211t52.5 258t-52.5 258t-142.5 211t-210.5 142.5t-258.5 52.5q-137 0 -258 -52.5t-211 -142.5t-142 -211t-52 -258zM391 729q0 106 38 195.5t103.5 154t155.5 100t193 35.5q133 0 223 -46t168 -136l-115 -108q-47 61 -116.5 101t-161.5 40 q-55 0 -111.5 -19.5t-103 -61.5t-75 -105.5t-28.5 -149.5q0 -72 25.5 -133t69.5 -106.5t103.5 -71t127.5 -25.5q78 0 144.5 37t125.5 102l115 -102q-66 -80 -164 -133t-225 -53q-106 0 -196.5 35.5t-156 100t-102.5 154t-37 195.5z" />
<glyph unicode="&#xaa;" horiz-adv-x="1175" d="M168 1087q0 92 29.5 165t80 124t118 79t143.5 28q90 0 146 -30t97 -81v96h156v-749h-156v90q-45 -59 -108.5 -81.5t-134.5 -22.5q-86 0 -155 30.5t-117 83.5t-73.5 122t-25.5 146zM190 422v149h781v-149h-781zM332 1094q0 -57 19.5 -103.5t51 -78t71.5 -48t83 -16.5 q111 0 168 70.5t57 175.5q0 63 -19.5 109t-50 77t-71.5 45t-84 14q-49 0 -90 -20.5t-71.5 -55t-47 -78.5t-16.5 -91z" />
<glyph unicode="&#xab;" horiz-adv-x="808" d="M45 469l268 395l111 -78l-225 -317l225 -315l-111 -78zM377 469l264 379l113 -76l-224 -303l224 -301l-113 -78z" />
<glyph unicode="&#xac;" horiz-adv-x="1392" d="M113 510v164h1122v-520h-166v356h-956z" />
<glyph unicode="&#xad;" horiz-adv-x="704" d="M94 494v145h518v-145h-518z" />
<glyph unicode="&#xae;" horiz-adv-x="1734" d="M186 932q0 137 52.5 258t142.5 211t211 142t258 52t258 -52t211 -142t142 -211t52 -258t-52 -258t-142 -211t-211 -142.5t-258 -52.5t-258 52.5t-211 142.5t-142.5 211t-52.5 258zM301 932q0 -115 43 -214.5t118 -174t174 -117.5t214 -43q113 0 213 43t175 117.5t118 174 t43 214.5q0 113 -43 213t-118 175t-175 118t-213 43q-115 0 -214 -43t-174 -118t-118 -175.5t-43 -212.5zM621 549v784h219q74 0 125 -17.5t82.5 -46t47 -65.5t15.5 -74q0 -92 -58.5 -152t-166.5 -73l254 -356h-146l-237 346h-11v-346h-124zM745 991h52q37 0 70.5 4t58 17.5 t40 39t15.5 68.5q0 66 -43 90.5t-111 24.5h-82v-244z" />
<glyph unicode="&#xb0;" horiz-adv-x="749" d="M43 1223q0 70 26.5 130t71.5 105t105.5 70.5t128.5 25.5q70 0 130 -25.5t104 -70.5t70 -105.5t26 -129.5q0 -20 -4.5 -58.5t-26.5 -85.5q-41 -86 -122 -138t-177 -52q-70 0 -130.5 26.5t-105.5 71.5t-70.5 105.5t-25.5 130.5zM213 1227q0 -68 47 -116t115 -48t116 48 t48 116q0 33 -13.5 62.5t-35 52t-52 36t-63.5 13.5q-70 0 -116 -49.5t-46 -114.5z" />
<glyph unicode="&#xb1;" horiz-adv-x="1392" d="M123 0v164h1147v-164h-1147zM123 745v164h489v424h168v-424h490v-164h-490v-428h-168v428h-489z" />
<glyph unicode="&#xb4;" horiz-adv-x="696" d="M172 1163l258 271l133 -105l-297 -244z" />
<glyph unicode="&#xb5;" horiz-adv-x="1097" d="M154 -412v1309h170v-494q0 -115 59 -189.5t166 -74.5q53 0 95 21.5t70.5 57.5t44 83t15.5 100v496h170v-897h-164v125q-25 -59 -85 -102t-150 -43q-86 0 -141.5 40.5t-79.5 92.5v-525h-170z" />
<glyph unicode="&#xb6;" horiz-adv-x="1347" d="M180 1049q0 84 32 157.5t87 128t131 86t162 31.5h569v-129h-129v-1667h-160v1667h-198v-1667h-160v997q-72 12 -132 46t-105.5 86.5t-71 119t-25.5 144.5z" />
<glyph unicode="&#xb7;" horiz-adv-x="448" d="M86 600q0 59 40 99t99 40t99.5 -40t40.5 -99t-40.5 -99t-99.5 -40t-99 40t-40 99z" />
<glyph unicode="&#xb8;" horiz-adv-x="696" d="M166 -332l199 264l129 -106l-218 -246z" />
<glyph unicode="&#xba;" horiz-adv-x="1175" d="M184 1090q0 82 32 153.5t86 124.5t126 85t154 32t153.5 -30t123.5 -81t82 -122.5t30 -153.5q0 -84 -31 -156t-85 -125t-127 -84t-155 -31q-84 0 -154.5 30t-122.5 81t-82 122t-30 155zM190 422v149h781v-149h-781zM342 1098q0 -53 18.5 -98.5t50 -79t76 -53t95.5 -19.5 q49 0 91 19.5t73.5 52t49 76.5t17.5 96q0 51 -18.5 97t-51 81t-75.5 54t-95 19q-49 0 -91 -19t-73.5 -52t-49 -78t-17.5 -96z" />
<glyph unicode="&#xbb;" horiz-adv-x="808" d="M55 125l224 303l-224 301l113 78l264 -379l-264 -379zM385 111l225 317l-225 315l111 78l268 -393l-268 -395z" />
<glyph unicode="&#xf7;" horiz-adv-x="1392" d="M113 498v164h1167v-164h-1167zM561 125q0 55 40 95t95 40t95 -40t40 -95t-40 -95t-95 -40t-95 40t-40 95zM561 1032q0 55 40 95t95 40t95 -40t40 -95t-40 -95t-95 -40t-95 40t-40 95z" />
<glyph unicode="&#x192;" d="M63 -424l23 154q25 -4 58.5 -8.5t58.5 -4.5q74 0 105.5 41t45.5 131l127 811h-215l23 144h215l59 387q23 150 96.5 231.5t229.5 81.5q35 0 75 -4t62 -8l-25 -154q-23 4 -56.5 8.5t-57.5 4.5q-74 0 -105.5 -41t-46.5 -131l-57 -375h233l-22 -144h-234l-129 -823 q-23 -150 -96.5 -231.5t-228.5 -81.5q-35 0 -75 4t-63 8z" />
<glyph unicode="&#x2c6;" horiz-adv-x="696" d="M68 1171l286 273l275 -266l-92 -91l-185 175l-194 -177z" />
<glyph unicode="&#x2da;" horiz-adv-x="696" d="M152 1251q0 39 15 75t43 61.5t62.5 41t75.5 15.5q82 0 139.5 -55.5t57.5 -137.5q0 -41 -15.5 -75.5t-43 -60t-63.5 -41t-75 -15.5q-82 0 -139 55t-57 137zM254 1251q0 -39 27.5 -67.5t66.5 -28.5q41 0 67.5 27.5t26.5 68.5q0 39 -27.5 68t-66.5 29q-41 0 -67.5 -28 t-26.5 -69z" />
<glyph unicode="&#x2dc;" horiz-adv-x="696" d="M-27 1139q0 106 56.5 175.5t167.5 69.5q45 0 85 -18t76.5 -42t70.5 -42t71 -18q41 0 65.5 28.5t24.5 81.5h131q0 -106 -56.5 -176t-166.5 -70q-49 0 -92.5 18.5t-80 42t-69.5 42t-61 18.5q-41 0 -66 -28.5t-25 -81.5h-131z" />
<glyph unicode="&#x3a9;" horiz-adv-x="1722" d="M117 758q0 147 61.5 278t163.5 228.5t238.5 155t283.5 57.5q156 0 292 -55.5t235.5 -153t157 -229.5t57.5 -283q0 -100 -29 -187.5t-77 -161t-113.5 -133t-139.5 -104.5h316v-170h-525v231q68 27 134.5 71t121 107.5t87 147.5t32.5 191q0 115 -40 216t-113.5 178 t-175 121t-224.5 44q-119 0 -220 -45t-175 -120t-115 -175.5t-41 -210.5q0 -106 33 -191.5t85 -151t119.5 -110.5t135.5 -72v-231h-522v170h303q-74 45 -137.5 104.5t-109.5 133t-72.5 160.5t-26.5 190z" />
<glyph unicode="&#x3c0;" horiz-adv-x="1175" d="M61 748v149h1053v-149h-158v-748h-170v748h-397v-748h-170v748h-158z" />
<glyph unicode="&#x401;" horiz-adv-x="1087" d="M174 0v1452h758v-172h-574v-444h551v-164h-551v-502h580v-170h-764zM252 1698q0 49 35 84t84 35t84 -35t35 -84t-35 -84t-84 -35t-84 35t-35 84zM612 1698q0 49 35 84t84 35t84 -35t35 -84t-35 -84t-84 -35t-84 35t-35 84z" />
<glyph unicode="&#x402;" horiz-adv-x="1394" d="M18 1284v168h955v-168h-385v-455q31 4 69 11q35 4 81 7t102 3q104 0 193 -24.5t152.5 -77t99.5 -132t36 -190.5q0 -92 -35 -173t-101.5 -140.5t-161.5 -93t-216 -33.5v164h10q147 0 229 72.5t82 195.5q0 119 -72.5 193.5t-238.5 74.5q-47 0 -89 -3t-73 -7q-37 -6 -67 -10 v-666h-185v1284h-385z" />
<glyph unicode="&#x403;" horiz-adv-x="884" d="M174 0v1452h660v-172h-476v-1280h-184zM338 1645l318 221l96 -150l-338 -190z" />
<glyph unicode="&#x404;" horiz-adv-x="1331" d="M98 721q0 170 56.5 308t156 235.5t233.5 150.5t290 53q106 0 199 -20.5t175 -58.5v-199q-72 45 -172 76.5t-215 31.5q-98 0 -184 -33.5t-153.5 -95t-113.5 -146.5t-63 -187h748v-164h-754q8 -113 53 -207t117 -163t166 -106.5t203 -37.5q106 0 207.5 25.5t179.5 78.5 v-190q-86 -41 -187.5 -63.5t-214.5 -22.5q-160 0 -293 56t-230 154.5t-150.5 232.5t-53.5 292z" />
<glyph unicode="&#x405;" horiz-adv-x="1026" d="M74 270l159 82q29 -90 97.5 -151.5t173.5 -61.5q55 0 99 18.5t74 50.5t45 75t15 90q0 86 -46 139t-113.5 94t-148.5 78t-148.5 88t-113.5 126t-46 192q0 78 29.5 148.5t84 122.5t128 83t159.5 31q135 0 231.5 -60.5t155.5 -177.5l-147 -84q-35 74 -98.5 118t-143.5 44 q-92 0 -152.5 -59.5t-60.5 -155.5q0 -82 46 -135.5t115 -94.5t149.5 -78.5t149.5 -89t115 -125t46 -188.5q0 -86 -32 -161.5t-88 -131t-136 -87.5t-176 -32q-154 0 -264.5 82t-157.5 211z" />
<glyph unicode="&#x406;" horiz-adv-x="532" d="M174 0v1452h184v-1452h-184z" />
<glyph unicode="&#x407;" horiz-adv-x="536" d="M8 1698q0 47 34 80.5t81 33.5t81 -33.5t34 -80.5t-34 -81t-81 -34t-81 34t-34 81zM176 0v1452h184v-1452h-184zM299 1698q0 47 34 80.5t81 33.5t80.5 -33.5t33.5 -80.5t-33.5 -81t-80.5 -34t-81 34t-34 81z" />
<glyph unicode="&#x408;" horiz-adv-x="790" d="M8 127l123 131q29 -47 74 -79t98 -32q59 0 94 51.5t35 135.5v1118h184v-1104q0 -78 -17 -146.5t-55 -118.5t-101.5 -79t-155.5 -29q-39 0 -78 11.5t-76 32t-68.5 48t-56.5 60.5z" />
<glyph unicode="&#x409;" horiz-adv-x="1880" d="M33 -18v168q10 -2 26.5 -3.5t44.5 -1.5q37 0 64 10.5t44 36t25.5 69.5t8.5 114v1077h844v-616h247q106 0 193.5 -26t149 -77t95 -128t33.5 -179q0 -90 -32.5 -168t-98 -135t-162 -90t-221.5 -33h-389v1280h-475v-918q0 -199 -77 -293t-249 -94q-45 0 -71 7zM1090 162h229 q147 0 224 68.5t77 183.5q0 119 -68.5 190.5t-232.5 71.5h-229v-514z" />
<glyph unicode="&#x40a;" horiz-adv-x="1941" d="M174 0v1452h184v-616h586v616h184v-616h271q106 0 193 -26t148.5 -77t95.5 -128t34 -179q0 -90 -33 -168t-98.5 -135t-161.5 -90t-221 -33h-412v672h-586v-672h-184zM1128 162h252q147 0 224 68.5t77 183.5q0 119 -68.5 190.5t-232.5 71.5h-252v-514z" />
<glyph unicode="&#x40b;" horiz-adv-x="1449" d="M18 1284v168h955v-168h-385v-446q35 2 76 4q35 2 83 4t103 2q68 0 150.5 -12.5t155.5 -57.5t122 -133t49 -242v-403h-184v350q0 98 -21.5 161.5t-62.5 100.5t-99.5 51.5t-132.5 14.5q-47 0 -89 -2t-76 -4q-39 -2 -74 -4v-668h-185v1284h-385z" />
<glyph unicode="&#x40c;" horiz-adv-x="1214" d="M174 0v1452h184v-641l535 641h221l-561 -666l600 -786h-242l-553 741v-741h-184zM455 1645l318 221l96 -150l-338 -190z" />
<glyph unicode="&#x40e;" horiz-adv-x="1232" d="M37 1452h205l250 -528q12 -27 30.5 -64t37 -77t35.5 -78.5t28 -69.5l378 817h199l-672 -1452h-200l202 424zM346 1839h133q0 -33 8.5 -63.5t26 -54t45 -38t64.5 -14.5q80 0 121 51.5t41 118.5h133q0 -152 -82 -228.5t-209 -76.5q-141 0 -211 84t-70 221z" />
<glyph unicode="&#x40f;" horiz-adv-x="1429" d="M174 0v1452h184v-1280h713v1280h184v-1452h-450v-367h-180v367h-451z" />
<glyph unicode="&#x410;" horiz-adv-x="1347" d="M31 0l569 1452h154l563 -1452h-201l-145 389h-600l-146 -389h-194zM430 545h479l-133 352q-10 27 -28.5 75t-34.5 95q-20 55 -43 119q-20 -63 -41 -117q-16 -47 -35 -94t-29 -76z" />
<glyph unicode="&#x411;" horiz-adv-x="1148" d="M174 0v1452h756v-172h-572v-444h248q106 0 193.5 -26t149 -77t95 -128t33.5 -179q0 -90 -32.5 -168t-98 -135t-162 -90t-221.5 -33h-389zM358 162h230q147 0 224 68.5t77 183.5q0 119 -68.5 190.5t-232.5 71.5h-230v-514z" />
<glyph unicode="&#x412;" horiz-adv-x="1132" d="M174 0v1452h361q94 0 170.5 -24.5t132 -70.5t85 -111.5t29.5 -149.5q0 -117 -56 -199t-148 -131q51 -14 99 -45t85 -75t58.5 -103.5t21.5 -130.5q0 -86 -30 -161t-91.5 -131.5t-157.5 -88t-231 -31.5h-328zM358 162h168q156 0 228.5 62.5t72.5 181.5t-76.5 190.5 t-252.5 71.5h-140v-506zM358 825h134q51 0 100 15.5t87 46.5t60.5 76t22.5 106q0 98 -59.5 160.5t-188.5 62.5h-156v-467z" />
<glyph unicode="&#x413;" horiz-adv-x="884" d="M174 0v1452h660v-172h-476v-1280h-184z" />
<glyph unicode="&#x414;" horiz-adv-x="1376" d="M20 162q37 0 87.5 26.5t96.5 93t77.5 177t31.5 278.5v715h844v-1280h170v-448h-182v276h-942v-276h-183v438zM295 172h678v1108h-475v-481q0 -166 -19.5 -279.5t-49.5 -186.5t-65.5 -111t-68.5 -50z" />
<glyph unicode="&#x415;" horiz-adv-x="1087" d="M174 0v1452h758v-172h-574v-444h551v-164h-551v-502h580v-170h-764z" />
<glyph unicode="&#x416;" horiz-adv-x="1878" d="M61 1452h242l535 -641v641h184v-641l534 641h222l-561 -666l600 -786h-242l-553 741v-741h-184v741l-553 -741h-222l580 768z" />
<glyph unicode="&#x417;" horiz-adv-x="1069" d="M70 356h192q18 -92 83 -149t169 -57q117 0 188.5 71.5t71.5 186.5q0 55 -22.5 105t-64.5 88t-103.5 60.5t-137.5 22.5h-114v160h108q141 0 215 70.5t74 168.5q0 100 -58.5 162t-162.5 62q-98 0 -155.5 -52.5t-63.5 -138.5h-193q4 76 33 141.5t81 114.5t129 77t175 28 t174 -32t128 -84t79 -121t27 -140q0 -135 -61.5 -215t-153.5 -113q49 -8 96 -39t83 -78t58.5 -105t22.5 -122q0 -86 -28 -168t-84 -145.5t-144 -101.5t-207 -38q-92 0 -168 28t-132.5 78t-91 120.5t-42.5 154.5z" />
<glyph unicode="&#x418;" horiz-adv-x="1607" d="M174 0v1452h184v-1173l885 1173h191v-1452h-185v1174l-884 -1174h-191z" />
<glyph unicode="&#x419;" horiz-adv-x="1607" d="M174 0v1452h184v-1173l885 1173h191v-1452h-185v1174l-884 -1174h-191zM518 1839h133q0 -33 8.5 -63.5t26 -54t45 -38t64.5 -14.5q80 0 121 51.5t41 118.5h133q0 -152 -82 -228.5t-209 -76.5q-141 0 -211 84t-70 221z" />
<glyph unicode="&#x41a;" horiz-adv-x="1214" d="M174 0v1452h184v-641l535 641h221l-561 -666l600 -786h-242l-553 741v-741h-184z" />
<glyph unicode="&#x41b;" horiz-adv-x="1284" d="M33 -18v168q10 -2 26.5 -3.5t44.5 -1.5q37 0 64 10.5t44 36t25.5 69.5t8.5 114v1077h864v-1452h-184v1280h-496v-918q0 -199 -77 -293t-249 -94q-45 0 -71 7z" />
<glyph unicode="&#x41c;" horiz-adv-x="1820" d="M84 0l213 1452h192l318 -891q14 -39 32.5 -96t34.5 -111q20 -63 39 -131q20 63 39 123q16 51 32.5 102.5t29.5 86.5l332 917h178l200 -1452h-184l-100 770q-12 94 -22.5 201.5t-18.5 199.5q-27 -94 -56.5 -185t-58.5 -171l-301 -815h-160l-295 819q-29 78 -57.5 168 t-56.5 184q-8 -92 -19.5 -197.5t-25.5 -203.5l-103 -770h-182z" />
<glyph unicode="&#x41d;" horiz-adv-x="1429" d="M174 0v1452h184v-586h713v586h184v-1452h-184v696h-713v-696h-184z" />
<glyph unicode="&#x41e;" horiz-adv-x="1722" d="M102 723q0 152 60.5 289t165 240.5t243 164t293.5 60.5q160 0 298 -58.5t239.5 -160t160 -237.5t58.5 -292q0 -158 -60.5 -295t-165 -238.5t-242.5 -161t-294 -59.5t-293 58.5t-240.5 159t-163 236.5t-59.5 294zM295 729q0 -117 45 -222.5t122 -185t180 -125.5t220 -46 q123 0 225.5 44t178 120.5t117.5 182t42 226.5q0 123 -41 229.5t-115.5 185.5t-179 124t-229.5 45q-121 0 -224.5 -47.5t-179 -126t-118.5 -183t-43 -221.5z" />
<glyph unicode="&#x41f;" horiz-adv-x="1429" d="M174 0v1452h1081v-1452h-184v1280h-713v-1280h-184z" />
<glyph unicode="&#x420;" horiz-adv-x="999" d="M174 0v1452h318q215 0 336.5 -102.5t121.5 -307.5q0 -90 -33.5 -167.5t-98 -135t-157 -90.5t-208.5 -33h-95v-616h-184zM358 776h103q141 0 220 71t79 183q0 123 -66.5 192.5t-226.5 69.5h-109v-516z" />
<glyph unicode="&#x421;" horiz-adv-x="1331" d="M98 721q0 170 56.5 308t156 235.5t233.5 150.5t290 53q106 0 199 -20.5t175 -58.5v-199q-72 45 -172 76.5t-215 31.5q-111 0 -206 -43t-165.5 -118.5t-110.5 -180t-40 -229.5q0 -123 41 -227.5t113.5 -180t172 -118.5t214.5 -43q106 0 207.5 25.5t179.5 78.5v-190 q-86 -41 -187.5 -63.5t-214.5 -22.5q-160 0 -293 56t-230 154.5t-150.5 232.5t-53.5 292z" />
<glyph unicode="&#x422;" horiz-adv-x="935" d="M18 1284v168h902v-168h-359v-1284h-184v1284h-359z" />
<glyph unicode="&#x423;" horiz-adv-x="1232" d="M37 1452h205l250 -528q12 -27 30.5 -64t37 -77t35.5 -78.5t28 -69.5l378 817h199l-672 -1452h-200l202 424z" />
<glyph unicode="&#x424;" horiz-adv-x="1619" d="M98 725q0 96 31 192.5t103.5 173t190.5 125t290 48.5h2v188h182v-188h53q123 0 227.5 -36t181.5 -104.5t120 -168t43 -224.5q0 -96 -31 -192.5t-103.5 -173t-190.5 -124.5t-290 -48h-10v-193h-182v193h-45q-123 0 -227.5 35.5t-181.5 104t-120 167t-43 225.5zM291 733 q0 -170 102.5 -271.5t294.5 -101.5h27v736h-13q-213 0 -312 -100.5t-99 -262.5zM897 360h21q213 0 312 100.5t99 262.5q0 170 -102.5 271.5t-294.5 101.5h-35v-736z" />
<glyph unicode="&#x425;" horiz-adv-x="1214" d="M68 0l432 750l-408 702h201l311 -557l303 557h207l-414 -702l447 -750h-209l-338 602l-332 -602h-200z" />
<glyph unicode="&#x426;" horiz-adv-x="1472" d="M174 0v1452h184v-1280h713v1280h184v-1280h168v-448h-180v276h-1069z" />
<glyph unicode="&#x427;" horiz-adv-x="1216" d="M123 1049v403h184v-350q0 -98 21.5 -161.5t62.5 -100.5t99.5 -51.5t132.5 -14.5q47 0 90 1t75 3q37 2 70 6v668h184v-1452h-184v614q-33 -4 -72 -6q-35 -2 -82 -3t-104 -1q-68 0 -150.5 12.5t-155.5 57.5t-122 133t-49 242z" />
<glyph unicode="&#x428;" horiz-adv-x="1982" d="M174 0v1452h184v-1280h541v1280h184v-1280h541v1280h184v-1452h-1634z" />
<glyph unicode="&#x429;" horiz-adv-x="2025" d="M174 0v1452h184v-1280h541v1280h184v-1280h541v1280h184v-1280h168v-448h-180v276h-1622z" />
<glyph unicode="&#x42a;" horiz-adv-x="1312" d="M23 1284v168h499v-616h248q106 0 193.5 -26t149 -77t95 -128t33.5 -179q0 -90 -32.5 -168t-98.5 -135t-162 -90t-221 -33h-389v1284h-315zM522 162h230q147 0 224 68.5t77 183.5q0 119 -69 190.5t-232 71.5h-230v-514z" />
<glyph unicode="&#x42b;" horiz-adv-x="1605" d="M174 0v1452h184v-616h248q106 0 193.5 -26t149 -77t95 -128t33.5 -179q0 -90 -32.5 -168t-98 -135t-162 -90t-221.5 -33h-389zM358 162h230q147 0 224 68.5t77 183.5q0 119 -68.5 190.5t-232.5 71.5h-230v-514zM1247 0v1452h185v-1452h-185z" />
<glyph unicode="&#x42c;" horiz-adv-x="1148" d="M174 0v1452h184v-616h248q106 0 193.5 -26t149 -77t95 -128t33.5 -179q0 -90 -32.5 -168t-98 -135t-162 -90t-221.5 -33h-389zM358 162h230q147 0 224 68.5t77 183.5q0 119 -68.5 190.5t-232.5 71.5h-230v-514z" />
<glyph unicode="&#x42d;" horiz-adv-x="1333" d="M98 72v190q78 -53 180.5 -78.5t208.5 -25.5q113 0 207 37.5t165 106.5t113 163t52 207h-752v164h746q-16 102 -64.5 187t-118 146.5t-157.5 95t-186 33.5q-115 0 -209.5 -31.5t-165.5 -76.5v199q82 39 177 59t202 20q154 0 286.5 -51t231 -147t156 -232.5t57.5 -308.5 q0 -158 -53.5 -294t-150.5 -236.5t-234.5 -156.5t-305.5 -56q-113 0 -206 22.5t-179 63.5z" />
<glyph unicode="&#x42e;" horiz-adv-x="2170" d="M174 0v1452h184v-629h281q18 135 81.5 254t159 208t217.5 140.5t257 51.5q150 0 280.5 -58.5t227 -160t151.5 -237.5t55 -292q0 -158 -57 -295t-155.5 -238.5t-229.5 -161t-278 -59.5q-139 0 -263 52.5t-219.5 142.5t-157 214t-73.5 269h-277v-653h-184zM825 729 q0 -117 42 -222.5t114 -185t167 -125.5t204 -46q113 0 209 44t165.5 120.5t108.5 182t39 226.5q0 123 -38 229.5t-107.5 185.5t-166 124t-212.5 45q-113 0 -208 -47.5t-166 -126t-111 -183t-40 -221.5z" />
<glyph unicode="&#x42f;" horiz-adv-x="1087" d="M16 0l467 662q-188 23 -287.5 126t-99.5 265q0 84 28 156.5t84 127t142 85t203 30.5h360v-1452h-184v651h-51l-442 -651h-220zM287 1053q0 -123 73.5 -182.5t257.5 -59.5h111v481h-151q-86 0 -142.5 -17.5t-89.5 -50t-46 -76.5t-13 -95z" />
<glyph unicode="&#x430;" horiz-adv-x="1163" d="M92 440q0 100 35 187.5t95.5 151t141 100t173.5 36.5q92 0 170.5 -36.5t132.5 -106.5v125h170v-897h-170v129q-45 -68 -125 -107.5t-178 -39.5q-94 0 -175 34.5t-141.5 96t-94.5 145.5t-34 182zM266 449q0 -66 22.5 -124.5t62.5 -101.5t93.5 -67.5t114.5 -24.5 q66 0 119 23.5t92 65.5t59.5 100.5t20.5 128.5q0 145 -82 231t-209 86q-61 0 -114.5 -24.5t-93.5 -67.5t-62.5 -101.5t-22.5 -123.5z" />
<glyph unicode="&#x431;" horiz-adv-x="1132" d="M94 592q0 123 5 221t21.5 180t45.5 151.5t78 135.5q86 115 208.5 167t258.5 52h229v-182h-217q-117 0 -207 -36t-154 -118q-31 -39 -51 -90t-32.5 -108.5t-17.5 -117t-5 -112.5q37 51 81 86t91 55.5t93 28.5t87 8q92 0 171 -32.5t137.5 -91t91 -140.5t32.5 -182 q0 -106 -36.5 -195.5t-101 -154t-149.5 -101t-184 -36.5q-82 0 -166 25.5t-152.5 94t-112.5 187.5t-44 305zM281 453q0 -47 11 -92.5t36 -84.5q39 -61 103.5 -99t143.5 -38q53 0 104.5 20.5t92.5 58.5t66.5 95t27.5 131q0 63 -20.5 121t-57 101t-89 67.5t-117.5 24.5 q-63 0 -118.5 -23.5t-95.5 -64.5t-63.5 -97.5t-23.5 -119.5z" />
<glyph unicode="&#x432;" horiz-adv-x="970" d="M154 0v897h395q78 0 130 -16.5t93 -57.5q29 -29 44 -66.5t15 -84.5q0 -66 -30.5 -112t-83.5 -75q70 -16 120 -71.5t50 -147.5q0 -111 -72 -184q-37 -37 -101.5 -59.5t-168.5 -22.5h-391zM324 143h213q170 0 170 123q0 133 -177 133h-206v-256zM324 532h182q33 0 63.5 7.5 t48.5 25.5q35 35 35 86q0 20 -6 39t-22 35q-31 31 -109 31h-192v-224z" />
<glyph unicode="&#x433;" horiz-adv-x="753" d="M154 0v897h548v-149h-378v-748h-170z" />
<glyph unicode="&#x434;" horiz-adv-x="1142" d="M51 141l25 4q25 4 57.5 23.5t61 51.5t48 75t19.5 92v510h653v-745h156v-379h-168v227h-684v-227h-168v368zM303 152h442v596h-313v-304q-2 -123 -36 -189.5t-93 -102.5z" />
<glyph unicode="&#x435;" horiz-adv-x="1048" d="M92 446q0 109 36 196t95.5 147.5t139 93t167.5 32.5q94 0 172 -31.5t134.5 -91t88 -142.5t31.5 -183q0 -27 -1 -41t-1 -29h-684q2 -57 24.5 -106t60.5 -85t88.5 -56.5t109.5 -20.5q86 0 155.5 38t116.5 99l117 -92q-80 -98 -178 -145t-227 -47q-98 0 -180.5 32.5 t-140.5 93t-91 146.5t-33 192zM272 535h506q0 49 -17.5 93t-50 76.5t-79.5 52t-107 19.5q-55 0 -99 -20.5t-77 -54t-52.5 -77.5t-23.5 -89z" />
<glyph unicode="&#x436;" horiz-adv-x="1372" d="M20 0l412 455l-389 442h225l332 -389v389h170v-389l338 389h223l-397 -418l418 -479h-228l-354 426v-426h-170v426l-358 -426h-222z" />
<glyph unicode="&#x437;" horiz-adv-x="833" d="M25 78l79 131q12 -6 40 -19.5t65 -25.5t81 -21.5t87 -9.5q88 0 142 30t54 97q0 139 -176 139h-131v133h117q162 0 162 130q0 61 -48 84.5t-122 23.5q-82 0 -147.5 -23.5t-100.5 -46.5l-70 123q57 41 146.5 66.5t199.5 25.5q145 0 233.5 -60t88.5 -175q0 -123 -129 -201 q72 -18 115 -81.5t43 -135.5q0 -131 -100.5 -205.5t-274.5 -74.5q-109 0 -202 27.5t-152 68.5z" />
<glyph unicode="&#x438;" horiz-adv-x="1157" d="M154 0v897h170v-666l512 666h168v-897h-170v664l-515 -664h-165z" />
<glyph unicode="&#x439;" horiz-adv-x="1157" d="M154 0v897h170v-666l512 666h168v-897h-170v664l-515 -664h-165zM296 1399h134q0 -33 8 -63.5t25.5 -54.5t45 -38t64.5 -14q80 0 121 51t41 119h133q0 -152 -82 -228.5t-209 -76.5q-141 0 -211 84t-70 221z" />
<glyph unicode="&#x43a;" horiz-adv-x="925" d="M154 0v897h170v-389l338 389h223l-398 -418l418 -479h-227l-354 426v-426h-170z" />
<glyph unicode="&#x43b;" horiz-adv-x="1056" d="M51 -18v153q6 -2 12 -2h23q74 0 102.5 41t28.5 131v592h686v-897h-170v748h-346v-455q0 -150 -63.5 -231.5t-219.5 -81.5z" />
<glyph unicode="&#x43c;" horiz-adv-x="1325" d="M86 0l168 897h162l194 -487q18 -47 30.5 -88t25.5 -95q12 51 25.5 94.5t27.5 77.5l196 498h158l166 -897h-166l-88 481q-8 41 -15 91.5t-12 95.5q-10 -43 -23 -89.5t-28 -80.5l-194 -498h-113l-197 496q-12 33 -26.5 79t-24.5 87q-4 -43 -10 -94.5t-14 -92.5l-88 -475 h-154z" />
<glyph unicode="&#x43d;" horiz-adv-x="1079" d="M154 0v897h170v-358h432v358h170v-897h-170v397h-432v-397h-170z" />
<glyph unicode="&#x43e;" horiz-adv-x="1122" d="M92 442q0 96 38 182.5t102.5 151t150.5 101t182 36.5q98 0 183.5 -34.5t147.5 -97t98 -147.5t36 -183t-37 -184.5t-101.5 -150t-150.5 -100t-184 -36.5t-183 34.5t-147.5 97t-98.5 147.5t-36 183zM266 453q0 -66 23.5 -123.5t63.5 -99.5t94.5 -66.5t117.5 -24.5 q61 0 114.5 23.5t92.5 65.5t61.5 97.5t22.5 118.5q0 66 -23.5 123.5t-63.5 99.5t-94 66.5t-118 24.5q-61 0 -114.5 -23.5t-92.5 -65.5t-61.5 -97.5t-22.5 -118.5z" />
<glyph unicode="&#x43f;" horiz-adv-x="1079" d="M154 0v897h772v-897h-170v748h-432v-748h-170z" />
<glyph unicode="&#x440;" horiz-adv-x="1159" d="M154 -412v1309h170v-129q45 68 124.5 107.5t178.5 39.5q94 0 175 -34.5t140 -96t92 -145.5t33 -182q0 -102 -34 -189.5t-93 -151t-139 -99t-174 -35.5q-92 0 -172 37.5t-131 105.5v-537h-170zM315 449q0 -72 21.5 -130.5t60.5 -100.5t92.5 -64.5t114.5 -22.5t114.5 24.5 t91.5 66.5t59.5 100.5t21.5 126.5q0 66 -22.5 124t-60.5 101t-90 67.5t-114 24.5q-66 0 -119 -23.5t-91 -65.5t-58.5 -100.5t-20.5 -127.5z" />
<glyph unicode="&#x441;" horiz-adv-x="909" d="M92 440q0 98 37 184.5t101.5 151t153.5 101t194 36.5q63 0 123.5 -13t113.5 -36v-172q-53 29 -112.5 46.5t-124.5 17.5q-68 0 -123.5 -24.5t-95.5 -65.5t-61.5 -97.5t-21.5 -117.5t21.5 -116.5t61.5 -97.5t95.5 -67t123.5 -25q57 0 120.5 14.5t118.5 47.5v-174 q-53 -25 -119.5 -38t-132.5 -13q-117 0 -206 40.5t-148 105.5t-89 146.5t-30 165.5z" />
<glyph unicode="&#x442;" horiz-adv-x="784" d="M33 748v149h719v-149h-275v-748h-170v748h-274z" />
<glyph unicode="&#x443;" horiz-adv-x="964" d="M12 897h201l158 -322q31 -63 67.5 -138t67.5 -142q29 63 55.5 124.5t54.5 125.5l160 352h178l-620 -1309h-172l252 523z" />
<glyph unicode="&#x444;" horiz-adv-x="1396" d="M92 440q0 211 133 344q63 63 156.5 96t204.5 33h24v392h170v-392h33q115 0 206 -29.5t157 -92.5q63 -63 96 -145.5t33 -188.5q0 -211 -134 -344q-63 -63 -156 -96t-204 -33h-31v-396h-170v396h-26q-115 0 -206 29.5t-157 92.5q-63 63 -96 145.5t-33 188.5zM266 449 q0 -72 23.5 -134.5t66.5 -103.5q41 -41 98.5 -57.5t125.5 -16.5h30v621h-39q-66 0 -119 -15.5t-92 -52.5q-45 -41 -69.5 -104t-24.5 -137zM780 139h45q66 0 119 15.5t92 52.5q45 41 69.5 104.5t24.5 137.5q0 72 -23.5 134t-66.5 103q-41 41 -98 57.5t-125 16.5h-37v-621z " />
<glyph unicode="&#x445;" horiz-adv-x="921" d="M10 0l355 459l-332 438h211q63 -86 116.5 -159.5t102.5 -145.5q51 72 109.5 150.5t115.5 154.5h201l-330 -438l352 -459h-215q-27 37 -58.5 81t-62 89t-60.5 88t-54 78q-47 -72 -114.5 -162t-131.5 -174h-205z" />
<glyph unicode="&#x446;" horiz-adv-x="1155" d="M154 0v897h170v-745h432v745h170v-745h157v-412h-170v260h-759z" />
<glyph unicode="&#x447;" horiz-adv-x="995" d="M98 651v246h170v-231q0 -41 7.5 -77t25.5 -62.5t51 -42t86 -15.5q47 0 88 4t74 8q37 6 72 13v403h170v-897h-170v344q-31 -8 -68 -14q-33 -4 -77 -8.5t-97 -4.5q-332 0 -332 334z" />
<glyph unicode="&#x448;" horiz-adv-x="1521" d="M154 0v897h170v-745h352v745h170v-745h352v745h170v-897h-1214z" />
<glyph unicode="&#x449;" horiz-adv-x="1597" d="M154 0v897h170v-745h352v745h170v-745h352v745h170v-745h158v-412h-170v260h-1202z" />
<glyph unicode="&#x44a;" horiz-adv-x="1007" d="M25 748v149h360v-332q25 0 55 2q27 0 64 1t80 1q68 0 131 -11t112.5 -42t79 -85t29.5 -140q0 -59 -21.5 -111.5t-56.5 -87.5q-92 -92 -268 -92h-375v748h-190zM385 141h172q201 0 201 146q0 82 -47.5 113.5t-141.5 31.5q-35 0 -67.5 -1t-59.5 -1q-31 -2 -57 -2v-287z" />
<glyph unicode="&#x44b;" horiz-adv-x="1335" d="M154 0v897h170v-332q25 0 55 2q27 0 63.5 1t79.5 1q68 0 131.5 -11t112.5 -42t78.5 -85t29.5 -140q0 -59 -21.5 -111.5t-55.5 -87.5q-92 -92 -269 -92h-374zM324 141h172q201 0 200 146q0 82 -47 113.5t-141 31.5q-35 0 -67.5 -1t-59.5 -1q-31 -2 -57 -2v-287zM1014 0 v897h168v-897h-168z" />
<glyph unicode="&#x44c;" horiz-adv-x="946" d="M154 0v897h170v-332q25 0 55 2q27 0 63.5 1t79.5 1q68 0 131.5 -11t112.5 -42t78.5 -85t29.5 -140q0 -59 -21.5 -111.5t-55.5 -87.5q-92 -92 -269 -92h-374zM324 141h172q201 0 200 146q0 82 -47 113.5t-141 31.5q-35 0 -67.5 -1t-59.5 -1q-31 -2 -57 -2v-287z" />
<glyph unicode="&#x44d;" horiz-adv-x="933" d="M111 39v172q53 -29 119.5 -51.5t152.5 -22.5q117 0 187.5 69.5t86.5 180.5h-442v139h442q-16 104 -84.5 172t-191.5 68q-76 0 -142.5 -22.5t-121.5 -55.5v166q53 25 121.5 43t154.5 18q104 0 188.5 -34.5t141.5 -96t88 -145.5t31 -182q0 -104 -32 -192.5t-92.5 -151 t-145.5 -97t-189 -34.5q-82 0 -150.5 17t-121.5 40z" />
<glyph unicode="&#x44e;" horiz-adv-x="1470" d="M154 0v897h170v-358h168q16 80 57 148.5t99.5 118.5t132 78.5t153.5 28.5q94 0 175 -34.5t141.5 -97t94 -147.5t33.5 -183t-35.5 -184.5t-97 -150t-143.5 -100t-176 -36.5q-90 0 -168 31.5t-136.5 87t-94 132t-44.5 166.5h-159v-397h-170zM655 453q0 -66 21.5 -123.5 t59.5 -99.5t88 -66.5t110 -24.5q57 0 106.5 23.5t86 65.5t57 97.5t20.5 118.5q0 66 -21.5 123.5t-59.5 99.5t-89 66.5t-108 24.5t-106.5 -23.5t-86.5 -65.5t-57.5 -97.5t-20.5 -118.5z" />
<glyph unicode="&#x44f;" horiz-adv-x="995" d="M80 0l291 334q-113 12 -182.5 82.5t-69.5 185.5q0 145 97 220t255 75h371v-897h-170v330h-105l-266 -330h-221zM297 610q0 -68 43 -104.5t123 -36.5h209v287h-203q-86 0 -129 -39t-43 -107z" />
<glyph unicode="&#x451;" horiz-adv-x="1048" d="M92 446q0 109 36 196t95.5 147.5t139 93t167.5 32.5q94 0 172 -31.5t134.5 -91t88 -142.5t31.5 -183q0 -27 -1 -41t-1 -29h-684q2 -57 24.5 -106t60.5 -85t88.5 -56.5t109.5 -20.5q86 0 155.5 38t116.5 99l117 -92q-80 -98 -178 -145t-227 -47q-98 0 -180.5 32.5 t-140.5 93t-91 146.5t-33 192zM225 1268q0 49 35 83.5t84 34.5t84 -34.5t35 -83.5t-35 -84t-84 -35t-84 35t-35 84zM272 535h506q0 49 -17.5 93t-50 76.5t-79.5 52t-107 19.5q-55 0 -99 -20.5t-77 -54t-52.5 -77.5t-23.5 -89zM586 1268q0 49 34.5 83.5t83.5 34.5t84 -34.5 t35 -83.5t-35 -84t-84 -35t-83.5 35t-34.5 84z" />
<glyph unicode="&#x452;" horiz-adv-x="1079" d="M25 1044v146h129v344h170v-344h272v-146h-272v-266q41 57 117.5 96t168.5 39q147 0 231.5 -84t84.5 -266v-686q0 -150 -63.5 -231.5t-219.5 -81.5l-53 2v153q6 -2 12 -2h23q74 0 102.5 41t28.5 131v650q0 117 -47 172t-144 55q-49 0 -93 -18.5t-77 -52t-52 -80 t-19 -101.5v-514h-170v1044h-129z" />
<glyph unicode="&#x453;" horiz-adv-x="753" d="M154 0v897h548v-149h-378v-748h-170zM268 1163l258 271l133 -105l-297 -244z" />
<glyph unicode="&#x454;" horiz-adv-x="933" d="M92 440q0 104 32 192.5t92 151t145 97t190 34.5q82 0 149.5 -19t120.5 -42v-168q-53 29 -118.5 54.5t-151.5 25.5q-117 0 -187.5 -64.5t-87.5 -175.5h447v-139h-449q16 -104 86 -177t193 -73q76 0 145.5 19.5t124.5 52.5v-170l-53 -25q-143 -33 -229 -32 q-104 0 -188.5 34.5t-141.5 96t-88 145.5t-31 182z" />
<glyph unicode="&#x455;" horiz-adv-x="786" d="M84 127l127 100q29 -43 72 -69.5t98 -26.5q53 0 93 26.5t40 86.5q0 45 -29.5 71.5t-73.5 46t-96.5 39t-96.5 49t-73.5 77.5t-29.5 126q0 51 20.5 99.5t57 84t89 57t117.5 21.5q98 0 162 -35.5t109 -107.5l-131 -78q-23 37 -60 58.5t-84 21.5q-51 0 -82.5 -30.5 t-31.5 -75.5q0 -47 29.5 -75t74.5 -48.5t98.5 -40t98.5 -49t74.5 -77.5t29.5 -124q0 -55 -20.5 -104.5t-60.5 -86t-97 -59t-129 -22.5q-100 0 -172 36.5t-123 108.5z" />
<glyph unicode="&#x456;" horiz-adv-x="477" d="M115 1268q0 51 35.5 87t87.5 36q51 0 86.5 -36t35.5 -87t-35.5 -87t-86.5 -36t-87 36t-36 87zM154 0v897h170v-897h-170z" />
<glyph unicode="&#x457;" horiz-adv-x="518" d="M10 1268q0 47 32 78.5t79 31.5t78.5 -31.5t31.5 -78.5t-31.5 -79t-78.5 -32t-79 32t-32 79zM174 0v897h170v-897h-170zM287 1268q0 47 31.5 78.5t78.5 31.5t79 -31.5t32 -78.5t-32 -79t-79 -32t-78.5 32t-31.5 79z" />
<glyph unicode="&#x458;" horiz-adv-x="477" d="M115 1268q0 51 35.5 87t87.5 36q51 0 86.5 -36t35.5 -87t-35.5 -87t-86.5 -36t-87 36t-36 87zM154 -412v1309h170v-1309h-170z" />
<glyph unicode="&#x459;" horiz-adv-x="1499" d="M45 -18v153q6 -2 12 -2h23q74 0 102.5 41t28.5 131v592h666v-332q25 0 55 2q27 0 63.5 1t79.5 1q68 0 131.5 -11t112.5 -42t78.5 -85t29.5 -140q0 -59 -21.5 -111.5t-55.5 -87.5q-92 -92 -269 -92h-374v748h-326v-455q0 -150 -63.5 -231.5t-219.5 -81.5zM877 141h172 q201 0 200 146q0 82 -47 113.5t-141 31.5q-35 0 -67.5 -1t-59.5 -1q-31 -2 -57 -2v-287z" />
<glyph unicode="&#x45a;" horiz-adv-x="1527" d="M154 0v897h170v-344h411v344h170v-332q25 0 56 2q27 0 63.5 1t79.5 1q68 0 131 -11t112.5 -42t79 -85t29.5 -140q0 -59 -21.5 -111.5t-56.5 -87.5q-92 -92 -268 -92h-375v412h-411v-412h-170zM905 141h172q201 0 201 146q0 82 -47 113.5t-141 31.5q-35 0 -68 -1t-59 -1 q-31 -2 -58 -2v-287z" />
<glyph unicode="&#x45b;" horiz-adv-x="1079" d="M25 1044v146h129v344h170v-344h272v-146h-272v-266q41 57 117.5 96t168.5 39q147 0 231.5 -84t84.5 -266v-563h-170v539q0 117 -47 172t-144 55q-49 0 -93 -18.5t-77 -52t-52 -80t-19 -101.5v-514h-170v1044h-129z" />
<glyph unicode="&#x45c;" horiz-adv-x="925" d="M154 0v897h170v-389l338 389h223l-398 -418l418 -479h-227l-354 426v-426h-170zM346 1163l258 271l133 -105l-297 -244z" />
<glyph unicode="&#x45e;" horiz-adv-x="964" d="M12 897h201l158 -322q31 -63 67.5 -138t67.5 -142q29 63 55.5 124.5t54.5 125.5l160 352h178l-620 -1309h-172l252 523zM204 1399h134q0 -33 8 -63.5t25.5 -54.5t45 -38t64.5 -14q80 0 121 51t41 119h133q0 -152 -82 -228.5t-209 -76.5q-141 0 -211 84t-70 221z" />
<glyph unicode="&#x45f;" horiz-adv-x="1079" d="M154 0v897h170v-745h432v745h170v-897h-301v-291h-170v291h-301z" />
<glyph unicode="&#x490;" horiz-adv-x="884" d="M174 0v1452h479v311h181v-483h-476v-1280h-184z" />
<glyph unicode="&#x491;" horiz-adv-x="753" d="M154 0v897h378v215h170v-364h-378v-748h-170z" />
<glyph unicode="&#x2000;" horiz-adv-x="933" />
<glyph unicode="&#x2001;" horiz-adv-x="1866" />
<glyph unicode="&#x2002;" horiz-adv-x="933" />
<glyph unicode="&#x2003;" horiz-adv-x="1866" />
<glyph unicode="&#x2004;" horiz-adv-x="622" />
<glyph unicode="&#x2005;" horiz-adv-x="466" />
<glyph unicode="&#x2006;" horiz-adv-x="311" />
<glyph unicode="&#x2007;" horiz-adv-x="311" />
<glyph unicode="&#x2008;" horiz-adv-x="233" />
<glyph unicode="&#x2009;" horiz-adv-x="373" />
<glyph unicode="&#x200a;" horiz-adv-x="103" />
<glyph unicode="&#x2010;" horiz-adv-x="704" d="M94 494v145h518v-145h-518z" />
<glyph unicode="&#x2011;" horiz-adv-x="704" d="M94 494v145h518v-145h-518z" />
<glyph unicode="&#x2012;" horiz-adv-x="704" d="M94 494v145h518v-145h-518z" />
<glyph unicode="&#x2013;" horiz-adv-x="1044" d="M10 494v147h1024v-147h-1024z" />
<glyph unicode="&#x2014;" horiz-adv-x="2068" d="M10 494v147h2048v-147h-2048z" />
<glyph unicode="&#x2018;" horiz-adv-x="512" d="M98 1112q0 113 72 222.5t201 205.5l73 -86q-63 -55 -103 -112.5t-40 -110.5q0 -31 7 -53.5t15.5 -43t15.5 -42t7 -45.5q0 -45 -31.5 -79t-85.5 -34q-51 0 -91 42t-40 136z" />
<glyph unicode="&#x2019;" horiz-adv-x="512" d="M68 963q63 55 103 112.5t40 110.5q0 31 -7 53.5t-15.5 43t-15.5 42t-7 45.5q0 45 31.5 79t85.5 34q51 0 91 -42t40 -136q0 -113 -72 -222.5t-201 -205.5z" />
<glyph unicode="&#x201a;" horiz-adv-x="512" d="M68 -270q63 55 103 112.5t40 110.5q0 31 -7 53.5t-15.5 43t-15.5 42t-7 45.5q0 45 31.5 79t85.5 34q51 0 91 -42t40 -136q0 -113 -72 -222.5t-201 -205.5z" />
<glyph unicode="&#x201c;" horiz-adv-x="788" d="M104 1126q0 104 56.5 205t148.5 193l82 -72q-51 -51 -79.5 -107.5t-28.5 -109.5q0 -27 7 -48.5t14 -40t14.5 -36.5t7.5 -41q0 -41 -29 -72.5t-74 -31.5t-82 37.5t-37 123.5zM426 1126q0 104 56.5 205t148.5 193l82 -72q-51 -51 -80 -107.5t-29 -109.5q0 -27 7 -48.5 t14.5 -40t14.5 -36.5t7 -41q0 -41 -28.5 -72.5t-73.5 -31.5t-82 37.5t-37 123.5z" />
<glyph unicode="&#x201d;" horiz-adv-x="788" d="M76 989q51 51 79.5 107.5t28.5 109.5q0 27 -7 48.5t-14 40t-14.5 37t-7.5 40.5q0 41 29 73t74 32t81.5 -38t36.5 -124q0 -104 -56 -204.5t-148 -192.5zM397 989q51 51 80 107.5t29 109.5q0 27 -7 48.5t-14.5 40t-14.5 37t-7 40.5q0 41 28.5 73t73.5 32t82 -38t37 -124 q0 -104 -56.5 -204.5t-148.5 -192.5z" />
<glyph unicode="&#x201e;" horiz-adv-x="788" d="M76 -244q51 51 79.5 107.5t28.5 109.5q0 27 -7 48.5t-14 40t-14.5 37t-7.5 40.5q0 41 29 73t74 32t81.5 -38t36.5 -124q0 -104 -56 -204.5t-148 -192.5zM397 -244q51 51 80 107.5t29 109.5q0 27 -7 48.5t-14.5 40t-14.5 37t-7 40.5q0 41 28.5 73t73.5 32t82 -38t37 -124 q0 -104 -56.5 -204.5t-148.5 -192.5z" />
<glyph unicode="&#x2020;" horiz-adv-x="1220" d="M92 889v176h432v453h176v-453h433v-176h-433v-1106h-176v1106h-432z" />
<glyph unicode="&#x2021;" horiz-adv-x="1175" d="M92 219v176h432v514h-432v176h432v433h176v-433h433v-176h-433v-514h433v-176h-433v-436h-176v436h-432z" />
<glyph unicode="&#x2022;" horiz-adv-x="704" d="M84 707q0 55 21.5 104t58.5 86t86 58.5t104 21.5t104.5 -21.5t86.5 -58.5t58.5 -86t21.5 -104t-21.5 -104.5t-58.5 -86.5t-86.5 -58.5t-104.5 -21.5t-104 21.5t-86 58.5t-58.5 86t-21.5 105z" />
<glyph unicode="&#x2026;" horiz-adv-x="1605" d="M123 111q0 55 40 95t95 40t95 -40t40 -95t-40 -95.5t-95 -40.5t-95 40t-40 96zM635 111q0 55 40 95t95 40t95 -40t40 -95t-40 -95.5t-95 -40.5t-95 40t-40 96zM1147 111q0 55 40 95t95 40t95 -40t40 -95t-40 -95.5t-95 -40.5t-95 40t-40 96z" />
<glyph unicode="&#x202f;" horiz-adv-x="373" />
<glyph unicode="&#x2030;" horiz-adv-x="2293" d="M94 1061q0 213 80 311t217 98q279 0 279 -401q0 -211 -77 -312.5t-218 -101.5q-57 0 -108.5 19.5t-89.5 65.5t-60.5 124t-22.5 197zM252 1069q0 -84 8 -138t25.5 -86t42 -44.5t55.5 -12.5q66 0 97.5 59.5t31.5 213.5q0 150 -28.5 214t-100.5 64q-68 0 -99.5 -58 t-31.5 -212zM348 -10l770 1526l125 -60l-770 -1524zM922 387q0 213 79.5 311.5t217.5 98.5q279 0 278 -402q0 -211 -77 -312t-218 -101q-57 0 -108.5 19t-89 65.5t-60 124t-22.5 196.5zM1079 395q0 -84 8.5 -138t25.5 -86t41.5 -44t55.5 -12q66 0 97.5 59t31.5 213 q0 150 -28.5 214.5t-100.5 64.5q-68 0 -99.5 -58.5t-31.5 -212.5zM1610 387q0 213 79.5 311.5t217.5 98.5q279 0 278 -402q0 -211 -77 -312t-218 -101q-57 0 -108 19t-89 65.5t-60.5 124t-22.5 196.5zM1767 395q0 -84 8.5 -138t26 -86t41.5 -44t55 -12q66 0 98 59t32 213 q0 150 -29 214.5t-101 64.5q-68 0 -99.5 -58.5t-31.5 -212.5z" />
<glyph unicode="&#x2039;" horiz-adv-x="555" d="M49 467l309 436l111 -78l-266 -358l266 -356l-111 -78z" />
<glyph unicode="&#x203a;" horiz-adv-x="555" d="M86 111l266 358l-266 356l111 78l309 -434l-309 -436z" />
<glyph unicode="&#x2044;" horiz-adv-x="301" d="M-307 -10l770 1526l125 -60l-770 -1524z" />
<glyph unicode="&#x205f;" horiz-adv-x="466" />
<glyph unicode="&#x20ac;" d="M109 487v146h155q-2 20 -2 39.5v42.5v49t2 49h-155v145h170q20 115 60 209.5t103.5 162t148.5 105.5t193 38q66 0 128.5 -15.5t131.5 -46.5v-180q-66 37 -131 60.5t-139 23.5q-129 0 -203.5 -98.5t-103.5 -258.5h381v-145h-393q-2 -20 -2 -38.5v-39.5v-52.5t2 -49.5h393 v-146h-381q25 -164 96.5 -258t210.5 -94q72 0 140.5 21.5t142.5 62.5v-178q-74 -35 -138.5 -50.5t-154.5 -15.5q-111 0 -195 37t-144 104.5t-97 162t-54 208.5h-165z" />
<glyph unicode="&#x2122;" horiz-adv-x="1630" d="M63 1331v121h539v-121h-203v-598h-133v598h-203zM647 733l109 719h139l113 -326q18 -55 35.5 -112.5t37.5 -120.5q16 57 36 116.5t36 106.5l121 336h127l102 -719h-133l-31 230q-10 66 -17 144.5t-11 143.5q-37 -137 -82 -258l-99 -262h-114l-94 266q-20 55 -41 121 t-41 133q-4 -68 -13.5 -142.5t-19.5 -145.5l-31 -230h-129z" />
<glyph unicode="&#x2202;" horiz-adv-x="1138" d="M92 440q0 100 35 187.5t95.5 151t141 100t173.5 36.5q92 0 167.5 -29.5t120.5 -84.5q-31 100 -85 195.5t-132 173t-181 133t-232 77.5l36 154q156 -31 277 -97.5t210 -154.5t150.5 -188.5t98.5 -199.5t53 -189.5t16 -157.5q0 -272 -129 -419.5t-366 -147.5 q-94 0 -176 35.5t-142.5 97t-95.5 145.5t-35 182zM266 449q0 -66 22.5 -124.5t62.5 -101.5t93.5 -67.5t114.5 -24.5q66 0 120 23.5t94 66.5t61.5 103.5t21.5 134.5q0 68 -22.5 125t-62.5 97t-94 62.5t-118 22.5q-61 0 -114.5 -24.5t-93.5 -67.5t-62.5 -101.5t-22.5 -123.5z " />
<glyph unicode="&#x2206;" horiz-adv-x="1347" d="M31 0l569 1452h154l563 -1452h-1286zM289 170h762l-275 727q-10 27 -28.5 75t-34.5 95q-20 55 -43 119q-20 -63 -41 -117q-16 -47 -35 -94t-29 -76z" />
<glyph unicode="&#x220f;" horiz-adv-x="1703" d="M49 1280v172h1606v-172h-187v-1692h-184v1692h-866v-1692h-185v1692h-184z" />
<glyph unicode="&#x2211;" horiz-adv-x="1433" d="M172 -268l526 811l-518 764v145h1194v-172h-960l501 -731l-526 -789h997v-172h-1214v144z" />
<glyph unicode="&#x221a;" horiz-adv-x="1185" d="M14 897h197l172 -418q10 -29 28.5 -74t34.5 -92q20 -53 41 -112q29 78 54 147q23 59 42 117.5t29 87.5l406 1087h192l-637 -1640h-163z" />
<glyph unicode="&#x221e;" horiz-adv-x="1392" d="M41 582q0 70 24.5 126t65.5 94t97.5 58.5t119.5 20.5q57 0 106.5 -17.5t92.5 -45t81 -62.5t70 -70q33 35 70 68.5t79 61.5t91 45.5t104 17.5q63 0 121 -20.5t99 -57.5t65.5 -91.5t24.5 -121.5q0 -72 -24.5 -127t-65.5 -93t-97.5 -58.5t-120.5 -20.5q-57 0 -106 17.5 t-92 45t-80 62t-70 69.5q-33 -35 -69.5 -68.5t-79.5 -61t-92 -45t-105 -17.5q-66 0 -122 20.5t-97 57.5t-65.5 91t-24.5 122zM203 586q0 -63 46 -106.5t109 -43.5q70 0 130.5 44.5t115.5 103.5q-29 27 -58.5 54.5t-60 49t-62.5 34.5t-65 13q-63 0 -109 -43t-46 -106z M791 586q27 -27 56.5 -53.5t60 -48t62 -35t64.5 -13.5q63 0 109.5 43t46.5 107q0 63 -46 106t-110 43q-70 0 -129 -45t-114 -104z" />
<glyph unicode="&#x222b;" horiz-adv-x="581" d="M-12 -276q55 0 96 5t66.5 23.5t39 53t13.5 94.5v1409q0 180 89 255.5t251 75.5h39v-157h-37q-84 0 -125 -37t-41 -139v-1409q0 -180 -89 -256t-251 -76h-51v158z" />
<glyph unicode="&#x2248;" horiz-adv-x="1392" d="M117 403q70 53 159 91t187 38q68 0 131 -19t122.5 -43t115 -43t108.5 -19q72 0 139.5 27.5t114.5 66.5l82 -127q-70 -53 -159 -91t-187 -38q-68 0 -131.5 19.5t-123 43t-115.5 43t-107 19.5q-72 0 -140.5 -28t-115.5 -67zM117 795q70 53 159 91t187 38q68 0 131 -19.5 t122.5 -43t115 -43t108.5 -19.5q72 0 139.5 27.5t114.5 66.5l82 -127q-70 -53 -159 -91t-187 -38q-68 0 -131.5 19.5t-123 43t-115.5 43t-107 19.5q-72 0 -140.5 -27.5t-115.5 -66.5z" />
<glyph unicode="&#x2260;" horiz-adv-x="1392" d="M133 301v164h408l104 240h-512v163h584l123 287h172l-123 -287h371v-163h-443l-104 -240h547v-164h-619l-131 -301h-172l131 301h-336z" />
<glyph unicode="&#x2264;" horiz-adv-x="1392" d="M133 0v164h1127v-164h-1127zM133 725v176l1127 416v-176l-936 -322l936 -325v-183z" />
<glyph unicode="&#x2265;" horiz-adv-x="1392" d="M133 0v164h1127v-164h-1127zM133 311v176l936 322l-936 326v182l1127 -414v-176z" />
<glyph unicode="&#x25ca;" horiz-adv-x="1323" d="M72 725l590 768l589 -768l-589 -766zM297 725l365 -475l364 475l-364 477z" />
<glyph unicode="&#x25fc;" horiz-adv-x="901" d="M0 0v901h901v-901h-901z" />
</font>
</defs>
</svg>
