<?xml version="1.0" encoding="utf-8"?>
<!-- Generator: Avocode 2.6.0 - http://avocode.com -->
<svg height="22" width="20" xmlns:xlink="http://www.w3.org/1999/xlink" xmlns="http://www.w3.org/2000/svg" viewBox="0 0 20 22">
    <path fill="#000000" fill-rule="evenodd" d="M 7.69 1.54 L 7.69 0 L 6.15 0 L 6.15 1.54 L 6.15 3.08 L 7.69 3.08 L 7.69 1.54 L 7.69 1.54 Z M 4.62 1.54 L 4.62 0 L 3.08 0 L 3.08 1.54 L 3.08 3.08 L 4.62 3.08 L 4.62 1.54 L 4.62 1.54 Z M 16.92 1.54 L 16.92 0 L 15.38 0 L 15.38 1.54 L 15.38 3.08 L 16.92 3.08 L 16.92 1.54 L 16.92 1.54 Z M 13.85 1.54 L 13.85 0 L 12.31 0 L 12.31 1.54 L 12.31 3.08 L 13.85 3.08 L 13.85 1.54 L 13.85 1.54 Z M 10.77 1.54 L 10.77 0 L 9.23 0 L 9.23 1.54 L 9.23 3.08 L 10.77 3.08 L 10.77 1.54 L 10.77 1.54 Z M 6.15 9.23 L 6.15 10.77 L 7.69 10.77 L 7.69 16.92 L 9.23 16.92 L 9.23 9.23 L 7.69 9.23 L 6.15 9.23 L 6.15 9.23 Z M 10.77 9.23 L 10.77 10.77 L 12.31 10.77 L 12.31 16.92 L 13.85 16.92 L 13.85 9.23 L 12.31 9.23 L 10.77 9.23 L 10.77 9.23 Z M 0 3.08 L 0 4.62 L 0 6.15 L 0 20 L 1.54 21.54 L 18.46 21.54 L 20 20 L 20 6.15 L 20 4.62 L 20 3.08 L 18.46 1.54 L 18.46 3.08 L 18.46 4.62 L 16.92 4.62 L 15.38 4.62 L 13.85 4.62 L 12.31 4.62 L 10.77 4.62 L 9.23 4.62 L 7.69 4.62 L 6.15 4.62 L 4.62 4.62 L 3.08 4.62 L 1.54 4.62 L 1.54 3.08 L 1.54 1.54 L 0 3.08 L 0 3.08 Z M 1.54 20 L 1.54 6.15 L 3.08 6.15 L 4.62 6.15 L 18.46 6.15 L 18.46 20 L 1.54 20 L 1.54 20 Z M 1.54 20" />
</svg>