<?xml version="1.0" encoding="utf-8"?>
<!-- Generator: Avocode 2.6.0 - http://avocode.com -->
<svg height="29" width="45" xmlns:xlink="http://www.w3.org/1999/xlink" xmlns="http://www.w3.org/2000/svg" viewBox="0 0 47 31">
    <title>plus.google.com</title>
    <path fill="#e71d1d" fill-rule="evenodd" transform="translate(1 1)" d="M 40.05 11.92 L 40.05 6.89 L 36.51 6.89 L 36.51 11.92 L 31.42 11.92 L 31.42 15.5 L 36.51 15.5 L 36.51 20.67 L 40.05 20.67 L 40.05 15.5 L 45 15.5 L 45 11.92 L 40.05 11.92 L 40.05 11.92 Z M 14.29 11.63 L 14.29 17.37 C 14.29 17.37 19.78 17.36 22.02 17.36 C 20.81 21.09 18.93 23.11 14.29 23.11 C 9.6 23.11 5.94 19.26 5.94 14.5 C 5.94 9.74 9.6 5.89 14.29 5.89 C 16.77 5.89 18.37 6.77 19.84 8 C 21.102 6.81 20.92 6.64 23.91 3.77 C 21.37 1.43 18 0 14.29 0 C 6.4 0 0 6.49 0 14.5 C 0 22.51 6.4 29 14.29 29 C 26.09 29 28.97 18.58 28.02 11.63 L 14.29 11.63 L 14.29 11.63 Z M 14.29 11.63" />
</svg>
