<?xml version="1.0" encoding="utf-8"?>
<!-- Generator: Avocode 2.6.0 - http://avocode.com -->
<svg height="33" width="33" xmlns:xlink="http://www.w3.org/1999/xlink" xmlns="http://www.w3.org/2000/svg" viewBox="0 0 35 35">
    <title>instagram.com</title>
    <path fill="#76553c" fill-rule="evenodd" transform="translate(1 1)" d="M 28.88 29.91 L 4.13 29.91 C 3.56 29.91 3.09 29.44 3.09 28.88 L 3.09 13.41 L 7.22 13.41 C 6.68 14.18 6.5 15.62 6.5 16.54 C 6.5 22.06 11 26.55 16.54 26.55 C 22.07 26.55 26.58 22.06 26.58 16.54 C 26.58 15.62 26.45 14.2 25.78 13.41 L 29.91 13.41 L 29.91 28.88 C 29.91 29.44 29.44 29.91 28.88 29.91 M 16.54 10.21 C 20.04 10.21 22.88 13.04 22.88 16.54 C 22.88 20.04 20.04 22.87 16.54 22.87 C 13.03 22.87 10.19 20.04 10.19 16.54 C 10.19 13.04 13.03 10.21 16.54 10.21 M 24.75 4.13 L 27.84 4.13 C 28.41 4.13 28.88 4.59 28.88 5.16 L 28.88 8.25 C 28.88 8.82 28.41 9.28 27.84 9.28 L 24.75 9.28 C 24.18 9.28 23.72 8.82 23.72 8.25 L 23.72 5.16 C 23.72 4.59 24.18 4.13 24.75 4.13 M 29.08 0 L 3.92 0 C 1.76 0 0 1.75 0 3.91 L 0 29.09 C 0 31.25 1.76 33 3.92 33 L 29.08 33 C 31.24 33 33 31.25 33 29.09 L 33 3.91 C 33 1.75 31.24 0 29.08 0" />
</svg>
