<?xml version="1.0" encoding="utf-8"?>
<!-- Generator: Avocode 2.6.0 - http://avocode.com -->
<svg height="30" width="18" xmlns:xlink="http://www.w3.org/1999/xlink" xmlns="http://www.w3.org/2000/svg" viewBox="0 0 18 30">
    <path fill="#ffffff" fill-rule="evenodd" d="M 17.35 13.94 C 17.01 13.6 16.58 13.42 16.11 13.42 C 15.44 13.42 14.86 13.8 14.57 14.36 L 14.57 12.69 C 14.57 11.71 13.78 10.91 12.82 10.91 C 12.15 10.91 11.57 11.29 11.28 11.86 L 11.28 7.48 C 12.64 6.88 13.61 5.5 13.61 3.9 C 13.61 1.75 11.89 0 9.77 0 C 8.41 0 7.16 0.73 6.47 1.92 C 6.35 1.91 6.25 1.9 6.14 1.9 C 4.03 1.9 2.31 3.65 2.31 5.8 C 2.31 7.35 3.2 8.69 4.5 9.31 L 4.5 19.1 L 3.77 18.1 C 3.13 17.09 1.85 16.76 0.9 17.35 C 0.47 17.63 0.16 18.08 0.05 18.6 C -0.07 19.17 0.04 19.78 0.36 20.3 C 0.36 20.3 3.05 24.43 4.19 26.19 C 5.66 28.48 7.92 29.59 11.09 29.59 C 17.53 29.59 17.86 24.27 17.86 23.21 L 17.86 15.19 C 17.86 14.72 17.68 14.27 17.35 13.94 L 17.35 13.94 Z M 4.5 5.85 L 4.5 7.72 C 3.97 7.25 3.63 6.57 3.63 5.8 C 3.63 4.39 4.76 3.25 6.14 3.25 C 6.48 3.25 6.81 3.32 7.12 3.45 C 7.16 3.47 7.21 3.47 7.25 3.45 C 7.29 3.43 7.32 3.39 7.32 3.35 C 7.58 2.19 8.61 1.35 9.77 1.35 C 11.16 1.35 12.28 2.49 12.28 3.9 C 12.28 4.73 11.89 5.47 11.28 5.93 L 11.28 4.18 C 11.28 3.2 10.49 2.4 9.53 2.4 C 8.57 2.4 7.78 3.2 7.78 4.18 L 7.78 5.02 C 7.49 4.46 6.91 4.08 6.24 4.08 C 5.28 4.08 4.5 4.87 4.5 5.85 L 4.5 5.85 Z M 2.71 5.8 C 2.71 3.88 4.25 2.31 6.14 2.31 C 6.27 2.31 6.4 2.32 6.56 2.34 C 6.64 2.35 6.72 2.31 6.76 2.24 C 7.36 1.11 8.51 0.41 9.77 0.41 C 11.66 0.41 13.2 1.97 13.2 3.9 C 13.2 5.27 12.42 6.46 11.28 7.03 L 11.28 6.29 C 12.06 5.78 12.58 4.9 12.58 3.9 C 12.58 2.33 11.32 1.05 9.77 1.05 C 8.53 1.05 7.42 1.91 7.08 3.11 C 6.78 3.01 6.46 2.95 6.14 2.95 C 4.6 2.95 3.34 4.23 3.34 5.8 C 3.34 6.75 3.8 7.58 4.5 8.1 L 4.5 8.85 C 3.43 8.26 2.71 7.12 2.71 5.8 L 2.71 5.8 Z M 16.83 23.21 C 16.83 24.46 16.42 28.54 11.09 28.54 C 8.26 28.54 6.34 27.61 5.05 25.62 C 3.9 23.85 1.22 19.73 1.22 19.73 C 1.05 19.45 0.99 19.13 1.05 18.83 C 1.11 18.58 1.25 18.37 1.45 18.24 C 1.92 17.95 2.57 18.14 2.93 18.69 L 5.52 22.3 L 5.52 5.85 C 5.52 5.45 5.85 5.12 6.24 5.12 C 6.64 5.12 6.96 5.45 6.96 5.85 L 6.96 16.52 C 6.96 17.04 7.37 17.46 7.88 17.46 C 8.4 17.46 8.81 17.04 8.81 16.52 L 8.81 4.18 C 8.81 3.78 9.13 3.45 9.53 3.45 C 9.93 3.45 10.25 3.78 10.25 4.18 L 10.25 16.52 C 10.25 17.04 10.67 17.46 11.18 17.46 C 11.69 17.46 12.1 17.04 12.1 16.52 L 12.1 12.69 C 12.1 12.28 12.42 11.96 12.82 11.96 C 13.22 11.96 13.54 12.28 13.54 12.69 L 13.54 17.36 C 13.54 17.88 13.95 18.3 14.47 18.3 C 14.98 18.3 15.39 17.88 15.39 17.36 L 15.39 15.19 C 15.39 14.79 15.71 14.46 16.11 14.46 C 16.3 14.46 16.48 14.54 16.62 14.68 C 16.76 14.82 16.83 15 16.83 15.19 L 16.83 23.21 L 16.83 23.21 Z M 16.83 23.21" />
</svg>