<svg id="SvgjsSvg1013" xmlns="http://www.w3.org/2000/svg" version="1.1" xmlns:xlink="http://www.w3.org/1999/xlink" xmlns:svgjs="http://svgjs.com/svgjs" width="57" height="55"><defs id="SvgjsDefs1014"></defs><path id="SvgjsPath1015" d="M289 3286.2L289 3309C289 3311.7 291.2 3314 294 3314C295.4 3314 296.5 3312.9 296.5 3311.5C296.5 3310.1 295.4 3309 294 3309L294 3286.2L300.3 3286.2L300.3 3307.7C300.3 3312.3999999999996 304.1 3316.2999999999997 308.90000000000003 3316.2999999999997L331.90000000000003 3316.2999999999997C337.6 3316.2999999999997 341.40000000000003 3313.2 342.00000000000006 3307.9999999999995L345.1000000000001 3288.6999999999994L345.1000000000001 3288.2999999999993L345.1000000000001 3288.0999999999995C345.1000000000001 3283.3999999999996 341.30000000000007 3279.4999999999995 336.50000000000006 3279.4999999999995L331.30000000000007 3279.4999999999995C329.9000000000001 3279.4999999999995 328.80000000000007 3280.5999999999995 328.80000000000007 3281.9999999999995C328.80000000000007 3283.3999999999996 329.9000000000001 3284.4999999999995 331.30000000000007 3284.4999999999995L336.50000000000006 3284.4999999999995C338.50000000000006 3284.4999999999995 340.1000000000001 3286.0999999999995 340.1000000000001 3288.0999999999995L337.00000000000006 3307.2999999999993C336.90000000000003 3308.399999999999 336.50000000000006 3311.2999999999993 331.90000000000003 3311.2999999999993L308.90000000000003 3311.2999999999993C306.90000000000003 3311.2999999999993 305.3 3309.6999999999994 305.3 3307.6999999999994L305.3 3287.899999999999C307 3287.399999999999 316.8 3283.899999999999 316.8 3274.2999999999993L316.8 3266.999999999999C317.7 3266.999999999999 318.8 3267.099999999999 319.5 3267.699999999999C320.5 3268.499999999999 321 3269.999999999999 321 3272.199999999999L321 3281.8999999999987C321 3283.299999999999 322.1 3284.3999999999987 323.5 3284.3999999999987C324.9 3284.3999999999987 326 3283.299999999999 326 3281.8999999999987L326 3272.0999999999985C326 3268.1999999999985 324.9 3265.2999999999984 322.5 3263.5999999999985C320.7 3262.3999999999987 318.8 3261.9999999999986 317.1 3261.9999999999986C315.3 3261.9999999999986 313.90000000000003 3262.3999999999987 313.6 3262.4999999999986C312.5 3262.799999999999 311.8 3263.799999999999 311.8 3264.8999999999987L311.8 3274.299999999999C311.8 3279.8999999999987 305.90000000000003 3282.3999999999987 304.2 3282.9999999999986C303.3 3281.8999999999987 301.9 3281.0999999999985 300.3 3281.0999999999985L294 3281.0999999999985C291.2 3281.0999999999985 289 3283.3999999999987 289 3286.1999999999985 " fill="#1f9b7f" fill-opacity="1" transform="matrix(1,0,0,1,-289,-3262)"></path></svg>