<svg id="SvgjsSvg1016" xmlns="http://www.w3.org/2000/svg" version="1.1" xmlns:xlink="http://www.w3.org/1999/xlink" xmlns:svgjs="http://svgjs.com/svgjs" width="55" height="66"><defs id="SvgjsDefs1017"></defs><path id="SvgjsPath1018" d="M55.79 480.04L52.24 477.49L48.7 480.07L50.050000000000004 475.82L46.510000000000005 473.15L50.89000000000001 473.15L52.24000000000001 468.98999999999995L47.540000000000006 468.15999999999997L48.28000000000001 461.7L53.71000000000001 459.2L57.53000000000001 464.64L52.24000000000001 468.99L53.60000000000001 473.15000000000003L57.98000000000001 473.15000000000003L54.430000000000014 475.82000000000005ZM69.73 455.94C67.67 454.46999999999997 67.67 454.41 67.67 454.41C67.67 454.41 68.99 453.36 70.46000000000001 452.62C71.93 451.89 65.52000000000001 452.76 62.53000000000001 451.73C60.19000000000001 450.92 58.330000000000005 450.46000000000004 56.20000000000001 450.69L54.59000000000001 451.43C54.59000000000001 451.43 54.25000000000001 448.93 53.47000000000001 447.02C52.680000000000014 445.10999999999996 52.530000000000015 444.40999999999997 52.83000000000001 444.38C53.80000000000001 443.58 54.83000000000001 442.07 55.360000000000014 439.82C56.01000000000001 437.11 54.15000000000001 437.03 54.15000000000001 437.03C54.15000000000001 437.03 55.04000000000001 433.95 54.890000000000015 431.30999999999995C54.740000000000016 428.65999999999997 46.66000000000001 426.30999999999995 41.08000000000001 426.0199999999999C35.49000000000001 425.7299999999999 34.320000000000014 428.73999999999995 35.640000000000015 433.43999999999994C35.640000000000015 433.43999999999994 33.95000000000002 436.25999999999993 35.860000000000014 442.75999999999993C37.670000000000016 448.91999999999996 39.460000000000015 451.12999999999994 39.460000000000015 451.12999999999994L39.460000000000015 454.6499999999999C39.460000000000015 454.6499999999999 38.77000000000002 453.8399999999999 38.180000000000014 453.68999999999994C37.600000000000016 453.53999999999996 26.420000000000016 458.28999999999996 25.240000000000016 459.25999999999993C27.010000000000016 460.5299999999999 27.800000000000015 460.5299999999999 27.800000000000015 460.5299999999999C27.800000000000015 460.5299999999999 26.650000000000016 463.2399999999999 25.330000000000016 467.2099999999999C24.000000000000014 471.1699999999999 27.120000000000015 491.6499999999999 27.120000000000015 491.6499999999999L62.38000000000001 491.6499999999999L60.25000000000001 486.2199999999999C60.25000000000001 486.2199999999999 61.35000000000001 483.0599999999999 63.120000000000005 480.12999999999994C63.7 483.35999999999996 66.79 486.03999999999996 66.79 486.03999999999996L65.03 491.65L76.49000000000001 491.65C76.49000000000001 491.65 78.84 486.58 79.72000000000001 481.26C80.60000000000001 475.94 75.31000000000002 468.68 73.55000000000001 464.27C71.79 459.87 71.79 457.40999999999997 69.73000000000002 455.94Z " fill="#62c4b5" fill-opacity="1" transform="matrix(1,0,0,1,-25,-426)"></path><path id="SvgjsPath1019" d="M55.85 461L48.6 463.46L48 467.77L58.96 464.60999999999996Z " fill="#ff911d" fill-opacity="1" transform="matrix(1,0,0,1,-25,-426)"></path></svg>