<?xml version="1.0" encoding="utf-8"?>
<!-- Generator: Avocode 0.4.0 - http://avocode.com -->
<svg height="55" width="58" xmlns:xlink="http://www.w3.org/1999/xlink" xmlns="http://www.w3.org/2000/svg" viewBox="0 0 58 55">
    <path fill="#f3a323" fill-rule="evenodd" d="M 24.97 41.88 C 23.05 40.79 21.44 39.2 20.32 37.29 L 8.1 49.5 C 7.92 49.68 7.91 49.97 8.09 50.15 L 12.04 54.18 C 12.21 54.36 12.5 54.36 12.68 54.18 L 24.92 41.95 C 24.94 41.93 24.96 41.91 24.97 41.88" />
    <path fill="#f3a323" fill-rule="evenodd" d="M 31.18 21.78 C 36.21 21.78 40.31 25.88 40.31 30.92 C 40.31 35.96 36.21 40.06 31.18 40.06 C 26.15 40.06 22.05 35.96 22.05 30.92 C 22.05 25.88 26.15 21.78 31.18 21.78 M 31.18 42.83 C 37.74 42.83 43.08 37.49 43.08 30.92 C 43.08 24.35 37.74 19.01 31.18 19.01 C 24.62 19.01 19.28 24.35 19.28 30.92 C 19.28 37.49 24.62 42.83 31.18 42.83" />
    <path fill="none" fill-rule="evenodd" d="M 58 0.22 L 0 0.22 L 0 46.57 L 58 46.57 L 58 0.22 L 58 0.22 Z M 58 0.22" />
    <path fill="#24997f" fill-rule="evenodd" d="M 55.81 38.32 L 55.58 37.96 C 55.53 37.88 55.48 37.8 55.43 37.73 L 51.94 32.39 C 52.38 31.59 52.63 30.67 52.63 29.69 C 52.63 28.69 52.36 27.75 51.9 26.94 L 51.9 26.94 L 51.9 26.94 C 51.78 26.73 51.65 26.53 51.51 26.35 L 50.03 24.08 L 52.38 24.08 C 55.48 24.08 58 21.56 58 18.46 C 58 17.65 57.83 16.89 57.52 16.2 L 57.62 16.27 L 57.38 15.9 C 57.19 15.53 56.97 15.19 56.72 14.88 L 47.14 0.21 L 15.94 0.21 L 5.39 12.83 L 5.37 12.83 L 5.37 14.61 L 7.93 14.61 L 7.93 22.31 L 5.37 22.31 L 5.37 22.34 L 0.04 24.07 L 0 24.07 L 0 25.85 L 2.55 25.85 L 2.55 33.54 L 0 33.54 L 0 35.32 L 3.81 35.32 L 3.81 37.09 L 6.37 37.09 L 6.37 44.79 L 3.81 44.79 L 3.81 46.57 L 8.28 46.57 L 10.06 44.79 L 8.14 44.79 L 8.14 37.09 L 17.76 37.09 L 18.46 36.39 C 18.07 35.48 17.78 34.53 17.59 33.54 L 4.33 33.54 L 4.33 25.85 L 18.31 25.85 C 18.82 24.56 19.51 23.37 20.35 22.31 L 9.7 22.31 L 9.7 14.61 L 52.38 14.61 C 54.5 14.61 56.23 16.34 56.23 18.46 C 56.23 20.58 54.5 22.31 52.38 22.31 L 42.01 22.31 C 42.86 23.37 43.55 24.56 44.05 25.85 L 47.01 25.85 C 49.13 25.85 50.85 27.57 50.85 29.69 C 50.85 31.82 49.13 33.54 47.01 33.54 L 44.77 33.54 C 44.53 34.8 44.12 35.98 43.56 37.09 L 50.82 37.09 C 52.94 37.09 54.67 38.82 54.67 40.94 C 54.67 43.06 52.94 44.79 50.82 44.79 L 24.83 44.79 L 23.05 46.57 L 50.82 46.57 C 53.92 46.57 56.44 44.04 56.44 40.94 C 56.44 39.98 56.2 39.08 55.77 38.29 L 55.81 38.32 Z M 55.81 38.32" />
</svg>