<?xml version="1.0" encoding="utf-8"?>
<!-- Generator: Avocode 0.4.0 - http://avocode.com -->
<svg height="46" width="46" xmlns:xlink="http://www.w3.org/1999/xlink" xmlns="http://www.w3.org/2000/svg" viewBox="0 0 46 46">
    <path fill="none" fill-rule="evenodd" d="M 23 46 L 46 46 L 46 0 L 0 0 L 0 23 L 0 46 L 23 46 L 23 46 Z M 23 46" />
    <path fill="#1f9b7f" fill-rule="evenodd" d="M 44.42 36.27 C 44.42 37.13 43.7 37.82 42.79 37.82 L 38.97 37.82 L 38.97 22.05 C 38.97 20.38 37.51 19 35.76 19 L 34.85 19 L 34.85 13.82 L 42.79 13.82 C 43.7 13.82 44.42 14.51 44.42 15.37 L 44.42 36.27 L 44.42 36.27 Z M 3.21 44.5 C 3.03 44.5 2.85 44.45 2.73 44.45 L 11.88 34.54 L 10.67 33.51 L 1.64 43.29 C 1.64 43.18 1.58 43.12 1.58 43.01 L 1.58 22.05 C 1.58 21.59 1.82 21.19 2.12 20.9 L 19.45 33.85 L 36.54 20.73 C 37.03 21.01 37.39 21.47 37.39 22.05 L 37.39 42.95 C 37.39 43.06 37.39 43.18 37.33 43.29 L 28.36 33.56 L 27.15 34.6 L 36.24 44.5 C 36.12 44.56 35.94 44.56 35.76 44.56 L 3.21 44.56 L 3.21 44.5 Z M 16.18 2.36 L 16.18 11.57 L 6.48 11.57 L 16.18 2.36 Z M 33.27 2.07 L 33.27 21.3 L 19.51 31.95 L 5.76 21.65 L 5.82 21.65 L 5.82 13.13 L 17.82 13.13 L 17.82 1.55 L 32.67 1.55 C 33.03 1.55 33.27 1.78 33.27 2.07 L 33.27 2.07 Z M 42.85 12.32 L 34.91 12.32 L 34.91 2.07 C 34.91 0.92 33.94 0 32.73 0 L 16.42 0 L 16.3 0.12 L 16.24 0.12 L 16.24 0.17 L 4.24 11.63 L 4.18 11.63 L 4.18 11.69 L 4.18 19 L 3.21 19 C 1.45 19 0 20.38 0 22.05 L 0 42.95 C 0 44.62 1.45 46 3.21 46 L 35.76 46 C 37.51 46 38.97 44.62 38.97 42.95 L 38.97 39.32 L 42.79 39.32 C 44.54 39.32 46 37.94 46 36.27 L 46 15.37 C 46.06 13.7 44.6 12.32 42.85 12.32 L 42.85 12.32 Z M 42.85 12.32" />
    <path fill="#1f9b7f" fill-rule="evenodd" d="M 12 17.5 L 26.48 17.5 L 26.48 16 L 12 16 L 12 17.5 Z M 12 17.5" />
    <path fill="#1f9b7f" fill-rule="evenodd" d="M 12 20.5 L 26.48 20.5 L 26.48 19 L 12 19 L 12 20.5 Z M 12 20.5" />
    <path fill="#1f9b7f" fill-rule="evenodd" d="M 12 23.5 L 26.48 23.5 L 26.48 22 L 12 22 L 12 23.5 Z M 12 23.5" />
</svg>