<?xml version="1.0" encoding="utf-8"?>
<!-- Generator: Avocode 0.4.0 - http://avocode.com -->
<svg height="46" width="57" xmlns:xlink="http://www.w3.org/1999/xlink" xmlns="http://www.w3.org/2000/svg" viewBox="0 0 57 46">
    <path fill="none" fill-rule="evenodd" d="M 56.56 35.96 L 56.56 0.2 L 16.32 0.2 L 16.32 35.96 L 56.56 35.96 L 56.56 35.96 Z M 56.56 35.96" />
    <path fill="#f4a423" fill-rule="evenodd" d="M 45.12 0.2 C 41.75 0.2 38.6 1.65 36.44 4.14 C 34.28 1.65 31.12 0.2 27.77 0.2 C 21.46 0.2 16.32 5.28 16.32 11.52 C 16.32 14.48 17.47 17.29 19.56 19.41 L 33.89 34.83 C 34.56 35.56 35.47 35.96 36.44 35.96 C 37.42 35.96 38.33 35.56 39 34.83 L 53.32 19.42 C 55.41 17.29 56.56 14.49 56.56 11.52 C 56.57 5.28 51.43 0.2 45.12 0.2" />
    <path fill="#ffffff" fill-rule="evenodd" d="M 22.18 45.98 C 20.62 45.98 19.17 45.35 18.1 44.2 L 3.8 28.79 C 1.35 26.29 0 23 0 19.51 C 0 12.15 6.06 6.16 13.5 6.16 C 16.7 6.16 19.76 7.27 22.18 9.28 C 24.59 7.27 27.65 6.16 30.85 6.16 C 34.46 6.16 37.85 7.55 40.4 10.07 C 42.95 12.6 44.36 15.95 44.36 19.51 C 44.36 23 43 26.3 40.55 28.8 L 26.25 44.2 C 25.18 45.35 23.73 45.98 22.18 45.98" />
    <path fill="#219a7f" fill-rule="evenodd" d="M 14.92 13.9 C 14.92 14.49 14.44 14.96 13.85 14.96 C 11.12 14.96 8.9 17.15 8.9 19.85 C 8.9 20.44 8.42 20.91 7.83 20.91 C 7.24 20.91 6.75 20.44 6.75 19.85 C 6.75 15.98 9.94 12.84 13.85 12.84 C 14.44 12.84 14.92 13.31 14.92 13.9 M 30.85 8.19 C 27.49 8.19 24.34 9.64 22.18 12.13 C 20.01 9.64 16.86 8.19 13.5 8.19 C 7.19 8.19 2.06 13.27 2.06 19.51 C 2.06 22.47 3.21 25.27 5.3 27.4 L 19.62 42.82 C 20.3 43.55 21.2 43.95 22.18 43.95 C 23.15 43.95 24.06 43.55 24.73 42.82 L 39.05 27.4 C 41.15 25.28 42.3 22.48 42.3 19.51 C 42.3 13.27 37.16 8.19 30.85 8.19" />
    <path fill="#ffffff" fill-rule="evenodd" d="M 13.85 12.84 C 9.94 12.84 6.75 15.98 6.75 19.85 C 6.75 20.44 7.24 20.91 7.83 20.91 C 8.42 20.91 8.9 20.44 8.9 19.85 C 8.9 17.15 11.12 14.96 13.85 14.96 C 14.44 14.96 14.92 14.49 14.92 13.9 C 14.92 13.31 14.44 12.84 13.85 12.84" />
</svg>