<?xml version="1.0" encoding="utf-8"?>
<!-- Generator: Avocode 0.4.0 - http://avocode.com -->
<svg height="65" width="71" xmlns:xlink="http://www.w3.org/1999/xlink" xmlns="http://www.w3.org/2000/svg" viewBox="0 0 71 65">
    <path fill="#f4a423" fill-rule="evenodd" d="M 21.9 51.57 C 23.11 51.57 24.09 50.88 24.09 50.03 C 24.09 49.17 23.11 48.48 21.9 48.48 C 20.7 48.48 19.72 49.17 19.72 50.03 C 19.72 50.88 20.7 51.57 21.9 51.57 L 21.9 51.57 Z M 21.9 51.57" />
    <path fill="#f4a423" fill-rule="evenodd" d="M 27.45 51.57 C 28.66 51.57 29.63 50.88 29.63 50.03 C 29.63 49.17 28.66 48.48 27.45 48.48 C 26.24 48.48 25.27 49.17 25.27 50.03 C 25.27 50.88 26.24 51.57 27.45 51.57" />
    <path fill="#f4a423" fill-rule="evenodd" d="M 33 51.57 C 34.2 51.57 35.18 50.88 35.18 50.03 C 35.18 49.17 34.2 48.48 33 48.48 C 31.8 48.48 30.81 49.17 30.81 50.03 C 30.81 50.88 31.8 51.57 33 51.57" />
    <path fill="#f4a423" fill-rule="evenodd" d="M 38.54 51.57 C 39.75 51.57 40.72 50.88 40.72 50.03 C 40.72 49.17 39.75 48.48 38.54 48.48 C 37.34 48.48 36.36 49.17 36.36 50.03 C 36.36 50.88 37.34 51.57 38.54 51.57" />
    <path fill="#f4a423" fill-rule="evenodd" d="M 44.09 51.57 C 45.3 51.57 46.27 50.88 46.27 50.03 C 46.27 49.17 45.3 48.48 44.09 48.48 C 42.89 48.48 41.91 49.17 41.91 50.03 C 41.91 50.88 42.89 51.57 44.09 51.57" />
    <path fill="#f4a423" fill-rule="evenodd" d="M 49.64 51.57 C 50.84 51.57 51.82 50.88 51.82 50.03 C 51.82 49.17 50.84 48.48 49.64 48.48 C 48.43 48.48 47.45 49.17 47.45 50.03 C 47.45 50.88 48.43 51.57 49.64 51.57" />
    <path fill="#f4a423" fill-rule="evenodd" d="M 50.09 58.59 L 22.26 58.59 C 21.57 58.59 21.02 59.15 21.02 59.84 C 21.02 60.53 21.57 61.09 22.26 61.09 L 50.09 61.09 C 50.77 61.09 51.32 60.53 51.32 59.84 C 51.32 59.15 50.77 58.59 50.09 58.59" />
    <path fill="none" fill-rule="evenodd" d="M 57.35 0.6 L 15.16 0.6 L 15.16 22.6 L 57.35 22.6 L 57.35 0.6 L 57.35 0.6 Z M 57.35 0.6" />
    <path fill="#219a7f" fill-rule="evenodd" d="M 15.56 22.07 C 15.56 21.95 15.65 21.86 15.78 21.86 L 21.05 21.86 C 21.17 21.86 21.26 21.95 21.26 22.07 L 21.26 22.6 L 49.77 22.6 L 49.77 21.9 C 49.77 21.78 49.87 21.68 49.99 21.68 L 55.26 21.68 C 55.38 21.68 55.47 21.78 55.47 21.9 L 55.47 22.6 L 57.35 22.6 L 57.35 0.6 L 15.16 0.6 L 15.16 22.6 L 15.56 22.6 L 15.56 22.07 Z M 15.56 22.07" />
    <path fill="#f4a423" fill-rule="evenodd" d="M 10.45 26.68 L 10.65 25.43 L 5.9 25.43 L 0.32 33.77 C 0.32 33.77 -0.52 36.92 0.52 37.74 C 1.35 38.39 1.6 38 2.06 37.05 C 2.53 36.07 1.56 33.96 1.56 33.96 L 6.48 26.68 L 10.45 26.68 Z M 10.45 26.68" />
    <path fill="none" fill-rule="evenodd" d="M 0 64.81 L 70.53 64.81 L 70.53 0.6 L 0 0.6 L 0 64.81 Z M 0 64.81" />
    <path fill="#f4a423" fill-rule="evenodd" d="M 66.15 24.63 L 70.53 24.63 L 70.53 23.36 L 66.15 23.36 L 66.15 24.63 Z M 66.15 24.63" />
    <path fill="#f4a423" fill-rule="evenodd" d="M 66.15 28.04 L 70.53 28.04 L 70.53 26.77 L 66.15 26.77 L 66.15 28.04 Z M 66.15 28.04" />
    <path fill="#f4a423" fill-rule="evenodd" d="M 66.15 26.34 L 70.53 26.34 L 70.53 25.07 L 66.15 25.07 L 66.15 26.34 Z M 66.15 26.34" />
    <path fill="#f4a423" fill-rule="evenodd" d="M 66.15 29.75 L 70.53 29.75 L 70.53 28.47 L 66.15 28.47 L 66.15 29.75 Z M 66.15 29.75" />
    <path fill="#f4a423" fill-rule="evenodd" d="M 66.15 31.45 L 70.53 31.45 L 70.53 30.18 L 66.15 30.18 L 66.15 31.45 Z M 66.15 31.45" />
    <path fill="#219a7f" fill-rule="evenodd" d="M 60.36 60.34 C 60.36 61.14 59.72 61.78 58.92 61.78 L 13.43 61.78 C 12.63 61.78 12 61.14 12 60.34 L 12 47.57 L 60.36 47.57 L 60.36 60.34 Z M 21.81 44.72 C 21.81 45.57 20.83 46.26 19.62 46.26 C 18.41 46.26 17.44 45.57 17.44 44.72 C 17.44 43.92 18.31 43.25 19.4 43.18 C 19.48 43.17 19.54 43.18 19.62 43.18 C 20.83 43.18 21.81 43.87 21.81 44.72 L 21.81 44.72 Z M 27.37 44.67 C 27.37 45.53 26.39 46.22 25.19 46.22 C 23.98 46.22 23.01 45.53 23.01 44.67 C 23.01 43.82 23.98 43.12 25.19 43.12 C 26.39 43.12 27.37 43.82 27.37 44.67 L 27.37 44.67 Z M 32.86 44.67 C 32.86 45.53 31.88 46.22 30.68 46.22 C 29.47 46.22 28.5 45.53 28.5 44.67 C 28.5 43.82 29.47 43.12 30.68 43.12 C 31.88 43.12 32.86 43.82 32.86 44.67 L 32.86 44.67 Z M 38.36 44.67 C 38.36 45.53 37.37 46.22 36.17 46.22 C 34.97 46.22 33.99 45.53 33.99 44.67 C 33.99 43.82 34.97 43.12 36.17 43.12 C 37.37 43.12 38.36 43.82 38.36 44.67 L 38.36 44.67 Z M 43.84 44.67 C 43.84 45.53 42.88 46.22 41.67 46.22 C 40.47 46.22 39.48 45.53 39.48 44.67 C 39.48 43.82 40.47 43.12 41.67 43.12 C 42.88 43.12 43.84 43.82 43.84 44.67 L 43.84 44.67 Z M 49.33 44.67 C 49.33 45.53 48.37 46.22 47.16 46.22 C 45.96 46.22 44.97 45.53 44.97 44.67 C 44.97 43.82 45.96 43.12 47.16 43.12 C 48.37 43.12 49.33 43.82 49.33 44.67 L 49.33 44.67 Z M 54.87 44.67 C 54.87 45.52 53.89 46.21 52.68 46.21 C 51.48 46.21 50.5 45.52 50.5 44.67 C 50.5 43.86 51.37 43.2 52.46 43.12 C 52.54 43.12 52.6 43.12 52.68 43.12 C 53.89 43.12 54.87 43.81 54.87 44.67 L 54.87 44.67 Z M 13.38 26.72 C 13.38 25.76 14.11 25.02 15.07 25.02 L 16.95 25.02 L 16.95 25.43 C 16.95 25.55 17.05 25.65 17.17 25.65 L 19.65 25.65 C 19.77 25.65 19.88 25.55 19.88 25.43 L 19.88 25.02 L 51.16 25.02 L 51.16 25.26 C 51.16 25.38 51.26 25.47 51.38 25.47 L 53.86 25.47 C 53.99 25.47 54.08 25.38 54.08 25.26 L 54.08 25.02 L 57.35 25.02 C 58.3 25.02 59.03 25.76 59.03 26.72 L 59.03 27.95 L 50.36 27.95 C 50.28 28.21 50.15 28.45 50.06 28.71 L 46.26 26.71 C 46.19 26.87 46.12 27.02 46.04 27.18 L 49.98 28.9 C 49.71 29.62 49.38 30.31 49 30.97 L 45.41 28.28 C 45.32 28.42 45.23 28.57 45.12 28.7 L 48.91 31.13 C 48.51 31.8 48.07 32.44 47.57 33.03 L 44.33 29.69 C 44.21 29.83 44.09 29.95 43.97 30.07 L 47.46 33.18 C 46.95 33.78 46.4 34.33 45.81 34.85 L 43.04 30.92 C 42.91 31.03 42.77 31.13 42.63 31.24 L 45.68 34.96 C 45.07 35.47 44.43 35.93 43.75 36.34 L 41.58 31.92 C 41.43 32 41.28 32.09 41.12 32.17 L 43.62 36.43 C 42.93 36.83 42.21 37.18 41.46 37.47 L 39.97 32.69 C 39.81 32.75 39.65 32.81 39.48 32.87 L 41.32 37.53 C 40.57 37.81 39.8 38.03 39 38.18 L 38.28 33.19 C 38.1 33.23 37.93 33.26 37.76 33.29 L 38.85 38.22 C 38.07 38.37 37.27 38.44 36.46 38.46 L 36.52 33.42 C 36.34 33.43 36.17 33.43 35.99 33.43 L 36.31 38.47 C 36.26 38.47 36.22 38.48 36.18 38.48 C 35.41 38.48 34.65 38.41 33.91 38.29 L 34.74 33.37 C 34.56 33.35 34.39 33.33 34.22 33.3 L 33.76 38.28 C 32.96 38.15 32.19 37.95 31.44 37.7 L 32.99 33.04 C 32.83 32.99 32.66 32.94 32.5 32.89 L 31.29 37.64 C 30.54 37.38 29.82 37.05 29.13 36.68 L 31.33 32.43 C 31.16 32.36 31.01 32.29 30.85 32.2 L 28.98 36.58 C 28.29 36.2 27.65 35.77 27.04 35.28 L 29.76 31.57 C 29.62 31.48 29.48 31.38 29.34 31.28 L 26.9 35.16 C 26.3 34.67 25.74 34.15 25.23 33.58 L 28.36 30.48 C 28.24 30.37 28.11 30.24 27.98 30.12 L 25.1 33.42 C 24.6 32.86 24.15 32.26 23.74 31.63 L 27.15 29.18 C 27.04 29.04 26.93 28.9 26.83 28.76 L 23.63 31.44 C 23.24 30.81 22.89 30.16 22.6 29.48 L 26.15 27.7 C 26.06 27.55 25.99 27.39 25.9 27.24 L 22.51 29.26 C 22.33 28.83 22.13 28.4 21.99 27.95 L 13.38 27.95 L 13.38 26.72 Z M 63.61 27.95 L 61.2 27.95 L 61.2 26.72 C 61.2 24.59 59.46 24 57.35 24 L 54.08 24 L 54.08 23.31 C 54.08 23.18 53.99 23.08 53.86 23.08 L 51.38 23.08 C 51.26 23.08 51.16 23.18 51.16 23.31 L 51.16 24 L 19.88 24 L 19.88 23.48 C 19.88 23.36 19.77 23.26 19.65 23.26 L 17.17 23.26 C 17.05 23.26 16.95 23.36 16.95 23.48 L 16.95 24 L 15.07 24 C 12.95 24 11.22 24.59 11.22 26.72 L 11.22 27.95 L 8.15 27.95 L 8.15 63.37 C 8.15 64.17 8.8 64.81 9.59 64.81 L 62.75 64.81 C 63.55 64.81 64.2 64.17 64.2 63.37 L 64.2 29.67 L 65.74 29.67 L 65.74 25.14 L 63.61 25.14 L 63.61 27.95 Z M 63.61 27.95" />
    <path fill="#f4a423" fill-rule="evenodd" d="M 16.36 51.57 C 17.56 51.57 18.54 50.88 18.54 50.03 C 18.54 49.17 17.56 48.48 16.36 48.48 C 15.16 48.48 14.18 49.17 14.18 50.03 C 14.18 50.88 15.16 51.57 16.36 51.57" />
    <path fill="#f4a423" fill-rule="evenodd" d="M 17.39 55.37 C 17.39 56.22 18.36 56.92 19.57 56.92 C 20.78 56.92 21.75 56.22 21.75 55.37 C 21.75 54.52 20.78 53.82 19.57 53.82 C 18.36 53.82 17.39 54.52 17.39 55.37" />
    <path fill="#f4a423" fill-rule="evenodd" d="M 22.88 55.37 C 22.88 56.22 23.86 56.92 25.06 56.92 C 26.27 56.92 27.24 56.22 27.24 55.37 C 27.24 54.52 26.27 53.82 25.06 53.82 C 23.86 53.82 22.88 54.52 22.88 55.37" />
    <path fill="#f4a423" fill-rule="evenodd" d="M 28.38 55.37 C 28.38 56.22 29.35 56.92 30.56 56.92 C 31.76 56.92 32.74 56.22 32.74 55.37 C 32.74 54.52 31.76 53.82 30.56 53.82 C 29.35 53.82 28.38 54.52 28.38 55.37" />
    <path fill="#f4a423" fill-rule="evenodd" d="M 33.86 55.37 C 33.86 56.22 34.84 56.92 36.05 56.92 C 37.25 56.92 38.23 56.22 38.23 55.37 C 38.23 54.52 37.25 53.82 36.05 53.82 C 34.84 53.82 33.86 54.52 33.86 55.37" />
    <path fill="#f4a423" fill-rule="evenodd" d="M 39.36 55.37 C 39.36 56.22 40.33 56.92 41.54 56.92 C 42.75 56.92 43.73 56.22 43.73 55.37 C 43.73 54.52 42.75 53.82 41.54 53.82 C 40.33 53.82 39.36 54.52 39.36 55.37" />
    <path fill="#f4a423" fill-rule="evenodd" d="M 44.85 55.37 C 44.85 56.22 45.83 56.92 47.04 56.92 C 48.24 56.92 49.22 56.22 49.22 55.37 C 49.22 54.52 48.24 53.82 47.04 53.82 C 45.83 53.82 44.85 54.52 44.85 55.37" />
    <path fill="#f4a423" fill-rule="evenodd" d="M 50.35 55.37 C 50.35 56.22 51.32 56.92 52.53 56.92 C 53.73 56.92 54.71 56.22 54.71 55.37 C 54.71 54.52 53.73 53.82 52.53 53.82 C 51.32 53.82 50.35 54.52 50.35 55.37" />
    <path fill="#f4a423" fill-rule="evenodd" d="M 14.41 56.92 C 15.62 56.92 16.6 56.22 16.6 55.37 C 16.6 54.52 15.62 53.82 14.41 53.82 C 13.21 53.82 12.23 54.52 12.23 55.37 C 12.23 56.22 13.21 56.92 14.41 56.92" />
    <path fill="#f4a423" fill-rule="evenodd" d="M 55.5 55.37 C 55.5 56.22 56.48 56.92 57.68 56.92 C 58.89 56.92 59.87 56.22 59.87 55.37 C 59.87 54.52 58.89 53.82 57.68 53.82 C 56.48 53.82 55.5 54.52 55.5 55.37" />
    <path fill="#f4a423" fill-rule="evenodd" d="M 55.18 51.57 C 56.39 51.57 57.37 50.88 57.37 50.03 C 57.37 49.17 56.39 48.48 55.18 48.48 C 53.98 48.48 53 49.17 53 50.03 C 53 50.88 53.98 51.57 55.18 51.57" />
</svg>