<?xml version="1.0" encoding="utf-8"?>
<!-- Generator: Avocode 0.4.0 - http://avocode.com -->
<svg height="41" width="56" xmlns:xlink="http://www.w3.org/1999/xlink" xmlns="http://www.w3.org/2000/svg" viewBox="0 0 56 41">
    <path fill="#f4a423" fill-rule="evenodd" d="M 31.27 7.98 L 12.08 7.98 C 11.12 7.98 10.36 8.74 10.36 9.7 C 10.36 10.66 11.12 11.43 12.08 11.43 L 31.27 11.43 C 32.23 11.43 32.99 10.66 32.99 9.7 C 32.99 8.74 32.23 7.98 31.27 7.98" />
    <path fill="#f4a423" fill-rule="evenodd" d="M 31.27 20.52 L 12.08 20.52 C 11.12 20.52 10.36 21.29 10.36 22.25 C 10.36 23.21 11.12 23.98 12.08 23.98 L 31.27 23.98 C 32.23 23.98 32.99 23.21 32.99 22.25 C 32.99 21.29 32.23 20.52 31.27 20.52" />
    <path fill="#f4a423" fill-rule="evenodd" d="M 31.27 14.25 L 12.08 14.25 C 11.12 14.25 10.36 15.02 10.36 15.98 C 10.36 16.94 11.12 17.71 12.08 17.71 L 31.27 17.71 C 32.23 17.71 32.99 16.94 32.99 15.98 C 32.99 15.02 32.23 14.25 31.27 14.25" />
    <path fill="none" fill-rule="evenodd" d="M 44.05 0.17 L 0 0.17 L 0 39.08 L 44.05 39.08 L 44.05 0.17 L 44.05 0.17 Z M 44.05 0.17" />
    <path fill="#f4a423" fill-rule="evenodd" d="M 44.05 16.1 C 44.05 7.27 34.2 0.17 22.06 0.17 C 9.85 0.17 0 7.27 0 16.1 C 0 20.27 2.16 24.04 5.72 26.86 C 5.21 29.67 4 35.95 3.81 37.04 C 3.62 38.06 4.39 39.08 5.53 39.08 C 5.98 39.08 6.42 38.96 6.93 38.64 C 8.2 37.87 14.17 34.22 18.12 31.85 C 19.39 32.04 20.72 32.11 22.06 32.11 C 34.2 32.11 44.05 24.94 44.05 16.1" />
    <path fill="#ffffff" fill-rule="evenodd" d="M 29.49 22.49 L 13.86 22.49 C 13.08 22.49 12.46 21.87 12.46 21.09 C 12.46 20.3 13.08 19.68 13.86 19.68 L 29.49 19.68 C 30.27 19.68 30.89 20.3 30.89 21.09 C 30.89 21.87 30.27 22.49 29.49 22.49" />
    <path fill="#ffffff" fill-rule="evenodd" d="M 29.49 17.38 L 13.86 17.38 C 13.08 17.38 12.46 16.76 12.46 15.98 C 12.46 15.19 13.08 14.57 13.86 14.57 L 29.49 14.57 C 30.27 14.57 30.89 15.19 30.89 15.98 C 30.89 16.76 30.27 17.38 29.49 17.38" />
    <path fill="#ffffff" fill-rule="evenodd" d="M 29.49 12.27 L 13.86 12.27 C 13.08 12.27 12.46 11.65 12.46 10.87 C 12.46 10.08 13.08 9.46 13.86 9.46 L 29.49 9.46 C 30.27 9.46 30.89 10.08 30.89 10.87 C 30.89 11.65 30.27 12.27 29.49 12.27" />
    <path fill="#219a7f" fill-rule="evenodd" d="M 51.17 29.99 C 54.16 27.63 56 24.43 56 20.97 C 56 15.34 51.23 10.54 44.49 8.55 C 45.89 10.86 46.66 13.48 46.66 16.17 C 46.66 24.11 40.11 30.83 30.89 33.58 C 32.93 34.16 35.15 34.48 37.44 34.48 C 38.58 34.48 39.66 34.41 40.74 34.28 C 44.05 36.27 49.14 39.34 50.22 39.98 C 51.87 41 53.01 39.79 52.82 38.64 C 52.63 37.68 51.61 32.3 51.17 29.99" />
</svg>