<?xml version="1.0" encoding="utf-8"?>
<!-- Generator: Avocode 0.4.0 - http://avocode.com -->
<svg height="46" width="53" xmlns:xlink="http://www.w3.org/1999/xlink" xmlns="http://www.w3.org/2000/svg" viewBox="0 0 53 46">
    <path fill="#f4a423" fill-rule="evenodd" d="M 42.29 11.75 C 42.38 11.63 42.41 11.48 42.39 11.33 L 42.18 10.18 C 42.14 9.91 41.9 9.72 41.62 9.72 L 41.56 9.72 L 8.45 15.38 C 8.15 15.43 7.94 15.72 7.99 16.03 L 8.19 17.18 C 8.24 17.45 8.48 17.64 8.75 17.64 L 8.82 17.64 L 41.93 11.98 C 42.07 11.95 42.21 11.87 42.29 11.75" />
    <path fill="#f4a423" fill-rule="evenodd" d="M 42.91 15.95 L 42.85 15.95 L 15.97 20.55 C 15.82 20.57 15.69 20.65 15.6 20.78 C 15.51 20.9 15.48 21.05 15.51 21.19 L 15.71 22.34 C 15.76 22.61 16 22.8 16.27 22.8 L 16.33 22.8 L 43.21 18.2 C 43.36 18.18 43.49 18.1 43.58 17.98 C 43.67 17.86 43.7 17.71 43.68 17.56 L 43.47 16.41 C 43.43 16.14 43.19 15.95 42.91 15.95" />
    <path fill="none" fill-rule="evenodd" d="M 0 45.28 L 52.95 45.28 L 52.95 0.32 L 0 0.32 L 0 45.28 L 0 45.28 Z M 0 45.28" />
    <path fill="#219a7f" fill-rule="evenodd" d="M 26.48 32.15 L 5.86 19.4 L 4.63 12.49 L 44.17 5.73 L 46.65 19.67 L 26.48 32.15 Z M 52.82 16.52 L 48.11 13.61 C 48.04 13.56 47.97 13.46 47.95 13.38 L 46.14 3.17 C 46.12 3.09 46.04 3.03 45.96 3.05 L 34.36 5.03 C 34.27 5.04 34.15 5.02 34.07 4.97 L 26.61 0.36 C 26.54 0.31 26.42 0.31 26.34 0.36 L 12.97 8.63 C 12.9 8.67 12.77 8.72 12.69 8.73 L 2.03 10.56 C 1.94 10.57 1.88 10.65 1.9 10.74 L 2.62 14.81 C 2.64 14.9 2.59 15 2.52 15.05 L 0.13 16.52 C 0.06 16.57 0 16.63 0 16.67 L 0 16.88 L 0 45.13 C 0 45.21 0.07 45.28 0.15 45.28 L 52.8 45.28 C 52.88 45.28 52.95 45.21 52.95 45.13 L 52.95 16.88 L 52.95 16.67 C 52.95 16.63 52.89 16.57 52.82 16.52 L 52.82 16.52 Z M 52.82 16.52" />
</svg>