<?xml version="1.0" encoding="utf-8"?>
<!-- Generator: Avocode 2.6.0 - http://avocode.com -->
<svg height="97" width="80" xmlns:xlink="http://www.w3.org/1999/xlink" xmlns="http://www.w3.org/2000/svg" viewBox="0 0 80 97">
    <path fill="#62c4b5" fill-rule="evenodd" d="M 44.93 79.83 L 39.76 76.07 L 34.59 79.89 L 36.56 73.6 L 31.39 69.67 L 37.78 69.67 L 39.76 63.51 L 32.9 62.29 L 33.97 52.74 L 41.9 49.06 L 47.48 57.08 L 39.76 63.51 L 41.73 69.67 L 48.13 69.67 L 42.95 73.61 L 44.93 79.83 Z M 70.85 56.54 C 68.28 50.03 68.28 46.4 65.27 44.23 C 62.27 42.06 62.27 41.98 62.27 41.98 C 62.27 41.98 64.2 40.42 66.35 39.34 C 68.49 38.25 59.13 39.54 54.77 38.01 C 51.35 36.82 48.64 36.14 45.53 36.48 L 43.19 37.57 C 43.19 37.57 42.69 33.87 41.54 31.05 C 40.4 28.23 40.17 27.21 40.62 27.15 C 42.03 25.98 43.53 23.74 44.31 20.42 C 45.26 16.41 42.55 16.3 42.55 16.3 C 42.55 16.3 43.83 11.74 43.62 7.84 C 43.4 3.94 31.61 0.46 23.46 0.03 C 15.31 -0.4 13.6 4.04 15.53 10.98 C 15.53 10.98 13.06 15.16 15.85 24.76 C 18.49 33.86 21.1 37.13 21.1 37.13 L 21.1 42.33 C 21.1 42.33 20.1 41.13 19.24 40.91 C 18.38 40.7 2.07 47.7 0.36 49.14 C 2.93 51.01 4.08 51.01 4.08 51.01 C 4.08 51.01 2.41 55.02 0.48 60.88 C -1.45 66.74 3.09 97 3.09 97 L 54.55 97 L 51.44 88.97 C 51.44 88.97 53.05 84.31 55.63 79.97 C 56.48 84.74 60.99 88.7 60.99 88.7 L 58.41 97 L 75.14 97 C 75.14 97 78.57 89.5 79.86 81.65 C 81.14 73.79 73.42 63.05 70.85 56.54 L 70.85 56.54 Z M 70.85 56.54" />
    <path fill="#ff911d" fill-rule="evenodd" d="M 45.46 51 L 34.88 54.63 L 34 61 L 50 56.34 L 45.46 51 Z M 45.46 51" />
</svg>