<?xml version="1.0" encoding="utf-8"?>
<!-- Generator: Avocode 2.6.0 - http://avocode.com -->
<svg height="33" width="33" xmlns:xlink="http://www.w3.org/1999/xlink" xmlns="http://www.w3.org/2000/svg" viewBox="0 0 35 35">
    <title>facebook.com</title>
    <path fill="#0853a5" fill-rule="evenodd" transform="translate(1 1)" d="M 17.63 33 L 1.82 33 C 0.82 33 0 32.18 0 31.18 L 0 1.82 C 0 0.82 0.82 0 1.82 0 L 31.18 0 C 32.18 0 33 0.82 33 1.82 L 33 31.18 C 33 32.18 32.18 33 31.18 33 L 22.77 33 L 22.77 20.22 L 27.06 20.22 L 27.7 15.24 L 22.77 15.24 L 22.77 12.06 C 22.77 10.62 23.17 9.64 25.24 9.64 L 27.87 9.63 L 27.87 5.18 C 27.42 5.12 25.85 4.98 24.03 4.98 C 20.23 4.98 17.63 7.31 17.63 11.57 L 17.63 15.24 L 13.33 15.24 L 13.33 20.22 L 17.63 20.22 L 17.63 33 L 17.63 33 Z M 17.63 33" />
</svg>
