<?xml version="1.0" encoding="utf-8"?>
<!-- Generator: Avocode 2.6.0 - http://avocode.com -->
<svg height="37" width="42" xmlns:xlink="http://www.w3.org/1999/xlink" xmlns="http://www.w3.org/2000/svg" viewBox="0 0 42 37">
    <path stroke-linejoin="miter" stroke-linecap="butt" stroke-width="2" stroke="#ffffff" fill="none" fill-rule="evenodd" d="M 5.74 2.46 C 7.39 1.49 9.28 1 11.2 1 C 13.5 1 15.86 1.7 17.88 3.17 C 18.96 3.96 19.92 4.97 20.72 6.19 C 21.56 5 22.56 4 23.67 3.24 C 25.77 1.8 28.19 1.11 30.57 1.11 C 33.16 1.11 35.73 1.93 37.72 3.64 C 38.7 4.5 39.54 5.58 40.11 6.85 C 40.69 8.12 41 9.58 41 11.17 C 41 23.14 22.03 35.58 22 35.6 C 21.39 36.02 20.61 36.02 20.01 35.6 C 19.96 35.56 15.34 32.37 10.66 27.8 C 8.32 25.52 5.96 22.89 4.14 20.09 C 3.24 18.69 2.46 17.25 1.9 15.76 C 1.34 14.27 1 12.73 1 11.17 C 1 9.58 1.3 8.12 1.86 6.84 C 2.69 4.92 4.09 3.43 5.74 2.46 Z M 5.74 2.46" />
</svg>