<?xml version="1.0" encoding="utf-8"?>
<!-- Generator: Avocode 2.6.0 - http://avocode.com -->
<svg height="20" width="20" xmlns:xlink="http://www.w3.org/1999/xlink" xmlns="http://www.w3.org/2000/svg" viewBox="0 0 20 20">
    <path fill="#1f9b7f" fill-rule="evenodd" d="M 18.57 10 C 17.7 10 17.29 10.61 17.14 11.26 C 16.62 13.59 14.4 17.14 10 17.14 C 6.05 17.14 2.86 13.94 2.86 10 C 2.86 6.06 6.05 2.86 10 2.86 C 11.6 2.86 13.07 3.39 14.26 4.29 L 12.86 4.29 C 12.07 4.29 11.43 4.93 11.43 5.71 C 11.43 6.5 12.07 7.14 12.86 7.14 L 17.14 7.14 C 17.93 7.14 18.57 6.5 18.57 5.71 L 18.57 1.43 C 18.57 0.64 17.93 0 17.14 0 C 16.35 0 15.71 0.64 15.71 1.43 L 15.71 1.8 C 14.1 0.67 12.13 0 10 0 C 4.48 0 0 4.48 0 10 C 0 15.52 4.48 20 10 20 C 17.13 20 20 13.21 20 11.52 C 20 10.48 19.24 10 18.57 10" />
</svg>