<?xml version="1.0" encoding="utf-8"?>
<!-- Generator: Avocode 2.6.0 - http://avocode.com -->
<svg height="14" width="17" xmlns:xlink="http://www.w3.org/1999/xlink" xmlns="http://www.w3.org/2000/svg" viewBox="0 0 17 14">
    <path fill="#000000" fill-rule="evenodd" d="M 5.56 5.28 C 5.56 4.99 5.32 4.75 5.03 4.75 L 0.53 4.75 C 0.24 4.75 0 4.99 0 5.28 L 0 12 C 0 12.29 0.24 12.53 0.53 12.53 L 5.03 12.53 C 5.32 12.53 5.56 12.29 5.56 12 L 5.56 5.28 L 5.56 5.28 Z M 15.81 5.65 L 11.98 5.65 L 12.28 4.17 C 12.35 3.83 12.39 3.48 12.41 3.13 L 12.49 1.23 C 12.51 0.64 12.09 0.11 11.49 0.02 C 10.78 -0.1 10.14 0.42 10.11 1.1 L 10.01 2.06 C 9.94 2.73 9.63 3.36 9.14 3.85 L 6.48 6.45 C 6.35 6.58 6.27 6.76 6.27 6.95 L 6.27 11.54 C 6.27 11.85 6.46 12.14 6.76 12.27 L 7.55 12.61 C 8.35 12.96 9.22 13.57 10.09 13.57 L 14.25 13.57 C 14.86 13.57 15.37 13.09 15.37 12.49 C 15.37 12.21 15.26 11.96 15.08 11.77 C 15.61 11.66 16.02 11.19 16.02 10.64 C 16.02 10.33 15.88 10.04 15.67 9.83 C 16.17 9.69 16.53 9.25 16.53 8.72 C 16.53 8.4 16.39 8.11 16.17 7.9 C 16.65 7.75 17 7.32 17 6.81 C 17 6.17 16.46 5.65 15.81 5.65 L 15.81 5.65 Z M 15.81 5.65" />
</svg>