<?xml version="1.0" encoding="utf-8"?>
<!-- Generator: Avocode 2.6.0 - http://avocode.com -->
<svg height="33" width="33" xmlns:xlink="http://www.w3.org/1999/xlink" xmlns="http://www.w3.org/2000/svg" viewBox="0 0 35 35">
    <title>vk.com</title>
    <path fill="#40778d" fill-rule="evenodd" transform="translate(1 1)" d="M 0 3 C 0 1.34 1.33 0 3 0 L 30 0 C 31.66 0 33 1.33 33 3 L 33 30 C 33 31.66 31.67 33 30 33 L 3 33 C 1.34 33 0 31.67 0 30 L 0 3 Z M 10.92 7.2 L 16.49 7.2 C 17.08 7.2 17.6 7.22 18.06 7.26 C 18.51 7.31 18.93 7.38 19.31 7.5 C 19.69 7.61 20.04 7.78 20.36 7.98 C 20.68 8.19 21.01 8.45 21.34 8.76 C 22.06 9.49 22.43 10.46 22.43 11.68 C 22.43 12.49 22.26 13.17 21.92 13.72 C 21.58 14.28 21.11 14.73 20.5 15.07 C 21.47 15.25 22.27 15.72 22.91 16.48 C 23.54 17.24 23.86 18.18 23.86 19.3 C 23.86 20.87 23.36 22.15 22.35 23.14 C 21.84 23.65 21.16 24.05 20.3 24.33 C 19.44 24.61 18.24 24.75 16.68 24.75 L 10.92 24.75 L 10.92 7.2 Z M 16.31 14.03 C 17.14 14.03 17.72 13.86 18.07 13.51 C 18.25 13.33 18.4 13.12 18.52 12.87 C 18.63 12.62 18.69 12.33 18.69 12 C 18.69 11.81 18.66 11.6 18.59 11.38 C 18.52 11.17 18.41 10.98 18.24 10.82 C 18.05 10.62 17.81 10.48 17.55 10.39 C 17.29 10.31 16.9 10.27 16.39 10.27 L 14.63 10.27 L 14.63 14.03 L 16.31 14.03 Z M 16.96 21.66 C 18.05 21.66 18.83 21.46 19.32 21.07 C 19.81 20.69 20.05 20.12 20.05 19.38 C 20.05 19.1 20.01 18.81 19.93 18.5 C 19.84 18.2 19.7 17.94 19.51 17.75 C 19.21 17.45 18.87 17.26 18.48 17.19 C 18.09 17.11 17.63 17.08 17.1 17.08 L 14.63 17.08 L 14.63 21.66 L 16.96 21.66 Z M 16.96 21.66" />
</svg>
