<?xml version="1.0" encoding="utf-8"?>
<!-- Generator: Avocode 2.6.0 - http://avocode.com -->
<svg height="63" width="63" xmlns:xlink="http://www.w3.org/1999/xlink" xmlns="http://www.w3.org/2000/svg" viewBox="0 0 63 63">
    <defs>
        <linearGradient id="gradient1" x1="0%" y1="0%" x2="0%" y2="100%">
            <stop class="stop1" offset="0%" stop-color="#c8c8c8"/>
            <stop class="stop2" offset="50%" stop-color="#777"/>
            <stop class="stop3" offset="100%" stop-color="#c8c8c8"/>
        </linearGradient>
    </defs>
    <path fill="#ababab" fill-rule="evenodd" d="M 22 30.52 L 25.01 30.52 L 25.01 17 L 32.77 17 C 34.21 17 35.52 17.16 36.71 17.49 C 37.9 17.81 38.91 18.31 39.76 18.97 C 40.61 19.64 41.27 20.48 41.75 21.49 C 42.23 22.51 42.47 23.73 42.47 25.14 C 42.47 26.55 42.22 27.78 41.71 28.83 C 41.2 29.87 40.51 30.74 39.63 31.43 C 38.76 32.13 37.73 32.64 36.54 32.98 C 35.35 33.32 34.07 33.49 32.68 33.49 L 28.4 33.49 L 28.4 37.77 L 35.23 37.77 L 35.23 40.57 L 28.4 40.57 L 28.4 46.55 L 25.01 46.55 L 25.01 40.57 L 22 40.57 L 22 37.77 L 25.01 37.77 L 25.01 33.49 L 22 33.49 L 22 30.52 Z M 32.77 30.52 C 34.72 30.52 36.25 30.08 37.37 29.19 C 38.48 28.3 39.04 26.95 39.04 25.14 C 39.04 23.33 38.48 22.02 37.37 21.2 C 36.25 20.38 34.72 19.97 32.77 19.97 L 28.4 19.97 L 28.4 30.52 L 32.77 30.52 Z M 32.77 30.52" />
    <path stroke-linejoin="miter" stroke-linecap="butt" stroke-width="6" stroke="url(#gradient1)" fill="none" fill-rule="evenodd" d="M 31.5 60 C 47.24 60 60 47.24 60 31.5 C 60 15.76 47.24 3 31.5 3 C 15.76 3 3 15.76 3 31.5 C 3 47.24 15.76 60 31.5 60 Z M 31.5 60" />
</svg>
