<?xml version="1.0" encoding="utf-8"?>
<!-- Generator: Avocode 2.6.0 - http://avocode.com -->
<svg height="234" width="283" xmlns:xlink="http://www.w3.org/1999/xlink" xmlns="http://www.w3.org/2000/svg" viewBox="0 0 283 234">
    <defs>
        <radialGradient y2="100%" y1="0%" x2="0%" x1="0%" id="gradient-1">
            <stop stop-color="#00fba0" offset="0%" />
            <stop stop-color="#14a276" offset="100%" />
        </radialGradient>
        <radialGradient y2="100%" y1="0%" x2="0%" x1="0%" id="gradient-2">
            <stop stop-color="#00fba0" offset="0%" />
            <stop stop-color="#14a276" offset="100%" />
        </radialGradient>
        <radialGradient y2="100%" y1="0%" x2="0%" x1="0%" id="gradient-3">
            <stop stop-color="#00fba0" offset="0%" />
            <stop stop-color="#14a276" offset="100%" />
        </radialGradient>
        <radialGradient y2="100%" y1="0%" x2="0%" x1="0%" id="gradient-4">
            <stop stop-color="#00fba0" offset="0%" />
            <stop stop-color="#14a276" offset="100%" />
        </radialGradient>
    </defs>
    <path fill="url(#gradient-1)" fill-rule="evenodd" d="M 222.35 9.76 C 224.81 18.02 229.55 28.11 237.04 32.94 C 240.92 24.41 234.22 13.32 228.38 7.43 C 225.98 5 223.28 2.85 220.38 1.05 C 220.82 3.99 221.5 6.91 222.35 9.76 M 246.26 205.66 C 235.9 207.64 223.78 212.3 216.61 220.36 C 226.74 226.73 239.04 220.16 247.4 213.82 C 250.76 211.09 253.78 207.95 256.4 204.5 C 253 204.6 249.6 205.02 246.26 205.66 M 262.68 179.03 C 252.85 183.48 243.39 189.82 238.06 199.48 C 248.5 203.09 259.62 194.18 265.74 186.32 C 268.26 183.06 270.38 179.48 272.05 175.71 C 268.85 176.56 265.71 177.7 262.68 179.03 M 272.78 149.46 C 265.01 155.54 256.52 164.68 254.1 174.53 C 265.48 175.33 272.96 164.74 277.38 155.65 C 279.04 151.92 280.24 147.97 280.98 143.95 C 278.11 145.57 275.37 147.44 272.78 149.46 M 276.05 117.53 C 270.15 125.37 264.11 136.45 264.1 146.52 C 275.21 144.37 279.82 132.16 281.86 122.34 C 282.57 118.58 282.75 113.93 282.54 110.11 C 280.19 112.42 278.06 114.87 276.05 117.53 M 272 85.76 C 268.01 94.67 265.1 106.27 267.48 115.98 C 277.29 111.07 278.93 98.48 278.59 88.66 C 278.33 84.85 277.63 81.06 276.49 77.41 C 274.78 80.07 273.29 82.88 272 85.76 M 261.26 56.8 C 259.49 65.8 259.18 77.27 263.72 85.55 C 271.76 78.7 270.63 66.95 268.08 57.78 C 267 54.34 265.51 51.02 263.66 47.93 C 262.64 50.81 261.84 53.79 261.26 56.8 M 244.49 31.17 C 245.04 40.34 247.07 50.69 253.39 57.7 C 257.33 52.41 256.93 46.28 255.42 40.17 C 253.65 33.62 249.41 26.92 244.66 22.07 C 244.38 25.09 244.34 28.14 244.49 31.17 M 197.19 7.06 C 202.72 12.39 211.13 18.61 219.18 18.59 C 217.67 9.92 207.87 3.91 200.03 1.9 C 197.23 1.18 194.34 0.81 191.45 0.83 C 193.24 3.01 195.16 5.1 197.19 7.06 M 211.32 23.58 C 219.8 23.6 229.81 27.84 233.19 36.17 C 223.55 38.82 210.59 31 203.32 24.7 C 205.92 23.95 208.61 23.57 211.32 23.58 M 226.37 189.45 C 227.56 199.75 223.07 211.46 213.46 216.27 C 210.1 208.02 214.99 196.03 218.92 188.75 C 220.44 185.95 222.12 183.23 223.94 180.61 C 225.2 183.42 226.01 186.4 226.37 189.45 M 240.73 168.14 C 242.56 173.84 242.85 178.51 241.47 184.35 C 240.03 189.27 238.01 192.88 234.08 196.22 C 229.35 188.48 231.13 177.3 233.52 168.88 C 234.37 165.93 235.4 163.04 236.59 160.21 C 238.36 162.63 239.76 165.3 240.73 168.14 M 250.07 144.01 C 254.96 152.39 255.93 164.38 249.51 172.26 C 241.62 164.68 242.55 147.38 244.52 137.11 C 246.7 139.12 248.57 141.45 250.07 144.01 M 253.83 117.41 C 260.19 124.69 263.67 136.29 259.13 145.36 C 250.01 139.59 247.38 122.54 247.07 111.71 C 249.63 113.3 251.82 115.11 253.83 117.41 M 251.45 90.47 C 259.26 96.03 264.74 106.32 262.4 116.01 C 252.7 112.29 246.24 96.43 243.85 86.61 C 246.56 87.51 249.12 88.81 251.45 90.47 M 243.3 65.49 C 251.58 69 259.09 77.3 258.8 86.76 C 248.67 85.32 239.52 72.3 235.28 63.4 C 238.04 63.7 240.74 64.4 243.3 65.49 M 229.78 42.91 C 234.65 44.02 238.17 45.67 242.03 48.85 C 245.62 52.02 247.91 55.24 248.89 59.99 C 238.19 60.33 227.77 50.52 221.58 42.39 C 224.33 42.17 227.09 42.34 229.78 42.91" />
    <path fill="url(#gradient-2)" fill-rule="evenodd" d="M 219.44 19 C 229.73 28.03 236.88 36.27 244.35 47.74 C 258.22 70.58 263.82 90.23 264.25 116.96 C 263.54 143.59 257.75 163.13 243.65 185.72 C 229.13 207 214.11 220.08 191 231.48 C 191.4 232.32 191.79 233.16 192.19 234 C 215.72 222.26 230.99 208.84 245.66 187.03 C 259.83 163.95 265.56 144.04 266 116.96 C 265.27 89.97 259.37 70.17 244.96 47.34 C 237.26 35.96 229.96 27.84 219.44 19" />
    <path fill="url(#gradient-3)" fill-rule="evenodd" d="M 60.28 9.76 C 57.81 18.02 53.07 28.11 45.59 32.94 C 41.7 24.41 48.4 13.32 54.24 7.43 C 56.65 5 59.34 2.85 62.25 1.05 C 61.8 3.99 61.13 6.91 60.28 9.76 M 36.37 205.66 C 46.72 207.64 58.84 212.3 66.02 220.36 C 55.89 226.73 43.58 220.16 35.22 213.82 C 31.87 211.09 28.84 207.95 26.22 204.5 C 29.62 204.6 33.03 205.02 36.37 205.66 M 19.94 179.03 C 29.77 183.48 39.24 189.82 44.56 199.48 C 34.12 203.09 23.01 194.18 16.88 186.32 C 14.36 183.06 12.25 179.48 10.57 175.71 C 13.77 176.56 16.91 177.7 19.94 179.03 M 9.84 149.46 C 17.61 155.54 26.11 164.68 28.53 174.53 C 17.15 175.33 9.66 164.74 5.25 155.65 C 3.59 151.92 2.39 147.97 1.65 143.95 C 4.51 145.57 7.25 147.44 9.84 149.46 M 6.58 117.53 C 12.48 125.37 18.52 136.45 18.53 146.52 C 7.41 144.37 2.8 132.16 0.76 122.34 C 0.05 118.58 -0.13 113.93 0.08 110.11 C 2.44 112.42 4.57 114.87 6.58 117.53 M 10.62 85.76 C 14.61 94.67 17.52 106.27 15.15 115.98 C 5.33 111.07 3.69 98.48 4.03 88.66 C 4.29 84.85 5 81.06 6.13 77.41 C 7.84 80.07 9.33 82.88 10.62 85.76 M 21.37 56.8 C 23.13 65.8 23.44 77.27 18.91 85.55 C 10.87 78.7 12 66.95 14.54 57.78 C 15.62 54.34 17.11 51.02 18.96 47.93 C 19.99 50.81 20.78 53.79 21.37 56.8 M 38.13 31.17 C 37.58 40.34 35.55 50.69 29.24 57.7 C 25.3 52.41 25.7 46.28 27.2 40.17 C 28.97 33.62 33.22 26.92 37.97 22.07 C 38.25 25.09 38.29 28.14 38.13 31.17 M 85.43 7.06 C 79.9 12.39 71.49 18.61 63.45 18.59 C 64.96 9.92 74.76 3.91 82.6 1.9 C 85.39 1.18 88.28 0.81 91.17 0.83 C 89.38 3.01 87.46 5.1 85.43 7.06 M 71.31 23.58 C 62.82 23.6 52.81 27.84 49.43 36.17 C 59.08 38.82 72.04 31 79.3 24.7 C 76.7 23.95 74.01 23.57 71.31 23.58 M 56.25 189.45 C 55.06 199.75 59.55 211.46 69.17 216.27 C 72.52 208.02 67.63 196.03 63.7 188.75 C 62.19 185.95 60.51 183.23 58.68 180.61 C 57.43 183.42 56.61 186.4 56.25 189.45 M 41.89 168.14 C 40.06 173.84 39.77 178.51 41.16 184.35 C 42.59 189.27 44.61 192.88 48.54 196.22 C 53.27 188.48 51.5 177.3 49.1 168.88 C 48.26 165.93 47.23 163.04 46.03 160.21 C 44.26 162.63 42.87 165.3 41.89 168.14 M 32.56 144.01 C 27.67 152.39 26.7 164.38 33.12 172.26 C 41.01 164.68 40.08 147.38 38.11 137.11 C 35.92 139.12 34.06 141.45 32.56 144.01 M 28.8 117.41 C 22.43 124.69 18.95 136.29 23.5 145.36 C 32.61 139.59 35.24 122.54 35.55 111.71 C 32.99 113.3 30.8 115.11 28.8 117.41 M 31.17 90.47 C 23.37 96.03 17.89 106.32 20.23 116.01 C 29.93 112.29 36.39 96.43 38.77 86.61 C 36.06 87.51 33.5 88.81 31.17 90.47 M 39.33 65.49 C 31.04 69 23.53 77.3 23.82 86.76 C 33.95 85.32 43.11 72.3 47.35 63.4 C 44.59 63.7 41.89 64.4 39.33 65.49 M 52.84 42.91 C 47.97 44.02 44.45 45.67 40.59 48.85 C 37.01 52.02 34.71 55.24 33.73 59.99 C 44.43 60.33 54.85 50.52 61.04 42.39 C 58.3 42.17 55.53 42.34 52.84 42.91" />
    <path fill="url(#gradient-4)" fill-rule="evenodd" d="M 63.56 19 C 53.27 28.03 46.12 36.27 38.65 47.74 C 24.78 70.58 19.18 90.23 18.75 116.96 C 19.46 143.59 25.25 163.13 39.35 185.72 C 53.87 207 68.89 220.08 92 231.48 C 91.6 232.32 91.21 233.16 90.81 234 C 67.28 222.26 52.01 208.84 37.34 187.03 C 23.16 163.95 17.44 144.04 17 116.96 C 17.72 89.97 23.63 70.17 38.04 47.34 C 45.74 35.96 53.04 27.84 63.56 19" />
</svg>