<svg id="SvgjsSvg1039" xmlns="http://www.w3.org/2000/svg" version="1.1" xmlns:xlink="http://www.w3.org/1999/xlink" xmlns:svgjs="http://svgjs.com/svgjs" width="57" height="55"><defs id="SvgjsDefs1040"></defs><path id="SvgjsPath1041" d="M1141 5055.2L1141 5078C1141 5080.7 1143.2 5083 1146 5083C1147.4 5083 1148.5 5081.9 1148.5 5080.5C1148.5 5079.1 1147.4 5078 1146 5078L1146 5055.2L1152.3 5055.2L1152.3 5076.7C1152.3 5081.4 1156.1 5085.3 1160.8999999999999 5085.3L1183.8999999999999 5085.3C1189.6 5085.3 1193.3999999999999 5082.2 1193.9999999999998 5077L1197.0999999999997 5057.7L1197.0999999999997 5057.3L1197.0999999999997 5057.1C1197.0999999999997 5052.400000000001 1193.2999999999997 5048.5 1188.4999999999998 5048.5L1183.2999999999997 5048.5C1181.8999999999996 5048.5 1180.7999999999997 5049.6 1180.7999999999997 5051C1180.7999999999997 5052.4 1181.8999999999996 5053.5 1183.2999999999997 5053.5L1188.4999999999998 5053.5C1190.4999999999998 5053.5 1192.0999999999997 5055.1 1192.0999999999997 5057.1L1188.9999999999998 5076.3C1188.8999999999999 5077.400000000001 1188.4999999999998 5080.3 1183.8999999999999 5080.3L1160.8999999999999 5080.3C1158.8999999999999 5080.3 1157.3 5078.7 1157.3 5076.7L1157.3 5056.9C1159 5056.4 1168.8 5052.9 1168.8 5043.299999999999L1168.8 5035.999999999999C1169.7 5035.999999999999 1170.8 5036.099999999999 1171.5 5036.699999999999C1172.5 5037.499999999999 1173 5038.999999999999 1173 5041.199999999999L1173 5050.899999999999C1173 5052.299999999998 1174.1 5053.399999999999 1175.5 5053.399999999999C1176.9 5053.399999999999 1178 5052.299999999998 1178 5050.899999999999L1178 5041.0999999999985C1178 5037.199999999999 1176.9 5034.299999999998 1174.5 5032.5999999999985C1172.7 5031.399999999999 1170.8 5030.999999999998 1169.1 5030.999999999998C1167.3 5030.999999999998 1165.8999999999999 5031.399999999998 1165.6 5031.499999999998C1164.5 5031.799999999998 1163.8 5032.799999999998 1163.8 5033.899999999998L1163.8 5043.299999999997C1163.8 5048.899999999998 1157.8999999999999 5051.399999999998 1156.2 5051.999999999997C1155.3 5050.899999999997 1153.9 5050.099999999998 1152.3 5050.099999999998L1146 5050.099999999998C1143.2 5050.099999999998 1141 5052.399999999998 1141 5055.199999999998 " fill="#1f9b7f" fill-opacity="1" transform="matrix(1,0,0,1,-1141,-5031)"></path></svg>