<?xml version="1.0" encoding="utf-8"?>
<!-- Generator: Avocode 0.4.0 - http://avocode.com -->
<svg height="97" width="111" xmlns:xlink="http://www.w3.org/1999/xlink" xmlns="http://www.w3.org/2000/svg" viewBox="0 0 111 97">
    <path fill="#f4a423" fill-rule="evenodd" d="M 88.57 25.08 C 88.76 24.82 88.83 24.5 88.77 24.19 L 88.35 21.73 C 88.25 21.16 87.76 20.74 87.17 20.74 L 87.04 20.75 L 17.7 32.83 C 17.06 32.94 16.62 33.55 16.72 34.21 L 17.16 36.68 C 17.26 37.25 17.75 37.66 18.33 37.66 L 18.47 37.66 L 87.81 25.57 C 88.12 25.52 88.39 25.34 88.57 25.08" />
    <path fill="#f4a423" fill-rule="evenodd" d="M 89.87 34.05 L 89.74 34.05 L 33.45 43.86 C 33.13 43.92 32.86 44.09 32.68 44.35 C 32.49 44.62 32.42 44.93 32.48 45.24 L 32.91 47.7 C 33.01 48.27 33.5 48.68 34.08 48.68 L 34.21 48.67 L 90.5 38.86 C 90.81 38.81 91.09 38.64 91.27 38.38 C 91.46 38.12 91.53 37.8 91.48 37.48 L 91.05 35.04 C 90.95 34.46 90.46 34.05 89.87 34.05" />
    <path fill="none" fill-rule="evenodd" d="M 0 96.67 L 110.9 96.67 L 110.9 0.69 L 0 0.69 L 0 96.67 L 0 96.67 Z M 0 96.67" />
    <path fill="#219a7f" fill-rule="evenodd" d="M 55.45 68.63 L 12.27 41.41 L 9.7 26.66 L 92.51 12.22 L 97.7 41.99 L 55.45 68.63 Z M 110.62 35.27 L 100.76 29.05 C 100.61 28.95 100.46 28.73 100.43 28.55 L 96.63 6.77 C 96.6 6.59 96.43 6.47 96.25 6.5 L 71.96 10.74 C 71.78 10.77 71.51 10.71 71.36 10.62 L 55.73 0.76 C 55.57 0.66 55.33 0.66 55.17 0.76 L 27.17 18.42 C 27.02 18.51 26.75 18.62 26.57 18.65 L 4.24 22.54 C 4.07 22.57 3.95 22.74 3.97 22.92 L 5.5 31.62 C 5.53 31.8 5.43 32.02 5.28 32.12 L 0.28 35.27 C 0.12 35.37 0 35.5 0 35.58 L 0 36.04 L 0 96.34 C 0 96.52 0.15 96.67 0.32 96.67 L 110.58 96.67 C 110.75 96.67 110.9 96.52 110.9 96.34 L 110.9 36.04 L 110.9 35.58 C 110.9 35.51 110.78 35.37 110.62 35.27 L 110.62 35.27 Z M 110.62 35.27" />
</svg>