<svg id="SvgjsSvg1036" xmlns="http://www.w3.org/2000/svg" version="1.1" xmlns:xlink="http://www.w3.org/1999/xlink" xmlns:svgjs="http://svgjs.com/svgjs" width="77" height="77"><defs id="SvgjsDefs1037"></defs><path id="SvgjsPath1038" d="M1168.2 3699.7C1187.2 3699.7 1202.7 3684.2 1202.7 3665.2C1202.7 3646.2 1187.3 3630.7 1168.2 3630.7C1149.1000000000001 3630.7 1133.7 3646.2 1133.7 3665.2C1133.7 3684.2 1149.2 3699.7 1168.2 3699.7ZM1172.4 3665.4C1169.7 3667 1169.8000000000002 3668.9 1169.8000000000002 3669L1169.8000000000002 3673.8C1169.8000000000002 3674.8 1169.0000000000002 3675.6000000000004 1168.0000000000002 3675.6000000000004C1167.0000000000002 3675.6000000000004 1166.1000000000001 3674.8 1166.1000000000001 3673.8L1166.1000000000001 3669.3C1166.0000000000002 3667.7000000000003 1166.8000000000002 3664.6000000000004 1170.4 3662.4C1172.2 3661.3 1174.3000000000002 3659.4 1174.3000000000002 3656.6C1174.3000000000002 3653.2 1171.5000000000002 3650.4 1168.1000000000001 3650.4C1164.7 3650.4 1161.9 3653.2000000000003 1161.9 3656.6C1161.9 3657.6 1161.1000000000001 3658.4 1160.1000000000001 3658.4C1159.1000000000001 3658.4 1158.3000000000002 3657.6 1158.3000000000002 3656.6C1158.3000000000002 3651.1 1162.7000000000003 3646.7 1168.2000000000003 3646.7C1173.7000000000003 3646.7 1178.1000000000004 3651 1178.1000000000004 3656.5C1178.1000000000004 3660 1176.1000000000004 3663.2 1172.4000000000003 3665.4ZM1167.8 3685.7C1166.7 3685.7 1165.8 3684.7999999999997 1165.8 3683.7C1165.8 3682.6 1166.7 3681.7 1167.8 3681.7C1168.8999999999999 3681.7 1169.8 3682.6 1169.8 3683.7C1169.8 3684.7999999999997 1168.8999999999999 3685.7 1167.8 3685.7ZM1168.2 3627C1189.2 3627 1206.4 3644.1 1206.4 3665.2C1206.4 3686.2999999999997 1189.3000000000002 3703.3999999999996 1168.2 3703.3999999999996C1147.1000000000001 3703.3999999999996 1130 3686.2999999999997 1130 3665.2C1130 3644.1 1147.1 3627 1168.2 3627Z " fill="#1f9b7f" fill-opacity="1" transform="matrix(1,0,0,1,-1130,-3627)"></path></svg>