<?xml version="1.0" encoding="utf-8"?>
<!-- Generator: Avocode 0.4.0 - http://avocode.com -->
<svg height="127" width="149" xmlns:xlink="http://www.w3.org/1999/xlink" xmlns="http://www.w3.org/2000/svg" viewBox="0 0 149 127">
    <path fill="none" fill-rule="evenodd" d="M 103.16 90.25 L 103.16 124.05 L 148.8 124.05 L 148.8 90.35 C 148.73 77.81 138.54 67.67 125.98 67.67 C 113.45 67.67 103.28 77.76 103.16 90.25 L 103.16 90.25 Z M 103.16 90.25" />
    <path fill="#26a58f" fill-rule="evenodd" d="M 97.8 129.4 L 154.16 129.4 L 154.16 62.32 L 97.8 62.32 L 97.8 129.4 Z M 97.8 129.4" />
    <path fill="none" fill-rule="evenodd" d="M 104.62 44.77 C 104.62 57.27 114.18 67.4 125.98 67.4 C 137.77 67.4 147.34 57.27 147.34 44.77 C 147.34 32.28 137.77 22.15 125.98 22.15 C 114.18 22.15 104.62 32.28 104.62 44.77 L 104.62 44.77 Z M 104.62 44.77" />
    <path fill="#ffffff" fill-rule="evenodd" d="M 99.27 72.75 L 152.69 72.75 L 152.69 16.8 L 99.27 16.8 L 99.27 72.75 Z M 99.27 72.75" />
    <path fill="none" fill-rule="evenodd" d="M 115.03 16.81 C 110.04 17.04 99.76 24.05 104.99 48.48 C 105.2 43.97 108.27 35.51 111.76 30.79 C 115.45 31.2 130.21 31.18 141.02 29.89 C 141.02 29.89 144.42 39.04 147.09 48.69 C 149.95 33.66 147.77 22.76 141.96 23.25 C 137.94 17.92 131.52 16.62 122.32 16.62 C 120.06 16.62 117.63 16.69 115.03 16.81 L 115.03 16.81 Z M 115.03 16.81" />
    <path fill="#f3911e" fill-rule="evenodd" d="M 98.19 54.03 L 153.7 54.03 L 153.7 11.27 L 98.19 11.27 L 98.19 54.03 Z M 98.19 54.03" />
    <path fill="none" fill-rule="evenodd" d="M 117.94 54.57 C 116.57 56.88 116 58.08 114.62 57.46 C 115.11 59.5 119.81 60.43 122.12 57.52 C 123.55 55.72 125.49 54.63 125.98 54.87 C 126.47 54.63 128.41 55.72 129.84 57.52 C 132.15 60.43 136.84 59.5 137.34 57.46 C 135.96 58.08 135.39 56.88 134.02 54.57 C 133.2 53.18 131.62 52.19 129.75 52.19 C 128.57 52.19 127.28 52.58 125.98 53.51 C 124.68 52.58 123.39 52.19 122.21 52.19 C 120.33 52.19 118.76 53.18 117.94 54.57 L 117.94 54.57 Z M 117.94 54.57" />
    <path fill="#f3911e" fill-rule="evenodd" d="M 109.26 64.71 L 142.7 64.71 L 142.7 46.85 L 109.26 46.85 L 109.26 64.71 Z M 109.26 64.71" />
    <path fill="none" fill-rule="evenodd" d="M 118.07 71.41 L 125.98 85.1 L 133.89 71.41 C 131.43 70.5 128.76 70 125.98 70 C 123.2 70 120.53 70.5 118.07 71.41 L 118.07 71.41 Z M 118.07 71.41" />
    <path fill="#ffffff" fill-rule="evenodd" d="M 112.71 90.45 L 139.25 90.45 L 139.25 64.66 L 112.71 64.66 L 112.71 90.45 Z M 112.71 90.45" />
    <path fill="none" fill-rule="evenodd" d="M 69.41 55.5 L 65.36 52 C 54.68 53.9 46.56 63.23 46.56 74.45 L 46.56 124.05 L 92.2 124.05 L 92.2 74.45 C 92.2 63.22 84.07 53.88 73.36 52 L 69.41 55.5 L 69.41 55.5 Z M 69.41 55.5" />
    <path fill="#26a58f" fill-rule="evenodd" d="M 41.21 129.4 L 97.56 129.4 L 97.56 46.65 L 41.21 46.65 L 41.21 129.4 Z M 41.21 129.4" />
    <path fill="none" fill-rule="evenodd" d="M 48.02 28.76 C 48.02 41.26 57.59 51.39 69.38 51.39 C 81.18 51.39 90.74 41.26 90.74 28.76 C 90.74 16.26 81.18 6.13 69.38 6.13 C 57.59 6.13 48.02 16.26 48.02 28.76 L 48.02 28.76 Z M 48.02 28.76" />
    <path fill="#ffffff" fill-rule="evenodd" d="M 42.67 56.73 L 96.1 56.73 L 96.1 0.78 L 42.67 0.78 L 42.67 56.73 Z M 42.67 56.73" />
    <path fill="none" fill-rule="evenodd" d="M 58.62 2.72 C 54.95 4.44 47.38 7.57 45.05 5.93 C 42.58 8.67 44.57 13.66 47.65 14.69 C 47.65 14.69 46.91 23.64 48.35 32.47 C 48.55 27.95 50.81 22.21 54.31 17.49 C 58 17.9 74.63 17.49 85.11 17.08 C 85.11 17.08 87.78 23.03 90.45 32.67 C 95.79 22.41 92.29 10.72 85.31 7.23 C 81.35 2.75 75.96 0.04 69.72 0.04 C 66.24 0.04 62.51 0.88 58.62 2.72 L 58.62 2.72 Z M 58.62 2.72" />
    <path fill="#f3911e" fill-rule="evenodd" d="M 38.58 38.02 L 98.4 38.02 L 98.4 -5.3 L 38.58 -5.3 L 38.58 38.02 Z M 38.58 38.02" />
    <path fill="none" fill-rule="evenodd" d="M 69.41 59.01 L 65.36 55.51 C 63.57 55.82 61.86 56.35 60.24 57.06 L 64.22 62.37 L 69.41 59.02 L 74.61 62.37 L 78.56 57.07 C 76.92 56.35 75.18 55.82 73.36 55.5 L 69.41 59.01 L 69.41 59.01 Z M 69.41 59.01" />
    <path fill="#ffffff" fill-rule="evenodd" d="M 54.88 67.72 L 83.92 67.72 L 83.92 50.15 L 54.88 50.15 L 54.88 67.72 Z M 54.88 67.72" />
    <path fill="none" fill-rule="evenodd" d="M 3.87 37.28 C -1 53.57 -5.53 77.46 25.48 77.46 C 56.89 77.46 51.49 52.27 45.88 33.89 C 43.98 27.63 39.28 20.69 33.69 21.28 C 31.37 19.62 28.62 18.83 25.73 18.83 C 17.14 18.83 7.33 25.75 3.87 37.28 L 3.87 37.28 Z M 3.87 37.28" />
    <path fill="#f3911e" fill-rule="evenodd" d="M -4.97 82.8 L 55.53 82.8 L 55.53 13.49 L -4.97 13.49 L -4.97 82.8 Z M -4.97 82.8" />
    <path fill="none" fill-rule="evenodd" d="M 1.48 91.92 L 1.48 124.05 C 1.48 124.86 2.13 125.51 2.94 125.51 L 48.58 125.51 C 49.38 125.51 50.04 124.86 50.04 124.05 L 50.04 91.92 C 50.04 78.55 39.14 67.66 25.76 67.66 C 12.37 67.66 1.48 78.55 1.48 91.92 L 1.48 91.92 Z M 1.48 91.92" />
    <path fill="#26a58f" fill-rule="evenodd" d="M -3.88 130.86 L 55.39 130.86 L 55.39 62.32 L -3.88 62.32 L -3.88 130.86 Z M -3.88 130.86" />
    <path fill="none" fill-rule="evenodd" d="M 0.02 91.92 L 0.02 124.05 C 0.02 125.66 1.32 126.97 2.94 126.97 L 48.58 126.97 C 50.19 126.97 51.5 125.66 51.5 124.05 L 51.5 91.92 C 51.5 77.74 39.95 66.2 25.76 66.2 C 11.56 66.2 0.02 77.74 0.02 91.92 L 0.02 91.92 Z M 2.94 91.92 C 2.94 79.33 13.15 69.12 25.76 69.12 C 38.36 69.12 48.58 79.33 48.58 91.92 L 48.58 124.05 L 2.94 124.05 L 2.94 91.92 L 2.94 91.92 Z M 2.94 91.92" />
    <path fill="#ffffff" fill-rule="evenodd" d="M -5.34 132.32 L 56.85 132.32 L 56.85 60.86 L -5.34 60.86 L -5.34 132.32 Z M -5.34 132.32" />
    <path fill="none" fill-rule="evenodd" d="M 5.07 49.32 C 6.38 60.17 15.12 68.55 25.71 68.55 C 35.6 68.55 43.88 61.23 45.99 51.43 C 43.55 44.88 38.21 37.21 32.48 31.09 C 26.12 37.05 10.75 46.27 5.07 49.32 L 5.07 49.32 Z M 5.07 49.32" />
    <path fill="#ffffff" fill-rule="evenodd" d="M -0.29 73.9 L 51.35 73.9 L 51.35 25.74 L -0.29 25.74 L -0.29 73.9 Z M -0.29 73.9" />
    <path fill="none" fill-rule="evenodd" d="M 23.91 82.55 C 23.91 83.43 24.63 84.14 25.51 84.14 C 26.39 84.14 27.1 83.43 27.1 82.55 C 27.1 81.67 26.39 80.96 25.51 80.96 C 24.63 80.96 23.91 81.67 23.91 82.55 L 23.91 82.55 Z M 23.91 82.55" />
    <path fill="#ffffff" fill-rule="evenodd" d="M 18.56 89.49 L 32.46 89.49 L 32.46 75.61 L 18.56 75.61 L 18.56 89.49 Z M 18.56 89.49" />
    <path fill="none" fill-rule="evenodd" d="M 19.67 81.17 C 19.67 82.05 20.38 82.76 21.26 82.76 C 22.14 82.76 22.85 82.05 22.85 81.17 C 22.85 80.29 22.14 79.58 21.26 79.58 C 20.38 79.58 19.67 80.29 19.67 81.17 L 19.67 81.17 Z M 19.67 81.17" />
    <path fill="#ffffff" fill-rule="evenodd" d="M 14.31 88.11 L 28.21 88.11 L 28.21 74.23 L 14.31 74.23 L 14.31 88.11 Z M 14.31 88.11" />
    <path fill="none" fill-rule="evenodd" d="M 16.8 77.67 C 16.8 78.55 17.51 79.26 18.39 79.26 C 19.27 79.26 19.99 78.55 19.99 77.67 C 19.99 76.79 19.27 76.08 18.39 76.08 C 17.51 76.08 16.8 76.79 16.8 77.67 L 16.8 77.67 Z M 16.8 77.67" />
    <path fill="#ffffff" fill-rule="evenodd" d="M 11.44 84.61 L 25.34 84.61 L 25.34 70.73 L 11.44 70.73 L 11.44 84.61 Z M 11.44 84.61" />
    <path fill="none" fill-rule="evenodd" d="M 15.32 73.64 C 15.32 74.52 16.03 75.23 16.91 75.23 C 17.79 75.23 18.5 74.52 18.5 73.64 C 18.5 72.76 17.79 72.05 16.91 72.05 C 16.03 72.05 15.32 72.76 15.32 73.64 L 15.32 73.64 Z M 15.32 73.64" />
    <path fill="#ffffff" fill-rule="evenodd" d="M 9.96 80.57 L 23.86 80.57 L 23.86 66.7 L 9.96 66.7 L 9.96 80.57 Z M 9.96 80.57" />
    <path fill="none" fill-rule="evenodd" d="M 28.16 81.17 C 28.16 82.05 28.87 82.76 29.75 82.76 C 30.63 82.76 31.35 82.05 31.35 81.17 C 31.35 80.29 30.63 79.58 29.75 79.58 C 28.87 79.58 28.16 80.29 28.16 81.17 L 28.16 81.17 Z M 28.16 81.17" />
    <path fill="#ffffff" fill-rule="evenodd" d="M 22.8 88.11 L 36.7 88.11 L 36.7 74.23 L 22.8 74.23 L 22.8 88.11 Z M 22.8 88.11" />
    <path fill="none" fill-rule="evenodd" d="M 31.03 77.67 C 31.03 78.55 31.74 79.26 32.62 79.26 C 33.5 79.26 34.21 78.55 34.21 77.67 C 34.21 76.79 33.5 76.08 32.62 76.08 C 31.74 76.08 31.03 76.79 31.03 77.67 L 31.03 77.67 Z M 31.03 77.67" />
    <path fill="#ffffff" fill-rule="evenodd" d="M 25.67 84.61 L 39.57 84.61 L 39.57 70.73 L 25.67 70.73 L 25.67 84.61 Z M 25.67 84.61" />
    <path fill="none" fill-rule="evenodd" d="M 32.51 73.64 C 32.51 74.52 33.23 75.23 34.11 75.23 C 34.99 75.23 35.7 74.52 35.7 73.64 C 35.7 72.76 34.99 72.05 34.11 72.05 C 33.23 72.05 32.51 72.76 32.51 73.64 L 32.51 73.64 Z M 32.51 73.64" />
    <path fill="#ffffff" fill-rule="evenodd" d="M 27.16 80.57 L 41.06 80.57 L 41.06 66.7 L 27.16 66.7 L 27.16 80.57 Z M 27.16 80.57" />
    <path fill="none" fill-rule="evenodd" d="M 68.38 118.75 L 68.38 124.05 C 68.38 124.86 69.03 125.51 69.84 125.51 L 109.19 125.51 C 110 125.51 110.65 124.86 110.65 124.05 L 110.65 118.75 C 110.65 107.11 101.17 97.63 89.52 97.63 C 77.86 97.63 68.38 107.11 68.38 118.75 L 68.38 118.75 Z M 68.38 118.75" />
    <path fill="#26a58f" fill-rule="evenodd" d="M 63.02 130.86 L 116.01 130.86 L 116.01 92.29 L 63.02 92.29 L 63.02 130.86 Z M 63.02 130.86" />
    <path fill="none" fill-rule="evenodd" d="M 66.92 118.75 L 66.92 124.05 C 66.92 125.66 68.23 126.97 69.84 126.97 L 109.19 126.97 C 110.81 126.97 112.11 125.66 112.11 124.05 L 112.11 118.75 C 112.11 106.3 101.98 96.17 89.52 96.17 C 77.06 96.17 66.92 106.3 66.92 118.75 L 66.92 118.75 Z M 69.84 118.75 C 69.84 107.89 78.65 99.09 89.52 99.09 C 100.38 99.09 109.19 107.89 109.19 118.75 L 109.19 124.05 L 69.84 124.05 L 69.84 118.75 L 69.84 118.75 Z M 69.84 118.75" />
    <path fill="#ffffff" fill-rule="evenodd" d="M 61.56 132.31 L 117.47 132.31 L 117.47 90.83 L 61.56 90.83 L 61.56 132.31 Z M 61.56 132.31" />
    <path fill="none" fill-rule="evenodd" d="M 71.38 79.65 C 71.38 90.26 79.5 98.86 89.52 98.86 C 99.53 98.86 107.65 90.26 107.65 79.65 C 107.65 69.04 99.53 60.43 89.52 60.43 C 79.5 60.43 71.38 69.04 71.38 79.65 L 71.38 79.65 Z M 71.38 79.65" />
    <path fill="#ffffff" fill-rule="evenodd" d="M 66.03 104.21 L 113.01 104.21 L 113.01 55.09 L 66.03 55.09 L 66.03 104.21 Z M 66.03 104.21" />
    <path fill="none" fill-rule="evenodd" d="M 89.83 54.34 C 78.32 54.34 66.44 63.7 71.49 80.73 C 72.74 73.23 82.52 68.69 87.65 65.87 C 86.08 67.96 84 69.89 82.43 71.29 C 87.19 70.42 93.76 67.63 97.25 65.54 C 99.91 67.23 106.16 74.18 107.76 79.65 C 110.25 70.99 107.89 61.53 101.96 58.57 C 98.62 55.72 94.26 54.34 89.84 54.34 L 89.83 54.34 L 89.83 54.34 Z M 89.83 54.34" />
    <path fill="#f3911e" fill-rule="evenodd" d="M 64.94 86.07 L 114.1 86.07 L 114.1 48.99 L 64.94 48.99 L 64.94 86.07 Z M 64.94 86.07" />
</svg>