<?xml version="1.0" encoding="utf-8"?>
<!-- Generator: Avocode 0.4.0 - http://avocode.com -->
<svg height="119" width="109" xmlns:xlink="http://www.w3.org/1999/xlink" xmlns="http://www.w3.org/2000/svg" viewBox="0 0 109 119">
    <path fill="none" fill-rule="evenodd" d="M 0 0.37 L 108.2 0.37 L 108.2 118.57 L 0 118.57" />
    <path fill="#6ac5b2" fill-rule="evenodd" d="M 72.63 59.88 C 72.5 59.92 72.37 59.86 72.33 59.75 C 72.3 59.63 72.39 59.52 72.52 59.48 C 72.65 59.44 72.79 59.5 72.82 59.61 C 72.85 59.73 72.77 59.85 72.63 59.88 M 70.25 54.37 C 70.19 54.15 70.36 53.9 70.63 53.83 C 70.9 53.76 71.17 53.88 71.23 54.1 C 71.29 54.33 71.13 54.57 70.86 54.64 C 70.59 54.72 70.32 54.59 70.25 54.37 M 72.1 61.54 C 71.96 61.58 71.83 61.52 71.8 61.4 C 71.77 61.29 71.85 61.17 71.98 61.14 C 72.12 61.1 72.25 61.16 72.28 61.27 C 72.31 61.38 72.23 61.5 72.1 61.54 M 70.68 58.64 C 70.63 58.46 70.76 58.27 70.97 58.22 C 71.18 58.16 71.4 58.26 71.44 58.43 C 71.49 58.61 71.36 58.79 71.15 58.85 C 70.94 58.91 70.73 58.81 70.68 58.64 M 70.06 58.13 C 69.85 58.18 69.64 58.09 69.59 57.91 C 69.54 57.74 69.67 57.55 69.88 57.49 C 70.09 57.44 70.3 57.53 70.35 57.71 C 70.4 57.88 70.27 58.07 70.06 58.13 M 68.17 53.91 C 68.1 53.64 68.3 53.34 68.63 53.25 C 68.96 53.16 69.29 53.31 69.37 53.59 C 69.45 53.86 69.24 54.16 68.91 54.25 C 68.58 54.34 68.25 54.19 68.17 53.91 M 66.8 52.2 C 66.72 51.92 66.92 51.62 67.25 51.53 C 67.58 51.44 67.91 51.59 67.99 51.87 C 68.07 52.14 67.87 52.44 67.53 52.53 C 67.2 52.62 66.87 52.47 66.8 52.2 M 70.29 55.87 C 70.36 56.09 70.19 56.34 69.92 56.41 C 69.65 56.48 69.38 56.36 69.32 56.14 C 69.25 55.91 69.42 55.67 69.69 55.6 C 69.96 55.52 70.23 55.64 70.29 55.87 M 84.08 59.55 C 84.21 59.51 84.33 59.57 84.36 59.67 C 84.39 59.78 84.32 59.89 84.19 59.93 C 84.06 59.96 83.93 59.91 83.9 59.8 C 83.87 59.69 83.95 59.58 84.08 59.55 M 85.32 60.96 C 85.45 60.93 85.58 60.98 85.61 61.09 C 85.64 61.19 85.56 61.31 85.43 61.34 C 85.3 61.38 85.18 61.32 85.15 61.22 C 85.12 61.11 85.19 61 85.32 60.96 M 84.51 57.22 C 84.74 57.15 84.97 57.26 85.02 57.45 C 85.08 57.64 84.94 57.84 84.71 57.91 C 84.48 57.97 84.25 57.86 84.2 57.67 C 84.14 57.48 84.28 57.28 84.51 57.22 M 85.8 55.29 C 86.13 55.2 86.46 55.34 86.54 55.62 C 86.62 55.89 86.41 56.19 86.08 56.28 C 85.75 56.37 85.42 56.22 85.34 55.95 C 85.26 55.67 85.47 55.38 85.8 55.29 M 107.72 108.75 C 106.08 108.01 101.55 108.64 101.55 108.64 C 99.64 108.72 97.08 109.13 94.79 107.17 C 92.51 105.21 87.93 94.04 86.07 82.26 C 85.07 75.91 86.61 74.87 87.46 71.74 C 89.07 65.85 89.15 58.35 88.06 51.4 C 85.87 37.41 80.36 25.43 80.01 24.65 C 79.66 23.87 73.61 25.72 68.98 26.99 L 68.21 27.2 C 63.58 28.46 57.43 29.95 57.53 30.8 C 57.64 31.64 59.2 44.7 64.66 57.8 C 67.37 64.3 71.37 70.68 75.84 74.92 C 78.21 77.17 80.07 77.27 82.54 83.22 C 87.13 94.25 89.07 106.15 88.14 108.99 C 87.2 111.83 84.8 112.78 83.12 113.68 C 83.12 113.68 78.91 115.44 77.89 116.91 C 76.81 118.47 81.1 119.93 93.97 116.36 C 106.84 112.79 109.46 109.54 107.72 108.75" />
    <path fill="#6ac5b2" fill-rule="evenodd" d="M 29.9 55.77 C 29.77 55.72 29.69 55.6 29.73 55.49 C 29.77 55.38 29.91 55.33 30.04 55.38 C 30.17 55.42 30.25 55.55 30.21 55.66 C 30.17 55.77 30.03 55.82 29.9 55.77 M 31.21 49.92 C 31.29 49.7 31.57 49.6 31.84 49.7 C 32.1 49.79 32.25 50.04 32.17 50.26 C 32.09 50.48 31.81 50.58 31.54 50.49 C 31.28 50.39 31.13 50.14 31.21 49.92 M 28.48 56.81 C 28.35 56.77 28.28 56.64 28.32 56.53 C 28.36 56.42 28.5 56.37 28.63 56.42 C 28.76 56.46 28.83 56.59 28.79 56.7 C 28.75 56.81 28.61 56.86 28.48 56.81 M 29.04 53.64 C 29.11 53.47 29.32 53.39 29.53 53.47 C 29.73 53.54 29.85 53.74 29.79 53.91 C 29.72 54.08 29.51 54.16 29.3 54.08 C 29.1 54.01 28.98 53.81 29.04 53.64 M 28.84 52.87 C 28.63 52.8 28.52 52.6 28.58 52.43 C 28.64 52.26 28.86 52.18 29.06 52.25 C 29.27 52.32 29.38 52.52 29.32 52.69 C 29.26 52.86 29.04 52.94 28.84 52.87 M 29.79 48.36 C 29.89 48.1 30.23 47.97 30.55 48.09 C 30.87 48.2 31.05 48.51 30.96 48.78 C 30.86 49.05 30.52 49.17 30.19 49.06 C 29.87 48.94 29.69 48.63 29.79 48.36 M 29.68 46.18 C 29.78 45.91 30.12 45.78 30.45 45.9 C 30.77 46.01 30.95 46.33 30.85 46.59 C 30.75 46.86 30.41 46.99 30.09 46.87 C 29.77 46.76 29.58 46.44 29.68 46.18 M 30.36 51.17 C 30.28 51.38 30 51.49 29.74 51.39 C 29.47 51.3 29.33 51.04 29.41 50.82 C 29.49 50.6 29.77 50.5 30.03 50.6 C 30.29 50.69 30.44 50.95 30.36 51.17 M 39.41 62.04 C 39.54 62.08 39.61 62.2 39.57 62.3 C 39.53 62.41 39.4 62.46 39.27 62.41 C 39.15 62.37 39.08 62.25 39.12 62.14 C 39.16 62.04 39.29 61.99 39.41 62.04 M 39.59 63.9 C 39.71 63.94 39.78 64.06 39.74 64.17 C 39.71 64.27 39.57 64.32 39.45 64.27 C 39.33 64.23 39.26 64.11 39.3 64.01 C 39.33 63.9 39.46 63.85 39.59 63.9 M 41.14 60.39 C 41.36 60.47 41.49 60.68 41.42 60.87 C 41.35 61.05 41.11 61.14 40.89 61.06 C 40.67 60.98 40.54 60.76 40.61 60.58 C 40.68 60.39 40.92 60.31 41.14 60.39 M 43.33 59.55 C 43.65 59.67 43.83 59.98 43.73 60.25 C 43.63 60.51 43.29 60.64 42.97 60.52 C 42.65 60.41 42.47 60.1 42.57 59.83 C 42.66 59.56 43.01 59.44 43.33 59.55 M 29.61 115.6 C 28.71 114.06 24.65 111.98 24.65 111.98 C 23.05 110.96 20.72 109.83 20.02 106.93 C 19.31 104.03 22.19 92.31 27.63 81.67 C 30.56 75.92 32.43 75.96 34.97 73.9 C 39.75 70.01 44.25 63.95 47.46 57.68 C 53.94 45.04 56.52 32.14 56.7 31.31 C 56.87 30.47 50.86 28.52 46.34 26.9 L 45.59 26.63 C 41.08 25.02 35.19 22.71 34.78 23.46 C 34.36 24.22 27.93 35.73 24.64 49.52 C 23.01 56.36 22.5 63.84 23.63 69.84 C 24.23 73.03 25.68 74.18 24.18 80.43 C 21.4 92.03 15.96 102.83 13.53 104.6 C 11.09 106.38 8.57 105.78 6.67 105.55 C 6.67 105.55 2.2 104.58 0.51 105.19 C -1.29 105.84 1.33 109.49 13.92 113.94 C 26.51 118.39 30.56 117.24 29.61 115.6" />
    <path fill="#f6941d" fill-rule="evenodd" d="M 67.5 4.53 C 67.5 5.85 66.41 6.93 65.06 6.93 C 63.71 6.93 62.62 5.85 62.62 4.53 C 62.62 3.2 63.71 2.13 65.06 2.13 C 66.41 2.13 67.5 3.2 67.5 4.53" />
    <path fill="#f6941d" fill-rule="evenodd" d="M 65.06 12.84 C 65.06 14.17 63.97 15.25 62.62 15.25 C 61.27 15.25 60.18 14.17 60.18 12.84 C 60.18 11.52 61.27 10.44 62.62 10.44 C 63.97 10.44 65.06 11.52 65.06 12.84" />
    <path fill="#f6941d" fill-rule="evenodd" d="M 68.44 18.57 C 68.44 19.54 67.64 20.33 66.66 20.33 C 65.67 20.33 64.87 19.54 64.87 18.57 C 64.87 17.6 65.67 16.82 66.66 16.82 C 67.64 16.82 68.44 17.6 68.44 18.57" />
    <path fill="#f6941d" fill-rule="evenodd" d="M 69.57 9.52 C 69.57 10.49 68.77 11.27 67.78 11.27 C 66.8 11.27 66 10.49 66 9.52 C 66 8.55 66.8 7.76 67.78 7.76 C 68.77 7.76 69.57 8.55 69.57 9.52" />
    <path fill="#f6941d" fill-rule="evenodd" d="M 57.55 6.84 C 57.55 7.81 56.75 8.59 55.76 8.59 C 54.78 8.59 53.98 7.81 53.98 6.84 C 53.98 5.87 54.78 5.08 55.76 5.08 C 56.75 5.08 57.55 5.87 57.55 6.84" />
    <path fill="#f6941d" fill-rule="evenodd" d="M 58.11 14.88 C 58.11 15.85 57.31 16.63 56.33 16.63 C 55.34 16.63 54.54 15.85 54.54 14.88 C 54.54 13.91 55.34 13.12 56.33 13.12 C 57.31 13.12 58.11 13.91 58.11 14.88" />
    <path fill="#f6941d" fill-rule="evenodd" d="M 51.91 24.21 C 51.91 25.03 51.24 25.69 50.41 25.69 C 49.58 25.69 48.9 25.03 48.9 24.21 C 48.9 23.39 49.58 22.73 50.41 22.73 C 51.24 22.73 51.91 23.39 51.91 24.21" />
    <path fill="#f6941d" fill-rule="evenodd" d="M 53.88 2.68 C 53.88 3.14 53.5 3.51 53.04 3.51 C 52.57 3.51 52.19 3.14 52.19 2.68 C 52.19 2.22 52.57 1.85 53.04 1.85 C 53.5 1.85 53.88 2.22 53.88 2.68" />
    <path fill="#f6941d" fill-rule="evenodd" d="M 67.41 1.2 C 67.41 1.66 67.03 2.03 66.56 2.03 C 66.1 2.03 65.72 1.66 65.72 1.2 C 65.72 0.74 66.1 0.37 66.56 0.37 C 67.03 0.37 67.41 0.74 67.41 1.2" />
    <path fill="#f6941d" fill-rule="evenodd" d="M 71.73 13.95 C 71.73 14.41 71.35 14.79 70.88 14.79 C 70.42 14.79 70.04 14.41 70.04 13.95 C 70.04 13.49 70.42 13.12 70.88 13.12 C 71.35 13.12 71.73 13.49 71.73 13.95" />
    <path fill="#f6941d" fill-rule="evenodd" d="M 63.56 18.67 C 63.56 19.13 63.18 19.5 62.71 19.5 C 62.25 19.5 61.87 19.13 61.87 18.67 C 61.87 18.21 62.25 17.84 62.71 17.84 C 63.18 17.84 63.56 18.21 63.56 18.67" />
    <path fill="#f6941d" fill-rule="evenodd" d="M 62.99 12.38 C 62.99 12.84 62.62 13.21 62.15 13.21 C 61.68 13.21 61.3 12.84 61.3 12.38 C 61.3 11.92 61.68 11.55 62.15 11.55 C 62.62 11.55 62.99 11.92 62.99 12.38" />
    <path fill="#f6941d" fill-rule="evenodd" d="M 63.65 8.13 C 63.65 8.59 63.27 8.96 62.81 8.96 C 62.34 8.96 61.96 8.59 61.96 8.13 C 61.96 7.67 62.34 7.3 62.81 7.3 C 63.27 7.3 63.65 7.67 63.65 8.13" />
    <path fill="#f6941d" fill-rule="evenodd" d="M 58.2 10.9 C 58.2 11.36 57.83 11.74 57.36 11.74 C 56.89 11.74 56.51 11.36 56.51 10.9 C 56.51 10.45 56.89 10.07 57.36 10.07 C 57.83 10.07 58.2 10.45 58.2 10.9" />
    <path fill="#f6941d" fill-rule="evenodd" d="M 58.49 24.03 C 58.49 24.49 58.11 24.86 57.64 24.86 C 57.17 24.86 56.79 24.49 56.79 24.03 C 56.79 23.57 57.17 23.2 57.64 23.2 C 58.11 23.2 58.49 23.57 58.49 24.03" />
    <path fill="#f6941d" fill-rule="evenodd" d="M 71.69 17.47 C 71.69 17.75 71.46 17.99 71.17 17.99 C 70.87 17.99 70.64 17.75 70.64 17.47 C 70.64 17.18 70.87 16.95 71.17 16.95 C 71.46 16.95 71.69 17.18 71.69 17.47" />
    <path fill="#f6941d" fill-rule="evenodd" d="M 44.11 22.92 C 44.11 23.21 43.88 23.44 43.59 23.44 C 43.29 23.44 43.06 23.21 43.06 22.92 C 43.06 22.63 43.29 22.4 43.59 22.4 C 43.88 22.4 44.11 22.63 44.11 22.92" />
    <path fill="#f6941d" fill-rule="evenodd" d="M 52 12.57 C 52 14.1 50.74 15.34 49.19 15.34 C 47.63 15.34 46.37 14.1 46.37 12.57 C 46.37 11.04 47.63 9.79 49.19 9.79 C 50.74 9.79 52 11.04 52 12.57" />
    <path fill="#f6941d" fill-rule="evenodd" d="M 48.31 18.85 C 48.31 19.14 48.07 19.37 47.78 19.37 C 47.49 19.37 47.25 19.14 47.25 18.85 C 47.25 18.56 47.49 18.33 47.78 18.33 C 48.07 18.33 48.31 18.56 48.31 18.85" />
    <path fill="#f6941d" fill-rule="evenodd" d="M 59.11 17.71 C 59.11 18 58.87 18.23 58.58 18.23 C 58.29 18.23 58.05 18 58.05 17.71 C 58.05 17.42 58.29 17.19 58.58 17.19 C 58.87 17.19 59.11 17.42 59.11 17.71" />
    <path fill="#f6941d" fill-rule="evenodd" d="M 56.32 19.87 C 56.32 20.33 55.95 20.7 55.48 20.7 C 55.01 20.7 54.64 20.33 54.64 19.87 C 54.64 19.41 55.01 19.04 55.48 19.04 C 55.95 19.04 56.32 19.41 56.32 19.87" />
    <path fill="#f6941d" fill-rule="evenodd" d="M 53.88 17 C 53.88 17.82 53.21 18.48 52.38 18.48 C 51.55 18.48 50.88 17.82 50.88 17 C 50.88 16.19 51.55 15.53 52.38 15.53 C 53.21 15.53 53.88 16.19 53.88 17" />
</svg>