<svg id="SvgjsSvg1042" xmlns="http://www.w3.org/2000/svg" version="1.1" xmlns:xlink="http://www.w3.org/1999/xlink" xmlns:svgjs="http://svgjs.com/svgjs" width="72" height="73"><defs id="SvgjsDefs1043"></defs><path id="SvgjsPath1044" d="M1165.97 42.02C1165.16 42.160000000000004 1164.51 42.77 1164.3500000000001 43.57C1164.3100000000002 43.71 1164.2900000000002 43.84 1164.2800000000002 43.98L1162.4600000000003 50.589999999999996C1161.7200000000003 50.73 1160.9500000000003 50.87 1160.2300000000002 51.059999999999995C1159.3600000000004 51.3 1158.5600000000002 51.63999999999999 1157.7300000000002 51.94L1152.1300000000003 46.949999999999996C1151.5000000000002 46.379999999999995 1150.5800000000004 46.269999999999996 1149.8400000000004 46.67999999999999C1147.5400000000004 47.97999999999999 1145.4100000000003 49.529999999999994 1143.4900000000005 51.269999999999996C1142.8500000000004 51.849999999999994 1142.6600000000005 52.779999999999994 1143.0200000000004 53.559999999999995L1146.1900000000005 60.309999999999995C1145.1600000000005 61.55 1144.2300000000005 62.88999999999999 1143.4300000000005 64.28999999999999L1135.8700000000006 64.02C1134.9900000000005 63.989999999999995 1134.1900000000005 64.53999999999999 1133.9100000000005 65.36999999999999C1133.0000000000005 67.80999999999999 1132.3800000000006 70.32999999999998 1132.0200000000004 72.92999999999999C1131.9000000000005 73.80999999999999 1132.3600000000004 74.66 1133.1700000000005 75.02L1139.8500000000006 78.13C1139.8700000000006 79.72 1140.0200000000007 81.32 1140.3200000000006 82.92L1134.3800000000006 87.64C1133.7000000000005 88.16 1133.4300000000005 89.06 1133.7100000000005 89.87C1134.6000000000006 92.38000000000001 1135.7900000000004 94.65 1137.1500000000005 96.82000000000001C1137.6000000000006 97.55000000000001 1138.4700000000005 97.9 1139.3100000000006 97.7L1146.4600000000007 95.81C1147.5100000000007 97.02 1148.6800000000007 98.11 1149.9100000000008 99.12L1148.3500000000008 106.61C1148.1900000000007 107.42999999999999 1148.5700000000008 108.27 1149.3000000000009 108.7C1151.5400000000009 110.02 1153.950000000001 111.13000000000001 1156.450000000001 111.94C1157.2800000000009 112.2 1158.180000000001 111.89999999999999 1158.680000000001 111.2L1162.930000000001 105.12C1164.520000000001 105.39 1166.150000000001 105.48 1167.7900000000009 105.46000000000001L1171.3000000000009 112.14000000000001C1171.710000000001 112.89000000000001 1172.5500000000009 113.30000000000001 1173.3900000000008 113.15000000000002C1174.4900000000007 112.96000000000002 1175.5800000000008 112.78000000000002 1176.7000000000007 112.48000000000002C1178.1400000000008 112.09000000000002 1179.5300000000007 111.60000000000002 1180.8800000000008 111.06000000000002C1181.7100000000007 110.75000000000001 1182.2300000000007 109.92000000000002 1182.1600000000008 109.04000000000002L1181.4200000000008 100.60000000000002C1181.3300000000008 99.50000000000003 1180.3600000000008 98.68000000000002 1179.2600000000007 98.78000000000003C1178.1600000000008 98.87000000000003 1177.3400000000006 99.84000000000003 1177.4400000000007 100.94000000000003L1178.0500000000006 107.82000000000002C1177.2600000000007 108.10000000000002 1176.5000000000007 108.41000000000003 1175.6800000000007 108.63000000000002C1175.1700000000008 108.77000000000002 1174.6400000000008 108.86000000000003 1174.1300000000008 108.97000000000003L1170.760000000001 102.62000000000003C1170.3800000000008 101.95000000000003 1169.640000000001 101.55000000000004 1168.8700000000008 101.61000000000003C1166.6600000000008 101.75000000000003 1164.4900000000007 101.54000000000003 1162.3900000000008 101.07000000000002C1161.5900000000008 100.89000000000001 1160.7600000000007 101.21000000000002 1160.3000000000009 101.88000000000002L1156.3200000000008 107.55000000000003C1155.0400000000009 107.07000000000002 1153.8100000000009 106.51000000000002 1152.6000000000008 105.86000000000003L1154.020000000001 98.91000000000003C1154.160000000001 98.17000000000003 1153.8800000000008 97.42000000000003 1153.2800000000009 96.96000000000002C1151.5300000000009 95.66000000000003 1149.960000000001 94.10000000000002 1148.6200000000008 92.37000000000002C1148.1200000000008 91.74000000000002 1147.3000000000009 91.48000000000002 1146.5300000000009 91.69000000000001L1139.920000000001 93.45000000000002C1139.240000000001 92.26000000000002 1138.620000000001 91.02000000000001 1138.100000000001 89.73000000000002L1143.630000000001 85.35000000000002C1144.230000000001 84.86000000000003 1144.490000000001 84.07000000000002 1144.300000000001 83.32000000000002C1143.780000000001 81.13000000000002 1143.540000000001 78.97000000000003 1143.630000000001 76.84000000000002C1143.640000000001 76.07000000000002 1143.190000000001 75.35000000000002 1142.480000000001 75.02000000000002L1136.270000000001 72.05000000000003C1136.5300000000009 70.70000000000003 1136.930000000001 69.37000000000002 1137.3500000000008 68.07000000000002L1144.3700000000008 68.27000000000002C1145.1400000000008 68.29000000000002 1145.8500000000008 67.87000000000002 1146.2000000000007 67.19000000000003C1147.1700000000008 65.26000000000002 1148.4200000000008 63.42000000000002 1149.9100000000008 61.79000000000003C1150.4400000000007 61.21000000000003 1150.5700000000008 60.36000000000003 1150.2400000000007 59.630000000000024L1147.3400000000006 53.43000000000002C1148.4100000000005 52.54000000000002 1149.5300000000007 51.74000000000002 1150.7200000000007 51.00000000000002L1155.9100000000008 55.65000000000002C1156.5000000000007 56.19000000000002 1157.3500000000008 56.32000000000002 1158.0700000000008 55.99000000000002C1159.1200000000008 55.54000000000002 1160.1700000000008 55.22000000000002 1161.3100000000009 54.910000000000025C1162.3300000000008 54.64000000000002 1163.3600000000008 54.370000000000026 1164.3500000000008 54.24000000000002C1165.1200000000008 54.120000000000026 1165.750000000001 53.57000000000002 1165.9700000000007 52.82000000000002L1167.7900000000006 46.14000000000002C1169.1500000000005 46.160000000000025 1170.4900000000007 46.21000000000002 1171.8400000000006 46.410000000000025L1172.8500000000006 53.43000000000002C1172.9700000000005 54.200000000000024 1173.5200000000007 54.83000000000002 1174.2700000000007 55.05000000000002C1176.3500000000006 55.670000000000016 1178.3600000000006 56.57000000000002 1180.2100000000007 57.75000000000002C1180.8800000000008 58.200000000000024 1181.7600000000007 58.200000000000024 1182.4300000000007 57.75000000000002L1188.0400000000006 53.76000000000002C1189.0900000000006 54.66000000000002 1190.0800000000006 55.64000000000002 1191.0000000000007 56.670000000000016L1187.3600000000006 62.600000000000016C1186.9400000000005 63.26000000000001 1186.9400000000005 64.11000000000001 1187.3600000000006 64.76000000000002C1188.5400000000006 66.55000000000003 1189.5200000000007 68.50000000000001 1190.2000000000005 70.64000000000001C1190.4200000000005 71.41000000000001 1191.0900000000006 71.96000000000001 1191.8800000000006 72.05000000000001L1198.7000000000005 72.59000000000002C1198.9300000000005 73.97000000000001 1199.1200000000006 75.35000000000002 1199.1700000000005 76.71000000000002L1192.4900000000005 78.94000000000003C1191.7500000000005 79.19000000000003 1191.2200000000005 79.85000000000002 1191.1400000000006 80.62000000000003C1190.8900000000006 82.81000000000003 1190.2800000000007 84.97000000000003 1189.4500000000005 86.97000000000003C1189.1600000000005 87.72000000000003 1189.3500000000006 88.57000000000002 1189.9300000000005 89.13000000000002L1195.9300000000005 95.13000000000002C1196.7200000000005 95.92000000000003 1197.9800000000005 95.92000000000003 1198.7700000000004 95.13000000000002C1199.5500000000004 94.35000000000002 1199.5500000000004 93.08000000000003 1198.7700000000004 92.30000000000003L1193.5000000000005 87.10000000000002C1194.0500000000004 85.57000000000002 1194.4500000000005 83.99000000000002 1194.7200000000005 82.38000000000002L1201.8700000000006 80.02000000000002C1202.6900000000005 79.77000000000002 1203.2500000000007 79.04000000000002 1203.2900000000006 78.19000000000003C1203.3100000000006 75.63000000000002 1203.0400000000006 72.97000000000003 1202.4800000000007 70.37000000000003C1202.2900000000006 69.52000000000004 1201.5800000000006 68.90000000000003 1200.7200000000007 68.81000000000003L1193.3600000000008 68.14000000000003C1192.7900000000009 66.61000000000003 1192.0800000000008 65.19000000000003 1191.270000000001 63.82000000000003L1195.250000000001 57.34000000000003C1195.700000000001 56.62000000000003 1195.650000000001 55.71000000000003 1195.1200000000008 55.05000000000003C1193.4400000000007 53.01000000000003 1191.4900000000007 51.23000000000003 1189.4500000000007 49.650000000000034C1188.7600000000007 49.110000000000035 1187.8100000000006 49.080000000000034 1187.0900000000008 49.580000000000034L1181.010000000001 53.830000000000034C1179.640000000001 53.05000000000003 1178.200000000001 52.35000000000004 1176.700000000001 51.81000000000003L1175.620000000001 44.32000000000003C1175.5000000000011 43.46000000000003 1174.840000000001 42.78000000000003 1174.0000000000011 42.63000000000003C1171.4800000000012 42.16000000000003 1168.830000000001 41.92000000000003 1166.1700000000012 42.02000000000003C1166.1000000000013 42.02000000000003 1166.030000000001 42.02000000000003 1165.9700000000012 42.02000000000003 " fill="#1f9b7f" fill-opacity="1" transform="matrix(1,0,0,1,-1132,-41)"></path><path id="SvgjsPath1045" d="M1169.1 65.15C1167.3899999999999 64.9 1165.61 64.94000000000001 1163.84 65.42C1156.76 67.31 1152.56 74.67 1154.4599999999998 81.75C1156.35 88.83 1163.6399999999999 93.09 1170.7199999999998 91.2C1171.7999999999997 90.97 1172.4799999999998 89.91 1172.2599999999998 88.84C1172.0299999999997 87.76 1170.9699999999998 87.07000000000001 1169.8999999999999 87.3C1169.83 87.31 1169.7699999999998 87.33 1169.7099999999998 87.35C1164.7099999999998 88.69 1159.6399999999999 85.72999999999999 1158.2999999999997 80.72999999999999C1156.9599999999998 75.74 1159.9199999999996 70.6 1164.9199999999996 69.25999999999999C1169.9099999999996 67.91999999999999 1174.9799999999996 70.88 1176.3199999999997 75.88C1176.9699999999998 78.28999999999999 1176.6199999999997 80.72 1175.5099999999998 82.75999999999999C1174.9699999999998 83.72999999999999 1175.3199999999997 84.94999999999999 1176.2899999999997 85.49C1177.2599999999998 86.03 1178.4799999999998 85.69 1179.0199999999998 84.72C1180.5999999999997 81.82 1181.0899999999997 78.28999999999999 1180.1699999999998 74.86C1178.7499999999998 69.55 1174.2399999999998 65.87 1169.1 65.15 " fill="#1f9b7f" fill-opacity="1" transform="matrix(1,0,0,1,-1132,-41)"></path></svg>