<?xml version="1.0" encoding="utf-8"?>
<!-- Generator: Avocode 0.4.0 - http://avocode.com -->
<svg height="73" width="69" xmlns:xlink="http://www.w3.org/1999/xlink" xmlns="http://www.w3.org/2000/svg" viewBox="0 0 69 73">
    <path fill="none" fill-rule="evenodd" d="M 34.46 73 L 68.91 73 L 68.91 0 L 0 0 L 0 36.5 L 0 73 L 34.46 73 L 34.46 73 Z M 34.46 73" />
    <path fill="#1f9b7f" fill-rule="evenodd" d="M 66.55 57.56 C 66.55 58.93 65.46 60.02 64.1 60.02 L 58.38 60.02 L 58.38 34.99 C 58.38 32.34 56.2 30.15 53.57 30.15 L 52.2 30.15 L 52.2 21.93 L 64.1 21.93 C 65.46 21.93 66.55 23.02 66.55 24.39 L 66.55 57.56 L 66.55 57.56 Z M 4.81 70.62 C 4.54 70.62 4.27 70.53 4.09 70.53 L 17.79 54.81 L 15.98 53.17 L 2.45 68.7 C 2.45 68.52 2.36 68.43 2.36 68.24 L 2.36 34.99 C 2.36 34.26 2.72 33.62 3.18 33.16 L 29.14 53.72 L 54.75 32.89 C 55.47 33.35 56.02 34.08 56.02 34.99 L 56.02 68.15 C 56.02 68.34 56.02 68.52 55.93 68.7 L 42.49 53.26 L 40.67 54.91 L 54.29 70.62 C 54.11 70.71 53.84 70.71 53.57 70.71 L 4.81 70.71 L 4.81 70.62 Z M 24.24 3.75 L 24.24 18.36 L 9.71 18.36 L 24.24 3.75 Z M 49.84 3.29 L 49.84 33.8 L 29.23 50.7 L 8.63 34.35 L 8.72 34.35 L 8.72 20.83 L 26.69 20.83 L 26.69 2.47 L 48.94 2.47 C 49.48 2.47 49.84 2.83 49.84 3.29 L 49.84 3.29 Z M 64.19 19.55 L 52.29 19.55 L 52.29 3.29 C 52.29 1.46 50.84 0 49.03 0 L 24.6 0 L 24.42 0.18 L 24.33 0.18 L 24.33 0.27 L 6.36 18.45 L 6.26 18.45 L 6.26 18.55 L 6.26 30.15 L 4.81 30.15 C 2.18 30.15 0 32.34 0 34.99 L 0 68.15 C 0 70.8 2.18 73 4.81 73 L 53.57 73 C 56.2 73 58.38 70.8 58.38 68.15 L 58.38 62.4 L 64.1 62.4 C 66.73 62.4 68.91 60.2 68.91 57.56 L 68.91 24.39 C 69 21.74 66.82 19.55 64.19 19.55 L 64.19 19.55 Z M 64.19 19.55" />
    <path fill="#1f9b7f" fill-rule="evenodd" d="M 18 27.38 L 39.7 27.38 L 39.7 25 L 18 25 L 18 27.38 Z M 18 27.38" />
    <path fill="#1f9b7f" fill-rule="evenodd" d="M 18 32.38 L 39.7 32.38 L 39.7 30 L 18 30 L 18 32.38 Z M 18 32.38" />
    <path fill="#1f9b7f" fill-rule="evenodd" d="M 18 37.38 L 39.7 37.38 L 39.7 35 L 18 35 L 18 37.38 Z M 18 37.38" />
</svg>