<?xml version="1.0" encoding="utf-8"?>
<!-- Generator: Avocode 0.4.0 - http://avocode.com -->
<svg height="107" width="131" xmlns:xlink="http://www.w3.org/1999/xlink" xmlns="http://www.w3.org/2000/svg" viewBox="0 0 131 107">
    <path fill="none" fill-rule="evenodd" d="M 130.99 83.64 L 130.99 0.47 L 37.8 0.47 L 37.8 83.64 L 130.99 83.64 L 130.99 83.64 Z M 130.99 83.64" />
    <path fill="#f4a423" fill-rule="evenodd" d="M 104.49 0.47 C 96.69 0.47 89.4 3.84 84.39 9.63 C 79.38 3.85 72.08 0.47 64.3 0.47 C 49.69 0.47 37.8 12.28 37.8 26.8 C 37.8 33.69 40.46 40.21 45.3 45.15 L 78.47 81.02 C 80.04 82.71 82.14 83.64 84.39 83.64 C 86.65 83.64 88.75 82.71 90.32 81.02 L 123.47 45.16 C 128.32 40.22 130.99 33.7 130.99 26.8 C 130.99 12.28 119.1 0.47 104.49 0.47" />
    <path fill="#ffffff" fill-rule="evenodd" d="M 51.36 106.96 C 47.75 106.96 44.4 105.48 41.93 102.8 L 8.8 66.98 C 3.12 61.16 0 53.49 0 45.38 C 0 28.25 14.02 14.32 31.26 14.32 C 38.67 14.32 45.77 16.92 51.36 21.58 C 56.94 16.92 64.04 14.32 71.45 14.32 C 79.79 14.32 87.64 17.55 93.55 23.43 C 99.47 29.3 102.72 37.09 102.72 45.38 C 102.72 53.5 99.59 61.18 93.9 67 L 60.79 102.8 C 58.31 105.48 54.96 106.96 51.36 106.96" />
    <path fill="#219a7f" fill-rule="evenodd" d="M 34.56 32.33 C 34.56 33.7 33.44 34.8 32.07 34.8 C 25.75 34.8 20.62 39.9 20.62 46.18 C 20.62 47.54 19.5 48.65 18.13 48.65 C 16.76 48.65 15.64 47.54 15.64 46.18 C 15.64 37.18 23.01 29.86 32.07 29.86 C 33.44 29.86 34.56 30.97 34.56 32.33 M 71.45 19.06 C 63.65 19.06 56.36 22.43 51.36 28.21 C 46.35 22.43 39.04 19.06 31.26 19.06 C 16.65 19.06 4.77 30.86 4.77 45.38 C 4.77 52.27 7.43 58.79 12.27 63.73 L 45.44 99.6 C 47 101.29 49.1 102.22 51.36 102.22 C 53.62 102.22 55.72 101.29 57.28 99.6 L 90.44 63.75 C 95.28 58.81 97.95 52.28 97.95 45.38 C 97.96 30.86 86.06 19.06 71.45 19.06" />
    <path fill="#ffffff" fill-rule="evenodd" d="M 32.07 29.86 C 23.01 29.86 15.64 37.18 15.64 46.18 C 15.64 47.54 16.76 48.65 18.13 48.65 C 19.5 48.65 20.62 47.54 20.62 46.18 C 20.62 39.9 25.75 34.8 32.07 34.8 C 33.44 34.8 34.56 33.7 34.56 32.33 C 34.56 30.97 33.44 29.86 32.07 29.86" />
</svg>