<?xml version="1.0" encoding="utf-8"?>
<!-- Generator: Avocode 0.4.0 - http://avocode.com -->
<svg height="58" width="68" xmlns:xlink="http://www.w3.org/1999/xlink" xmlns="http://www.w3.org/2000/svg" viewBox="0 0 68 58">
    <path fill="none" fill-rule="evenodd" d="M 46.77 40.89 L 46.77 56.21 L 67.46 56.21 L 67.46 40.94 C 67.43 35.26 62.81 30.66 57.11 30.66 C 51.43 30.66 46.82 35.23 46.77 40.89 L 46.77 40.89 Z M 46.77 40.89" />
    <path fill="#26a58f" fill-rule="evenodd" d="M 44.34 58.63 L 69.88 58.63 L 69.88 28.24 L 44.34 28.24 L 44.34 58.63 Z M 44.34 58.63" />
    <path fill="none" fill-rule="evenodd" d="M 47.43 20.29 C 47.43 25.95 51.76 30.54 57.11 30.54 C 62.46 30.54 66.79 25.95 66.79 20.29 C 66.79 14.63 62.46 10.03 57.11 10.03 C 51.76 10.03 47.43 14.63 47.43 20.29 L 47.43 20.29 Z M 47.43 20.29" />
    <path fill="#ffffff" fill-rule="evenodd" d="M 45 32.96 L 69.22 32.96 L 69.22 7.61 L 45 7.61 L 45 32.96 Z M 45 32.96" />
    <path fill="none" fill-rule="evenodd" d="M 52.15 7.62 C 49.89 7.72 45.22 10.9 47.6 21.97 C 47.69 19.92 49.08 16.09 50.66 13.95 C 52.34 14.14 59.03 14.13 63.93 13.55 C 63.93 13.55 65.47 17.69 66.68 22.06 C 67.98 15.25 66.99 10.31 64.35 10.53 C 62.53 8.12 59.62 7.53 55.45 7.53 C 54.43 7.53 53.33 7.56 52.15 7.62 L 52.15 7.62 Z M 52.15 7.62" />
    <path fill="#f3911e" fill-rule="evenodd" d="M 44.51 24.48 L 69.68 24.48 L 69.68 5.11 L 44.51 5.11 L 44.51 24.48 Z M 44.51 24.48" />
    <path fill="none" fill-rule="evenodd" d="M 53.46 24.73 C 52.85 25.77 52.59 26.32 51.96 26.04 C 52.19 26.96 54.31 27.38 55.36 26.06 C 56.01 25.25 56.89 24.75 57.11 24.86 C 57.33 24.75 58.21 25.25 58.86 26.06 C 59.91 27.38 62.04 26.96 62.26 26.04 C 61.64 26.32 61.38 25.77 60.76 24.73 C 60.38 24.1 59.67 23.65 58.82 23.65 C 58.29 23.65 57.7 23.83 57.11 24.25 C 56.52 23.83 55.94 23.65 55.4 23.65 C 54.55 23.65 53.84 24.1 53.46 24.73 L 53.46 24.73 Z M 53.46 24.73" />
    <path fill="#f3911e" fill-rule="evenodd" d="M 49.53 29.32 L 64.69 29.32 L 64.69 21.23 L 49.53 21.23 L 49.53 29.32 Z M 49.53 29.32" />
    <path fill="none" fill-rule="evenodd" d="M 53.52 32.36 L 57.11 38.56 L 60.7 32.36 C 59.58 31.95 58.37 31.72 57.11 31.72 C 55.85 31.72 54.64 31.95 53.52 32.36 L 53.52 32.36 Z M 53.52 32.36" />
    <path fill="#ffffff" fill-rule="evenodd" d="M 51.1 40.98 L 63.13 40.98 L 63.13 29.3 L 51.1 29.3 L 51.1 40.98 Z M 51.1 40.98" />
    <path fill="none" fill-rule="evenodd" d="M 31.47 25.15 L 29.63 23.56 C 24.79 24.42 21.11 28.65 21.11 33.74 L 21.11 56.21 L 41.8 56.21 L 41.8 33.74 C 41.8 28.64 38.11 24.41 33.26 23.56 L 31.47 25.15 L 31.47 25.15 Z M 31.47 25.15" />
    <path fill="#26a58f" fill-rule="evenodd" d="M 18.68 58.63 L 44.23 58.63 L 44.23 21.14 L 18.68 21.14 L 18.68 58.63 Z M 18.68 58.63" />
    <path fill="none" fill-rule="evenodd" d="M 21.77 13.03 C 21.77 18.69 26.11 23.29 31.45 23.29 C 36.8 23.29 41.14 18.69 41.14 13.03 C 41.14 7.37 36.8 2.78 31.45 2.78 C 26.11 2.78 21.77 7.37 21.77 13.03 L 21.77 13.03 Z M 21.77 13.03" />
    <path fill="#ffffff" fill-rule="evenodd" d="M 19.34 25.71 L 43.56 25.71 L 43.56 0.35 L 19.34 0.35 L 19.34 25.71 Z M 19.34 25.71" />
    <path fill="none" fill-rule="evenodd" d="M 26.57 1.23 C 24.91 2.01 21.48 3.43 20.42 2.69 C 19.3 3.93 20.2 6.19 21.6 6.66 C 21.6 6.66 21.27 10.71 21.92 14.71 C 22.01 12.67 23.04 10.06 24.62 7.92 C 26.29 8.11 33.83 7.92 38.58 7.74 C 38.58 7.74 39.79 10.43 41 14.8 C 43.42 10.16 41.84 4.86 38.68 3.28 C 36.88 1.24 34.43 0.02 31.6 0.02 C 30.03 0.02 28.34 0.4 26.57 1.23 L 26.57 1.23 Z M 26.57 1.23" />
    <path fill="#f3911e" fill-rule="evenodd" d="M 17.49 17.23 L 44.61 17.23 L 44.61 -2.4 L 17.49 -2.4 L 17.49 17.23 Z M 17.49 17.23" />
    <path fill="none" fill-rule="evenodd" d="M 31.47 26.74 L 29.63 25.15 C 28.82 25.3 28.04 25.53 27.31 25.86 L 29.11 28.26 L 31.47 26.74 L 33.82 28.26 L 35.61 25.86 C 34.87 25.53 34.08 25.29 33.26 25.15 L 31.47 26.74 L 31.47 26.74 Z M 31.47 26.74" />
    <path fill="#ffffff" fill-rule="evenodd" d="M 24.88 30.68 L 38.04 30.68 L 38.04 22.73 L 24.88 22.73 L 24.88 30.68 Z M 24.88 30.68" />
    <path fill="none" fill-rule="evenodd" d="M 1.76 16.89 C -0.45 24.28 -2.51 35.1 11.55 35.1 C 25.79 35.1 23.34 23.69 20.8 15.35 C 19.94 12.52 17.81 9.38 15.27 9.64 C 14.22 8.89 12.97 8.53 11.66 8.53 C 7.77 8.53 3.32 11.67 1.76 16.89 L 1.76 16.89 Z M 1.76 16.89" />
    <path fill="#f3911e" fill-rule="evenodd" d="M -2.25 37.52 L 25.18 37.52 L 25.18 6.11 L -2.25 6.11 L -2.25 37.52 Z M -2.25 37.52" />
    <path fill="none" fill-rule="evenodd" d="M 0.67 41.65 L 0.67 56.21 C 0.67 56.58 0.97 56.87 1.33 56.87 L 22.02 56.87 C 22.39 56.87 22.68 56.58 22.68 56.21 L 22.68 41.65 C 22.68 35.59 17.75 30.66 11.68 30.66 C 5.61 30.66 0.67 35.59 0.67 41.65 L 0.67 41.65 Z M 0.67 41.65" />
    <path fill="#26a58f" fill-rule="evenodd" d="M -1.76 59.29 L 25.11 59.29 L 25.11 28.24 L -1.76 28.24 L -1.76 59.29 Z M -1.76 59.29" />
    <path fill="none" fill-rule="evenodd" d="M 0.01 41.65 L 0.01 56.21 C 0.01 56.94 0.6 57.53 1.33 57.53 L 22.02 57.53 C 22.75 57.53 23.35 56.94 23.35 56.21 L 23.35 41.65 C 23.35 35.23 18.11 30 11.68 30 C 5.24 30 0.01 35.23 0.01 41.65 L 0.01 41.65 Z M 1.33 41.65 C 1.33 35.95 5.96 31.32 11.68 31.32 C 17.39 31.32 22.02 35.95 22.02 41.65 L 22.02 56.21 L 1.33 56.21 L 1.33 41.65 L 1.33 41.65 Z M 1.33 41.65" />
    <path fill="#ffffff" fill-rule="evenodd" d="M -2.42 59.96 L 25.77 59.96 L 25.77 27.58 L -2.42 27.58 L -2.42 59.96 Z M -2.42 59.96" />
    <path fill="none" fill-rule="evenodd" d="M 2.3 22.35 C 2.89 27.26 6.85 31.06 11.65 31.06 C 16.14 31.06 19.89 27.75 20.85 23.3 C 19.74 20.34 17.32 16.86 14.72 14.09 C 11.84 16.79 4.87 20.97 2.3 22.35 L 2.3 22.35 Z M 2.3 22.35" />
    <path fill="#ffffff" fill-rule="evenodd" d="M -0.13 33.48 L 23.28 33.48 L 23.28 11.66 L -0.13 11.66 L -0.13 33.48 Z M -0.13 33.48" />
    <path fill="none" fill-rule="evenodd" d="M 10.84 37.4 C 10.84 37.8 11.16 38.13 11.56 38.13 C 11.96 38.13 12.29 37.8 12.29 37.4 C 12.29 37.01 11.96 36.68 11.56 36.68 C 11.16 36.68 10.84 37.01 10.84 37.4 L 10.84 37.4 Z M 10.84 37.4" />
    <path fill="#ffffff" fill-rule="evenodd" d="M 8.41 40.55 L 14.71 40.55 L 14.71 34.26 L 8.41 34.26 L 8.41 40.55 Z M 8.41 40.55" />
    <path fill="none" fill-rule="evenodd" d="M 8.92 36.78 C 8.92 37.18 9.24 37.5 9.64 37.5 C 10.04 37.5 10.36 37.18 10.36 36.78 C 10.36 36.38 10.04 36.06 9.64 36.06 C 9.24 36.06 8.92 36.38 8.92 36.78 L 8.92 36.78 Z M 8.92 36.78" />
    <path fill="#ffffff" fill-rule="evenodd" d="M 6.49 39.92 L 12.79 39.92 L 12.79 33.64 L 6.49 33.64 L 6.49 39.92 Z M 6.49 39.92" />
    <path fill="none" fill-rule="evenodd" d="M 7.62 35.19 C 7.62 35.59 7.94 35.91 8.34 35.91 C 8.74 35.91 9.06 35.59 9.06 35.19 C 9.06 34.8 8.74 34.47 8.34 34.47 C 7.94 34.47 7.62 34.8 7.62 35.19 L 7.62 35.19 Z M 7.62 35.19" />
    <path fill="#ffffff" fill-rule="evenodd" d="M 5.19 38.34 L 11.49 38.34 L 11.49 32.05 L 5.19 32.05 L 5.19 38.34 Z M 5.19 38.34" />
    <path fill="none" fill-rule="evenodd" d="M 6.94 33.37 C 6.94 33.77 7.27 34.09 7.67 34.09 C 8.06 34.09 8.39 33.77 8.39 33.37 C 8.39 32.97 8.06 32.65 7.67 32.65 C 7.27 32.65 6.94 32.97 6.94 33.37 L 6.94 33.37 Z M 6.94 33.37" />
    <path fill="#ffffff" fill-rule="evenodd" d="M 4.51 36.51 L 10.82 36.51 L 10.82 30.22 L 4.51 30.22 L 4.51 36.51 Z M 4.51 36.51" />
    <path fill="none" fill-rule="evenodd" d="M 12.77 36.78 C 12.77 37.18 13.09 37.5 13.49 37.5 C 13.89 37.5 14.21 37.18 14.21 36.78 C 14.21 36.38 13.89 36.06 13.49 36.06 C 13.09 36.06 12.77 36.38 12.77 36.78 L 12.77 36.78 Z M 12.77 36.78" />
    <path fill="#ffffff" fill-rule="evenodd" d="M 10.34 39.92 L 16.64 39.92 L 16.64 33.64 L 10.34 33.64 L 10.34 39.92 Z M 10.34 39.92" />
    <path fill="none" fill-rule="evenodd" d="M 14.07 35.19 C 14.07 35.59 14.39 35.91 14.79 35.91 C 15.19 35.91 15.51 35.59 15.51 35.19 C 15.51 34.8 15.19 34.47 14.79 34.47 C 14.39 34.47 14.07 34.8 14.07 35.19 L 14.07 35.19 Z M 14.07 35.19" />
    <path fill="#ffffff" fill-rule="evenodd" d="M 11.64 38.34 L 17.94 38.34 L 17.94 32.05 L 11.64 32.05 L 11.64 38.34 Z M 11.64 38.34" />
    <path fill="none" fill-rule="evenodd" d="M 14.74 33.37 C 14.74 33.77 15.06 34.09 15.46 34.09 C 15.86 34.09 16.18 33.77 16.18 33.37 C 16.18 32.97 15.86 32.65 15.46 32.65 C 15.06 32.65 14.74 32.97 14.74 33.37 L 14.74 33.37 Z M 14.74 33.37" />
    <path fill="#ffffff" fill-rule="evenodd" d="M 12.31 36.51 L 18.61 36.51 L 18.61 30.22 L 12.31 30.22 L 12.31 36.51 Z M 12.31 36.51" />
    <path fill="none" fill-rule="evenodd" d="M 31 53.81 L 31 56.21 C 31 56.58 31.3 56.87 31.66 56.87 L 49.5 56.87 C 49.87 56.87 50.16 56.58 50.16 56.21 L 50.16 53.81 C 50.16 48.53 45.86 44.24 40.58 44.24 C 35.3 44.24 31 48.53 31 53.81 L 31 53.81 Z M 31 53.81" />
    <path fill="#26a58f" fill-rule="evenodd" d="M 28.57 59.29 L 52.59 59.29 L 52.59 41.82 L 28.57 41.82 L 28.57 59.29 Z M 28.57 59.29" />
    <path fill="none" fill-rule="evenodd" d="M 30.34 53.81 L 30.34 56.21 C 30.34 56.94 30.93 57.53 31.66 57.53 L 49.5 57.53 C 50.23 57.53 50.82 56.94 50.82 56.21 L 50.82 53.81 C 50.82 48.17 46.23 43.58 40.58 43.58 C 34.93 43.58 30.34 48.17 30.34 53.81 L 30.34 53.81 Z M 31.66 53.81 C 31.66 48.89 35.66 44.9 40.58 44.9 C 45.51 44.9 49.5 48.89 49.5 53.81 L 49.5 56.21 L 31.66 56.21 L 31.66 53.81 L 31.66 53.81 Z M 31.66 53.81" />
    <path fill="#ffffff" fill-rule="evenodd" d="M 27.91 59.96 L 53.25 59.96 L 53.25 41.16 L 27.91 41.16 L 27.91 59.96 Z M 27.91 59.96" />
    <path fill="none" fill-rule="evenodd" d="M 32.36 36.09 C 32.36 40.9 36.04 44.8 40.58 44.8 C 45.12 44.8 48.8 40.9 48.8 36.09 C 48.8 31.28 45.12 27.38 40.58 27.38 C 36.04 27.38 32.36 31.28 32.36 36.09 L 32.36 36.09 Z M 32.36 36.09" />
    <path fill="#ffffff" fill-rule="evenodd" d="M 29.93 47.22 L 51.23 47.22 L 51.23 24.96 L 29.93 24.96 L 29.93 47.22 Z M 29.93 47.22" />
    <path fill="none" fill-rule="evenodd" d="M 40.72 24.62 C 35.5 24.62 30.12 28.86 32.41 36.58 C 32.97 33.18 37.41 31.13 39.74 29.85 C 39.02 30.8 38.08 31.67 37.37 32.3 C 39.53 31.91 42.51 30.64 44.09 29.7 C 45.29 30.46 48.13 33.61 48.85 36.09 C 49.98 32.17 48.91 27.88 46.22 26.54 C 44.71 25.25 42.73 24.62 40.73 24.62 L 40.72 24.62 L 40.72 24.62 Z M 40.72 24.62" />
    <path fill="#f3911e" fill-rule="evenodd" d="M 29.44 39 L 51.72 39 L 51.72 22.2 L 29.44 22.2 L 29.44 39 Z M 29.44 39" />
</svg>