<?xml version="1.0" encoding="utf-8"?>
<!-- Generator: Avocode 0.4.0 - http://avocode.com -->
<svg height="44" width="56" xmlns:xlink="http://www.w3.org/1999/xlink" xmlns="http://www.w3.org/2000/svg" viewBox="0 0 56 44">
    <path fill="none" fill-rule="evenodd" d="M 52.26 43.39 L 0 43.39 L 0 19.5 L 52.26 19.5 L 52.26 43.39 L 52.26 43.39 Z M 52.26 43.39" />
    <path fill="#f4a423" fill-rule="evenodd" d="M 52.26 36.25 L 52.26 32.46 L 52.26 24.85 C 52.1 24.82 51.98 24.8 51.86 24.65 C 49 21.11 45.04 19.47 42.23 19.5 C 39.42 19.54 36.41 20.91 33.48 22.77 C 30.56 24.63 27.69 26.9 24.94 28.82 C 22.19 30.73 19.61 32.29 16.99 32.29 C 16.51 32.29 16.1 31.87 16.1 31.39 C 16.1 30.92 16.51 30.5 16.99 30.5 C 18.34 30.5 20.04 29.69 21.86 28.62 C 19.8 26.52 16.55 23.87 13.02 22.87 C 9.41 21.85 3.8 22.83 0 27.73 L 0 39.03 C 0 41.44 1.95 43.39 4.37 43.39 L 47.89 43.39 C 50.31 43.39 52.26 41.44 52.26 39.03 L 52.26 38.13 L 52.26 36.25 Z M 52.26 36.25" />
    <path fill="none" fill-rule="evenodd" d="M 0 0.17 L 0 38.13 L 55.84 38.13 L 55.84 0.17 L 0 0.17 L 0 0.17 Z M 0 0.17" />
    <path fill="#219a7f" fill-rule="evenodd" d="M 55.84 33.77 L 55.84 4.53 C 55.84 2.12 53.89 0.17 51.47 0.17 L 8.94 0.17 C 6.8 0.17 5.06 1.72 4.67 3.74 L 4.37 3.74 C 1.95 3.74 0 5.79 0 8.2 L 0 24.95 C 4.14 20.97 9.81 20.14 13.51 21.19 C 14.23 21.39 14.92 21.68 15.6 21.98 C 15.99 17.72 19.67 14.44 24.04 14.64 C 28.07 14.84 31.33 17.86 31.79 21.68 C 32.05 21.51 32.33 21.35 32.59 21.19 C 35.64 19.25 38.87 17.76 42.23 17.72 C 45.25 17.68 49.22 19.32 52.26 22.47 L 52.26 8.2 C 52.26 5.79 50.31 3.74 47.89 3.74 L 6.56 3.74 C 6.89 2.7 7.77 1.96 8.94 1.96 L 51.47 1.96 C 52.92 1.96 54.05 3.08 54.05 4.53 L 54.05 33.77 C 54.05 34.92 53.3 35.9 52.26 36.25 L 52.26 38.13 C 54.3 37.74 55.84 35.91 55.84 33.77" />
    <path fill="#f4a423" fill-rule="evenodd" d="M 23.15 8 C 23.69 7.9 24.29 8.44 24.24 8.99 L 24.24 11.97 C 24.25 12.44 23.83 12.86 23.35 12.86 C 22.87 12.86 22.45 12.44 22.45 11.97 L 22.45 8.99 C 22.44 8.6 22.68 8.22 23.05 8.1 C 23.07 8.07 23.13 8.02 23.15 8" />
    <path fill="#f4a423" fill-rule="evenodd" d="M 30.01 9.89 L 30.2 9.89 C 30.87 9.86 31.37 10.72 31 11.27 L 29.31 13.75 C 29.08 14.19 28.44 14.31 28.02 14.05 C 27.6 13.79 27.52 13.16 27.82 12.76 L 29.41 10.28 C 29.52 10.06 29.77 9.95 30.01 9.89" />
    <path fill="#f4a423" fill-rule="evenodd" d="M 15.3 10.78 L 15.5 10.78 C 15.82 10.7 16.18 10.83 16.39 11.08 L 18.38 13.26 C 19.03 13.96 17.64 15.25 16.99 14.54 L 15 12.27 C 14.59 11.85 14.76 11.01 15.3 10.78" />
    <path fill="#f4a423" fill-rule="evenodd" d="M 35.17 14.94 C 35.19 14.94 35.25 14.94 35.27 14.94 C 35.31 14.94 35.33 14.94 35.37 14.94 C 36.24 14.84 36.57 16.4 35.77 16.73 L 33.18 18.11 C 32.76 18.34 32.12 18.14 31.89 17.72 C 31.67 17.29 31.86 16.65 32.29 16.43 L 34.97 15.04 C 35.01 15.01 35.13 15.06 35.17 15.04 C 35.19 15.01 35.15 14.96 35.17 14.94" />
    <path fill="#f4a423" fill-rule="evenodd" d="M 10.93 15.93 C 10.97 15.93 10.99 15.93 11.03 15.93 C 11.18 15.9 11.38 15.97 11.53 16.03 L 14.41 16.92 C 14.86 17.07 15.15 17.56 15 18.01 C 14.86 18.47 14.27 18.76 13.81 18.61 L 10.93 17.72 C 10.15 17.55 10.17 16.15 10.93 15.93" />
</svg>