<?xml version="1.0" encoding="utf-8"?>
<!-- Generator: Avocode 0.4.0 - http://avocode.com -->
<svg height="42" width="58" xmlns:xlink="http://www.w3.org/1999/xlink" xmlns="http://www.w3.org/2000/svg" viewBox="0 0 58 42">
    <path fill="none" fill-rule="evenodd" d="M 3.32 0.15 L 0 0.15 L 0 35.42 L 6.65 35.42 L 6.65 0.15 L 3.32 0.15 L 3.32 0.15 Z M 3.32 0.15" />
    <path fill="#f4a423" fill-rule="evenodd" d="M 1 0.15 L 5.65 0.15 C 6.2 0.15 6.65 0.59 6.65 1.15 L 6.65 34.43 C 6.65 34.98 6.2 35.42 5.65 35.42 L 1 35.42 C 0.45 35.42 0 34.98 0 34.43 L 0 1.15 C 0 0.59 0.45 0.15 1 0.15" />
    <path fill="#f4a423" fill-rule="evenodd" d="M 43.07 29.76 C 43.07 34.63 39.09 38.58 34.2 38.58 C 29.37 38.58 25.44 34.71 25.35 29.92 L 29.78 29.08 L 22.05 30.54 C 22.46 36.87 27.74 41.89 34.2 41.89 C 40.93 41.89 46.39 36.46 46.39 29.76 C 46.39 28.46 46.18 27.22 45.8 26.04 L 42.48 26.67 C 42.84 27.64 43.07 28.68 43.07 29.76" />
    <path fill="none" fill-rule="evenodd" d="M 57.62 33.01 L 57.62 2.56 L 8.86 2.56 L 8.86 33.01 L 57.62 33.01 L 57.62 33.01 Z M 57.62 33.01" />
    <path fill="#219a7f" fill-rule="evenodd" d="M 57.62 25.61 L 57.62 9.96 C 57.62 9.41 57.17 8.97 56.62 8.97 L 56.41 8.97 C 55.85 8.97 55.4 9.41 55.4 9.96 L 55.4 9.96 C 55.4 10.59 54.83 11.06 54.21 10.95 L 10.06 2.58 C 9.44 2.46 8.86 2.93 8.86 3.56 L 8.86 5.92 C 8.86 6.4 9.22 6.82 9.7 6.9 L 23.5 9.19 C 24.71 9.39 24.57 11.17 23.33 11.17 L 9.87 11.17 C 9.31 11.17 8.86 11.62 8.86 12.17 L 8.86 32.01 C 8.86 32.64 9.44 33.11 10.06 32.99 L 22.2 30.69 L 22.2 30.69 L 29.93 29.23 L 42.62 26.82 C 42.62 26.82 42.62 26.82 42.62 26.82 L 45.95 26.19 L 45.95 26.19 L 54.21 24.63 C 54.83 24.51 55.4 24.98 55.4 25.61 L 55.4 25.61 C 55.4 26.16 55.85 26.6 56.41 26.6 L 56.62 26.6 C 57.17 26.6 57.62 26.16 57.62 25.61" />
</svg>