<?xml version="1.0" encoding="utf-8"?>
<!-- Generator: Adobe Illustrator 18.1.1, SVG Export Plug-In . SVG Version: 6.00 Build 0)  -->
<svg version="1.1" id="Слой_1" xmlns="http://www.w3.org/2000/svg" xmlns:xlink="http://www.w3.org/1999/xlink" x="0px" y="0px"
	 viewBox="-201.5 176.6 70.6 119.3" enable-background="new -201.5 176.6 70.6 119.3" xml:space="preserve">
<path id="SvgjsPath1048_1_" fill="#F5931D" d="M-172.8,237.8c0,1.6-0.9,2.9-1.9,2.9c-1.1,0-1.9-1.3-1.9-2.9v-52.9
	c0-1.6,0.9-2.9,1.9-2.9c1.1,0,1.9,1.3,1.9,2.9V237.8z"/>
<path id="SvgjsPath1049_1_" fill="#F5931D" d="M-175.7,189.2h1.3v-10.8h-1.3V189.2z"/>
<path id="SvgjsPath1050_1_" fill="#F5931D" d="M-172.6,178.6c0,1.1-0.9,2-2,2c-1.1,0-2-0.9-2-2c0-1.1,0.9-2,2-2
	C-173.5,176.6-172.6,177.5-172.6,178.6"/>
<path id="SvgjsPath1051_1_" fill="#F5931D" d="M-173.9,187.5c0,0,8.7-8.9,24.4,5.1c11.9,10.6,18.6,2.2,18.6,2.2v32.1
	c0,0-8.9,5.5-20.3-4.3c-15.6-13.5-22.7-3.8-22.7-3.8V187.5z"/>
<path id="SvgjsPath1052_1_" fill="#E6E6E6" d="M-175,291.4l4.8-25.5l4.4,7.6l3.2-6.7l11.3,4.8l-21.8-41.1h-3.7l-8.9,34.6l6.2-2.7
	L-175,291.4z"/>
<path id="SvgjsPath1053_5_" fill="#69C4B1" d="M-131.8,295.9l-9.9-23.5l-5.9,5.9l-3.5-6.7l-10.3-6.8l-4.2,8.8l-4.4-7.6l-4.8,25.5
	l-4.6-29l-6.2,2.7l-1.7,6.5l-6.1-4l-8.1,28.2"/>
</svg>
