<?xml version="1.0" encoding="utf-8"?>
<!-- Generator: Avocode 0.4.0 - http://avocode.com -->
<svg height="68" width="62" xmlns:xlink="http://www.w3.org/1999/xlink" xmlns="http://www.w3.org/2000/svg" viewBox="0 0 62 68">
    <path fill="none" fill-rule="evenodd" d="M 0 0.21 L 61.55 0.21 L 61.55 67.76 L 0 67.76" />
    <path fill="#6ac5b2" fill-rule="evenodd" d="M 41.31 34.22 C 41.24 34.24 41.16 34.2 41.14 34.14 C 41.13 34.08 41.17 34.01 41.25 33.99 C 41.33 33.97 41.4 34 41.42 34.07 C 41.44 34.13 41.39 34.2 41.31 34.22 M 39.96 31.07 C 39.92 30.94 40.02 30.8 40.17 30.76 C 40.33 30.72 40.48 30.79 40.52 30.92 C 40.55 31.04 40.46 31.18 40.3 31.22 C 40.15 31.27 40 31.2 39.96 31.07 M 41.01 35.17 C 40.93 35.19 40.86 35.15 40.84 35.09 C 40.82 35.02 40.87 34.96 40.94 34.93 C 41.02 34.91 41.1 34.95 41.11 35.01 C 41.13 35.08 41.09 35.14 41.01 35.17 M 40.21 33.51 C 40.18 33.41 40.25 33.3 40.37 33.27 C 40.49 33.23 40.61 33.29 40.64 33.39 C 40.67 33.49 40.59 33.6 40.47 33.63 C 40.35 33.66 40.23 33.61 40.21 33.51 M 39.85 33.22 C 39.73 33.25 39.61 33.19 39.58 33.09 C 39.55 32.99 39.63 32.89 39.75 32.85 C 39.87 32.82 39.99 32.88 40.01 32.97 C 40.04 33.07 39.97 33.18 39.85 33.22 M 38.78 30.81 C 38.73 30.65 38.85 30.48 39.04 30.43 C 39.23 30.38 39.41 30.46 39.46 30.62 C 39.5 30.78 39.39 30.95 39.2 31 C 39.01 31.05 38.82 30.97 38.78 30.81 M 37.99 29.83 C 37.95 29.67 38.07 29.5 38.25 29.45 C 38.44 29.4 38.63 29.48 38.67 29.64 C 38.72 29.8 38.6 29.96 38.41 30.02 C 38.23 30.07 38.04 29.98 37.99 29.83 M 39.98 31.93 C 40.02 32.05 39.92 32.19 39.77 32.23 C 39.62 32.28 39.46 32.21 39.43 32.08 C 39.39 31.95 39.49 31.81 39.64 31.77 C 39.79 31.73 39.95 31.8 39.98 31.93 M 47.83 34.03 C 47.9 34.01 47.97 34.04 47.99 34.1 C 48 34.16 47.96 34.23 47.89 34.25 C 47.81 34.27 47.74 34.23 47.73 34.17 C 47.71 34.11 47.75 34.05 47.83 34.03 M 48.53 34.84 C 48.6 34.81 48.68 34.85 48.69 34.91 C 48.71 34.97 48.67 35.03 48.59 35.05 C 48.52 35.07 48.45 35.04 48.43 34.98 C 48.41 34.92 48.46 34.85 48.53 34.84 M 48.07 32.69 C 48.2 32.66 48.33 32.72 48.36 32.83 C 48.39 32.94 48.31 33.05 48.18 33.09 C 48.05 33.12 47.92 33.06 47.89 32.96 C 47.86 32.85 47.94 32.73 48.07 32.69 M 48.8 31.59 C 48.99 31.54 49.18 31.63 49.22 31.78 C 49.27 31.94 49.15 32.11 48.96 32.16 C 48.78 32.21 48.59 32.13 48.54 31.97 C 48.5 31.81 48.62 31.64 48.8 31.59 M 61.27 62.14 C 60.34 61.72 57.76 62.08 57.76 62.08 C 56.67 62.13 55.22 62.36 53.92 61.24 C 52.62 60.12 50.01 53.73 48.96 47.01 C 48.39 43.38 49.27 42.78 49.75 41 C 50.66 37.63 50.71 33.34 50.09 29.37 C 48.84 21.38 45.71 14.53 45.51 14.09 C 45.31 13.64 41.87 14.7 39.23 15.42 L 38.8 15.54 C 36.16 16.26 32.66 17.11 32.73 17.6 C 32.79 18.08 33.68 25.54 36.78 33.03 C 38.32 36.74 40.6 40.39 43.14 42.81 C 44.49 44.1 45.54 44.16 46.95 47.56 C 49.56 53.86 50.66 60.66 50.13 62.28 C 49.6 63.9 48.23 64.44 47.28 64.96 C 47.28 64.96 44.88 65.97 44.3 66.8 C 43.69 67.69 46.13 68.53 53.45 66.49 C 60.77 64.45 62.26 62.59 61.27 62.14" />
    <path fill="#6ac5b2" fill-rule="evenodd" d="M 17.01 31.87 C 16.93 31.84 16.89 31.77 16.91 31.71 C 16.94 31.65 17.01 31.62 17.09 31.64 C 17.16 31.67 17.2 31.74 17.18 31.8 C 17.16 31.87 17.08 31.89 17.01 31.87 M 17.75 28.53 C 17.8 28.4 17.96 28.34 18.11 28.4 C 18.26 28.45 18.34 28.6 18.3 28.72 C 18.25 28.85 18.09 28.9 17.94 28.85 C 17.79 28.8 17.71 28.65 17.75 28.53 M 16.2 32.46 C 16.13 32.44 16.08 32.37 16.11 32.3 C 16.13 32.24 16.21 32.21 16.28 32.24 C 16.36 32.27 16.4 32.34 16.38 32.4 C 16.35 32.46 16.27 32.49 16.2 32.46 M 16.52 30.65 C 16.56 30.56 16.68 30.51 16.8 30.55 C 16.91 30.59 16.98 30.71 16.94 30.8 C 16.91 30.9 16.78 30.95 16.67 30.9 C 16.55 30.86 16.48 30.75 16.52 30.65 M 16.4 30.21 C 16.29 30.17 16.22 30.06 16.26 29.96 C 16.29 29.86 16.42 29.82 16.53 29.86 C 16.65 29.9 16.71 30.01 16.68 30.11 C 16.64 30.21 16.52 30.25 16.4 30.21 M 16.94 27.64 C 17 27.48 17.19 27.41 17.38 27.48 C 17.56 27.54 17.66 27.72 17.61 27.87 C 17.55 28.03 17.36 28.1 17.17 28.03 C 16.99 27.97 16.89 27.79 16.94 27.64 M 16.88 26.39 C 16.94 26.23 17.13 26.16 17.32 26.23 C 17.5 26.29 17.6 26.47 17.55 26.63 C 17.49 26.78 17.3 26.85 17.11 26.78 C 16.93 26.72 16.83 26.54 16.88 26.39 M 17.27 29.24 C 17.22 29.36 17.06 29.42 16.91 29.37 C 16.76 29.31 16.68 29.17 16.73 29.04 C 16.77 28.92 16.93 28.86 17.08 28.91 C 17.23 28.97 17.32 29.11 17.27 29.24 M 22.42 35.45 C 22.49 35.48 22.53 35.54 22.51 35.6 C 22.49 35.66 22.41 35.69 22.34 35.66 C 22.27 35.64 22.23 35.57 22.25 35.51 C 22.27 35.45 22.35 35.43 22.42 35.45 M 22.52 36.51 C 22.59 36.54 22.63 36.61 22.61 36.67 C 22.58 36.72 22.51 36.75 22.44 36.73 C 22.37 36.7 22.33 36.63 22.35 36.57 C 22.37 36.52 22.45 36.49 22.52 36.51 M 23.4 34.51 C 23.53 34.55 23.6 34.68 23.56 34.78 C 23.52 34.89 23.39 34.94 23.26 34.89 C 23.13 34.85 23.06 34.72 23.1 34.62 C 23.14 34.51 23.27 34.46 23.4 34.51 M 24.65 34.03 C 24.83 34.1 24.93 34.27 24.88 34.43 C 24.82 34.58 24.62 34.65 24.44 34.58 C 24.26 34.52 24.16 34.34 24.21 34.19 C 24.27 34.03 24.46 33.96 24.65 34.03 M 16.84 66.06 C 16.33 65.18 14.02 63.99 14.02 63.99 C 13.11 63.4 11.79 62.76 11.39 61.1 C 10.98 59.44 12.62 52.75 15.71 46.67 C 17.38 43.38 18.44 43.41 19.89 42.23 C 22.61 40.01 25.17 36.55 27 32.96 C 30.68 25.74 32.15 18.37 32.25 17.89 C 32.35 17.41 28.93 16.3 26.36 15.37 L 25.93 15.22 C 23.36 14.3 20.02 12.98 19.78 13.41 C 19.55 13.84 15.89 20.42 14.02 28.3 C 13.09 32.2 12.8 36.48 13.44 39.91 C 13.78 41.73 14.61 42.39 13.76 45.96 C 12.17 52.59 9.08 58.76 7.69 59.77 C 6.31 60.79 4.88 60.45 3.8 60.31 C 3.8 60.31 1.25 59.76 0.29 60.11 C -0.73 60.48 0.76 62.56 7.92 65.11 C 15.08 67.65 17.38 66.99 16.84 66.06" />
    <path fill="#f6941d" fill-rule="evenodd" d="M 38.4 2.59 C 38.4 3.35 37.77 3.96 37.01 3.96 C 36.24 3.96 35.62 3.35 35.62 2.59 C 35.62 1.83 36.24 1.21 37.01 1.21 C 37.77 1.21 38.4 1.83 38.4 2.59" />
    <path fill="#f6941d" fill-rule="evenodd" d="M 37.01 7.34 C 37.01 8.1 36.38 8.71 35.62 8.71 C 34.85 8.71 34.23 8.1 34.23 7.34 C 34.23 6.58 34.85 5.97 35.62 5.97 C 36.38 5.97 37.01 6.58 37.01 7.34" />
    <path fill="#f6941d" fill-rule="evenodd" d="M 38.93 10.61 C 38.93 11.17 38.48 11.62 37.91 11.62 C 37.35 11.62 36.9 11.17 36.9 10.61 C 36.9 10.06 37.35 9.61 37.91 9.61 C 38.48 9.61 38.93 10.06 38.93 10.61" />
    <path fill="#f6941d" fill-rule="evenodd" d="M 39.57 5.44 C 39.57 5.99 39.12 6.44 38.56 6.44 C 38 6.44 37.54 5.99 37.54 5.44 C 37.54 4.89 38 4.44 38.56 4.44 C 39.12 4.44 39.57 4.89 39.57 5.44" />
    <path fill="#f6941d" fill-rule="evenodd" d="M 32.73 3.91 C 32.73 4.46 32.28 4.91 31.72 4.91 C 31.16 4.91 30.7 4.46 30.7 3.91 C 30.7 3.35 31.16 2.9 31.72 2.9 C 32.28 2.9 32.73 3.35 32.73 3.91" />
    <path fill="#f6941d" fill-rule="evenodd" d="M 33.05 8.5 C 33.05 9.06 32.6 9.5 32.04 9.5 C 31.48 9.5 31.02 9.06 31.02 8.5 C 31.02 7.95 31.48 7.5 32.04 7.5 C 32.6 7.5 33.05 7.95 33.05 8.5" />
    <path fill="#f6941d" fill-rule="evenodd" d="M 29.53 13.84 C 29.53 14.3 29.14 14.68 28.67 14.68 C 28.2 14.68 27.82 14.3 27.82 13.84 C 27.82 13.37 28.2 12.99 28.67 12.99 C 29.14 12.99 29.53 13.37 29.53 13.84" />
    <path fill="#f6941d" fill-rule="evenodd" d="M 30.65 1.53 C 30.65 1.79 30.43 2.01 30.17 2.01 C 29.9 2.01 29.69 1.79 29.69 1.53 C 29.69 1.27 29.9 1.06 30.17 1.06 C 30.43 1.06 30.65 1.27 30.65 1.53" />
    <path fill="#f6941d" fill-rule="evenodd" d="M 38.34 0.69 C 38.34 0.95 38.13 1.16 37.86 1.16 C 37.6 1.16 37.38 0.95 37.38 0.69 C 37.38 0.42 37.6 0.21 37.86 0.21 C 38.13 0.21 38.34 0.42 38.34 0.69" />
    <path fill="#f6941d" fill-rule="evenodd" d="M 40.8 7.97 C 40.8 8.24 40.58 8.45 40.32 8.45 C 40.05 8.45 39.84 8.24 39.84 7.97 C 39.84 7.71 40.05 7.5 40.32 7.5 C 40.58 7.5 40.8 7.71 40.8 7.97" />
    <path fill="#f6941d" fill-rule="evenodd" d="M 36.15 10.67 C 36.15 10.93 35.94 11.14 35.67 11.14 C 35.41 11.14 35.19 10.93 35.19 10.67 C 35.19 10.4 35.41 10.19 35.67 10.19 C 35.94 10.19 36.15 10.4 36.15 10.67" />
    <path fill="#f6941d" fill-rule="evenodd" d="M 35.83 7.08 C 35.83 7.34 35.62 7.55 35.35 7.55 C 35.08 7.55 34.87 7.34 34.87 7.08 C 34.87 6.81 35.08 6.6 35.35 6.6 C 35.62 6.6 35.83 6.81 35.83 7.08" />
    <path fill="#f6941d" fill-rule="evenodd" d="M 36.21 4.65 C 36.21 4.91 35.99 5.12 35.72 5.12 C 35.46 5.12 35.24 4.91 35.24 4.65 C 35.24 4.38 35.46 4.17 35.72 4.17 C 35.99 4.17 36.21 4.38 36.21 4.65" />
    <path fill="#f6941d" fill-rule="evenodd" d="M 33.11 6.23 C 33.11 6.49 32.89 6.71 32.63 6.71 C 32.36 6.71 32.15 6.49 32.15 6.23 C 32.15 5.97 32.36 5.76 32.63 5.76 C 32.89 5.76 33.11 5.97 33.11 6.23" />
    <path fill="#f6941d" fill-rule="evenodd" d="M 33.27 13.73 C 33.27 13.99 33.05 14.2 32.79 14.2 C 32.52 14.2 32.3 13.99 32.3 13.73 C 32.3 13.47 32.52 13.25 32.79 13.25 C 33.05 13.25 33.27 13.47 33.27 13.73" />
    <path fill="#f6941d" fill-rule="evenodd" d="M 40.78 9.98 C 40.78 10.14 40.65 10.28 40.48 10.28 C 40.31 10.28 40.18 10.14 40.18 9.98 C 40.18 9.82 40.31 9.68 40.48 9.68 C 40.65 9.68 40.78 9.82 40.78 9.98" />
    <path fill="#f6941d" fill-rule="evenodd" d="M 25.09 13.1 C 25.09 13.26 24.96 13.39 24.79 13.39 C 24.63 13.39 24.49 13.26 24.49 13.1 C 24.49 12.93 24.63 12.8 24.79 12.8 C 24.96 12.8 25.09 12.93 25.09 13.1" />
    <path fill="#f6941d" fill-rule="evenodd" d="M 29.58 7.18 C 29.58 8.06 28.86 8.77 27.98 8.77 C 27.09 8.77 26.37 8.06 26.37 7.18 C 26.37 6.31 27.09 5.6 27.98 5.6 C 28.86 5.6 29.58 6.31 29.58 7.18" />
    <path fill="#f6941d" fill-rule="evenodd" d="M 27.48 10.77 C 27.48 10.94 27.34 11.07 27.18 11.07 C 27.01 11.07 26.88 10.94 26.88 10.77 C 26.88 10.61 27.01 10.48 27.18 10.48 C 27.34 10.48 27.48 10.61 27.48 10.77" />
    <path fill="#f6941d" fill-rule="evenodd" d="M 33.62 10.12 C 33.62 10.28 33.49 10.42 33.32 10.42 C 33.15 10.42 33.02 10.28 33.02 10.12 C 33.02 9.95 33.15 9.82 33.32 9.82 C 33.49 9.82 33.62 9.95 33.62 10.12" />
    <path fill="#f6941d" fill-rule="evenodd" d="M 32.04 11.35 C 32.04 11.62 31.82 11.83 31.56 11.83 C 31.29 11.83 31.08 11.62 31.08 11.35 C 31.08 11.09 31.29 10.88 31.56 10.88 C 31.82 10.88 32.04 11.09 32.04 11.35" />
    <path fill="#f6941d" fill-rule="evenodd" d="M 30.65 9.72 C 30.65 10.18 30.27 10.56 29.79 10.56 C 29.32 10.56 28.94 10.18 28.94 9.72 C 28.94 9.25 29.32 8.87 29.79 8.87 C 30.27 8.87 30.65 9.25 30.65 9.72" />
</svg>