<svg id="SvgjsSvg1000" xmlns="http://www.w3.org/2000/svg" version="1.1" xmlns:xlink="http://www.w3.org/1999/xlink" xmlns:svgjs="http://svgjs.com/svgjs" width="47" height="47"><defs id="SvgjsDefs1001"></defs><path id="SvgjsPath1007" d="M332.7 13.01C332.18 13.1 331.77 13.49 331.67 14C331.64000000000004 14.09 331.63 14.18 331.62 14.26L330.46 18.490000000000002C329.98999999999995 18.580000000000002 329.5 18.67 329.03999999999996 18.790000000000003C328.47999999999996 18.94 327.96999999999997 19.160000000000004 327.43999999999994 19.35L323.85999999999996 16.16C323.46 15.8 322.86999999999995 15.73 322.4 15.99C320.92999999999995 16.82 319.57 17.81 318.34 18.92C317.92999999999995 19.290000000000003 317.81 19.880000000000003 318.03999999999996 20.39L320.06999999999994 24.7C319.4099999999999 25.49 318.80999999999995 26.34 318.29999999999995 27.24L313.46999999999997 27.069999999999997C312.90999999999997 27.049999999999997 312.4 27.399999999999995 312.21999999999997 27.929999999999996C311.64 29.489999999999995 311.24999999999994 31.099999999999994 311.01 32.76C310.93 33.32 311.23 33.86 311.75 34.1L316.01 36.08C316.03 37.1 316.12 38.12 316.32 39.14L312.52 42.160000000000004C312.09 42.49 311.90999999999997 43.07 312.09 43.580000000000005C312.65999999999997 45.190000000000005 313.41999999999996 46.64000000000001 314.28999999999996 48.02C314.58 48.49 315.14 48.71 315.66999999999996 48.59L320.23999999999995 47.38C320.90999999999997 48.150000000000006 321.65999999999997 48.85 322.43999999999994 49.49L321.44999999999993 54.28C321.3499999999999 54.81 321.5899999999999 55.34 322.04999999999995 55.61C323.47999999999996 56.46 325.03 57.17 326.61999999999995 57.68C327.1499999999999 57.85 327.71999999999997 57.66 328.03999999999996 57.21L330.76 53.33C331.78 53.5 332.82 53.55 333.86 53.54L336.11 57.81C336.37 58.29 336.91 58.550000000000004 337.44 58.46C338.15 58.34 338.84 58.22 339.56 58.03C340.48 57.78 341.37 57.47 342.23 57.120000000000005C342.76 56.92 343.09000000000003 56.39000000000001 343.05 55.830000000000005L342.57 50.440000000000005C342.51 49.74 341.9 49.21000000000001 341.19 49.27C340.49 49.330000000000005 339.96999999999997 49.95 340.03 50.650000000000006L340.41999999999996 55.050000000000004C339.91999999999996 55.230000000000004 339.42999999999995 55.43000000000001 338.90999999999997 55.57000000000001C338.58 55.66000000000001 338.23999999999995 55.71000000000001 337.91999999999996 55.790000000000006L335.75999999999993 51.730000000000004C335.5199999999999 51.300000000000004 335.04999999999995 51.050000000000004 334.54999999999995 51.09C333.13999999999993 51.17 331.75999999999993 51.040000000000006 330.41999999999996 50.74C329.90999999999997 50.620000000000005 329.37999999999994 50.830000000000005 329.08 51.260000000000005L326.53999999999996 54.88C325.71999999999997 54.57 324.92999999999995 54.21 324.15999999999997 53.800000000000004L325.07 49.36000000000001C325.15999999999997 48.89000000000001 324.98 48.400000000000006 324.59999999999997 48.11000000000001C323.47999999999996 47.28000000000001 322.47999999999996 46.290000000000006 321.61999999999995 45.18000000000001C321.29999999999995 44.78000000000001 320.78 44.61000000000001 320.28 44.75000000000001L316.05999999999995 45.870000000000005C315.61999999999995 45.11000000000001 315.22999999999996 44.32000000000001 314.88999999999993 43.50000000000001L318.42999999999995 40.690000000000005C318.80999999999995 40.38 318.97999999999996 39.88 318.85999999999996 39.400000000000006C318.53 38.00000000000001 318.36999999999995 36.620000000000005 318.42999999999995 35.260000000000005C318.42999999999995 34.760000000000005 318.15 34.31 317.69999999999993 34.10000000000001L313.7299999999999 32.20000000000001C313.88999999999993 31.34000000000001 314.1499999999999 30.49000000000001 314.4199999999999 29.66000000000001L318.9099999999999 29.79000000000001C319.38999999999993 29.80000000000001 319.8499999999999 29.53000000000001 320.06999999999994 29.10000000000001C320.68999999999994 27.86000000000001 321.48999999999995 26.69000000000001 322.43999999999994 25.65000000000001C322.7799999999999 25.27000000000001 322.86999999999995 24.730000000000008 322.65999999999997 24.27000000000001L320.79999999999995 20.30000000000001C321.48999999999995 19.73000000000001 322.19999999999993 19.220000000000013 322.96 18.75000000000001L326.28 21.72000000000001C326.65 22.06000000000001 327.2 22.15000000000001 327.65999999999997 21.94000000000001C328.33 21.65000000000001 328.98999999999995 21.45000000000001 329.72999999999996 21.250000000000007C330.37999999999994 21.080000000000005 331.03999999999996 20.900000000000006 331.66999999999996 20.820000000000007C332.15999999999997 20.74000000000001 332.55999999999995 20.390000000000008 332.69999999999993 19.910000000000007L333.86999999999995 15.640000000000008C334.73999999999995 15.660000000000007 335.59 15.690000000000008 336.44999999999993 15.820000000000007L337.0999999999999 20.300000000000008C337.1699999999999 20.790000000000006 337.5299999999999 21.200000000000006 338.00999999999993 21.33000000000001C339.3399999999999 21.730000000000008 340.61999999999995 22.31000000000001 341.79999999999995 23.06000000000001C342.22999999999996 23.35000000000001 342.78999999999996 23.35000000000001 343.21999999999997 23.06000000000001L346.79999999999995 20.52000000000001C347.47999999999996 21.09000000000001 348.09999999999997 21.72000000000001 348.69999999999993 22.37000000000001L346.36999999999995 26.16000000000001C346.09999999999997 26.580000000000013 346.09999999999997 27.12000000000001 346.36999999999995 27.54000000000001C347.11999999999995 28.69000000000001 347.74999999999994 29.93000000000001 348.17999999999995 31.30000000000001C348.3299999999999 31.79000000000001 348.74999999999994 32.140000000000015 349.25999999999993 32.20000000000001L353.60999999999996 32.55000000000001C353.75999999999993 33.430000000000014 353.87999999999994 34.30000000000001 353.91999999999996 35.180000000000014L349.65 36.600000000000016C349.16999999999996 36.76000000000001 348.84 37.180000000000014 348.78 37.680000000000014C348.61999999999995 39.070000000000014 348.22999999999996 40.45000000000002 347.71 41.73000000000001C347.52 42.21000000000001 347.64 42.750000000000014 348.01 43.110000000000014L351.84999999999997 46.95000000000002C352.34999999999997 47.45000000000002 353.15999999999997 47.45000000000002 353.65999999999997 46.95000000000002C354.15999999999997 46.45000000000002 354.15999999999997 45.640000000000015 353.65999999999997 45.140000000000015L350.28999999999996 41.820000000000014C350.64 40.84000000000002 350.9 39.83000000000001 351.06999999999994 38.80000000000001L355.63999999999993 37.29000000000001C356.1599999999999 37.13000000000002 356.5199999999999 36.670000000000016 356.54999999999995 36.12000000000001C356.55999999999995 34.48000000000001 356.37999999999994 32.79000000000001 356.03 31.12000000000001C355.90999999999997 30.580000000000013 355.46 30.18000000000001 354.90999999999997 30.130000000000013L350.21 29.700000000000014C349.84 28.720000000000013 349.39 27.820000000000014 348.87 26.940000000000012L351.41 22.80000000000001C351.70000000000005 22.34000000000001 351.66 21.760000000000012 351.33000000000004 21.330000000000013C350.25000000000006 20.040000000000013 349.01000000000005 18.900000000000013 347.70000000000005 17.89000000000001C347.27000000000004 17.54000000000001 346.65000000000003 17.52000000000001 346.20000000000005 17.84000000000001L342.31000000000006 20.56000000000001C341.44000000000005 20.06000000000001 340.52000000000004 19.61000000000001 339.56000000000006 19.27000000000001L338.87000000000006 14.480000000000011C338.7900000000001 13.93000000000001 338.37000000000006 13.50000000000001 337.83000000000004 13.400000000000011C336.22 13.10000000000001 334.53000000000003 12.950000000000012 332.83000000000004 13.01000000000001C332.79 13.01000000000001 332.74000000000007 13.01000000000001 332.70000000000005 13.01000000000001 " fill="#1f9b7f" fill-opacity="1" transform="matrix(1,0,0,1,-310,-12)"></path><path id="SvgjsPath1008" d="M334.65 28.09C333.54999999999995 27.94 332.41999999999996 27.96 331.28 28.27C326.76 29.48 324.08 34.18 325.28999999999996 38.7C326.49999999999994 43.22 331.15999999999997 45.95 335.67999999999995 44.74C336.36999999999995 44.59 336.80999999999995 43.92 336.66999999999996 43.230000000000004C336.52 42.540000000000006 335.84 42.1 335.15999999999997 42.25000000000001C335.11999999999995 42.260000000000005 335.08 42.27000000000001 335.03 42.28000000000001C331.84 43.13000000000001 328.59999999999997 41.24000000000001 327.75 38.05000000000001C326.89 34.860000000000014 328.78 31.580000000000013 331.97 30.720000000000013C335.17 29.87000000000001 338.41 31.760000000000012 339.26000000000005 34.95000000000002C339.68000000000006 36.490000000000016 339.45000000000005 38.04000000000002 338.74000000000007 39.350000000000016C338.4000000000001 39.97000000000001 338.62000000000006 40.750000000000014 339.24000000000007 41.09000000000002C339.86000000000007 41.44000000000002 340.64000000000004 41.22000000000002 340.99000000000007 40.600000000000016C341.99000000000007 38.750000000000014 342.30000000000007 36.490000000000016 341.7200000000001 34.30000000000002C340.81000000000006 30.910000000000018 337.93000000000006 28.55000000000002 334.6500000000001 28.090000000000018 " fill="#1f9b7f" fill-opacity="1" transform="matrix(1,0,0,1,-310,-12)"></path></svg>