<?xml version="1.0" encoding="utf-8"?>
<!-- Generator: Avocode 0.4.0 - http://avocode.com -->
<svg height="60" width="70" xmlns:xlink="http://www.w3.org/1999/xlink" xmlns="http://www.w3.org/2000/svg" viewBox="0 0 70 60">
    <path fill="#ffffff" fill-rule="evenodd" d="M 33.32 22.54 C 33.2 22.54 33.09 22.49 33.01 22.4 C 32.94 22.34 32.87 22.22 32.87 22.02 L 32.9 21.33 L 27.82 21.33 C 26 21.33 24.52 19.87 24.52 18.07 C 24.52 16.27 26 14.8 27.82 14.8 L 35.54 14.8 C 37.35 14.8 38.83 16.27 38.83 18.07 C 38.83 19.87 37.35 21.33 35.54 21.33 L 34.47 21.33 L 33.73 22.32 C 33.59 22.5 33.43 22.54 33.32 22.54" />
    <path fill="#21a790" fill-rule="evenodd" d="M 35.54 14.39 L 27.82 14.39 C 25.77 14.39 24.11 16.04 24.11 18.07 C 24.11 20.09 25.77 21.74 27.82 21.74 L 32.47 21.74 L 32.46 22 C 32.45 22.34 32.59 22.56 32.71 22.69 C 32.87 22.85 33.09 22.95 33.32 22.95 C 33.49 22.95 33.8 22.9 34.06 22.57 L 34.68 21.74 L 35.54 21.74 C 37.58 21.74 39.24 20.09 39.24 18.07 C 39.24 16.04 37.58 14.39 35.54 14.39 M 35.54 15.21 C 37.13 15.21 38.42 16.49 38.42 18.07 C 38.42 19.65 37.13 20.93 35.54 20.93 L 34.27 20.93 L 33.4 22.07 C 33.37 22.11 33.34 22.13 33.32 22.13 C 33.3 22.13 33.28 22.1 33.29 22.04 L 33.33 20.93 L 27.82 20.93 C 26.23 20.93 24.94 19.65 24.94 18.07 C 24.94 16.49 26.23 15.21 27.82 15.21 L 35.54 15.21" />
    <path fill="#ffffff" fill-rule="evenodd" d="M 46.65 17.17 C 46.53 17.17 46.36 17.13 46.2 16.92 L 44.84 15.12 L 42.87 15.12 C 39.94 15.12 37.55 12.75 37.55 9.84 C 37.55 6.93 39.94 4.56 42.87 4.56 L 52.22 4.56 C 55.16 4.56 57.54 6.93 57.54 9.84 C 57.54 12.75 55.16 15.12 52.22 15.12 L 47.06 15.12 L 47.12 16.59 C 47.13 16.77 47.08 16.92 46.98 17.03 C 46.89 17.12 46.77 17.17 46.65 17.17" />
    <path fill="#21a790" fill-rule="evenodd" d="M 52.22 4.15 L 42.87 4.15 C 39.71 4.15 37.14 6.7 37.14 9.84 C 37.14 12.98 39.71 15.53 42.87 15.53 L 44.63 15.53 L 45.87 17.16 C 46.14 17.53 46.47 17.58 46.65 17.58 C 46.89 17.58 47.11 17.49 47.28 17.31 C 47.4 17.18 47.55 16.95 47.54 16.57 L 47.49 15.53 L 52.22 15.53 C 55.38 15.53 57.96 12.98 57.96 9.84 C 57.96 6.7 55.38 4.15 52.22 4.15 M 52.22 4.97 C 54.93 4.97 57.13 7.15 57.13 9.84 C 57.13 12.53 54.93 14.71 52.22 14.71 L 46.63 14.71 L 46.71 16.6 C 46.72 16.71 46.69 16.76 46.65 16.76 C 46.61 16.76 46.57 16.73 46.53 16.67 L 45.04 14.71 L 42.87 14.71 C 40.16 14.71 37.96 12.53 37.96 9.84 C 37.96 7.15 40.16 4.97 42.87 4.97 L 52.22 4.97" />
    <path fill="#ffffff" fill-rule="evenodd" d="M 27.7 9.76 C 27.59 9.76 27.43 9.72 27.29 9.53 L 26.34 8.27 L 24.97 8.27 C 22.79 8.27 21.01 6.51 21.01 4.34 C 21.01 2.17 22.79 0.41 24.97 0.41 L 31.73 0.41 C 33.92 0.41 35.7 2.17 35.7 4.34 C 35.7 6.51 33.92 8.27 31.73 8.27 L 28.12 8.27 L 28.16 9.22 C 28.17 9.39 28.12 9.52 28.02 9.62 C 27.94 9.71 27.83 9.76 27.7 9.76" />
    <path fill="#21a790" fill-rule="evenodd" d="M 31.73 0 L 24.97 0 C 22.56 0 20.6 1.95 20.6 4.34 C 20.6 6.74 22.56 8.68 24.97 8.68 L 26.13 8.68 L 26.95 9.77 C 27.21 10.12 27.53 10.17 27.7 10.17 C 27.94 10.17 28.16 10.07 28.32 9.91 C 28.45 9.78 28.59 9.55 28.57 9.2 L 28.55 8.68 L 31.73 8.68 C 34.15 8.68 36.11 6.74 36.11 4.34 C 36.11 1.95 34.15 0 31.73 0 M 31.73 0.82 C 33.7 0.82 35.29 2.4 35.29 4.34 C 35.29 6.29 33.7 7.87 31.73 7.87 L 27.69 7.87 L 27.75 9.24 C 27.75 9.31 27.73 9.35 27.7 9.35 C 27.68 9.35 27.65 9.33 27.61 9.28 L 26.54 7.87 L 24.97 7.87 C 23.01 7.87 21.42 6.29 21.42 4.34 C 21.42 2.4 23.01 0.82 24.97 0.82 L 31.73 0.82" />
    <path fill="#ffffff" fill-rule="evenodd" d="M 60.59 33.09 C 60.39 33.09 60.14 32.96 60.1 32.59 L 59.87 30.86 C 59.45 30.9 59.03 30.91 58.61 30.91 C 52.6 30.91 47.72 27.77 47.72 23.9 C 47.72 20.03 52.6 16.89 58.61 16.89 C 64.61 16.89 69.5 20.03 69.5 23.9 C 69.5 26.83 66.66 29.45 62.43 30.47 L 61.06 32.79 C 60.91 33.05 60.7 33.09 60.59 33.09 L 60.59 33.09 Z M 60.59 33.09" />
    <path fill="#21a790" fill-rule="evenodd" d="M 58.61 16.48 C 55.65 16.48 52.86 17.21 50.75 18.54 C 48.53 19.94 47.3 21.85 47.3 23.9 C 47.3 25.95 48.53 27.86 50.75 29.26 C 52.86 30.59 55.65 31.32 58.61 31.32 C 58.91 31.32 59.21 31.31 59.51 31.3 L 59.69 32.64 C 59.76 33.23 60.21 33.5 60.59 33.5 C 60.75 33.5 61.15 33.45 61.42 32.99 L 62.7 30.83 C 64.69 30.32 66.41 29.47 67.68 28.35 C 69.14 27.06 69.91 25.53 69.91 23.9 C 69.91 21.85 68.68 19.94 66.46 18.54 C 64.35 17.21 61.56 16.48 58.61 16.48 M 58.61 17.3 C 64.39 17.3 69.08 20.25 69.08 23.9 C 69.08 26.76 66.2 29.19 62.16 30.11 L 60.71 32.58 C 60.67 32.65 60.63 32.68 60.59 32.68 C 60.55 32.68 60.52 32.64 60.5 32.54 L 60.23 30.42 C 59.7 30.47 59.16 30.5 58.61 30.5 C 52.82 30.5 48.13 27.55 48.13 23.9 C 48.13 20.25 52.82 17.3 58.61 17.3" />
    <path fill="#ffffff" fill-rule="evenodd" d="M 8.53 25.4 C 8.42 25.4 8.22 25.36 8.07 25.1 L 6.84 23.02 C 2.99 22.09 0.41 19.7 0.41 17.03 C 0.41 13.5 4.86 10.63 10.33 10.63 C 15.79 10.63 20.24 13.5 20.24 17.03 C 20.24 20.55 15.79 23.42 10.33 23.42 C 9.96 23.42 9.58 23.41 9.21 23.38 L 9.02 24.91 C 8.97 25.25 8.74 25.4 8.53 25.4" />
    <path fill="#21a790" fill-rule="evenodd" d="M 10.33 10.22 C 7.63 10.22 5.09 10.89 3.17 12.1 C 1.12 13.39 0 15.14 0 17.03 C 0 18.52 0.71 19.94 2.04 21.11 C 3.2 22.14 4.76 22.91 6.57 23.37 L 7.71 25.31 C 7.97 25.76 8.37 25.81 8.53 25.81 C 8.91 25.81 9.35 25.55 9.42 24.97 L 9.57 23.81 C 9.82 23.82 10.08 23.83 10.33 23.83 C 13.02 23.83 15.56 23.16 17.49 21.95 C 19.53 20.66 20.65 18.91 20.65 17.03 C 20.65 15.14 19.53 13.39 17.49 12.1 C 15.56 10.89 13.02 10.22 10.33 10.22 M 10.33 11.04 C 15.58 11.04 19.83 13.72 19.83 17.03 C 19.83 20.33 15.58 23.01 10.33 23.01 C 9.83 23.01 9.33 22.99 8.85 22.94 L 8.61 24.86 C 8.59 24.95 8.57 24.99 8.53 24.99 C 8.5 24.99 8.46 24.96 8.42 24.9 L 7.1 22.66 C 3.44 21.83 0.83 19.62 0.83 17.03 C 0.83 13.72 5.08 11.04 10.33 11.04" />
    <path fill="#21a790" fill-rule="evenodd" d="M 30.02 59.18 C 29.79 59.18 29.6 59 29.6 58.77 L 29.6 46.54 C 29.6 42.49 32.93 39.19 37.01 39.19 C 41.09 39.19 44.41 42.49 44.41 46.54 L 44.41 58.77 C 44.41 59 44.23 59.18 44 59.18 L 30.02 59.18 Z M 30.02 59.18" />
    <path fill="none" fill-rule="evenodd" d="M 29.19 59.59 L 44.82 59.59 L 44.82 38.78 L 29.19 38.78 L 29.19 59.59 L 29.19 59.59 Z M 29.19 59.59" />
    <path fill="#ffffff" fill-rule="evenodd" d="M 37.01 38.78 C 32.7 38.78 29.19 42.26 29.19 46.54 L 29.19 58.77 C 29.19 59.22 29.56 59.59 30.02 59.59 L 44 59.59 C 44.46 59.59 44.82 59.22 44.82 58.77 L 44.82 46.54 C 44.82 42.26 41.32 38.78 37.01 38.78 M 37.01 39.6 C 40.87 39.6 44 42.71 44 46.54 L 44 58.77 L 30.02 58.77 L 30.02 46.54 C 30.02 42.71 33.15 39.6 37.01 39.6" />
    <path fill="#ffffff" fill-rule="evenodd" d="M 43.53 32.64 C 43.53 36.44 40.6 39.52 36.99 39.52 C 33.37 39.52 30.44 36.44 30.44 32.64 C 30.44 28.84 33.37 25.76 36.99 25.76 C 40.6 25.76 43.53 28.84 43.53 32.64" />
    <path fill="#f4921e" fill-rule="evenodd" d="M 30.59 33.83 C 31.41 30.9 33.25 27.84 33.25 27.84 C 36.71 29.02 40.56 29.37 41.7 29.24 C 42.67 30.19 43.44 31.71 43.5 33.09 C 44.93 25.98 41.47 25.25 40.34 24.72 C 37.01 23.16 34.05 23.97 32.17 26.09 C 30.03 27.15 28.96 30.71 30.59 33.83" />
    <path fill="#f4921e" fill-rule="evenodd" d="M 39.69 34.49 C 38.86 34.49 38.18 33.82 38.18 32.99 C 38.18 32.17 38.86 31.5 39.69 31.5 C 40.52 31.5 41.19 32.17 41.19 32.99 C 41.19 33.82 40.52 34.49 39.69 34.49 M 34.28 34.49 C 33.46 34.49 32.78 33.82 32.78 32.99 C 32.78 32.17 33.46 31.5 34.28 31.5 C 35.11 31.5 35.79 32.17 35.79 32.99 C 35.79 33.82 35.11 34.49 34.28 34.49 M 39.69 31.05 C 38.82 31.05 38.08 31.62 37.82 32.4 C 37.61 32.27 37.32 32.18 36.99 32.18 C 36.65 32.18 36.36 32.27 36.15 32.4 C 35.89 31.62 35.16 31.05 34.28 31.05 C 33.2 31.05 32.32 31.92 32.32 32.99 C 32.32 34.07 33.2 34.94 34.28 34.94 C 35.37 34.94 36.24 34.07 36.24 32.99 C 36.24 32.96 36.24 32.93 36.24 32.9 C 36.33 32.79 36.59 32.63 36.99 32.63 C 37.38 32.63 37.64 32.79 37.73 32.9 C 37.73 32.93 37.73 32.96 37.73 32.99 C 37.73 34.07 38.61 34.94 39.69 34.94 C 40.77 34.94 41.65 34.07 41.65 32.99 C 41.65 31.92 40.77 31.05 39.69 31.05" />
    <path fill="#ffffff" fill-rule="evenodd" d="M 38.64 41.19 L 37.38 41.8 C 37.31 41.76 37.24 41.74 37.16 41.74 L 36.87 41.74 C 36.79 41.74 36.71 41.76 36.64 41.8 L 35.38 41.19 C 35.15 41.07 34.96 41.19 34.96 41.45 L 34.96 43.08 C 34.96 43.34 35.15 43.46 35.38 43.34 L 36.63 42.73 C 36.7 42.77 36.78 42.8 36.87 42.8 L 37.16 42.8 C 37.25 42.8 37.32 42.78 37.39 42.74 L 38.64 43.34 C 38.87 43.46 39.06 43.34 39.06 43.08 L 39.06 41.45 C 39.06 41.19 38.87 41.07 38.64 41.19" />
    <path fill="#f4921e" fill-rule="evenodd" d="M 22.36 34.11 C 21.91 33.07 20.61 32.03 19.78 30.29 C 18.31 27.27 16.28 26.21 13.34 26.21 C 10.41 26.21 8.37 27.27 6.91 30.29 C 6.07 32.03 4.77 33.07 4.32 34.11 C 3.69 35.56 4.46 37.5 5.58 37.5 C 5.37 39.1 7.33 40.42 8.17 40.14 C 8.24 41.73 10.97 42.36 12.22 41.18 L 14.46 41.18 C 15.72 42.36 18.45 41.73 18.52 40.14 C 19.36 40.42 21.31 39.1 21.1 37.5 C 22.22 37.5 22.99 35.56 22.36 34.11" />
    <path fill="#21a790" fill-rule="evenodd" d="M 6.41 59.18 C 6.18 59.18 5.99 59 5.99 58.77 L 5.99 48.82 C 5.99 44.77 9.31 41.48 13.4 41.48 C 17.48 41.48 20.8 44.77 20.8 48.82 L 20.8 58.77 C 20.8 59 20.62 59.18 20.39 59.18 L 6.41 59.18 Z M 6.41 59.18" />
    <path fill="#ffffff" fill-rule="evenodd" d="M 13.4 41.07 C 9.09 41.07 5.58 44.55 5.58 48.82 L 5.58 58.77 C 5.58 59.22 5.95 59.59 6.41 59.59 L 20.39 59.59 C 20.84 59.59 21.21 59.22 21.21 58.77 L 21.21 48.82 C 21.21 44.55 17.71 41.07 13.4 41.07 M 13.4 41.89 C 17.26 41.89 20.39 44.99 20.39 48.82 L 20.39 58.77 L 6.41 58.77 L 6.41 48.82 C 6.41 44.99 9.54 41.89 13.4 41.89" />
    <path fill="#ffffff" fill-rule="evenodd" d="M 15.59 30.02 C 15.3 31.56 12.29 32.85 10.93 32.11 C 10.35 33.14 8.21 33.54 7.19 33.19 C 7.04 33.77 6.95 34.39 6.95 35.03 C 6.95 38.77 9.83 41.8 13.39 41.8 C 16.95 41.8 19.83 38.77 19.83 35.03 C 19.83 34.35 19.73 33.7 19.56 33.08 C 17.97 33.04 17 31.96 15.59 30.02" />
    <path fill="#21a790" fill-rule="evenodd" d="M 44.71 59.18 C 44.48 59.18 44.3 59 44.3 58.77 L 44.3 54.11 C 44.3 50.06 47.62 46.77 51.7 46.77 C 55.78 46.77 59.1 50.06 59.1 54.11 L 59.1 58.77 C 59.1 59 58.92 59.18 58.69 59.18 L 44.71 59.18 Z M 44.71 59.18" />
    <path fill="#ffffff" fill-rule="evenodd" d="M 51.7 46.36 C 47.39 46.36 43.88 49.83 43.88 54.11 L 43.88 58.77 C 43.88 59.22 44.25 59.59 44.71 59.59 L 58.69 59.59 C 59.15 59.59 59.52 59.22 59.52 58.77 L 59.52 54.11 C 59.52 49.83 56.01 46.36 51.7 46.36 M 51.7 47.18 C 55.56 47.18 58.69 50.28 58.69 54.11 L 58.69 58.77 L 44.71 58.77 L 44.71 54.11 C 44.71 50.28 47.84 47.18 51.7 47.18" />
    <path fill="#ffffff" fill-rule="evenodd" d="M 57.98 40.2 C 57.98 43.97 55.08 47.02 51.5 47.02 C 47.91 47.02 45.01 43.97 45.01 40.2 C 45.01 36.43 47.91 33.37 51.5 33.37 C 55.08 33.37 57.98 36.43 57.98 40.2" />
    <path fill="#f4921e" fill-rule="evenodd" d="M 51.72 32.15 C 56.62 32.15 58.4 36.79 58.23 39.97 C 58.24 39.97 58.25 39.96 58.27 39.96 C 60.82 39.4 62.84 42.53 60.84 46.05 C 59.27 48.82 59.26 50.19 60.64 50.63 C 59.39 51.18 56.17 48.78 57.13 45.76 C 57.69 44 58.41 42.29 57.88 41.7 C 57.88 41.71 57.88 41.71 57.88 41.72 C 57.13 39.68 55.48 37.34 53.67 35.43 C 51.68 37.28 46.84 40.16 45.1 41.09 C 44.16 37.31 45.8 32.15 51.72 32.15" />
    <path fill="#ffffff" fill-rule="evenodd" d="M 52.33 49.08 C 52.33 49.39 52.08 49.64 51.77 49.64 C 51.45 49.64 51.2 49.39 51.2 49.08 C 51.2 48.77 51.45 48.52 51.77 48.52 C 52.08 48.52 52.33 48.77 52.33 49.08" />
    <path fill="#ffffff" fill-rule="evenodd" d="M 52.33 51.48 C 52.33 51.79 52.08 52.04 51.77 52.04 C 51.45 52.04 51.2 51.79 51.2 51.48 C 51.2 51.17 51.45 50.91 51.77 50.91 C 52.08 50.91 52.33 51.17 52.33 51.48" />
    <path fill="#ffffff" fill-rule="evenodd" d="M 52.33 53.87 C 52.33 54.18 52.08 54.44 51.77 54.44 C 51.45 54.44 51.2 54.18 51.2 53.87 C 51.2 53.56 51.45 53.31 51.77 53.31 C 52.08 53.31 52.33 53.56 52.33 53.87" />
    <path fill="#ffffff" fill-rule="evenodd" d="M 52.33 56.27 C 52.33 56.58 52.08 56.83 51.77 56.83 C 51.45 56.83 51.2 56.58 51.2 56.27 C 51.2 55.96 51.45 55.71 51.77 55.71 C 52.08 55.71 52.33 55.96 52.33 56.27" />
    <path fill="#21a790" fill-rule="evenodd" d="M 19.86 59.18 C 19.64 59.18 19.45 59 19.45 58.77 L 19.45 56.78 C 19.45 53.22 22.37 50.33 25.96 50.33 C 29.55 50.33 32.47 53.22 32.47 56.78 L 32.47 58.77 C 32.47 59 32.28 59.18 32.06 59.18 L 19.86 59.18 Z M 19.86 59.18" />
    <path fill="none" fill-rule="evenodd" d="M 19.04 59.59 L 32.88 59.59 L 32.88 49.92 L 19.04 49.92 L 19.04 59.59 L 19.04 59.59 Z M 19.04 59.59" />
    <path fill="#ffffff" fill-rule="evenodd" d="M 25.96 49.92 C 22.14 49.92 19.04 53 19.04 56.78 L 19.04 58.77 C 19.04 59.22 19.41 59.59 19.86 59.59 L 32.06 59.59 C 32.51 59.59 32.88 59.22 32.88 58.77 L 32.88 56.78 C 32.88 53 29.78 49.92 25.96 49.92 M 25.96 50.73 C 29.33 50.73 32.06 53.44 32.06 56.78 L 32.06 58.77 L 19.86 58.77 L 19.86 56.78 C 19.86 53.44 22.59 50.73 25.96 50.73" />
    <path fill="#ffffff" fill-rule="evenodd" d="M 31.65 44.68 C 31.65 47.99 29.1 50.66 25.96 50.66 C 22.82 50.66 20.27 47.99 20.27 44.68 C 20.27 41.38 22.82 38.7 25.96 38.7 C 29.1 38.7 31.65 41.38 31.65 44.68" />
    <path fill="#f4921e" fill-rule="evenodd" d="M 25.96 38.05 C 21.97 38.05 17.28 41.29 19.02 47.49 C 19.31 48.5 19.77 49.84 19.27 50.49 C 20.76 50.49 21.76 47.67 21.76 43.33 L 30.16 43.33 C 30.16 47.67 31.16 50.49 32.65 50.49 C 32.15 49.84 32.62 48.5 32.9 47.49 C 34.64 41.29 29.95 38.05 25.96 38.05" />
    <path fill="#ffffff" fill-rule="evenodd" d="M 28.35 52.2 C 27.62 51.89 26.81 51.72 25.96 51.72 C 25.11 51.72 24.3 51.89 23.57 52.2 L 23.57 54.94 L 28.35 54.94 L 28.35 52.2 Z M 28.35 52.2" />
</svg>