<?xml version="1.0" encoding="utf-8"?>
<!-- Generator: Avocode 0.4.0 - http://avocode.com -->
<svg height="57" width="61" xmlns:xlink="http://www.w3.org/1999/xlink" xmlns="http://www.w3.org/2000/svg" viewBox="0 0 61 57">
    <path fill="#f4a423" fill-rule="evenodd" d="M 34.29 28.98 C 34.29 31.12 32.54 32.85 30.39 32.85 C 28.23 32.85 26.49 31.12 26.49 28.98 C 26.49 26.83 28.23 25.1 30.39 25.1 C 32.54 25.1 34.29 26.83 34.29 28.98 L 34.29 28.98 Z M 34.29 28.98" />
    <path fill="#f4a423" fill-rule="evenodd" d="M 30.39 28.98 L 30.39 44.18 L 19.94 44.18 C 19.94 44.18 28.98 41.65 28.13 30 L 30.39 28.98 Z M 30.39 28.98" />
    <path fill="#f4a423" fill-rule="evenodd" d="M 30.39 28.98 L 30.39 44.18 L 40.83 44.18 C 40.83 44.18 31.8 41.65 32.65 30 L 30.39 28.98 Z M 30.39 28.98" />
    <path fill="#f4a423" fill-rule="evenodd" d="M 30.39 0.02 L 11.83 0.02 C 11.83 0.02 11.19 9.96 15.1 18.08 C 17.84 23.76 23.44 28.5 30.39 28.5 L 30.39 0.02 Z M 30.39 0.02" />
    <path fill="#f4a423" fill-rule="evenodd" d="M 30.39 0.02 L 48.95 0.02 C 48.95 0.02 49.58 9.96 45.68 18.08 C 42.94 23.76 37.34 28.5 30.39 28.5 L 30.39 0.02 Z M 30.39 0.02" />
    <path fill="#ffffff" fill-rule="evenodd" d="M 21.38 4.81 C 21.38 7.97 18.8 10.54 15.62 10.54 C 18.8 10.54 21.38 13.1 21.38 16.27 C 21.38 13.1 23.96 10.54 27.14 10.54 C 23.96 10.54 21.38 7.97 21.38 4.81" />
    <path fill="#ffffff" fill-rule="evenodd" d="M 26.8 1.81 C 26.8 3.47 25.45 4.81 23.78 4.81 C 25.45 4.81 26.8 6.15 26.8 7.81 C 26.8 6.15 28.15 4.81 29.81 4.81 C 28.15 4.81 26.8 3.47 26.8 1.81" />
    <path fill="none" fill-rule="evenodd" d="M 0 56.98 L 60.95 56.98 L 60.95 0 L 0 0 L 0 56.98 Z M 0 56.98" />
    <path fill="#219a7f" fill-rule="evenodd" d="M 19.94 56.98 L 40.83 56.98 L 40.83 45.82 L 19.94 45.82 L 19.94 56.98 Z M 19.94 56.98" />
    <path fill="#f4a423" fill-rule="evenodd" d="M 19.94 45.82 L 40.83 45.82 L 40.83 44.18 L 19.94 44.18 L 19.94 45.82 Z M 19.94 45.82" />
    <path fill="#f4a423" fill-rule="evenodd" d="M 15.89 27.1 C 15.45 27 15.3 26.44 15.53 25.95 C 15.75 25.45 16.33 25.25 16.83 25.21 C 17.17 25.18 17.47 25.05 17.67 24.88 C 17.97 24.62 18.07 24.3 17.96 23.91 C 17.64 22.75 16.28 22.4 15.04 22.16 C 9.26 21.04 4.84 17.01 2.24 10.49 C 0.32 5.67 0.06 1.22 0.05 1.04 L 0 0 L 7.02 0 L 7.11 0.89 C 7.28 2.51 8.12 5.93 9.65 6.13 C 10.49 6.24 11.06 5.92 11.15 5.27 C 11.21 4.92 11.11 4.54 10.83 4.24 C 10.41 3.79 9.91 3.32 9.99 2.78 C 10.08 2.25 10.92 1.88 11.68 2.39 C 12.82 3.13 13.28 4.42 13.12 5.56 C 12.91 6.99 11.65 8.39 9.38 8.09 C 6.58 7.71 5.58 3.81 5.26 1.97 L 2.14 1.97 C 2.59 5.69 4.89 18.19 15.39 20.22 C 16.55 20.44 19.19 20.95 19.87 23.39 C 20.18 24.51 19.84 25.62 18.96 26.37 C 18.33 26.91 17.52 27.19 16.69 27.19 C 16.42 27.19 16.15 27.16 15.89 27.1" />
    <path fill="#f4a423" fill-rule="evenodd" d="M 42 26.37 C 41.11 25.62 40.77 24.51 41.08 23.39 C 41.76 20.95 44.41 20.44 45.54 20.22 C 56.06 18.2 58.36 5.69 58.82 1.97 L 55.69 1.97 C 55.37 3.81 54.38 7.71 51.57 8.09 C 49.31 8.39 48.05 6.99 47.84 5.56 C 47.67 4.42 48.14 3.13 49.27 2.39 C 50.03 1.88 50.87 2.25 50.96 2.78 C 51.05 3.32 50.55 3.79 50.12 4.24 C 49.84 4.54 49.75 4.92 49.8 5.27 C 49.9 5.92 50.46 6.24 51.31 6.13 C 52.83 5.93 53.67 2.51 53.84 0.88 L 53.93 0 L 60.95 0 L 60.9 1.04 C 60.89 1.22 60.63 5.67 58.71 10.49 C 56.11 17.01 51.7 21.04 45.94 22.15 C 44.67 22.4 43.32 22.75 42.99 23.91 C 42.89 24.3 42.98 24.62 43.29 24.88 C 43.49 25.05 43.78 25.18 44.12 25.21 C 44.63 25.25 45.2 25.45 45.43 25.95 C 45.65 26.44 45.51 27 45.07 27.1 C 44.8 27.16 44.53 27.19 44.26 27.19 C 43.43 27.19 42.63 26.91 42 26.37" />
    <path fill="#ffffff" fill-rule="evenodd" d="M 36.89 54.54 L 23.89 54.54 C 22.94 54.54 22.18 53.78 22.18 52.84 L 22.18 49.95 C 22.18 49.01 22.94 48.25 23.89 48.25 L 36.89 48.25 C 37.83 48.25 38.6 49.01 38.6 49.95 L 38.6 52.84 C 38.6 53.78 37.83 54.54 36.89 54.54" />
</svg>