<?xml version="1.0" encoding="utf-8"?>
<!-- Generator: Avocode 2.6.0 - http://avocode.com -->
<svg height="97" width="121" xmlns:xlink="http://www.w3.org/1999/xlink" xmlns="http://www.w3.org/2000/svg" viewBox="0 0 121 97">
    <path fill="#6ac5b2" fill-rule="evenodd" d="M 19.02 28.8 L 22.56 28.8 L 20.79 34.01 L 19.02 28.8 Z M 24.35 28.8 L 36.31 16.77 C 37.25 15.78 38.82 15.74 39.81 16.68 C 40.8 17.62 40.83 19.19 39.89 20.18 L 27.32 32.76 L 27.34 74.51 C 27.34 76.01 26.13 77.22 24.63 77.22 C 23.12 77.22 21.91 76.01 21.91 74.51 L 21.89 51.86 L 19.69 51.86 L 19.69 74.51 C 19.69 76.01 18.47 77.22 16.97 77.22 C 15.47 77.22 14.25 76.01 14.25 74.51 L 14.25 32.76 L 1.68 20.18 C 0.74 19.19 0.78 17.62 1.77 16.68 C 2.76 15.74 4.32 15.78 5.26 16.77 L 17.3 28.8 L 17.91 28.8 L 20.08 35.19 C 20.31 35.13 20.54 35.09 20.79 35.09 C 21.03 35.09 21.27 35.13 21.5 35.19 L 23.67 28.8 L 24.35 28.8 Z M 18.5 37.91 C 18.5 39.17 19.53 40.2 20.79 40.2 C 22.05 40.2 23.07 39.17 23.07 37.91 C 23.07 36.65 22.05 35.63 20.79 35.63 C 19.53 35.63 18.5 36.65 18.5 37.91 L 18.5 37.91 Z M 20.76 27.71 C 18.09 27.71 15.93 25.55 15.93 22.88 C 15.93 20.21 18.09 18.05 20.76 18.05 C 23.43 18.05 25.59 20.21 25.59 22.88 C 25.59 25.55 23.43 27.71 20.76 27.71 L 20.76 27.71 Z M 20.76 27.71" />
    <path fill="#fd9321" fill-rule="evenodd" d="M 58.78 14.06 L 62.67 14.05 L 60.73 19.78 L 58.78 14.06 Z M 64.64 14.05 L 77.77 0.84 C 78.81 -0.24 80.52 -0.29 81.61 0.75 C 82.7 1.78 82.74 3.5 81.7 4.59 L 67.9 18.41 L 67.92 64.24 C 67.92 65.89 66.59 67.22 64.94 67.22 C 63.29 67.22 61.96 65.89 61.96 64.24 L 61.93 39.38 L 59.52 39.38 L 59.52 64.24 C 59.52 65.89 58.18 67.22 56.53 67.22 C 54.89 67.22 53.55 65.89 53.55 64.24 L 53.55 18.41 L 39.75 4.59 C 38.71 3.5 38.76 1.78 39.84 0.75 C 40.93 -0.29 42.65 -0.24 43.68 0.84 L 56.89 14.06 L 57.56 14.06 L 59.95 21.07 C 60.2 21 60.46 20.96 60.73 20.96 C 61 20.96 61.26 21 61.51 21.07 L 63.89 14.05 L 64.64 14.05 Z M 58.22 24.06 C 58.22 25.44 59.34 26.57 60.73 26.57 C 62.11 26.57 63.24 25.44 63.24 24.06 C 63.24 22.67 62.11 21.55 60.73 21.55 C 59.34 21.55 58.22 22.67 58.22 24.06 L 58.22 24.06 Z M 60.7 12.86 C 57.77 12.86 55.39 10.48 55.39 7.55 C 55.39 4.62 57.77 2.25 60.7 2.25 C 63.63 2.25 66 4.62 66 7.55 C 66 10.48 63.63 12.86 60.7 12.86 L 60.7 12.86 Z M 60.7 12.86" />
    <path fill="#6ac5b2" fill-rule="evenodd" d="M 100.37 38.92 L 103.39 38.92 L 101.88 43.37 L 100.37 38.92 Z M 104.92 38.92 L 115.12 28.65 C 115.92 27.81 117.26 27.78 118.1 28.58 C 118.95 29.38 118.98 30.72 118.18 31.56 L 107.45 42.3 L 107.47 77.91 C 107.47 79.19 106.43 80.22 105.15 80.22 C 103.87 80.22 102.84 79.19 102.84 77.91 L 102.82 58.59 L 100.94 58.59 L 100.94 77.91 C 100.94 79.19 99.9 80.22 98.62 80.22 C 97.34 80.22 96.3 79.19 96.3 77.91 L 96.3 42.3 L 85.58 31.56 C 84.78 30.72 84.81 29.38 85.66 28.58 C 86.5 27.78 87.83 27.81 88.64 28.65 L 98.9 38.92 L 99.42 38.92 L 101.27 44.37 C 101.47 44.31 101.67 44.29 101.88 44.29 C 102.09 44.29 102.29 44.31 102.48 44.37 L 104.34 38.92 L 104.92 38.92 Z M 99.93 46.69 C 99.93 47.77 100.8 48.64 101.88 48.64 C 102.96 48.64 103.83 47.77 103.83 46.69 C 103.83 45.61 102.96 44.74 101.88 44.74 C 100.8 44.74 99.93 45.61 99.93 46.69 L 99.93 46.69 Z M 101.86 37.99 C 99.58 37.99 97.73 36.14 97.73 33.87 C 97.73 31.59 99.58 29.75 101.86 29.75 C 104.13 29.75 105.98 31.59 105.98 33.87 C 105.98 36.14 104.13 37.99 101.86 37.99 L 101.86 37.99 Z M 101.86 37.99" />
    <path fill="#6ac5b2" fill-rule="evenodd" d="M 35.99 66.4 L 35.99 75.99 L 0 75.99 L 0 97 L 35.99 97 L 48.67 97 L 71.98 97 L 84.66 97 L 120.65 97 L 120.65 80.15 L 84.66 80.15 L 84.66 66.4 L 35.99 66.4 Z M 35.99 66.4" />
</svg>