<?xml version="1.0" encoding="utf-8"?>
<!-- Generator: Avocode 2.6.0 - http://avocode.com -->
<svg height="97" width="88" xmlns:xlink="http://www.w3.org/1999/xlink" xmlns="http://www.w3.org/2000/svg" viewBox="0 0 88 97">
    <path fill="#6ac5b2" fill-rule="evenodd" d="M 58.46 48.99 C 58.35 49.02 58.24 48.97 58.22 48.88 C 58.19 48.79 58.26 48.69 58.37 48.66 C 58.48 48.63 58.58 48.68 58.61 48.77 C 58.63 48.86 58.57 48.96 58.46 48.99 M 56.54 44.48 C 56.49 44.29 56.63 44.1 56.84 44.04 C 57.06 43.98 57.28 44.08 57.33 44.26 C 57.38 44.44 57.25 44.64 57.03 44.7 C 56.81 44.76 56.59 44.66 56.54 44.48 M 58.03 50.34 C 57.92 50.37 57.81 50.32 57.79 50.23 C 57.76 50.14 57.83 50.04 57.94 50.01 C 58.04 49.98 58.15 50.03 58.18 50.12 C 58.2 50.22 58.14 50.31 58.03 50.34 M 56.89 47.97 C 56.85 47.83 56.96 47.67 57.12 47.63 C 57.29 47.58 57.46 47.66 57.5 47.8 C 57.54 47.94 57.44 48.1 57.27 48.14 C 57.1 48.19 56.93 48.11 56.89 47.97 M 56.39 47.55 C 56.22 47.6 56.05 47.52 56.01 47.38 C 55.97 47.23 56.07 47.08 56.24 47.03 C 56.41 46.99 56.58 47.06 56.62 47.21 C 56.66 47.35 56.56 47.5 56.39 47.55 M 54.87 44.11 C 54.81 43.88 54.97 43.64 55.24 43.56 C 55.5 43.49 55.77 43.61 55.83 43.84 C 55.9 44.06 55.73 44.31 55.46 44.38 C 55.2 44.45 54.93 44.33 54.87 44.11 M 53.76 42.7 C 53.7 42.47 53.86 42.23 54.13 42.16 C 54.4 42.08 54.66 42.21 54.72 42.43 C 54.79 42.66 54.62 42.9 54.36 42.97 C 54.09 43.05 53.82 42.92 53.76 42.7 M 56.58 45.7 C 56.63 45.89 56.49 46.09 56.28 46.15 C 56.06 46.21 55.84 46.11 55.79 45.92 C 55.74 45.74 55.87 45.54 56.09 45.48 C 56.31 45.42 56.53 45.52 56.58 45.7 M 67.67 48.71 C 67.78 48.68 67.88 48.73 67.9 48.82 C 67.93 48.9 67.86 49 67.76 49.03 C 67.66 49.05 67.56 49.01 67.53 48.92 C 67.51 48.83 67.57 48.74 67.67 48.71 M 68.67 49.87 C 68.77 49.84 68.88 49.89 68.9 49.98 C 68.93 50.06 68.86 50.16 68.76 50.18 C 68.66 50.21 68.56 50.16 68.53 50.08 C 68.51 49.99 68.57 49.9 68.67 49.87 M 68.02 46.81 C 68.2 46.76 68.39 46.84 68.43 47 C 68.48 47.15 68.36 47.32 68.18 47.37 C 67.99 47.42 67.81 47.34 67.77 47.18 C 67.72 47.03 67.84 46.86 68.02 46.81 M 69.06 45.23 C 69.32 45.15 69.59 45.28 69.65 45.5 C 69.71 45.73 69.55 45.97 69.28 46.04 C 69.02 46.12 68.75 45.99 68.69 45.77 C 68.63 45.54 68.79 45.3 69.06 45.23 M 86.7 88.97 C 85.38 88.36 81.73 88.87 81.73 88.87 C 80.2 88.94 78.14 89.27 76.29 87.67 C 74.45 86.07 70.77 76.93 69.28 67.29 C 68.47 62.1 69.71 61.25 70.4 58.69 C 71.69 53.87 71.75 47.73 70.88 42.05 C 69.11 30.6 64.68 20.81 64.4 20.17 C 64.11 19.53 59.24 21.04 55.52 22.08 L 54.9 22.25 C 51.17 23.28 46.22 24.5 46.31 25.19 C 46.39 25.89 47.65 36.56 52.05 47.28 C 54.23 52.6 57.45 57.82 61.04 61.29 C 62.95 63.13 64.45 63.21 66.44 68.08 C 70.13 77.11 71.69 86.84 70.94 89.16 C 70.19 91.48 68.25 92.26 66.9 92.99 C 66.9 92.99 63.51 94.44 62.69 95.64 C 61.82 96.91 65.27 98.11 75.63 95.19 C 86 92.27 88.1 89.61 86.7 88.97" />
    <path fill="#6ac5b2" fill-rule="evenodd" d="M 24.06 45.62 C 23.96 45.58 23.9 45.48 23.93 45.39 C 23.96 45.3 24.08 45.26 24.18 45.3 C 24.29 45.34 24.34 45.44 24.31 45.53 C 24.28 45.62 24.17 45.66 24.06 45.62 M 25.12 40.84 C 25.19 40.66 25.41 40.58 25.63 40.65 C 25.84 40.73 25.96 40.94 25.89 41.12 C 25.83 41.3 25.6 41.38 25.39 41.3 C 25.18 41.23 25.06 41.02 25.12 40.84 M 22.92 46.48 C 22.82 46.44 22.76 46.33 22.79 46.25 C 22.83 46.16 22.94 46.12 23.04 46.15 C 23.15 46.19 23.21 46.3 23.17 46.38 C 23.14 46.47 23.03 46.51 22.92 46.48 M 23.38 43.88 C 23.43 43.74 23.6 43.68 23.77 43.74 C 23.93 43.8 24.02 43.96 23.97 44.1 C 23.92 44.24 23.75 44.31 23.58 44.24 C 23.42 44.18 23.33 44.02 23.38 43.88 M 23.21 43.25 C 23.04 43.19 22.95 43.03 23 42.89 C 23.05 42.75 23.23 42.69 23.39 42.74 C 23.56 42.8 23.65 42.97 23.6 43.11 C 23.55 43.25 23.37 43.31 23.21 43.25 M 23.98 39.56 C 24.06 39.35 24.33 39.24 24.59 39.34 C 24.85 39.43 25 39.69 24.92 39.9 C 24.84 40.13 24.56 40.23 24.3 40.13 C 24.04 40.04 23.9 39.78 23.98 39.56 M 23.89 37.77 C 23.97 37.56 24.25 37.45 24.51 37.55 C 24.77 37.64 24.91 37.9 24.83 38.12 C 24.75 38.34 24.48 38.44 24.22 38.34 C 23.96 38.25 23.81 38 23.89 37.77 M 24.44 41.86 C 24.37 42.04 24.15 42.12 23.93 42.04 C 23.72 41.97 23.6 41.76 23.67 41.58 C 23.73 41.4 23.96 41.32 24.17 41.39 C 24.38 41.47 24.5 41.68 24.44 41.86 M 31.72 50.75 C 31.82 50.79 31.88 50.88 31.85 50.97 C 31.82 51.05 31.71 51.09 31.61 51.06 C 31.51 51.02 31.46 50.92 31.49 50.84 C 31.52 50.75 31.62 50.71 31.72 50.75 M 31.86 52.27 C 31.96 52.31 32.02 52.41 31.99 52.49 C 31.96 52.58 31.85 52.62 31.75 52.58 C 31.65 52.54 31.6 52.44 31.63 52.36 C 31.66 52.28 31.76 52.24 31.86 52.27 M 33.11 49.4 C 33.29 49.47 33.39 49.64 33.34 49.79 C 33.28 49.94 33.09 50.02 32.91 49.95 C 32.73 49.89 32.63 49.71 32.69 49.56 C 32.74 49.41 32.93 49.34 33.11 49.4 M 34.87 48.72 C 35.13 48.81 35.28 49.07 35.2 49.28 C 35.12 49.51 34.84 49.61 34.59 49.51 C 34.33 49.42 34.18 49.16 34.26 48.94 C 34.34 48.72 34.61 48.62 34.87 48.72 M 23.83 94.57 C 23.11 93.31 19.84 91.61 19.84 91.61 C 18.55 90.77 16.68 89.85 16.11 87.47 C 15.54 85.1 17.86 75.52 22.24 66.81 C 24.6 62.11 26.1 62.14 28.14 60.45 C 32 57.28 35.61 52.32 38.2 47.19 C 43.41 36.84 45.5 26.3 45.64 25.61 C 45.78 24.93 40.93 23.33 37.3 22.01 L 36.69 21.79 C 33.06 20.47 28.32 18.58 27.99 19.19 C 27.66 19.81 22.48 29.23 19.83 40.51 C 18.52 46.1 18.11 52.23 19.02 57.14 C 19.5 59.74 20.67 60.68 19.47 65.8 C 17.23 75.29 12.85 84.12 10.89 85.57 C 8.93 87.03 6.9 86.53 5.37 86.35 C 5.37 86.35 1.77 85.55 0.41 86.06 C -1.04 86.59 1.07 89.57 11.21 93.21 C 21.34 96.85 24.6 95.91 23.83 94.57" />
    <path fill="#f6941d" fill-rule="evenodd" d="M 54.33 3.7 C 54.33 4.79 53.45 5.67 52.36 5.67 C 51.28 5.67 50.4 4.79 50.4 3.7 C 50.4 2.62 51.28 1.74 52.36 1.74 C 53.45 1.74 54.33 2.62 54.33 3.7" />
    <path fill="#f6941d" fill-rule="evenodd" d="M 52.36 10.51 C 52.36 11.59 51.48 12.47 50.4 12.47 C 49.31 12.47 48.43 11.59 48.43 10.51 C 48.43 9.42 49.31 8.54 50.4 8.54 C 51.48 8.54 52.36 9.42 52.36 10.51" />
    <path fill="#f6941d" fill-rule="evenodd" d="M 55.09 15.19 C 55.09 15.99 54.44 16.63 53.65 16.63 C 52.86 16.63 52.21 15.99 52.21 15.19 C 52.21 14.4 52.86 13.76 53.65 13.76 C 54.44 13.76 55.09 14.4 55.09 15.19" />
    <path fill="#f6941d" fill-rule="evenodd" d="M 55.99 7.79 C 55.99 8.58 55.35 9.22 54.56 9.22 C 53.76 9.22 53.12 8.58 53.12 7.79 C 53.12 6.99 53.76 6.35 54.56 6.35 C 55.35 6.35 55.99 6.99 55.99 7.79" />
    <path fill="#f6941d" fill-rule="evenodd" d="M 46.32 5.59 C 46.32 6.39 45.67 7.03 44.88 7.03 C 44.09 7.03 43.45 6.39 43.45 5.59 C 43.45 4.8 44.09 4.16 44.88 4.16 C 45.67 4.16 46.32 4.8 46.32 5.59" />
    <path fill="#f6941d" fill-rule="evenodd" d="M 46.77 12.17 C 46.77 12.96 46.13 13.61 45.33 13.61 C 44.54 13.61 43.9 12.96 43.9 12.17 C 43.9 11.38 44.54 10.74 45.33 10.74 C 46.13 10.74 46.77 11.38 46.77 12.17" />
    <path fill="#f6941d" fill-rule="evenodd" d="M 41.78 19.81 C 41.78 20.47 41.24 21.02 40.57 21.02 C 39.9 21.02 39.36 20.47 39.36 19.81 C 39.36 19.14 39.9 18.6 40.57 18.6 C 41.24 18.6 41.78 19.14 41.78 19.81" />
    <path fill="#f6941d" fill-rule="evenodd" d="M 43.37 2.19 C 43.37 2.57 43.06 2.87 42.69 2.87 C 42.31 2.87 42.01 2.57 42.01 2.19 C 42.01 1.82 42.31 1.51 42.69 1.51 C 43.06 1.51 43.37 1.82 43.37 2.19" />
    <path fill="#f6941d" fill-rule="evenodd" d="M 54.25 0.98 C 54.25 1.36 53.95 1.66 53.57 1.66 C 53.2 1.66 52.89 1.36 52.89 0.98 C 52.89 0.61 53.2 0.3 53.57 0.3 C 53.95 0.3 54.25 0.61 54.25 0.98" />
    <path fill="#f6941d" fill-rule="evenodd" d="M 57.73 11.42 C 57.73 11.79 57.43 12.1 57.05 12.1 C 56.68 12.1 56.37 11.79 56.37 11.42 C 56.37 11.04 56.68 10.74 57.05 10.74 C 57.43 10.74 57.73 11.04 57.73 11.42" />
    <path fill="#f6941d" fill-rule="evenodd" d="M 51.16 15.27 C 51.16 15.65 50.85 15.95 50.48 15.95 C 50.1 15.95 49.8 15.65 49.8 15.27 C 49.8 14.89 50.1 14.59 50.48 14.59 C 50.85 14.59 51.16 14.89 51.16 15.27" />
    <path fill="#f6941d" fill-rule="evenodd" d="M 50.7 10.13 C 50.7 10.51 50.4 10.81 50.02 10.81 C 49.65 10.81 49.34 10.51 49.34 10.13 C 49.34 9.75 49.65 9.45 50.02 9.45 C 50.4 9.45 50.7 9.75 50.7 10.13" />
    <path fill="#f6941d" fill-rule="evenodd" d="M 51.23 6.65 C 51.23 7.03 50.93 7.33 50.55 7.33 C 50.17 7.33 49.87 7.03 49.87 6.65 C 49.87 6.28 50.17 5.97 50.55 5.97 C 50.93 5.97 51.23 6.28 51.23 6.65" />
    <path fill="#f6941d" fill-rule="evenodd" d="M 46.85 8.92 C 46.85 9.3 46.54 9.6 46.17 9.6 C 45.79 9.6 45.49 9.3 45.49 8.92 C 45.49 8.55 45.79 8.24 46.17 8.24 C 46.54 8.24 46.85 8.55 46.85 8.92" />
    <path fill="#f6941d" fill-rule="evenodd" d="M 47.07 19.66 C 47.07 20.03 46.77 20.34 46.39 20.34 C 46.02 20.34 45.71 20.03 45.71 19.66 C 45.71 19.28 46.02 18.98 46.39 18.98 C 46.77 18.98 47.07 19.28 47.07 19.66" />
    <path fill="#f6941d" fill-rule="evenodd" d="M 57.7 14.29 C 57.7 14.52 57.51 14.71 57.28 14.71 C 57.04 14.71 56.85 14.52 56.85 14.29 C 56.85 14.05 57.04 13.86 57.28 13.86 C 57.51 13.86 57.7 14.05 57.7 14.29" />
    <path fill="#f6941d" fill-rule="evenodd" d="M 35.51 18.75 C 35.51 18.98 35.32 19.17 35.08 19.17 C 34.85 19.17 34.66 18.98 34.66 18.75 C 34.66 18.51 34.85 18.32 35.08 18.32 C 35.32 18.32 35.51 18.51 35.51 18.75" />
    <path fill="#f6941d" fill-rule="evenodd" d="M 41.86 10.28 C 41.86 11.53 40.84 12.55 39.59 12.55 C 38.34 12.55 37.32 11.53 37.32 10.28 C 37.32 9.03 38.34 8.01 39.59 8.01 C 40.84 8.01 41.86 9.03 41.86 10.28" />
    <path fill="#f6941d" fill-rule="evenodd" d="M 38.88 15.42 C 38.88 15.66 38.69 15.85 38.46 15.85 C 38.22 15.85 38.03 15.66 38.03 15.42 C 38.03 15.19 38.22 15 38.46 15 C 38.69 15 38.88 15.19 38.88 15.42" />
    <path fill="#f6941d" fill-rule="evenodd" d="M 47.57 14.49 C 47.57 14.72 47.38 14.91 47.15 14.91 C 46.91 14.91 46.72 14.72 46.72 14.49 C 46.72 14.25 46.91 14.06 47.15 14.06 C 47.38 14.06 47.57 14.25 47.57 14.49" />
    <path fill="#f6941d" fill-rule="evenodd" d="M 45.33 16.25 C 45.33 16.63 45.03 16.93 44.65 16.93 C 44.28 16.93 43.97 16.63 43.97 16.25 C 43.97 15.88 44.28 15.57 44.65 15.57 C 45.03 15.57 45.33 15.88 45.33 16.25" />
    <path fill="#f6941d" fill-rule="evenodd" d="M 43.37 13.91 C 43.37 14.58 42.83 15.12 42.16 15.12 C 41.49 15.12 40.95 14.58 40.95 13.91 C 40.95 13.24 41.49 12.7 42.16 12.7 C 42.83 12.7 43.37 13.24 43.37 13.91" />
</svg>