<?xml version="1.0" encoding="utf-8"?>
<!-- Generator: Avocode 2.6.0 - http://avocode.com -->
<svg height="102" width="73" xmlns:xlink="http://www.w3.org/1999/xlink" xmlns="http://www.w3.org/2000/svg" viewBox="0 0 73 102">
    <path fill="#6ac5b2" fill-rule="evenodd" d="M 38.89 81.31 L 32.57 75.93 C 34.33 75.42 35.62 73.8 35.62 71.87 L 35.62 56 C 35.62 52.95 32.85 50.39 29.85 51.63 L 25.54 53.45 L 25.54 40.82 L 38.89 34.9 L 38.89 81.31 Z M 42.08 91.57 L 36.35 94.83 L 32.59 80.97 L 48.86 94.83 L 42.08 91.57 Z M 17.89 86.17 L 20.04 64.92 L 27.19 61.91 L 27.19 71.87 C 27.19 73.91 28.62 75.6 30.53 76 L 17.74 86.89 C 17.81 86.66 17.86 86.42 17.89 86.17 L 17.89 86.17 Z M 18.5 31.72 C 22.22 31.72 25.24 28.71 25.24 24.99 C 25.24 21.27 22.22 18.25 18.5 18.25 C 14.78 18.25 11.76 21.27 11.76 24.99 C 11.76 28.71 14.78 31.72 18.5 31.72 L 18.5 31.72 Z M 12.75 51.01 L 8.97 45.27 L 12.75 42.89 L 12.75 51.01 Z M 38.89 28 L 22.94 35.07 L 14.99 35.07 C 13.24 35.07 12.56 35.57 12.1 35.85 L 2.86 41.67 C 1.4 42.62 0.97 44.6 1.93 46.05 L 10.06 58.38 C 10.57 59.16 11.37 59.63 12.22 59.76 C 11.3 68.52 9.5 85.3 9.5 85.3 C 9.26 87.61 10.94 89.68 13.26 89.93 C 13.4 89.94 13.55 89.95 13.7 89.95 C 13.87 89.95 14.04 89.92 14.21 89.9 L 0 102 L 63.18 102 L 41.74 83.74 C 41.74 83.73 41.74 83.72 41.74 83.72 L 41.74 33.63 L 42.11 33.47 C 43.7 32.76 44.42 30.9 43.71 29.31 C 43.32 28.44 42.59 27.84 41.74 27.58 L 41.74 24.47 C 38.36 24.99 38.89 28 38.89 28 L 38.89 28 Z M 38.89 28" />
    <path fill="#f6941d" fill-rule="evenodd" d="M 41.94 27.37 L 41.94 24.26 C 57.57 20.24 60.91 27.97 72.39 25.84 L 66.35 14.9 L 72.09 3.98 C 60.98 6.33 55.14 -0.65 41.9 1.61 C 41.75 0.98 41.19 0.51 40.52 0.51 C 39.73 0.51 39.09 1.15 39.09 1.94 L 39.09 27.78" />
</svg>