<?xml version="1.0" encoding="utf-8"?>
<!-- Generator: Avocode 2.6.0 - http://avocode.com -->
<svg height="56" width="42" xmlns:xlink="http://www.w3.org/1999/xlink" xmlns="http://www.w3.org/2000/svg" viewBox="0 0 42 56">
    <path fill="#e74f44" fill-rule="evenodd" d="M 30.21 0 L 30.21 6 L 26.68 6 L 34.36 13.59 L 42.05 6 L 38.21 6 L 38.21 0 L 30.21 0 Z M 30.13 7.42 L 30.21 7.42 L 31.63 7.42 L 31.63 6 L 31.63 1.42 L 36.79 1.42 L 36.79 6 L 36.79 7.42 L 38.21 7.42 L 38.6 7.42 L 34.36 11.6 L 30.13 7.42 Z M 30.13 7.42" />
    <path fill="#e74f44" fill-rule="evenodd" d="M 15.55 14.19 C 15.46 14.21 15.03 14.66 14.89 16.2 C 14.77 17.45 15.15 19.02 15.96 20.74 C 16.99 17.56 16.46 15.4 15.95 14.59 C 15.74 14.26 15.58 14.19 15.55 14.19 M 16.24 24.27 C 15.46 26.19 14.66 28.03 13.87 29.7 C 15.61 29.08 17.53 28.61 19.57 28.39 C 18.94 27.74 18.33 27.04 17.75 26.31 C 17.2 25.63 16.69 24.94 16.24 24.27 M 23.39 29.83 C 24.58 30.76 25.71 31.45 26.65 31.77 C 27.64 32.12 28.13 32 28.24 31.94 C 28.23 31.87 28.17 31.68 27.92 31.43 C 27.22 30.71 25.72 30.03 23.39 29.83 M 10.48 32.95 C 7.92 34.47 6.28 36.2 6.04 37.3 C 5.98 37.6 6.07 37.65 6.15 37.7 C 6.2 37.73 6.32 37.8 6.59 37.7 C 7.58 37.34 8.95 35.62 10.48 32.95 M 6.34 39.26 C 5.94 39.26 5.63 39.14 5.4 39.01 C 4.68 38.6 4.37 37.86 4.57 36.98 C 4.97 35.12 7.71 32.46 11.76 30.57 C 12.9 28.31 14.1 25.62 15.25 22.66 C 13.87 20.2 13.21 17.91 13.38 16.05 C 13.6 13.74 14.41 12.99 15.05 12.76 C 15.65 12.55 16.3 12.73 16.82 13.26 C 18.07 14.53 18.7 17.78 17.15 21.9 C 17.08 22.11 17 22.32 16.92 22.52 C 17.49 23.45 18.16 24.41 18.93 25.37 C 19.76 26.41 20.67 27.39 21.59 28.26 C 26.02 28.19 28.74 29.56 29.53 31.09 C 29.86 31.75 29.82 32.43 29.4 32.92 C 28.8 33.6 27.62 33.71 26.16 33.2 C 24.66 32.68 22.83 31.45 21.01 29.8 C 20.71 29.81 20.39 29.83 20.07 29.86 C 17.39 30.1 14.94 30.81 12.87 31.73 C 12.63 32.18 12.39 32.62 12.16 33.05 C 10.19 36.62 8.53 38.61 7.1 39.12 C 6.82 39.22 6.57 39.26 6.34 39.26" />
    <path fill="#45464a" fill-rule="evenodd" d="M 12.74 43.69 C 12.74 43.31 12.65 43.03 12.46 42.87 C 12.27 42.7 12.02 42.62 11.69 42.62 L 10.72 42.62 L 10.72 44.83 L 11.71 44.83 C 11.98 44.83 12.22 44.75 12.43 44.58 C 12.64 44.4 12.74 44.11 12.74 43.69 M 14.56 43.72 C 14.56 44.14 14.5 44.53 14.37 44.88 C 14.24 45.23 14.06 45.53 13.82 45.78 C 13.58 46.03 13.29 46.22 12.95 46.36 C 12.61 46.49 12.22 46.56 11.8 46.56 L 10.72 46.56 L 10.72 49.81 L 8.86 49.81 L 8.86 40.9 L 11.69 40.9 C 12.11 40.9 12.5 40.96 12.85 41.07 C 13.21 41.18 13.51 41.35 13.76 41.58 C 14.01 41.81 14.21 42.1 14.35 42.46 C 14.49 42.81 14.56 43.23 14.56 43.72" />
    <path fill="#45464a" fill-rule="evenodd" d="M 19.31 44.6 C 19.31 44.34 19.3 44.1 19.28 43.86 C 19.25 43.62 19.2 43.41 19.12 43.22 C 19.03 43.04 18.91 42.9 18.76 42.79 C 18.6 42.68 18.39 42.63 18.12 42.63 L 17.35 42.63 L 17.35 48.1 L 18.14 48.1 C 18.6 48.1 18.92 47.98 19.08 47.74 C 19.23 47.5 19.31 47.17 19.31 46.75 L 19.31 44.6 Z M 18.46 40.9 C 19.05 40.9 19.56 41.01 19.99 41.23 C 20.41 41.46 20.72 41.82 20.91 42.33 C 21.03 42.63 21.1 43 21.13 43.44 C 21.15 43.88 21.16 44.37 21.16 44.91 C 21.16 45.68 21.15 46.34 21.14 46.89 C 21.14 47.43 21.06 47.89 20.91 48.28 C 20.8 48.57 20.66 48.82 20.49 49.02 C 20.31 49.22 20.11 49.37 19.88 49.49 C 19.65 49.6 19.4 49.68 19.13 49.74 C 18.86 49.79 18.58 49.81 18.29 49.81 L 15.51 49.81 L 15.51 40.9 L 18.46 40.9 Z M 18.46 40.9" />
    <path fill="#45464a" fill-rule="evenodd" d="M 24.44 42.62 L 24.44 44.5 L 27.3 44.5 L 27.3 46.19 L 24.44 46.19 L 24.44 49.81 L 22.58 49.81 L 22.58 40.9 L 27.76 40.9 L 27.76 42.62 L 24.44 42.62 Z M 24.44 42.62" />
    <path fill="#45464a" fill-rule="evenodd" d="M 22.86 9.13 L 3.21 9.13 C 2.22 9.13 1.42 9.93 1.42 10.92 L 1.42 51.87 C 1.42 52.86 2.22 53.66 3.21 53.66 L 33.36 53.66 C 34.35 53.66 35.15 52.86 35.15 51.87 L 35.15 21.13 C 34.95 19.57 24.61 9.46 22.86 9.13 M 33.36 55.08 L 3.21 55.08 C 1.44 55.08 0 53.64 0 51.87 L 0 10.92 C 0 9.15 1.44 7.71 3.21 7.71 L 22.9 7.71 C 24.69 7.71 36.57 18.65 36.57 21.13 L 36.57 51.87 C 36.57 53.64 35.13 55.08 33.36 55.08" />
    <path fill="#45464a" fill-rule="evenodd" d="M 35.86 21.45 L 26.33 21.45 C 23.81 21.45 22.19 20.14 22.19 18.12 L 22.19 8.42 L 23.6 8.42 L 23.6 18.12 C 23.6 19.84 25.51 20.03 26.33 20.03 L 35.86 20.03 L 35.86 21.45 Z M 35.86 21.45" />
</svg>
