<?xml version="1.0" encoding="utf-8"?>
<!-- Generator: Avocode 0.4.0 - http://avocode.com -->
<svg height="149" width="174" xmlns:xlink="http://www.w3.org/1999/xlink" xmlns="http://www.w3.org/2000/svg" viewBox="0 0 174 149">
    <path fill="#ffffff" fill-rule="evenodd" d="M 82.84 56.35 C 82.54 56.35 82.25 56.23 82.05 56.01 C 81.88 55.84 81.7 55.54 81.72 55.05 L 81.79 53.34 L 69.15 53.34 C 64.63 53.34 60.96 49.67 60.96 45.17 C 60.96 40.67 64.63 37 69.15 37 L 88.34 37 C 92.85 37 96.52 40.67 96.52 45.17 C 96.52 49.67 92.85 53.34 88.34 53.34 L 85.69 53.34 L 83.83 55.8 C 83.49 56.25 83.1 56.35 82.84 56.35" />
    <path fill="#21a790" fill-rule="evenodd" d="M 88.34 35.98 L 69.15 35.98 C 64.07 35.98 59.94 40.1 59.94 45.17 C 59.94 50.24 64.07 54.36 69.15 54.36 L 80.72 54.36 L 80.69 55.01 C 80.66 55.86 81.01 56.41 81.31 56.72 C 81.7 57.13 82.26 57.37 82.84 57.37 C 83.25 57.37 84.03 57.24 84.65 56.42 L 86.2 54.36 L 88.34 54.36 C 93.42 54.36 97.55 50.24 97.55 45.17 C 97.55 40.1 93.42 35.98 88.34 35.98 M 88.34 38.03 C 92.29 38.03 95.5 41.23 95.5 45.17 C 95.5 49.12 92.29 52.31 88.34 52.31 L 85.18 52.31 L 83.01 55.19 C 82.94 55.28 82.88 55.32 82.84 55.32 C 82.77 55.32 82.74 55.24 82.74 55.09 L 82.86 52.31 L 69.15 52.31 C 65.19 52.31 61.99 49.12 61.99 45.17 C 61.99 41.23 65.19 38.03 69.15 38.03 L 88.34 38.03" />
    <path fill="#ffffff" fill-rule="evenodd" d="M 115.95 42.93 C 115.66 42.93 115.23 42.82 114.83 42.29 L 111.45 37.8 L 106.57 37.8 C 99.27 37.8 93.34 31.88 93.34 24.6 C 93.34 17.32 99.27 11.4 106.57 11.4 L 129.8 11.4 C 137.1 11.4 143.04 17.32 143.04 24.6 C 143.04 31.88 137.1 37.8 129.8 37.8 L 116.99 37.8 L 117.14 41.47 C 117.16 41.94 117.03 42.31 116.78 42.58 C 116.56 42.8 116.26 42.93 115.95 42.93" />
    <path fill="#21a790" fill-rule="evenodd" d="M 129.8 10.37 L 106.57 10.37 C 98.71 10.37 92.31 16.75 92.31 24.6 C 92.31 32.44 98.71 38.82 106.57 38.82 L 110.94 38.82 L 114.01 42.9 C 114.69 43.82 115.52 43.95 115.95 43.95 C 116.55 43.95 117.1 43.72 117.52 43.29 C 117.83 42.96 118.2 42.37 118.16 41.43 L 118.05 38.82 L 129.8 38.82 C 137.67 38.82 144.06 32.44 144.06 24.6 C 144.06 16.75 137.67 10.37 129.8 10.37 M 129.8 12.42 C 136.55 12.42 142.01 17.87 142.01 24.6 C 142.01 31.32 136.55 36.78 129.8 36.78 L 115.92 36.78 L 116.11 41.51 C 116.12 41.77 116.06 41.9 115.95 41.9 C 115.87 41.9 115.77 41.83 115.65 41.68 L 111.96 36.78 L 106.57 36.78 C 99.83 36.78 94.36 31.32 94.36 24.6 C 94.36 17.87 99.83 12.42 106.57 12.42 L 129.8 12.42" />
    <path fill="#ffffff" fill-rule="evenodd" d="M 68.86 24.4 C 68.58 24.4 68.18 24.3 67.82 23.82 L 65.46 20.69 L 62.08 20.69 C 56.64 20.69 52.22 16.28 52.22 10.86 C 52.22 5.43 56.64 1.02 62.08 1.02 L 78.88 1.02 C 84.32 1.02 88.74 5.43 88.74 10.86 C 88.74 16.28 84.32 20.69 78.88 20.69 L 69.9 20.69 L 70 23.05 C 70.02 23.47 69.9 23.8 69.66 24.06 C 69.45 24.28 69.17 24.4 68.86 24.4" />
    <path fill="#21a790" fill-rule="evenodd" d="M 78.88 0 L 62.08 0 C 56.08 0 51.19 4.87 51.19 10.85 C 51.19 16.84 56.08 21.71 62.08 21.71 L 64.95 21.71 L 67 24.44 C 67.65 25.29 68.44 25.42 68.86 25.42 C 69.44 25.42 70 25.18 70.4 24.76 C 70.71 24.45 71.06 23.89 71.03 23 L 70.97 21.71 L 78.88 21.71 C 84.88 21.71 89.76 16.84 89.76 10.85 C 89.76 4.87 84.88 0 78.88 0 M 78.88 2.05 C 83.76 2.05 87.71 5.99 87.71 10.85 C 87.71 15.72 83.76 19.66 78.88 19.66 L 68.84 19.66 L 68.98 23.09 C 68.98 23.28 68.94 23.37 68.86 23.37 C 68.8 23.37 68.73 23.32 68.64 23.21 L 65.98 19.66 L 62.08 19.66 C 57.2 19.66 53.25 15.72 53.25 10.85 C 53.25 5.99 57.2 2.05 62.08 2.05 L 78.88 2.05" />
    <path fill="#ffffff" fill-rule="evenodd" d="M 150.61 82.73 C 150.12 82.73 149.5 82.41 149.38 81.48 L 148.83 77.16 C 147.78 77.24 146.73 77.28 145.68 77.28 C 130.75 77.28 118.61 69.41 118.61 59.75 C 118.61 50.09 130.75 42.22 145.68 42.22 C 160.6 42.22 172.75 50.09 172.75 59.75 C 172.75 67.07 165.71 73.64 155.18 76.17 L 151.79 81.97 C 151.4 82.63 150.88 82.73 150.61 82.73 L 150.61 82.73 Z M 150.61 82.73" />
    <path fill="#21a790" fill-rule="evenodd" d="M 145.68 41.2 C 138.34 41.2 131.41 43.03 126.16 46.35 C 120.63 49.86 117.58 54.62 117.58 59.75 C 117.58 64.88 120.63 69.64 126.16 73.15 C 131.41 76.47 138.34 78.3 145.68 78.3 C 146.43 78.3 147.18 78.28 147.93 78.24 L 148.36 81.61 C 148.55 83.09 149.66 83.76 150.61 83.76 C 151.01 83.76 152 83.63 152.67 82.48 L 155.85 77.06 C 160.8 75.81 165.07 73.68 168.25 70.87 C 171.86 67.66 173.77 63.81 173.77 59.75 C 173.77 54.62 170.73 49.86 165.19 46.35 C 159.95 43.03 153.02 41.2 145.68 41.2 M 145.68 43.25 C 160.06 43.25 171.72 50.64 171.72 59.75 C 171.72 66.9 164.55 72.99 154.52 75.28 L 150.9 81.45 C 150.8 81.63 150.7 81.71 150.61 81.71 C 150.51 81.71 150.43 81.59 150.4 81.35 L 149.72 76.06 C 148.4 76.19 147.05 76.25 145.68 76.25 C 131.29 76.25 119.63 68.87 119.63 59.75 C 119.63 50.64 131.29 43.25 145.68 43.25" />
    <path fill="#ffffff" fill-rule="evenodd" d="M 21.2 63.5 C 20.93 63.5 20.43 63.41 20.05 62.76 L 16.99 57.54 C 7.42 55.22 1.03 49.24 1.03 42.56 C 1.03 33.75 12.08 26.57 25.67 26.57 C 39.26 26.57 50.32 33.75 50.32 42.56 C 50.32 51.38 39.26 58.55 25.67 58.55 C 24.75 58.55 23.82 58.52 22.9 58.45 L 22.41 62.28 C 22.3 63.13 21.72 63.5 21.2 63.5" />
    <path fill="#21a790" fill-rule="evenodd" d="M 25.67 25.55 C 18.98 25.55 12.66 27.22 7.87 30.25 C 2.79 33.47 0 37.84 0 42.56 C 0 46.3 1.76 49.84 5.08 52.79 C 7.96 55.34 11.83 57.28 16.32 58.43 L 19.16 63.28 C 19.82 64.4 20.8 64.53 21.2 64.53 C 22.14 64.53 23.24 63.86 23.43 62.41 L 23.8 59.53 C 24.42 59.56 25.05 59.58 25.67 59.58 C 32.36 59.58 38.69 57.91 43.47 54.87 C 48.55 51.66 51.34 47.29 51.34 42.56 C 51.34 37.84 48.55 33.47 43.47 30.25 C 38.69 27.22 32.36 25.55 25.67 25.55 M 25.67 27.6 C 38.72 27.6 49.29 34.3 49.29 42.56 C 49.29 50.83 38.72 57.53 25.67 57.53 C 24.42 57.53 23.2 57.47 22.01 57.35 L 21.39 62.15 C 21.36 62.37 21.29 62.48 21.2 62.48 C 21.12 62.48 21.03 62.4 20.94 62.25 L 17.66 56.65 C 8.56 54.57 2.05 49.05 2.05 42.56 C 2.05 34.3 12.63 27.6 25.67 27.6" />
    <path fill="#21a790" fill-rule="evenodd" d="M 74.61 147.95 C 74.05 147.95 73.59 147.49 73.59 146.93 L 73.59 116.34 C 73.59 106.22 81.84 97.98 91.99 97.98 C 102.14 97.98 110.4 106.22 110.4 116.34 L 110.4 146.93 C 110.4 147.49 109.94 147.95 109.37 147.95 L 74.61 147.95 Z M 74.61 147.95" />
    <path fill="none" fill-rule="evenodd" d="M 72.56 148.97 L 111.42 148.97 L 111.42 96.96 L 72.56 96.96 L 72.56 148.97 L 72.56 148.97 Z M 72.56 148.97" />
    <path fill="#ffffff" fill-rule="evenodd" d="M 91.99 96.96 C 81.28 96.96 72.56 105.65 72.56 116.34 L 72.56 146.93 C 72.56 148.06 73.48 148.97 74.61 148.97 L 109.37 148.97 C 110.5 148.97 111.42 148.06 111.42 146.93 L 111.42 116.34 C 111.42 105.65 102.71 96.96 91.99 96.96 M 91.99 99 C 101.59 99 109.37 106.76 109.37 116.34 L 109.37 146.93 L 74.61 146.93 L 74.61 116.34 C 74.61 106.76 82.39 99 91.99 99" />
    <path fill="#ffffff" fill-rule="evenodd" d="M 108.2 81.6 C 108.2 91.1 100.92 98.8 91.94 98.8 C 82.95 98.8 75.67 91.1 75.67 81.6 C 75.67 72.1 82.95 64.4 91.94 64.4 C 100.92 64.4 108.2 72.1 108.2 81.6" />
    <path fill="#f4921e" fill-rule="evenodd" d="M 76.04 84.57 C 78.08 77.24 82.64 69.6 82.64 69.6 C 91.25 72.54 100.83 73.42 103.64 73.11 C 106.06 75.48 107.98 79.28 108.14 82.71 C 111.69 64.96 103.07 63.11 100.28 61.8 C 91.99 57.9 84.65 59.93 79.95 65.23 C 74.64 67.88 71.98 76.78 76.04 84.57" />
    <path fill="#f4921e" fill-rule="evenodd" d="M 98.65 86.22 C 96.59 86.22 94.91 84.54 94.91 82.49 C 94.91 80.43 96.59 78.76 98.65 78.76 C 100.71 78.76 102.39 80.43 102.39 82.49 C 102.39 84.54 100.71 86.22 98.65 86.22 M 85.22 86.22 C 83.16 86.22 81.48 84.54 81.48 82.49 C 81.48 80.43 83.16 78.76 85.22 78.76 C 87.28 78.76 88.96 80.43 88.96 82.49 C 88.96 84.54 87.28 86.22 85.22 86.22 M 98.65 77.63 C 96.49 77.63 94.65 79.04 94.01 80.99 C 93.49 80.67 92.77 80.45 91.94 80.45 C 91.1 80.45 90.39 80.67 89.86 80.99 C 89.22 79.04 87.39 77.63 85.22 77.63 C 82.53 77.63 80.35 79.81 80.35 82.49 C 80.35 85.17 82.53 87.35 85.22 87.35 C 87.91 87.35 90.09 85.17 90.09 82.49 C 90.09 82.41 90.09 82.33 90.09 82.25 C 90.31 81.98 90.95 81.58 91.94 81.58 C 92.92 81.58 93.56 81.98 93.78 82.25 C 93.78 82.33 93.78 82.41 93.78 82.49 C 93.78 85.17 95.96 87.35 98.65 87.35 C 101.34 87.35 103.52 85.17 103.52 82.49 C 103.52 79.81 101.34 77.63 98.65 77.63" />
    <path fill="#ffffff" fill-rule="evenodd" d="M 96.04 102.97 L 92.92 104.49 C 92.75 104.4 92.57 104.36 92.38 104.36 L 91.64 104.36 C 91.44 104.36 91.25 104.41 91.08 104.5 L 87.95 102.97 C 87.37 102.68 86.89 102.98 86.89 103.62 L 86.89 107.7 C 86.89 108.34 87.37 108.64 87.95 108.35 L 91.06 106.84 C 91.23 106.94 91.43 106.99 91.64 106.99 L 92.38 106.99 C 92.58 106.99 92.78 106.94 92.95 106.85 L 96.04 108.35 C 96.62 108.64 97.09 108.34 97.09 107.7 L 97.09 103.62 C 97.09 102.98 96.62 102.68 96.04 102.97" />
    <path fill="#f4921e" fill-rule="evenodd" d="M 55.59 85.27 C 54.47 82.67 51.24 80.06 49.16 75.73 C 45.52 68.18 40.47 65.51 33.17 65.51 C 25.87 65.51 20.81 68.18 17.18 75.73 C 15.09 80.06 11.86 82.67 10.75 85.27 C 9.18 88.91 11.1 93.76 13.88 93.76 C 13.35 97.75 18.22 101.04 20.31 100.35 C 20.48 104.33 27.26 105.89 30.39 102.95 L 35.95 102.95 C 39.08 105.89 45.85 104.33 46.03 100.35 C 48.11 101.04 52.98 97.75 52.46 93.76 C 55.24 93.76 57.15 88.91 55.59 85.27" />
    <path fill="#21a790" fill-rule="evenodd" d="M 15.92 147.95 C 15.36 147.95 14.9 147.49 14.9 146.93 L 14.9 122.06 C 14.9 111.94 23.15 103.7 33.3 103.7 C 43.45 103.7 51.71 111.94 51.71 122.06 L 51.71 146.93 C 51.71 147.49 51.25 147.95 50.68 147.95 L 15.92 147.95 Z M 15.92 147.95" />
    <path fill="#ffffff" fill-rule="evenodd" d="M 33.3 102.68 C 22.59 102.68 13.87 111.37 13.87 122.06 L 13.87 146.93 C 13.87 148.06 14.79 148.97 15.92 148.97 L 50.68 148.97 C 51.81 148.97 52.73 148.06 52.73 146.93 L 52.73 122.06 C 52.73 111.37 44.02 102.68 33.3 102.68 M 33.3 104.72 C 42.9 104.72 50.68 112.49 50.68 122.06 L 50.68 146.93 L 15.92 146.93 L 15.92 122.06 C 15.92 112.49 23.7 104.72 33.3 104.72" />
    <path fill="#ffffff" fill-rule="evenodd" d="M 38.76 75.06 C 38.04 78.91 30.56 82.13 27.16 80.26 C 25.73 82.84 20.42 83.84 17.88 82.97 C 17.49 84.44 17.28 85.98 17.28 87.58 C 17.28 96.93 24.45 104.51 33.28 104.51 C 42.12 104.51 49.29 96.93 49.29 87.58 C 49.29 85.88 49.05 84.24 48.61 82.69 C 44.68 82.6 42.25 79.91 38.76 75.06" />
    <path fill="#21a790" fill-rule="evenodd" d="M 111.14 147.95 C 110.57 147.95 110.11 147.49 110.11 146.93 L 110.11 135.27 C 110.11 125.15 118.37 116.91 128.51 116.91 C 138.66 116.91 146.92 125.15 146.92 135.27 L 146.92 146.93 C 146.92 147.49 146.46 147.95 145.89 147.95 L 111.14 147.95 Z M 111.14 147.95" />
    <path fill="#ffffff" fill-rule="evenodd" d="M 128.51 115.89 C 117.8 115.89 109.08 124.59 109.08 135.27 L 109.08 146.93 C 109.08 148.06 110 148.97 111.14 148.97 L 145.89 148.97 C 147.03 148.97 147.94 148.06 147.94 146.93 L 147.94 135.27 C 147.94 124.59 139.23 115.89 128.51 115.89 M 128.51 117.94 C 138.11 117.94 145.89 125.7 145.89 135.27 L 145.89 146.93 L 111.14 146.93 L 111.14 135.27 C 111.14 125.7 118.92 117.94 128.51 117.94" />
    <path fill="#ffffff" fill-rule="evenodd" d="M 144.13 100.49 C 144.13 109.91 136.91 117.55 128 117.55 C 119.1 117.55 111.88 109.91 111.88 100.49 C 111.88 91.07 119.1 83.44 128 83.44 C 136.91 83.44 144.13 91.07 144.13 100.49" />
    <path fill="#f4921e" fill-rule="evenodd" d="M 128.57 80.37 C 140.75 80.37 145.15 91.98 144.73 99.93 C 144.77 99.92 144.8 99.91 144.83 99.9 C 151.19 98.51 156.2 106.32 151.24 115.12 C 147.32 122.06 147.32 125.48 150.73 126.56 C 147.63 127.96 139.62 121.96 142 114.4 C 143.39 109.99 145.19 105.73 143.88 104.26 C 143.87 104.27 143.87 104.28 143.86 104.29 C 142 99.19 137.91 93.36 133.42 88.56 C 128.46 93.2 116.44 100.39 112.1 102.71 C 109.77 93.28 113.84 80.37 128.57 80.37" />
    <path fill="#ffffff" fill-rule="evenodd" d="M 130.09 122.7 C 130.09 123.47 129.46 124.1 128.68 124.1 C 127.9 124.1 127.27 123.47 127.27 122.7 C 127.27 121.92 127.9 121.29 128.68 121.29 C 129.46 121.29 130.09 121.92 130.09 122.7" />
    <path fill="#ffffff" fill-rule="evenodd" d="M 130.09 128.69 C 130.09 129.47 129.46 130.1 128.68 130.1 C 127.9 130.1 127.27 129.47 127.27 128.69 C 127.27 127.91 127.9 127.28 128.68 127.28 C 129.46 127.28 130.09 127.91 130.09 128.69" />
    <path fill="#ffffff" fill-rule="evenodd" d="M 130.09 134.68 C 130.09 135.46 129.46 136.09 128.68 136.09 C 127.9 136.09 127.27 135.46 127.27 134.68 C 127.27 133.91 127.9 133.28 128.68 133.28 C 129.46 133.28 130.09 133.91 130.09 134.68" />
    <path fill="#ffffff" fill-rule="evenodd" d="M 130.09 140.68 C 130.09 141.46 129.46 142.09 128.68 142.09 C 127.9 142.09 127.27 141.46 127.27 140.68 C 127.27 139.9 127.9 139.27 128.68 139.27 C 129.46 139.27 130.09 139.9 130.09 140.68" />
    <path fill="#21a790" fill-rule="evenodd" d="M 49.38 147.95 C 48.81 147.95 48.35 147.49 48.35 146.93 L 48.35 141.95 C 48.35 133.05 55.61 125.81 64.53 125.81 C 73.45 125.81 80.71 133.05 80.71 141.95 L 80.71 146.93 C 80.71 147.49 80.25 147.95 79.68 147.95 L 49.38 147.95 Z M 49.38 147.95" />
    <path fill="none" fill-rule="evenodd" d="M 47.33 148.97 L 81.73 148.97 L 81.73 124.79 L 47.33 124.79 L 47.33 148.97 L 47.33 148.97 Z M 47.33 148.97" />
    <path fill="#ffffff" fill-rule="evenodd" d="M 64.53 124.79 C 55.04 124.79 47.33 132.49 47.33 141.95 L 47.33 146.93 C 47.33 148.06 48.25 148.97 49.38 148.97 L 79.68 148.97 C 80.81 148.97 81.73 148.06 81.73 146.93 L 81.73 141.95 C 81.73 132.49 74.02 124.79 64.53 124.79 M 64.53 126.84 C 72.9 126.84 79.68 133.6 79.68 141.95 L 79.68 146.93 L 49.38 146.93 L 49.38 141.95 C 49.38 133.6 56.16 126.84 64.53 126.84" />
    <path fill="#ffffff" fill-rule="evenodd" d="M 78.67 111.7 C 78.67 119.96 72.34 126.66 64.53 126.66 C 56.72 126.66 50.39 119.96 50.39 111.7 C 50.39 103.44 56.72 96.74 64.53 96.74 C 72.34 96.74 78.67 103.44 78.67 111.7" />
    <path fill="#f4921e" fill-rule="evenodd" d="M 64.53 95.12 C 54.62 95.12 42.94 103.22 47.28 118.73 C 47.99 121.26 49.14 124.61 47.9 126.23 C 51.61 126.23 54.09 119.18 54.09 108.33 L 74.97 108.33 C 74.97 119.18 77.45 126.23 81.16 126.23 C 79.92 124.61 81.07 121.26 81.78 118.73 C 86.12 103.22 74.44 95.12 64.53 95.12" />
    <path fill="#ffffff" fill-rule="evenodd" d="M 70.48 130.5 C 68.65 129.72 66.64 129.29 64.53 129.29 C 62.42 129.29 60.41 129.72 58.58 130.5 L 58.58 137.36 L 70.48 137.36 L 70.48 130.5 Z M 70.48 130.5" />
</svg>