<?xml version="1.0" encoding="utf-8"?>
<!-- Generator: Avocode 0.4.0 - http://avocode.com -->
<svg height="103" width="109" xmlns:xlink="http://www.w3.org/1999/xlink" xmlns="http://www.w3.org/2000/svg" viewBox="0 0 109 103">
    <path fill="#f3a323" fill-rule="evenodd" d="M 46.93 79.23 C 43.31 77.16 40.29 74.15 38.18 70.54 L 15.22 93.65 C 14.88 93.98 14.87 94.53 15.21 94.87 L 22.62 102.49 C 22.95 102.83 23.5 102.83 23.83 102.5 L 46.83 79.36 C 46.87 79.32 46.9 79.28 46.93 79.23" />
    <path fill="#f3a323" fill-rule="evenodd" d="M 58.6 41.21 C 68.06 41.21 75.75 48.97 75.75 58.5 C 75.75 68.03 68.06 75.78 58.6 75.78 C 49.14 75.78 41.45 68.03 41.45 58.5 C 41.45 48.97 49.14 41.21 58.6 41.21 M 58.6 81.03 C 70.93 81.03 80.97 70.92 80.97 58.5 C 80.97 46.07 70.93 35.96 58.6 35.96 C 46.27 35.96 36.23 46.07 36.23 58.5 C 36.23 70.92 46.27 81.03 58.6 81.03" />
    <path fill="none" fill-rule="evenodd" d="M 109 0.41 L 0 0.41 L 0 88.09 L 109 88.09 L 109 0.41 L 109 0.41 Z M 109 0.41" />
    <path fill="#24997f" fill-rule="evenodd" d="M 104.88 72.48 L 104.44 71.8 C 104.35 71.65 104.26 71.51 104.16 71.37 L 97.61 61.27 C 98.43 59.75 98.9 58.02 98.9 56.17 C 98.9 54.28 98.4 52.5 97.53 50.96 L 97.53 50.96 L 97.53 50.96 C 97.31 50.57 97.07 50.19 96.81 49.84 L 94.03 45.56 L 98.44 45.56 C 104.26 45.56 109 40.78 109 34.92 C 109 33.4 108.68 31.95 108.11 30.65 L 108.29 30.79 L 107.83 30.07 C 107.48 29.39 107.07 28.74 106.59 28.15 L 88.59 0.41 L 29.96 0.41 L 10.13 24.28 L 10.1 24.28 L 10.1 27.64 L 14.89 27.64 L 14.89 42.2 L 10.1 42.2 L 10.1 42.25 L 0.07 45.53 L 0 45.53 L 0 48.89 L 4.8 48.89 L 4.8 63.45 L 0 63.45 L 0 66.81 L 7.17 66.81 L 7.17 70.17 L 11.96 70.17 L 11.96 84.73 L 7.17 84.73 L 7.17 88.09 L 15.56 88.09 L 18.9 84.73 L 15.3 84.73 L 15.3 70.17 L 33.37 70.17 L 34.69 68.84 C 33.96 67.13 33.41 65.32 33.05 63.45 L 8.13 63.45 L 8.13 48.89 L 34.41 48.89 C 35.36 46.46 36.66 44.21 38.25 42.2 L 18.23 42.2 L 18.23 27.64 L 98.44 27.64 C 102.42 27.64 105.67 30.9 105.67 34.92 C 105.67 38.93 102.42 42.2 98.44 42.2 L 78.95 42.2 C 80.54 44.21 81.84 46.46 82.79 48.89 L 88.34 48.89 C 92.33 48.89 95.57 52.16 95.57 56.17 C 95.57 60.19 92.33 63.45 88.34 63.45 L 84.14 63.45 C 83.69 65.82 82.91 68.07 81.87 70.17 L 95.51 70.17 C 99.5 70.17 102.74 73.44 102.74 77.45 C 102.74 81.47 99.5 84.73 95.51 84.73 L 46.66 84.73 L 43.33 88.09 L 95.51 88.09 C 101.33 88.09 106.07 83.32 106.07 77.45 C 106.07 75.64 105.62 73.93 104.82 72.43 L 104.88 72.48 Z M 104.88 72.48" />
</svg>