<?xml version="1.0" encoding="utf-8"?>
<!-- Generator: Avocode 0.4.0 - http://avocode.com -->
<svg height="88" width="113" xmlns:xlink="http://www.w3.org/1999/xlink" xmlns="http://www.w3.org/2000/svg" viewBox="0 0 113 88">
    <path fill="none" fill-rule="evenodd" d="M 105.46 87.76 L 0 87.76 L 0 39.44 L 105.46 39.44 L 105.46 87.76 L 105.46 87.76 Z M 105.46 87.76" />
    <path fill="#f4a423" fill-rule="evenodd" d="M 105.46 73.32 L 105.46 65.67 L 105.46 50.27 C 105.13 50.21 104.89 50.17 104.65 49.87 C 98.87 42.69 90.88 39.37 85.21 39.44 C 79.54 39.51 73.47 42.3 67.56 46.06 C 61.66 49.82 55.87 54.41 50.32 58.29 C 44.77 62.17 39.57 65.3 34.28 65.3 C 33.32 65.3 32.48 64.46 32.48 63.5 C 32.48 62.54 33.32 61.7 34.28 61.7 C 37 61.7 40.45 60.06 44.11 57.89 C 39.95 53.64 33.41 48.28 26.26 46.26 C 18.98 44.2 7.67 46.19 0 56.08 L 0 78.94 C 0 83.82 3.93 87.76 8.82 87.76 L 96.63 87.76 C 101.52 87.76 105.46 83.82 105.46 78.94 L 105.46 77.13 L 105.46 73.32 Z M 105.46 73.32" />
    <path fill="none" fill-rule="evenodd" d="M 0 0.35 L 0 77.13 L 112.67 77.13 L 112.67 0.35 L 0 0.35 L 0 0.35 Z M 0 0.35" />
    <path fill="#219a7f" fill-rule="evenodd" d="M 112.67 68.31 L 112.67 9.17 C 112.67 4.29 108.74 0.35 103.85 0.35 L 18.04 0.35 C 13.73 0.35 10.21 3.48 9.42 7.57 L 8.82 7.57 C 3.93 7.57 0 11.7 0 16.59 L 0 50.47 C 8.36 42.42 19.8 40.74 27.27 42.85 C 28.72 43.26 30.11 43.86 31.48 44.46 C 32.27 35.84 39.7 29.2 48.52 29.62 C 56.63 30.01 63.22 36.12 64.16 43.85 C 64.68 43.51 65.23 43.19 65.76 42.85 C 71.92 38.93 78.43 35.92 85.21 35.84 C 91.32 35.76 99.31 39.08 105.46 45.46 L 105.46 16.59 C 105.46 11.7 101.52 7.57 96.63 7.57 L 13.23 7.57 C 13.9 5.46 15.68 3.96 18.04 3.96 L 103.85 3.96 C 106.79 3.96 109.06 6.24 109.06 9.17 L 109.06 68.31 C 109.06 70.64 107.55 72.63 105.46 73.32 L 105.46 77.13 C 109.57 76.35 112.67 72.63 112.67 68.31" />
    <path fill="#f4a423" fill-rule="evenodd" d="M 46.71 16.19 C 47.81 15.97 49.01 17.08 48.92 18.19 L 48.92 24.21 C 48.93 25.17 48.08 26.01 47.11 26.01 C 46.15 26.01 45.3 25.17 45.31 24.21 L 45.31 18.19 C 45.27 17.4 45.76 16.64 46.51 16.39 C 46.55 16.33 46.67 16.23 46.71 16.19" />
    <path fill="#f4a423" fill-rule="evenodd" d="M 60.55 20 L 60.95 20 C 62.29 19.93 63.31 21.69 62.55 22.8 L 59.14 27.82 C 58.68 28.7 57.38 28.95 56.54 28.42 C 55.69 27.89 55.54 26.61 56.14 25.81 L 59.34 20.8 C 59.58 20.36 60.06 20.13 60.55 20" />
    <path fill="#f4a423" fill-rule="evenodd" d="M 30.87 21.8 L 31.28 21.8 C 31.92 21.64 32.64 21.9 33.08 22.4 L 37.09 26.81 C 38.4 28.24 35.59 30.85 34.28 29.42 L 30.27 24.81 C 29.44 23.97 29.79 22.27 30.87 21.8" />
    <path fill="#f4a423" fill-rule="evenodd" d="M 70.97 30.22 C 71.01 30.22 71.13 30.22 71.17 30.22 C 71.25 30.22 71.3 30.22 71.37 30.22 C 73.12 30.02 73.8 33.17 72.17 33.83 L 66.96 36.64 C 66.1 37.09 64.81 36.7 64.36 35.84 C 63.91 34.97 64.29 33.67 65.16 33.23 L 70.57 30.42 C 70.64 30.36 70.89 30.46 70.97 30.42 C 71.01 30.36 70.93 30.26 70.97 30.22" />
    <path fill="#f4a423" fill-rule="evenodd" d="M 22.05 32.23 C 22.13 32.22 22.18 32.22 22.25 32.23 C 22.56 32.16 22.97 32.31 23.26 32.43 L 29.07 34.23 C 29.99 34.53 30.57 35.51 30.27 36.44 C 29.98 37.36 28.79 37.94 27.87 37.64 L 22.05 35.84 C 20.49 35.49 20.51 32.67 22.05 32.23" />
</svg>