<?xml version="1.0" encoding="utf-8"?>
<!-- Generator: Avocode 0.4.0 - http://avocode.com -->
<svg height="107" width="147" xmlns:xlink="http://www.w3.org/1999/xlink" xmlns="http://www.w3.org/2000/svg" viewBox="0 0 147 107">
    <path fill="none" fill-rule="evenodd" d="M 8.43 0.38 L 0 0.38 L 0 90.25 L 16.85 90.25 L 16.85 0.38 L 8.43 0.38 L 8.43 0.38 Z M 8.43 0.38" />
    <path fill="#f4a423" fill-rule="evenodd" d="M 2.54 0.38 L 14.31 0.38 C 15.71 0.38 16.85 1.51 16.85 2.92 L 16.85 87.7 C 16.85 89.11 15.71 90.25 14.31 90.25 L 2.54 90.25 C 1.14 90.25 0 89.11 0 87.7 L 0 2.92 C 0 1.51 1.14 0.38 2.54 0.38" />
    <path fill="#f4a423" fill-rule="evenodd" d="M 109.15 75.83 C 109.15 88.21 99.07 98.29 86.69 98.29 C 74.43 98.29 64.48 88.42 64.26 76.22 L 75.49 74.08 L 55.89 77.81 C 56.93 93.94 70.3 106.72 86.69 106.72 C 103.74 106.72 117.58 92.89 117.58 75.83 C 117.58 72.51 117.04 69.33 116.08 66.35 L 107.66 67.95 C 108.58 70.41 109.15 73.05 109.15 75.83" />
    <path fill="none" fill-rule="evenodd" d="M 146.04 84.1 L 146.04 6.52 L 22.47 6.52 L 22.47 84.1 L 146.04 84.1 L 146.04 84.1 Z M 146.04 84.1" />
    <path fill="#219a7f" fill-rule="evenodd" d="M 146.04 65.23 L 146.04 25.39 C 146.04 23.98 144.9 22.84 143.49 22.84 L 142.96 22.84 C 141.56 22.84 140.42 23.98 140.42 25.39 L 140.42 25.39 C 140.42 26.98 138.97 28.18 137.4 27.88 L 25.49 6.57 C 23.92 6.27 22.47 7.47 22.47 9.07 L 22.47 15.07 C 22.47 16.31 23.37 17.38 24.59 17.58 L 59.56 23.41 C 62.64 23.92 62.26 28.46 59.14 28.46 L 25.01 28.46 C 23.61 28.46 22.47 29.6 22.47 31 L 22.47 81.55 C 22.47 83.15 23.92 84.35 25.49 84.05 L 56.27 78.19 L 56.27 78.19 L 75.86 74.46 L 108.03 68.32 C 108.03 68.32 108.03 68.33 108.03 68.33 L 116.46 66.72 L 116.46 66.72 L 137.4 62.74 C 138.97 62.44 140.42 63.64 140.42 65.23 L 140.42 65.23 C 140.42 66.64 141.56 67.78 142.96 67.78 L 143.49 67.78 C 144.9 67.78 146.04 66.64 146.04 65.23" />
</svg>