<?xml version="1.0" encoding="utf-8"?>
<!-- Generator: Avocode 0.4.0 - http://avocode.com -->
<svg height="109" width="121" xmlns:xlink="http://www.w3.org/1999/xlink" xmlns="http://www.w3.org/2000/svg" viewBox="0 0 121 109">
    <path fill="#f4a423" fill-rule="evenodd" d="M 37.33 86.28 C 39.38 86.28 41.05 85.11 41.05 83.67 C 41.05 82.22 39.38 81.04 37.33 81.04 C 35.28 81.04 33.61 82.22 33.61 83.67 C 33.61 85.11 35.28 86.28 37.33 86.28 L 37.33 86.28 Z M 37.33 86.28" />
    <path fill="#f4a423" fill-rule="evenodd" d="M 46.78 86.28 C 48.84 86.28 50.5 85.11 50.5 83.67 C 50.5 82.22 48.84 81.04 46.78 81.04 C 44.72 81.04 43.06 82.22 43.06 83.67 C 43.06 85.11 44.72 86.28 46.78 86.28" />
    <path fill="#f4a423" fill-rule="evenodd" d="M 56.24 86.28 C 58.29 86.28 59.95 85.11 59.95 83.67 C 59.95 82.22 58.29 81.04 56.24 81.04 C 54.19 81.04 52.51 82.22 52.51 83.67 C 52.51 85.11 54.19 86.28 56.24 86.28" />
    <path fill="#f4a423" fill-rule="evenodd" d="M 65.69 86.28 C 67.74 86.28 69.4 85.11 69.4 83.67 C 69.4 82.22 67.74 81.04 65.69 81.04 C 63.64 81.04 61.97 82.22 61.97 83.67 C 61.97 85.11 63.64 86.28 65.69 86.28" />
    <path fill="#f4a423" fill-rule="evenodd" d="M 75.14 86.28 C 77.2 86.28 78.86 85.11 78.86 83.67 C 78.86 82.22 77.2 81.04 75.14 81.04 C 73.09 81.04 71.42 82.22 71.42 83.67 C 71.42 85.11 73.09 86.28 75.14 86.28" />
    <path fill="#f4a423" fill-rule="evenodd" d="M 84.59 86.28 C 86.65 86.28 88.32 85.11 88.32 83.67 C 88.32 82.22 86.65 81.04 84.59 81.04 C 82.54 81.04 80.87 82.22 80.87 83.67 C 80.87 85.11 82.54 86.28 84.59 86.28" />
    <path fill="#f4a423" fill-rule="evenodd" d="M 85.36 98.15 L 37.93 98.15 C 36.77 98.15 35.82 99.1 35.82 100.27 C 35.82 101.43 36.77 102.38 37.93 102.38 L 85.36 102.38 C 86.53 102.38 87.47 101.43 87.47 100.27 C 87.47 99.1 86.53 98.15 85.36 98.15" />
    <path fill="none" fill-rule="evenodd" d="M 97.74 0.02 L 25.83 0.02 L 25.83 37.25 L 97.74 37.25 L 97.74 0.02 L 97.74 0.02 Z M 97.74 0.02" />
    <path fill="#219a7f" fill-rule="evenodd" d="M 26.51 36.35 C 26.51 36.15 26.68 35.99 26.89 35.99 L 35.87 35.99 C 36.07 35.99 36.24 36.15 36.24 36.35 L 36.24 37.25 L 84.82 37.25 L 84.82 36.06 C 84.82 35.85 84.98 35.69 85.2 35.69 L 94.17 35.69 C 94.38 35.69 94.54 35.85 94.54 36.06 L 94.54 37.25 L 97.74 37.25 L 97.74 0.02 L 25.83 0.02 L 25.83 37.25 L 26.51 37.25 L 26.51 36.35 Z M 26.51 36.35" />
    <path fill="#f4a423" fill-rule="evenodd" d="M 17.8 44.15 L 18.15 42.03 L 10.05 42.03 L 0.54 56.15 C 0.54 56.15 -0.88 61.48 0.89 62.86 C 2.31 63.96 2.72 63.32 3.51 61.7 C 4.31 60.05 2.66 56.47 2.66 56.47 L 11.05 44.15 L 17.8 44.15 Z M 17.8 44.15" />
    <path fill="none" fill-rule="evenodd" d="M 0 108.69 L 120.2 108.69 L 120.2 0.02 L 0 0.02 L 0 108.69 Z M 0 108.69" />
    <path fill="#f4a423" fill-rule="evenodd" d="M 112.74 40.69 L 120.2 40.69 L 120.2 38.54 L 112.74 38.54 L 112.74 40.69 Z M 112.74 40.69" />
    <path fill="#f4a423" fill-rule="evenodd" d="M 112.74 46.46 L 120.2 46.46 L 120.2 44.3 L 112.74 44.3 L 112.74 46.46 Z M 112.74 46.46" />
    <path fill="#f4a423" fill-rule="evenodd" d="M 112.74 43.57 L 120.2 43.57 L 120.2 41.42 L 112.74 41.42 L 112.74 43.57 Z M 112.74 43.57" />
    <path fill="#f4a423" fill-rule="evenodd" d="M 112.74 49.34 L 120.2 49.34 L 120.2 47.19 L 112.74 47.19 L 112.74 49.34 Z M 112.74 49.34" />
    <path fill="#f4a423" fill-rule="evenodd" d="M 112.74 52.22 L 120.2 52.22 L 120.2 50.08 L 112.74 50.08 L 112.74 52.22 Z M 112.74 52.22" />
    <path fill="#219a7f" fill-rule="evenodd" d="M 102.86 101.11 C 102.86 102.47 101.77 103.55 100.41 103.55 L 22.88 103.55 C 21.53 103.55 20.44 102.47 20.44 101.11 L 20.44 79.5 L 102.86 79.5 L 102.86 101.11 Z M 37.17 74.68 C 37.17 76.13 35.5 77.29 33.44 77.29 C 31.38 77.29 29.73 76.13 29.73 74.68 C 29.73 73.33 31.2 72.2 33.07 72.07 C 33.2 72.06 33.31 72.07 33.44 72.07 C 35.5 72.07 37.17 73.23 37.17 74.68 L 37.17 74.68 Z M 46.65 74.6 C 46.65 76.05 44.98 77.21 42.92 77.21 C 40.87 77.21 39.21 76.05 39.21 74.6 C 39.21 73.15 40.87 71.98 42.92 71.98 C 44.98 71.98 46.65 73.15 46.65 74.6 L 46.65 74.6 Z M 56 74.6 C 56 76.05 54.33 77.21 52.29 77.21 C 50.23 77.21 48.58 76.05 48.58 74.6 C 48.58 73.15 50.23 71.98 52.29 71.98 C 54.33 71.98 56 73.15 56 74.6 L 56 74.6 Z M 65.37 74.6 C 65.37 76.05 63.69 77.21 61.64 77.21 C 59.59 77.21 57.93 76.05 57.93 74.6 C 57.93 73.15 59.59 71.98 61.64 71.98 C 63.69 71.98 65.37 73.15 65.37 74.6 L 65.37 74.6 Z M 74.72 74.6 C 74.72 76.05 73.07 77.21 71.02 77.21 C 68.96 77.21 67.29 76.05 67.29 74.6 C 67.29 73.15 68.96 71.98 71.02 71.98 C 73.07 71.98 74.72 73.15 74.72 74.6 L 74.72 74.6 Z M 84.08 74.6 C 84.08 76.05 82.43 77.21 80.37 77.21 C 78.32 77.21 76.64 76.05 76.64 74.6 C 76.64 73.15 78.32 71.98 80.37 71.98 C 82.43 71.98 84.08 73.15 84.08 74.6 L 84.08 74.6 Z M 93.51 74.59 C 93.51 76.04 91.83 77.2 89.78 77.2 C 87.73 77.2 86.07 76.04 86.07 74.59 C 86.07 73.23 87.54 72.11 89.41 71.98 C 89.53 71.96 89.65 71.98 89.78 71.98 C 91.83 71.98 93.51 73.14 93.51 74.59 L 93.51 74.59 Z M 22.8 44.22 C 22.8 42.59 24.05 41.34 25.68 41.34 L 28.89 41.34 L 28.89 42.03 C 28.89 42.24 29.06 42.41 29.26 42.41 L 33.5 42.41 C 33.69 42.41 33.87 42.24 33.87 42.03 L 33.87 41.34 L 87.19 41.34 L 87.19 41.74 C 87.19 41.95 87.36 42.11 87.56 42.11 L 91.8 42.11 C 92.01 42.11 92.17 41.95 92.17 41.74 L 92.17 41.34 L 97.74 41.34 C 99.36 41.34 100.6 42.59 100.6 44.22 L 100.6 46.3 L 85.82 46.3 C 85.69 46.74 85.47 47.15 85.31 47.58 L 78.84 44.2 C 78.72 44.47 78.59 44.73 78.46 45 L 85.18 47.91 C 84.71 49.12 84.16 50.29 83.51 51.41 L 77.39 46.85 C 77.24 47.1 77.08 47.34 76.89 47.57 L 83.35 51.69 C 82.67 52.82 81.92 53.89 81.08 54.9 L 75.56 49.25 C 75.35 49.47 75.14 49.68 74.94 49.89 L 80.88 55.14 C 80.02 56.16 79.08 57.1 78.06 57.97 L 73.36 51.33 C 73.12 51.51 72.89 51.69 72.65 51.86 L 77.85 58.16 C 76.82 59.03 75.72 59.81 74.56 60.5 L 70.86 53.02 C 70.6 53.16 70.34 53.31 70.08 53.44 L 74.33 60.65 C 73.16 61.33 71.94 61.92 70.66 62.41 L 68.12 54.32 C 67.85 54.43 67.57 54.53 67.29 54.62 L 70.41 62.52 C 69.14 62.99 67.83 63.36 66.47 63.62 L 65.23 55.17 C 64.94 55.24 64.64 55.29 64.35 55.33 L 66.21 63.68 C 64.89 63.93 63.52 64.06 62.14 64.08 L 62.23 55.55 C 61.94 55.57 61.64 55.58 61.34 55.58 L 61.87 64.11 C 61.8 64.11 61.73 64.12 61.66 64.12 C 60.34 64.12 59.06 64 57.79 63.81 L 59.2 55.47 C 58.91 55.44 58.61 55.4 58.32 55.36 L 57.53 63.79 C 56.17 63.56 54.85 63.23 53.58 62.8 L 56.23 54.91 C 55.95 54.83 55.67 54.75 55.39 54.66 L 53.32 62.7 C 52.04 62.25 50.81 61.71 49.64 61.07 L 53.39 53.89 C 53.11 53.76 52.85 53.64 52.58 53.5 L 49.38 60.91 C 48.22 60.26 47.11 59.53 46.08 58.71 L 50.73 52.43 C 50.48 52.27 50.24 52.11 50 51.94 L 45.84 58.5 C 44.82 57.68 43.87 56.79 42.99 55.83 L 48.34 50.59 C 48.13 50.39 47.9 50.18 47.69 49.97 L 42.77 55.56 C 41.93 54.61 41.15 53.6 40.46 52.52 L 46.27 48.37 C 46.09 48.14 45.9 47.91 45.73 47.67 L 40.27 52.2 C 39.6 51.15 39.02 50.04 38.51 48.89 L 44.57 45.87 C 44.42 45.62 44.28 45.36 44.14 45.1 L 38.36 48.52 C 38.06 47.78 37.72 47.07 37.48 46.3 L 22.8 46.3 L 22.8 44.22 Z M 108.4 46.3 L 104.3 46.3 L 104.3 44.22 C 104.3 40.62 101.34 39.62 97.74 39.62 L 92.17 39.62 L 92.17 38.44 C 92.17 38.23 92.01 38.07 91.8 38.07 L 87.56 38.07 C 87.36 38.07 87.19 38.23 87.19 38.44 L 87.19 39.62 L 33.87 39.62 L 33.87 38.73 C 33.87 38.53 33.69 38.37 33.5 38.37 L 29.26 38.37 C 29.06 38.37 28.89 38.53 28.89 38.73 L 28.89 39.62 L 25.68 39.62 C 22.07 39.62 19.11 40.62 19.11 44.22 L 19.11 46.3 L 13.9 46.3 L 13.9 106.24 C 13.9 107.6 14.99 108.69 16.35 108.69 L 106.95 108.69 C 108.3 108.69 109.4 107.6 109.4 106.24 L 109.4 49.21 L 112.04 49.21 L 112.04 41.55 L 108.4 41.55 L 108.4 46.3 Z M 108.4 46.3" />
    <path fill="#f4a423" fill-rule="evenodd" d="M 27.88 86.28 C 29.93 86.28 31.6 85.11 31.6 83.67 C 31.6 82.22 29.93 81.04 27.88 81.04 C 25.83 81.04 24.16 82.22 24.16 83.67 C 24.16 85.11 25.83 86.28 27.88 86.28" />
    <path fill="#f4a423" fill-rule="evenodd" d="M 29.64 92.7 C 29.64 94.15 31.3 95.32 33.36 95.32 C 35.41 95.32 37.07 94.15 37.07 92.7 C 37.07 91.26 35.41 90.08 33.36 90.08 C 31.3 90.08 29.64 91.26 29.64 92.7" />
    <path fill="#f4a423" fill-rule="evenodd" d="M 38.99 92.7 C 38.99 94.15 40.66 95.32 42.71 95.32 C 44.77 95.32 46.42 94.15 46.42 92.7 C 46.42 91.26 44.77 90.08 42.71 90.08 C 40.66 90.08 38.99 91.26 38.99 92.7" />
    <path fill="#f4a423" fill-rule="evenodd" d="M 48.36 92.7 C 48.36 94.15 50.02 95.32 52.07 95.32 C 54.12 95.32 55.79 94.15 55.79 92.7 C 55.79 91.26 54.12 90.08 52.07 90.08 C 50.02 90.08 48.36 91.26 48.36 92.7" />
    <path fill="#f4a423" fill-rule="evenodd" d="M 57.71 92.7 C 57.71 94.15 59.38 95.32 61.43 95.32 C 63.49 95.32 65.15 94.15 65.15 92.7 C 65.15 91.26 63.49 90.08 61.43 90.08 C 59.38 90.08 57.71 91.26 57.71 92.7" />
    <path fill="#f4a423" fill-rule="evenodd" d="M 67.09 92.7 C 67.09 94.15 68.74 95.32 70.79 95.32 C 72.85 95.32 74.52 94.15 74.52 92.7 C 74.52 91.26 72.85 90.08 70.79 90.08 C 68.74 90.08 67.09 91.26 67.09 92.7" />
    <path fill="#f4a423" fill-rule="evenodd" d="M 76.44 92.7 C 76.44 94.15 78.1 95.32 80.16 95.32 C 82.21 95.32 83.88 94.15 83.88 92.7 C 83.88 91.26 82.21 90.08 80.16 90.08 C 78.1 90.08 76.44 91.26 76.44 92.7" />
    <path fill="#f4a423" fill-rule="evenodd" d="M 85.8 92.7 C 85.8 94.15 87.46 95.32 89.52 95.32 C 91.58 95.32 93.23 94.15 93.23 92.7 C 93.23 91.26 91.58 90.08 89.52 90.08 C 87.46 90.08 85.8 91.26 85.8 92.7" />
    <path fill="#f4a423" fill-rule="evenodd" d="M 24.56 95.32 C 26.61 95.32 28.28 94.15 28.28 92.7 C 28.28 91.26 26.61 90.08 24.56 90.08 C 22.51 90.08 20.85 91.26 20.85 92.7 C 20.85 94.15 22.51 95.32 24.56 95.32" />
    <path fill="#f4a423" fill-rule="evenodd" d="M 94.58 92.7 C 94.58 94.15 96.26 95.32 98.31 95.32 C 100.36 95.32 102.03 94.15 102.03 92.7 C 102.03 91.26 100.36 90.08 98.31 90.08 C 96.26 90.08 94.58 91.26 94.58 92.7" />
    <path fill="#f4a423" fill-rule="evenodd" d="M 94.04 86.28 C 96.1 86.28 97.77 85.11 97.77 83.67 C 97.77 82.22 96.1 81.04 94.04 81.04 C 92 81.04 90.33 82.22 90.33 83.67 C 90.33 85.11 92 86.28 94.04 86.28" />
</svg>