<?xml version="1.0" encoding="utf-8"?>
<!-- Generator: Avocode 0.4.0 - http://avocode.com -->
<svg height="119" width="127" xmlns:xlink="http://www.w3.org/1999/xlink" xmlns="http://www.w3.org/2000/svg" viewBox="0 0 127 119">
    <path fill="#f4a423" fill-rule="evenodd" d="M 71.38 60.49 C 71.38 64.96 67.75 68.58 63.26 68.58 C 58.78 68.58 55.15 64.96 55.15 60.49 C 55.15 56.02 58.78 52.4 63.26 52.4 C 67.75 52.4 71.38 56.02 71.38 60.49 L 71.38 60.49 Z M 71.38 60.49" />
    <path fill="#f4a423" fill-rule="evenodd" d="M 63.26 60.49 L 63.26 92.23 L 41.52 92.23 C 41.52 92.23 60.33 86.96 58.56 62.64 L 63.26 60.49 Z M 63.26 60.49" />
    <path fill="#f4a423" fill-rule="evenodd" d="M 63.26 60.49 L 63.26 92.23 L 85.01 92.23 C 85.01 92.23 66.2 86.96 67.97 62.64 L 63.26 60.49 Z M 63.26 60.49" />
    <path fill="#f4a423" fill-rule="evenodd" d="M 63.27 0.05 L 24.63 0.05 C 24.63 0.05 23.3 20.8 31.43 37.74 C 37.14 49.61 48.8 59.5 63.26 59.5 L 63.27 0.05 Z M 63.27 0.05" />
    <path fill="#f4a423" fill-rule="evenodd" d="M 63.26 0.05 L 101.9 0.05 C 101.9 0.05 103.23 20.8 95.1 37.74 C 89.39 49.61 77.73 59.5 63.26 59.5 L 63.26 0.05 Z M 63.26 0.05" />
    <path fill="#ffffff" fill-rule="evenodd" d="M 44.51 10.04 C 44.51 16.65 39.14 22 32.51 22 C 39.14 22 44.51 27.36 44.51 33.96 C 44.51 27.36 49.88 22 56.5 22 C 49.88 22 44.51 16.65 44.51 10.04" />
    <path fill="#ffffff" fill-rule="evenodd" d="M 55.79 3.78 C 55.79 7.24 52.98 10.04 49.51 10.04 C 52.98 10.04 55.79 12.85 55.79 16.31 C 55.79 12.85 58.6 10.04 62.07 10.04 C 58.6 10.04 55.79 7.24 55.79 3.78" />
    <path fill="none" fill-rule="evenodd" d="M 0 118.95 L 126.9 118.95 L 126.9 0 L 0 0 L 0 118.95 Z M 0 118.95" />
    <path fill="#219a7f" fill-rule="evenodd" d="M 41.52 118.95 L 85.01 118.95 L 85.01 95.66 L 41.52 95.66 L 41.52 118.95 Z M 41.52 118.95" />
    <path fill="#f4a423" fill-rule="evenodd" d="M 41.52 95.66 L 85.01 95.66 L 85.01 92.23 L 41.52 92.23 L 41.52 95.66 Z M 41.52 95.66" />
    <path fill="#f4a423" fill-rule="evenodd" d="M 33.07 56.58 C 32.16 56.38 31.86 55.21 32.33 54.17 C 32.8 53.14 33.99 52.72 35.04 52.63 C 35.75 52.56 36.37 52.29 36.79 51.93 C 37.41 51.4 37.62 50.73 37.39 49.93 C 36.72 47.49 33.9 46.76 31.32 46.26 C 19.27 43.93 10.08 35.52 4.67 21.91 C 0.66 11.83 0.13 2.56 0.11 2.17 L 0 0 L 14.62 0 L 14.81 1.85 C 15.16 5.24 16.91 12.38 20.08 12.8 C 21.85 13.04 23.03 12.37 23.22 11.01 C 23.33 10.28 23.13 9.48 22.55 8.85 C 21.67 7.91 20.63 6.94 20.81 5.81 C 20.98 4.69 22.74 3.93 24.32 4.98 C 26.68 6.54 27.66 9.23 27.31 11.6 C 26.87 14.59 24.25 17.51 19.53 16.88 C 13.69 16.1 11.62 7.95 10.96 4.12 L 4.45 4.12 C 5.39 11.87 10.18 37.98 32.03 42.21 C 34.45 42.67 39.95 43.73 41.37 48.82 C 42.02 51.16 41.31 53.49 39.47 55.06 C 38.16 56.18 36.48 56.76 34.75 56.76 C 34.19 56.76 33.63 56.7 33.07 56.58" />
    <path fill="#f4a423" fill-rule="evenodd" d="M 87.44 55.06 C 85.59 53.49 84.88 51.16 85.53 48.82 C 86.95 43.73 92.46 42.67 94.81 42.22 C 116.72 37.99 121.51 11.87 122.46 4.12 L 115.94 4.12 C 115.29 7.95 113.21 16.1 107.37 16.88 C 102.65 17.51 100.03 14.59 99.6 11.6 C 99.25 9.23 100.22 6.54 102.58 4.98 C 104.16 3.93 105.92 4.69 106.1 5.81 C 106.28 6.94 105.24 7.91 104.36 8.85 C 103.77 9.48 103.57 10.28 103.68 11.01 C 103.88 12.37 105.05 13.04 106.82 12.8 C 109.99 12.38 111.74 5.24 112.1 1.85 L 112.29 0 L 126.9 0 L 126.79 2.17 C 126.77 2.56 126.24 11.83 122.23 21.91 C 116.82 35.52 107.63 43.93 95.66 46.25 C 93 46.76 90.19 47.49 89.51 49.93 C 89.29 50.73 89.49 51.4 90.12 51.93 C 90.54 52.29 91.16 52.56 91.86 52.63 C 92.91 52.72 94.1 53.14 94.57 54.17 C 95.05 55.21 94.74 56.38 93.83 56.58 C 93.27 56.7 92.71 56.76 92.16 56.76 C 90.43 56.76 88.75 56.18 87.44 55.06" />
    <path fill="#ffffff" fill-rule="evenodd" d="M 76.79 113.87 L 49.74 113.87 C 47.77 113.87 46.18 112.28 46.18 110.32 L 46.18 104.29 C 46.18 102.33 47.77 100.74 49.74 100.74 L 76.79 100.74 C 78.76 100.74 80.36 102.33 80.36 104.29 L 80.36 110.32 C 80.36 112.28 78.76 113.87 76.79 113.87" />
</svg>