<svg id="SvgjsSvg1054" xmlns="http://www.w3.org/2000/svg" version="1.1" xmlns:xlink="http://www.w3.org/1999/xlink" xmlns:svgjs="http://svgjs.com/svgjs" width="102" height="121"><defs id="SvgjsDefs1055"></defs><path id="SvgjsPath1056" d="M372.54 968.23L366.03000000000003 963.5500000000001L359.52000000000004 968.3000000000001L362.01000000000005 960.48L355.50000000000006 955.59L363.5400000000001 955.59L366.0300000000001 947.94L357.4000000000001 946.4200000000001L358.74000000000007 934.5600000000001L368.7300000000001 929.98L375.74000000000007 939.95L366.0300000000001 947.94L368.5100000000001 955.59L376.5600000000001 955.59L370.0500000000001 960.49ZM398.14 923.98C394.36 921.28 394.36 921.1800000000001 394.36 921.1800000000001C394.36 921.1800000000001 396.79 919.24 399.49 917.8900000000001C402.18 916.5400000000001 390.41 918.1500000000001 384.92 916.2500000000001C380.62 914.7700000000001 377.21000000000004 913.9200000000001 373.29 914.3400000000001L370.35 915.6900000000002C370.35 915.6900000000002 369.72 911.1000000000001 368.28000000000003 907.6000000000001C366.84000000000003 904.0900000000001 366.55 902.8200000000002 367.11 902.7400000000001C368.89 901.2900000000001 370.77000000000004 898.5100000000001 371.76 894.3800000000001C372.95 889.3900000000001 369.53999999999996 889.2600000000001 369.53999999999996 889.2600000000001C369.53999999999996 889.2600000000001 371.15999999999997 883.6000000000001 370.89 878.7400000000001C370.62 873.8900000000001 355.78 869.5800000000002 345.52 869.0400000000001C335.27 868.5000000000001 333.10999999999996 874.0300000000001 335.53999999999996 882.6500000000001C335.53999999999996 882.6500000000001 332.43999999999994 887.8400000000001 335.93999999999994 899.7800000000001C339.2699999999999 911.09 342.54999999999995 915.1400000000001 342.54999999999995 915.1400000000001L342.54999999999995 921.6200000000001C342.54999999999995 921.6200000000001 341.28999999999996 920.1200000000001 340.21 919.8500000000001C339.13 919.5800000000002 318.60999999999996 928.2900000000002 316.45 930.0800000000002C319.69 932.4000000000002 321.14 932.4000000000002 321.14 932.4000000000002C321.14 932.4000000000002 319.03 937.3900000000002 316.59999999999997 944.6700000000002C314.16999999999996 951.9500000000002 319.89 989.5700000000002 319.89 989.5700000000002L384.65 989.5700000000002L380.72999999999996 979.5900000000001C380.72999999999996 979.5900000000001 382.75999999999993 973.7900000000002 385.99999999999994 968.4000000000001C387.0799999999999 974.33 392.73999999999995 979.2500000000001 392.73999999999995 979.2500000000001L389.49999999999994 989.5700000000002L410.54999999999995 989.5700000000002C410.54999999999995 989.5700000000002 414.86999999999995 980.2500000000001 416.48999999999995 970.4800000000001C418.10999999999996 960.7100000000002 408.38999999999993 947.3700000000001 405.15 939.2800000000001C401.91999999999996 931.19 401.91999999999996 926.6700000000001 398.14 923.9800000000001Z " fill="#62c4b5" fill-opacity="1" transform="matrix(1,0,0,1,-315,-869)"></path><path id="SvgjsPath1057" d="M373.42 932L360.1 936.52L359 944.43L379.13 938.64Z " fill="#ff911d" fill-opacity="1" transform="matrix(1,0,0,1,-315,-869)"></path></svg>