<?xml version="1.0" encoding="utf-8"?>
<!-- Generator: Avocode 0.4.0 - http://avocode.com -->
<svg height="78" width="109" xmlns:xlink="http://www.w3.org/1999/xlink" xmlns="http://www.w3.org/2000/svg" viewBox="0 0 109 78">
    <path fill="#f4a423" fill-rule="evenodd" d="M 60.87 15.39 L 23.51 15.39 C 21.65 15.39 20.17 16.87 20.17 18.72 C 20.17 20.58 21.65 22.06 23.51 22.06 L 60.87 22.06 C 62.73 22.06 64.21 20.58 64.21 18.72 C 64.21 16.87 62.73 15.39 60.87 15.39" />
    <path fill="#f4a423" fill-rule="evenodd" d="M 60.87 39.6 L 23.51 39.6 C 21.65 39.6 20.17 41.08 20.17 42.93 C 20.17 44.79 21.65 46.27 23.51 46.27 L 60.87 46.27 C 62.73 46.27 64.21 44.79 64.21 42.93 C 64.21 41.08 62.73 39.6 60.87 39.6" />
    <path fill="#f4a423" fill-rule="evenodd" d="M 60.87 27.49 L 23.51 27.49 C 21.65 27.49 20.17 28.98 20.17 30.83 C 20.17 32.68 21.65 34.16 23.51 34.16 L 60.87 34.16 C 62.73 34.16 64.21 32.68 64.21 30.83 C 64.21 28.98 62.73 27.49 60.87 27.49" />
    <path fill="none" fill-rule="evenodd" d="M 85.74 0.32 L 0 0.32 L 0 75.42 L 85.74 75.42 L 85.74 0.32 L 85.74 0.32 Z M 85.74 0.32" />
    <path fill="#f4a423" fill-rule="evenodd" d="M 85.74 31.08 C 85.74 14.03 66.56 0.32 42.93 0.32 C 19.18 0.32 0 14.03 0 31.08 C 0 39.1 4.21 46.39 11.14 51.83 C 10.15 57.26 7.79 69.36 7.42 71.46 C 7.05 73.44 8.54 75.42 10.76 75.42 C 11.63 75.42 12.5 75.17 13.49 74.55 C 15.96 73.07 27.59 66.03 35.26 61.46 C 37.74 61.83 40.33 61.95 42.93 61.95 C 66.56 61.95 85.74 48.12 85.74 31.08" />
    <path fill="#ffffff" fill-rule="evenodd" d="M 57.41 43.41 L 26.97 43.41 C 25.46 43.41 24.25 42.2 24.25 40.69 C 24.25 39.18 25.46 37.97 26.97 37.97 L 57.41 37.97 C 58.92 37.97 60.13 39.18 60.13 40.69 C 60.13 42.2 58.92 43.41 57.41 43.41" />
    <path fill="#ffffff" fill-rule="evenodd" d="M 57.41 33.55 L 26.97 33.55 C 25.46 33.55 24.25 32.34 24.25 30.83 C 24.25 29.32 25.46 28.11 26.97 28.11 L 57.41 28.11 C 58.92 28.11 60.13 29.32 60.13 30.83 C 60.13 32.34 58.92 33.55 57.41 33.55" />
    <path fill="#ffffff" fill-rule="evenodd" d="M 57.41 23.68 L 26.97 23.68 C 25.46 23.68 24.25 22.48 24.25 20.97 C 24.25 19.46 25.46 18.25 26.97 18.25 L 57.41 18.25 C 58.92 18.25 60.13 19.46 60.13 20.97 C 60.13 22.48 58.92 23.68 57.41 23.68" />
    <path fill="#219a7f" fill-rule="evenodd" d="M 99.6 57.88 C 105.41 53.31 109 47.13 109 40.46 C 109 29.59 99.72 20.33 86.61 16.5 C 89.33 20.95 90.81 26.01 90.81 31.2 C 90.81 46.51 78.07 59.48 60.13 64.79 C 64.09 65.91 68.42 66.52 72.87 66.52 C 75.1 66.52 77.2 66.4 79.31 66.15 C 85.74 69.98 95.64 75.91 97.74 77.15 C 100.96 79.12 103.19 76.78 102.81 74.55 C 102.44 72.7 100.46 62.32 99.6 57.88" />
</svg>