<?xml version="1.0" encoding="utf-8"?>
<!-- Generator: Avocode 2.6.0 - http://avocode.com -->
<svg height="35" width="31" xmlns:xlink="http://www.w3.org/1999/xlink" xmlns="http://www.w3.org/2000/svg" viewBox="0 0 31 35">
    <path fill="#ffffff" fill-rule="evenodd" d="M 25 8.96 C 25.29 8.96 25.56 8.85 25.76 8.65 L 27.98 6.43 C 28.18 6.23 28.29 5.96 28.29 5.67 C 28.29 5.39 28.18 5.12 27.98 4.91 C 27.77 4.71 27.5 4.6 27.22 4.6 C 26.93 4.6 26.66 4.71 26.46 4.91 L 24.24 7.13 C 24.04 7.33 23.93 7.6 23.93 7.89 C 23.93 8.18 24.04 8.45 24.24 8.65 C 24.44 8.85 24.71 8.96 25 8.96 L 25 8.96 Z M 27.29 25.69 C 27.34 25.67 27.39 25.63 27.43 25.59 C 27.39 25.63 27.34 25.67 27.29 25.69 L 27.29 25.69 Z M 25.66 22.3 C 25.46 22.1 25.19 21.99 24.9 21.99 C 24.62 21.99 24.35 22.1 24.14 22.3 C 23.94 22.5 23.83 22.77 23.83 23.06 C 23.83 23.35 23.94 23.62 24.14 23.82 L 26.36 26.03 C 26.56 26.24 26.83 26.35 27.12 26.35 C 27.41 26.35 27.68 26.24 27.88 26.03 C 28.3 25.62 28.3 24.93 27.88 24.51 L 25.66 22.3 Z M 29.92 15.9 L 29.92 15.9 C 30.17 15.9 30.37 15.7 30.37 15.46 C 30.37 15.21 30.17 15.01 29.92 15.01 L 29.92 15.01 C 30.17 15.01 30.37 15.21 30.37 15.46 C 30.37 15.7 30.17 15.9 29.92 15.9 L 29.92 15.9 Z M 29.92 14.38 L 26.79 14.38 C 26.2 14.38 25.72 14.87 25.72 15.46 C 25.72 16.05 26.2 16.53 26.79 16.53 L 29.92 16.53 C 30.52 16.53 31 16.05 31 15.46 C 31 14.87 30.52 14.38 29.92 14.38 L 29.92 14.38 Z M 5.24 8.65 C 5.44 8.85 5.71 8.96 6 8.96 C 6.29 8.96 6.56 8.85 6.76 8.65 C 6.96 8.45 7.07 8.18 7.07 7.89 C 7.07 7.6 6.96 7.33 6.76 7.13 L 4.54 4.91 C 4.34 4.71 4.07 4.6 3.78 4.6 C 3.5 4.6 3.23 4.71 3.02 4.91 C 2.82 5.12 2.71 5.39 2.71 5.67 C 2.71 5.96 2.82 6.23 3.02 6.43 L 5.24 8.65 Z M 6.41 22.75 C 6.39 22.73 6.37 22.71 6.35 22.69 C 6.37 22.71 6.39 22.73 6.41 22.75 C 6.43 22.77 6.45 22.79 6.47 22.82 C 6.45 22.79 6.43 22.77 6.41 22.75 L 6.41 22.75 Z M 6.07 22.62 C 6.08 22.62 6.09 22.62 6.1 22.62 L 6.1 22.62 C 6.09 22.62 6.08 22.62 6.07 22.62 L 6.07 22.62 Z M 6.1 21.99 L 6.1 21.99 C 5.81 21.99 5.54 22.1 5.34 22.3 L 3.12 24.51 C 2.7 24.93 2.7 25.62 3.12 26.03 C 3.32 26.24 3.59 26.35 3.88 26.35 C 4.17 26.35 4.44 26.24 4.64 26.03 L 6.86 23.82 C 7.06 23.62 7.17 23.35 7.17 23.06 C 7.17 22.77 7.06 22.5 6.86 22.3 C 6.65 22.1 6.38 21.99 6.1 21.99 L 6.1 21.99 Z M 15.54 4.65 C 15.79 4.65 15.99 4.45 15.99 4.21 L 15.99 1.08 C 15.99 1.03 15.98 0.98 15.97 0.94 C 15.98 0.98 15.99 1.03 15.99 1.08 L 15.99 4.21 C 15.99 4.45 15.79 4.65 15.54 4.65 C 15.52 4.65 15.5 4.65 15.48 4.65 C 15.5 4.65 15.52 4.65 15.54 4.65 L 15.54 4.65 Z M 15.54 5.28 C 16.13 5.28 16.62 4.8 16.62 4.21 L 16.62 1.08 C 16.62 0.48 16.13 0 15.54 0 C 14.95 0 14.47 0.48 14.47 1.08 L 14.47 4.21 C 14.47 4.8 14.95 5.28 15.54 5.28 L 15.54 5.28 Z M 5.28 15.46 C 5.28 14.87 4.8 14.38 4.21 14.38 L 1.08 14.38 C 0.48 14.38 0 14.87 0 15.46 C 0 16.05 0.48 16.53 1.08 16.53 L 4.21 16.53 C 4.8 16.53 5.28 16.05 5.28 15.46 L 5.28 15.46 Z M 24.34 14.78 C 24.37 15.07 24.39 15.37 24.39 15.67 C 24.39 16.4 24.3 17.11 24.13 17.8 C 24.3 17.11 24.39 16.4 24.39 15.67 C 24.39 15.37 24.37 15.07 24.34 14.78 L 24.34 14.78 Z M 13.34 23.99 C 13.34 23.96 13.33 23.92 13.33 23.88 L 13.33 23.84 L 13.33 23.88 C 13.33 23.92 13.34 23.96 13.34 23.99 L 13.34 23.99 Z M 20.73 20.78 L 20.7 20.81 L 20.65 20.85 L 20.62 20.9 L 20.59 20.94 C 19.61 22.41 19.01 24.06 18.83 25.76 L 18.67 25.76 C 18.67 25.76 18.67 25.76 18.67 25.76 C 18.67 24.56 17.46 24.16 16.28 23.86 C 17.46 23.56 18.67 23.16 18.67 21.96 C 18.67 20.79 17.52 20.38 16.36 20.08 C 17.52 19.78 18.67 19.37 18.67 18.2 C 18.67 17.03 17.52 16.62 16.36 16.32 C 17.52 16.02 18.67 15.61 18.67 14.44 C 18.67 13.85 18.19 13.37 17.6 13.37 C 17.16 13.37 16.79 13.63 16.62 14 C 16.32 14.12 15.67 14.28 15.43 14.34 C 14.15 14.65 12.7 15.01 12.7 16.32 C 12.7 17.49 13.86 17.9 15.01 18.2 C 13.86 18.5 12.7 18.91 12.7 20.08 C 12.7 21.25 13.86 21.66 15.01 21.96 C 13.86 22.26 12.7 22.67 12.7 23.84 L 12.7 23.88 C 12.7 25.06 13.87 25.46 15.03 25.76 L 12.55 25.76 C 12.37 24.06 11.76 22.41 10.78 20.94 L 10.76 20.9 L 10.72 20.85 L 10.67 20.81 L 10.64 20.78 C 9.27 19.42 8.51 17.6 8.51 15.67 C 8.51 11.71 11.73 8.49 15.69 8.49 C 19.65 8.49 22.87 11.71 22.87 15.67 C 22.87 17.6 22.11 19.42 20.73 20.78 L 20.73 20.78 Z M 21.83 21.83 C 21.76 21.93 21.7 22.03 21.63 22.14 C 21.7 22.03 21.76 21.93 21.83 21.83 C 21.94 21.72 22.04 21.62 22.13 21.51 C 22.04 21.62 21.94 21.72 21.83 21.83 L 21.83 21.83 Z M 21.14 21.26 L 21.17 21.22 C 21.27 21.13 21.36 21.04 21.45 20.94 C 21.36 21.04 21.27 21.13 21.17 21.22 L 21.14 21.26 Z M 20.59 24.56 C 20.65 24.35 20.71 24.13 20.79 23.93 C 20.71 24.13 20.65 24.35 20.59 24.56 L 20.59 24.56 Z M 20.31 26.31 L 20.31 26.31 C 20.33 25.87 20.39 25.43 20.49 24.99 C 20.39 25.43 20.33 25.87 20.31 26.31 L 20.31 26.31 Z M 19.71 24.4 C 19.76 24.21 19.82 24.03 19.87 23.85 C 19.82 24.03 19.76 24.21 19.71 24.4 L 19.71 24.4 Z M 17.85 25.23 C 17.91 25.31 17.96 25.39 17.99 25.48 C 17.96 25.39 17.91 25.31 17.85 25.23 L 17.85 25.23 Z M 18.76 27.28 L 17.46 27.28 L 17.46 27.28 L 18.76 27.28 L 18.76 27.28 Z M 15.75 25.29 C 15.69 25.28 15.63 25.26 15.58 25.25 C 15.53 25.24 15.47 25.22 15.42 25.21 C 15.47 25.22 15.53 25.24 15.58 25.25 C 15.63 25.26 15.69 25.28 15.75 25.29 L 15.75 25.29 Z M 15.7 23.35 C 15.73 23.34 15.76 23.34 15.79 23.33 C 15.97 23.28 16.15 23.24 16.33 23.19 C 16.15 23.24 15.97 23.28 15.79 23.33 C 15.76 23.34 15.73 23.34 15.7 23.35 L 15.7 23.35 Z M 15.5 15.89 C 15.61 15.86 15.71 15.84 15.79 15.81 C 15.94 15.78 16.08 15.74 16.22 15.71 C 16.08 15.74 15.94 15.78 15.79 15.81 C 15.71 15.84 15.61 15.86 15.5 15.89 L 15.5 15.89 Z M 15.79 20.59 C 15.97 20.63 16.15 20.67 16.33 20.72 C 16.15 20.67 15.97 20.63 15.79 20.59 C 15.68 20.56 15.54 20.52 15.39 20.48 C 15.54 20.52 15.68 20.56 15.79 20.59 L 15.79 20.59 Z M 12.62 27.28 L 12.62 27.28 L 14.62 27.28 L 14.62 27.28 L 12.62 27.28 Z M 18.76 28.18 L 12.62 28.18 L 12.62 27.91 L 18.76 27.91 L 18.76 28.18 Z M 18.76 30.42 L 12.62 30.42 L 12.62 30.33 L 18.76 30.33 L 18.76 30.42 Z M 17.12 32.82 L 14.25 32.82 C 13.95 32.82 13.67 32.73 13.43 32.57 L 17.95 32.57 C 17.71 32.73 17.42 32.82 17.12 32.82 L 17.12 32.82 Z M 15.69 7.86 C 15.93 7.86 16.16 7.87 16.4 7.89 C 16.16 7.87 15.93 7.86 15.69 7.86 C 14.98 7.86 14.3 7.95 13.64 8.13 C 14.3 7.95 14.98 7.86 15.69 7.86 L 15.69 7.86 Z M 15.69 6.34 C 10.54 6.34 6.36 10.52 6.36 15.67 C 6.36 18.14 7.31 20.47 9.05 22.23 C 9.97 23.63 10.45 25.22 10.45 26.84 L 10.45 27.28 L 10.45 27.91 L 10.47 27.91 L 10.47 31.04 C 10.47 33.21 12.16 34.97 14.25 34.97 L 17.12 34.97 C 19.21 34.97 20.91 33.21 20.91 31.04 L 20.91 27.91 L 20.92 27.91 L 20.92 27.28 L 20.92 26.84 C 20.92 25.22 21.41 23.63 22.32 22.23 C 24.06 20.47 25.02 18.14 25.02 15.67 C 25.02 10.52 20.83 6.34 15.69 6.34 L 15.69 6.34 Z M 15.69 6.34" />
</svg>