<?xml version="1.0" encoding="utf-8"?>
<!-- Generator: Avocode 2.6.0 - http://avocode.com -->
<svg height="18" width="16" xmlns:xlink="http://www.w3.org/1999/xlink" xmlns="http://www.w3.org/2000/svg" viewBox="0 0 16 18">
    <path fill="#444549" fill-rule="evenodd" d="M 7.1 5.4 C 7.09 5.56 7.1 5.73 7.13 5.93 C 7.14 5.73 7.12 5.55 7.1 5.4 L 7.1 5.4 Z M 7.41 9.52 C 7.27 9.88 7.12 10.24 6.96 10.58 C 7.32 10.48 7.69 10.4 8.05 10.33 C 7.93 10.19 7.82 10.05 7.71 9.91 C 7.61 9.78 7.51 9.65 7.41 9.52 L 7.41 9.52 Z M 3.18 15.6 C 2.99 15.6 2.79 15.55 2.62 15.45 C 2.19 15.19 2 14.73 2.11 14.2 C 2.31 13.25 3.55 12.07 5.21 11.26 C 5.65 10.35 6.12 9.27 6.55 8.14 C 5.99 7.07 5.73 6.07 5.8 5.25 C 5.91 4.08 6.36 3.67 6.72 3.54 C 6.83 3.5 6.94 3.48 7.05 3.48 C 7.32 3.48 7.6 3.61 7.82 3.84 C 8.43 4.48 8.74 5.99 8.03 7.92 C 8.02 7.95 8.01 7.99 7.99 8.02 C 8.21 8.37 8.45 8.73 8.72 9.08 C 9.03 9.47 9.36 9.86 9.71 10.2 L 9.73 10.2 C 11.44 10.2 12.77 10.73 13.21 11.6 C 13.41 12 13.37 12.45 13.11 12.76 C 12.9 13.01 12.58 13.13 12.19 13.13 C 11.95 13.13 11.67 13.08 11.39 12.98 C 10.76 12.75 9.99 12.25 9.22 11.54 C 9.13 11.54 9.05 11.55 8.97 11.56 C 8.01 11.65 7.06 11.89 6.16 12.28 C 6.08 12.44 6 12.6 5.92 12.75 C 5.04 14.38 4.31 15.26 3.62 15.52 C 3.47 15.57 3.33 15.6 3.18 15.6 L 3.18 15.6 Z M 10.52 4.39 L 10.52 4.4 C 10.51 4.51 10.54 4.86 10.72 5.06 C 10.85 5.2 11.07 5.27 11.38 5.27 L 14.03 5.27 C 13.11 4.25 11.53 2.71 10.52 1.87 L 10.52 4.39 Z M 1.77 1.38 C 1.51 1.38 1.23 1.54 1.23 1.82 L 1.23 16.18 C 1.23 16.46 1.51 16.62 1.77 16.62 L 14.19 16.62 C 14.47 16.62 14.66 16.45 14.66 16.18 L 14.66 6.65 L 11.38 6.65 C 10.68 6.65 10.13 6.43 9.74 5.99 C 9.17 5.37 9.17 4.52 9.17 4.34 L 9.17 1.38 L 1.77 1.38 Z M 1.77 18 C 0.78 18 0 17.2 0 16.18 L 0 1.82 C 0 0.8 0.78 0 1.77 0 L 9.85 0 C 10.03 0 10.6 0 13.28 2.61 C 15.67 4.93 16 5.61 16 6 L 16 16.18 C 16 17.18 15.19 18 14.19 18 L 1.77 18 Z M 1.77 18" />
</svg>