<?xml version="1.0" encoding="utf-8"?>
<!-- Generator: Avocode 2.6.0 - http://avocode.com -->
<svg height="27" width="41" xmlns:xlink="http://www.w3.org/1999/xlink" xmlns="http://www.w3.org/2000/svg" viewBox="0 0 41 27">
    <path fill="#ffffff" fill-rule="evenodd" d="M 18.17 17.55 L 18.17 12.09 L 22.34 12.09 C 24.87 12.09 25.79 13.08 25.79 14.81 C 25.79 16.51 24.87 17.55 22.34 17.55 L 18.17 17.55 Z M 18.17 25.22 L 18.17 24.43 L 23.81 24.43 L 23.81 22.44 L 18.17 22.44 L 18.17 20.06 L 22.76 20.06 C 26.53 20.06 28.68 18.07 28.68 14.78 C 28.68 11.55 26.53 9.59 22.76 9.59 L 15.33 9.59 L 15.33 22.44 L 13.35 22.44 L 13.35 24.43 L 15.33 24.43 L 15.33 25.22 L 4.7 25.22 C 3.76 23.09 3.28 20.83 3.28 18.52 C 3.28 9.29 10.8 1.78 20.05 1.78 C 29.3 1.78 36.82 9.29 36.82 18.52 C 36.82 20.83 36.34 23.09 35.4 25.22 L 18.17 25.22 Z M 37.32 25.22 C 38.17 23.07 38.6 20.83 38.6 18.52 C 38.6 8.31 30.28 0 20.05 0 C 9.82 0 1.5 8.31 1.5 18.52 C 1.5 20.82 1.94 23.07 2.78 25.22 L 0 25.22 L 0 27 L 3.57 27 L 36.53 27 L 41 27 L 41 25.22 L 37.32 25.22 Z M 37.32 25.22" />
</svg>