<?xml version="1.0" encoding="UTF-8" standalone="no"?>
<svg width="98px" height="80px" viewBox="0 0 98 80" version="1.1" xmlns="http://www.w3.org/2000/svg" xmlns:xlink="http://www.w3.org/1999/xlink">
    <!-- Generator: Sketch 39.1 (31720) - http://www.bohemiancoding.com/sketch -->
    <title>Page 1</title>
    <desc>Created with Sketch.</desc>
    <defs></defs>
    <g id="mobile" stroke="none" stroke-width="1" fill="none" fill-rule="evenodd">
        <g id="Artboard" transform="translate(-139.000000, -90.000000)" fill="#000000">
            <path d="M207.7,124.6 L198.6,128.7 L207.6,134.2 C208.4,134.7 208.7,135.8 208.2,136.6 C207.9,137.1 207.3,137.4 206.7,137.4 C206.4,137.4 206.1,137.3 205.8,137.1 L193.9,129.9 C193.3,129.6 193,128.9 193.1,128.3 C193.2,127.7 193.5,127.1 194.1,126.8 L206.2,121.4 C207.1,121 208.1,121.4 208.5,122.3 C209,123.1 208.6,124.2 207.7,124.6 M182.1,129.9 L170.2,137.1 C169.9,137.3 169.6,137.4 169.3,137.4 C168.7,137.4 168.1,137.1 167.8,136.6 C167.3,135.8 167.6,134.7 168.4,134.2 L177.4,128.7 L168.3,124.6 C167.4,124.2 167,123.2 167.4,122.3 C167.8,121.4 168.8,121 169.7,121.4 L181.8,126.8 C182.4,127.1 182.8,127.6 182.8,128.3 C182.8,129 182.7,129.6 182.1,129.9 M204.2,153.6 C204.7,154.4 204.4,155.5 203.6,156 C202.8,156.5 201.7,156.2 201.2,155.4 C198.7,151.1 193.7,148.4 188.1,148.4 C182.5,148.4 177.4,151.1 174.9,155.5 C174.6,156.1 174,156.4 173.4,156.4 C173.1,156.4 172.8,156.3 172.5,156.2 C171.7,155.7 171.4,154.7 171.8,153.8 C174.9,148.3 181.1,144.9 188,144.9 C194.9,144.8 201.1,148.2 204.2,153.6 M167.9,102.4 C167.6,102.1 167.4,101.6 167.4,101.2 C167.4,100.8 167.6,100.3 167.9,100 C168.5,99.3 169.7,99.3 170.4,100 C170.7,100.3 170.9,100.8 170.9,101.2 C170.9,101.6 170.7,102.1 170.4,102.4 C170.1,102.7 169.6,102.9 169.2,102.9 C168.6,102.9 168.2,102.7 167.9,102.4 M158.4,102.4 C158.1,102.1 157.9,101.6 157.9,101.2 C157.9,100.8 158.1,100.3 158.4,100 C159,99.3 160.2,99.3 160.9,100 C161.2,100.3 161.4,100.8 161.4,101.2 C161.4,101.6 161.2,102.1 160.9,102.4 C160.6,102.7 160.1,102.9 159.7,102.9 C159.3,102.9 158.8,102.7 158.4,102.4 M149,102.4 C148.7,102.1 148.5,101.6 148.5,101.2 C148.5,100.8 148.7,100.3 149,100 C149.6,99.3 150.8,99.3 151.5,100 C151.8,100.3 152,100.8 152,101.2 C152,101.6 151.8,102.1 151.5,102.4 C151.2,102.7 150.7,102.9 150.3,102.9 C149.8,102.9 149.3,102.7 149,102.4 M230.2,165.5 L145.8,165.5 C144,165.5 142.5,164 142.5,162.2 L142.5,112.4 L233.5,112.4 L233.5,162.3 C233.5,164.1 232,165.5 230.2,165.5 M145.8,93.5 L230.2,93.5 C232,93.5 233.5,95 233.5,96.8 L233.5,108.9 L142.5,108.9 L142.5,96.7 C142.5,94.9 144,93.5 145.8,93.5 M230.2,90 L145.8,90 C142.1,90 139,93 139,96.8 L139,162.3 C139,166 142,169.1 145.8,169.1 L230.2,169.1 C233.9,169.1 237,166.1 237,162.3 L237,96.7 C237,93 233.9,90 230.2,90" id="Page-1"></path>
        </g>
    </g>
</svg>