<?xml version="1.0" encoding="utf-8"?>
<!-- Generator: Avocode 2.6.0 - http://avocode.com -->
<svg height="28" width="28" xmlns:xlink="http://www.w3.org/1999/xlink" xmlns="http://www.w3.org/2000/svg" viewBox="0 0 28 28">
    <title>Facebook</title>
    <path fill="#0853a5" fill-rule="evenodd" d="M 14.96 28 L 1.55 28 C 0.69 28 0 27.31 0 26.45 L 0 1.55 C 0 0.69 0.69 0 1.55 0 L 26.45 0 C 27.31 0 28 0.69 28 1.55 L 28 26.45 C 28 27.31 27.31 28 26.45 28 L 19.32 28 L 19.32 17.16 L 22.96 17.16 L 23.5 12.93 L 19.32 12.93 L 19.32 10.23 C 19.32 9.01 19.66 8.18 21.41 8.18 L 23.65 8.18 L 23.65 4.4 C 23.26 4.34 21.94 4.23 20.39 4.23 C 17.16 4.23 14.96 6.2 14.96 9.81 L 14.96 12.93 L 11.31 12.93 L 11.31 17.16 L 14.96 17.16 L 14.96 28 L 14.96 28 Z M 14.96 28" />
</svg>
