<?xml version="1.0" encoding="utf-8"?>
<!-- Generator: Avocode 2.6.0 - http://avocode.com -->
<svg height="24" width="38" xmlns:xlink="http://www.w3.org/1999/xlink" xmlns="http://www.w3.org/2000/svg" viewBox="0 0 38 24">
    <title>Google plus</title>
    <path fill="#e71d1d" fill-rule="evenodd" d="M 33.82 9.86 L 33.82 5.7 L 30.83 5.7 L 30.83 9.86 L 26.53 9.86 L 26.53 12.83 L 30.83 12.83 L 30.83 17.11 L 33.82 17.11 L 33.82 12.83 L 38 12.83 L 38 9.86 L 33.82 9.86 L 33.82 9.86 Z M 12.07 9.62 L 12.07 14.38 C 12.07 14.38 16.71 14.37 18.59 14.37 C 17.57 17.45 15.98 19.13 12.07 19.13 C 8.11 19.13 5.02 15.94 5.02 12 C 5.02 8.06 8.11 4.87 12.07 4.87 C 14.16 4.87 15.51 5.6 16.76 6.62 C 17.75 5.64 17.66 5.49 20.19 3.12 C 18.05 1.18 15.2 0 12.07 0 C 5.4 0 0 5.37 0 12 C 0 18.63 5.4 24 12.07 24 C 22.03 24 24.47 15.37 23.66 9.62 L 12.07 9.62 L 12.07 9.62 Z M 12.07 9.62" />
</svg>
