<?xml version="1.0" encoding="UTF-8"?><!DOCTYPE svg PUBLIC "-//W3C//DTD SVG 1.1//EN" "http://www.w3.org/Graphics/SVG/1.1/DTD/svg11.dtd"><svg xmlns="http://www.w3.org/2000/svg"><symbol id="icon-bulb" viewBox="0 0 31 35"><path fill-rule="evenodd" d="M25 8.96c.29 0 .56-.11.76-.31l2.22-2.22c.2-.2.31-.47.31-.76 0-.28-.11-.55-.31-.76a1.1 1.1 0 0 0-.76-.31c-.29 0-.56.11-.76.31l-2.22 2.22c-.2.2-.31.47-.31.76 0 .29.11.56.31.76.2.2.47.31.76.31zm2.29 16.73zm-1.63-3.39c-.2-.2-.47-.31-.76-.31-.28 0-.55.11-.76.31-.2.2-.31.47-.31.76 0 .29.11.56.31.76l2.22 2.21c.2.21.47.32.76.32.29 0 .56-.11.76-.32.42-.41.42-1.1 0-1.52l-2.22-2.21zm4.26-6.4c.25 0 .45-.2.45-.44a.448.448 0 1 1 0 0c0 .24-.2.44-.45.44zm0-1.52h-3.13c-.59 0-1.07.49-1.07 1.08 0 .59.48 1.07 1.07 1.07h3.13c.6 0 1.08-.48 1.08-1.07 0-.59-.48-1.08-1.08-1.08zM5.24 8.65c.2.2.47.31.76.31.29 0 .56-.11.76-.31.2-.2.31-.47.31-.76 0-.29-.11-.56-.31-.76L4.54 4.91c-.2-.2-.47-.31-.76-.31-.28 0-.55.11-.76.31-.2.21-.31.48-.31.76 0 .29.11.56.31.76l2.22 2.22zm1.17 14.1l-.06-.06.06.06c.02.02.04.04.06.07-.02-.03-.04-.05-.06-.07zm-.34-.13h.03-.03zm.03-.63c-.29 0-.56.11-.76.31l-2.22 2.21c-.42.42-.42 1.11 0 1.52.2.21.47.32.76.32.29 0 .56-.11.76-.32l2.22-2.21c.2-.2.31-.47.31-.76 0-.29-.11-.56-.31-.76a1.1 1.1 0 0 0-.76-.31zm9.44-17.34c.25 0 .45-.2.45-.44V1.08v3.13c0 .24-.2.44-.45.44h-.06.06zm0 .63c.59 0 1.08-.48 1.08-1.07V1.08c0-.6-.49-1.08-1.08-1.08-.59 0-1.07.48-1.07 1.08v3.13c0 .59.48 1.07 1.07 1.07zM5.28 15.46c0-.59-.48-1.08-1.07-1.08H1.08c-.6 0-1.08.49-1.08 1.08 0 .59.48 1.07 1.08 1.07h3.13c.59 0 1.07-.48 1.07-1.07zm19.06-.68a8.686 8.686 0 0 0 0 0zm-11 9.21c0-.03-.01-.07-.01-.11v-.04.04c0 .04.01.08.01.11zm7.39-3.21l-.03.03-.05.04-.03.05-.03.04c-.98 1.47-1.58 3.12-1.76 4.82h-.16c0-1.2-1.21-1.6-2.39-1.9 1.18-.3 2.39-.7 2.39-1.9 0-1.17-1.15-1.58-2.31-1.88 1.16-.3 2.31-.71 2.31-1.88s-1.15-1.58-2.31-1.88c1.16-.3 2.31-.71 2.31-1.88a1.07 1.07 0 0 0-2.05-.44c-.3.12-.95.28-1.19.34-1.28.31-2.73.67-2.73 1.98 0 1.17 1.16 1.58 2.31 1.88-1.15.3-2.31.71-2.31 1.88s1.16 1.58 2.31 1.88c-1.15.3-2.31.71-2.31 1.88v.04c0 1.18 1.17 1.58 2.33 1.88h-2.48c-.18-1.7-.79-3.35-1.77-4.82l-.02-.04-.04-.05-.05-.04-.03-.03a7.163 7.163 0 0 1-2.13-5.11c0-3.96 3.22-7.18 7.18-7.18 3.96 0 7.18 3.22 7.18 7.18 0 1.93-.76 3.75-2.14 5.11zm1.1 1.05c-.07.1-.13.2-.2.31.07-.11.13-.21.2-.31zm-.69-.57l.03-.04-.03.04zm-.55 3.3c.06-.21.12-.43.2-.63-.08.2-.14.42-.2.63zm-.28 1.75zm-.6-1.91c.05-.19.11-.37.16-.55-.05.18-.11.36-.16.55zm-1.86.83zm.91 2.05h-1.3 1.3zm-3.01-1.99c-.06-.01-.12-.03-.17-.04-.05-.01-.11-.03-.16-.04.05.01.11.03.16.04.05.01.11.03.17.04zm-.05-1.94c.03-.01.06-.01.09-.02.18-.05.36-.09.54-.14-.18.05-.36.09-.54.14-.03.01-.06.01-.09.02zm-.2-7.46c.11-.03.21-.05.29-.08.15-.03.29-.07.43-.1-.14.03-.28.07-.43.1-.08.03-.18.05-.29.08zm.29 4.7c-.11-.03-.25-.07-.4-.11.15.04.29.08.4.11zm-3.17 6.69h2-2zm6.14.9h-6.14v-.27h6.14v.27zm0 2.24h-6.14v-.09h6.14v.09zm-1.64 2.4h-2.87c-.3 0-.58-.09-.82-.25h4.52a1.5 1.5 0 0 1-.83.25zM15.69 7.86zm0-1.52c-5.15 0-9.33 4.18-9.33 9.33 0 2.47.95 4.8 2.69 6.56a8.37 8.37 0 0 1 1.4 4.61v1.07h.02v3.13c0 2.17 1.69 3.93 3.78 3.93h2.87c2.09 0 3.79-1.76 3.79-3.93v-3.13h.01v-1.07c0-1.62.49-3.21 1.4-4.61a9.278 9.278 0 0 0 2.7-6.56c0-5.15-4.19-9.33-9.33-9.33zm0 0"/></symbol><symbol id="icon-calendar" viewBox="0 0 20 22"><path fill-rule="evenodd" d="M7.69 1.54V0H6.15v3.08h1.54V1.54zm-3.07 0V0H3.08v3.08h1.54V1.54zm12.3 0V0h-1.54v3.08h1.54V1.54zm-3.07 0V0h-1.54v3.08h1.54V1.54zm-3.08 0V0H9.23v3.08h1.54V1.54zM6.15 9.23v1.54h1.54v6.15h1.54V9.23H6.15zm4.62 0v1.54h1.54v6.15h1.54V9.23h-3.08zM0 3.08V20l1.54 1.54h16.92L20 20V3.08l-1.54-1.54v3.08H1.54V1.54L0 3.08zM1.54 20V6.15h16.92V20H1.54zm0 0"/></symbol><symbol id="icon-donation" viewBox="0 0 41 27"><path fill-rule="evenodd" d="M18.17 17.55v-5.46h4.17c2.53 0 3.45.99 3.45 2.72 0 1.7-.92 2.74-3.45 2.74h-4.17zm0 7.67v-.79h5.64v-1.99h-5.64v-2.38h4.59c3.77 0 5.92-1.99 5.92-5.28 0-3.23-2.15-5.19-5.92-5.19h-7.43v12.85h-1.98v1.99h1.98v.79H4.7a16.52 16.52 0 0 1-1.42-6.7c0-9.23 7.52-16.74 16.77-16.74s16.77 7.51 16.77 16.74c0 2.31-.48 4.57-1.42 6.7H18.17zm19.15 0c.85-2.15 1.28-4.39 1.28-6.7C38.6 8.31 30.28 0 20.05 0S1.5 8.31 1.5 18.52c0 2.3.44 4.55 1.28 6.7H0V27h41v-1.78h-3.68zm0 0"/></symbol><symbol id="icon-fb" viewBox="0 0 35 35"><title>facebook.com</title><path fill-rule="evenodd" d="M18.63 34H2.82c-1 0-1.82-.82-1.82-1.82V2.82C1 1.82 1.82 1 2.82 1h29.36c1 0 1.82.82 1.82 1.82v29.36c0 1-.82 1.82-1.82 1.82h-8.41V21.22h4.29l.64-4.98h-4.93v-3.18c0-1.44.4-2.42 2.47-2.42l2.63-.01V6.18c-.45-.06-2.02-.2-3.84-.2-3.8 0-6.4 2.33-6.4 6.59v3.67h-4.3v4.98h4.3V34zm0 0"/></symbol><symbol id="icon-gplus" viewBox="0 0 47 31"><title>plus.google.com</title><path fill-rule="evenodd" d="M41.05 12.92V7.89h-3.54v5.03h-5.09v3.58h5.09v5.17h3.54V16.5H46v-3.58h-4.95zm-25.76-.29v5.74s5.49-.01 7.73-.01c-1.21 3.73-3.09 5.75-7.73 5.75-4.69 0-8.35-3.85-8.35-8.61s3.66-8.61 8.35-8.61c2.48 0 4.08.88 5.55 2.11 1.262-1.19 1.08-1.36 4.07-4.23C22.37 2.43 19 1 15.29 1 7.4 1 1 7.49 1 15.5S7.4 30 15.29 30c11.8 0 14.68-10.42 13.73-17.37H15.29zm0 0"/></symbol><symbol id="icon-heart" viewBox="0 0 42 37"><path stroke-width="2" d="M5.74 2.46C7.39 1.49 9.28 1 11.2 1c2.3 0 4.66.7 6.68 2.17 1.08.79 2.04 1.8 2.84 3.02C21.56 5 22.56 4 23.67 3.24c2.1-1.44 4.52-2.13 6.9-2.13 2.59 0 5.16.82 7.15 2.53a9.41 9.41 0 0 1 2.39 3.21c.58 1.27.89 2.73.89 4.32 0 11.97-18.97 24.41-19 24.43-.61.42-1.39.42-1.99 0-.05-.04-4.67-3.23-9.35-7.8-2.34-2.28-4.7-4.91-6.52-7.71-.9-1.4-1.68-2.84-2.24-4.33-.56-1.49-.9-3.03-.9-4.59 0-1.59.3-3.05.86-4.33a9.406 9.406 0 0 1 3.88-4.38zm0 0"/></symbol><symbol id="icon-in" viewBox="0 0 35 35"><title>instagram.com</title><path fill-rule="evenodd" d="M29.88 30.91H5.13c-.57 0-1.04-.47-1.04-1.03V14.41h4.13c-.54.77-.72 2.21-.72 3.13 0 5.52 4.5 10.01 10.04 10.01 5.53 0 10.04-4.49 10.04-10.01 0-.92-.13-2.34-.8-3.13h4.13v15.47c0 .56-.47 1.03-1.03 1.03m-12.34-19.7c3.5 0 6.34 2.83 6.34 6.33s-2.84 6.33-6.34 6.33c-3.51 0-6.35-2.83-6.35-6.33s2.84-6.33 6.35-6.33m8.21-6.08h3.09c.57 0 1.04.46 1.04 1.03v3.09c0 .57-.47 1.03-1.04 1.03h-3.09c-.57 0-1.03-.46-1.03-1.03V6.16c0-.57.46-1.03 1.03-1.03M30.08 1H4.92C2.76 1 1 2.75 1 4.91v25.18C1 32.25 2.76 34 4.92 34h25.16c2.16 0 3.92-1.75 3.92-3.91V4.91C34 2.75 32.24 1 30.08 1"/></symbol><symbol id="icon-lightning" viewBox="0 0 6 9"><path fill-rule="evenodd" d="M4.67 0L0 5.18h2.55L1.29 8.86 6 3.61H3.65L4.67 0zm0 0"/></symbol><symbol id="icon-locked" viewBox="0 0 12 17"><path fill-rule="evenodd" d="M11.38 6.74h-1.02v-2.4C10.36 1.95 8.41 0 6 0S1.64 1.95 1.64 4.35v2.39H.63c-.34 0-.63.28-.63.62v7.25c0 .86.71 1.56 1.58 1.56h8.85c.87 0 1.57-.7 1.57-1.56V7.36c0-.34-.28-.62-.62-.62zM2.89 4.35a3.11 3.11 0 0 1 6.22-.01v2.4H2.89V4.35zm7.85 10.26c0 .17-.13.32-.31.32H1.58c-.18 0-.32-.15-.32-.32V7.99h9.48v6.62zm0 0"/><path fill-rule="evenodd" d="M6.13 13.3c.36 0 .65-.27.65-.6v-2.18c0-.34-.29-.61-.65-.61-.36 0-.65.27-.65.61v2.18c0 .33.29.6.65.6"/></symbol><symbol id="icon-reg" viewBox="0 0 26 26"><path fill-rule="evenodd" d="M18.53 15.56c-.53 0-.96.43-.96.97v7.53H1.94V8.43h7.53a.965.965 0 0 0 0-1.93H.97c-.54 0-.97.43-.97.97v17.56c0 .54.43.97.97.97h17.56c.54 0 .97-.43.97-.97v-8.5c0-.54-.43-.97-.97-.97zM23.88 4.4l-1.87 1.87-2.28-2.28 1.87-1.87c.24-.24.66-.24.91 0l1.37 1.37c.25.25.25.66 0 .91zM10.36 17.92H8.08v-2.28L18.36 5.36l2.28 2.28-10.28 10.28zm14.89-15.8L23.88.76C23.39.27 22.74 0 22.05 0c-.69 0-1.34.27-1.82.76L6.14 14.84v5.02h5.02L25.25 5.77c1-1 1-2.64 0-3.65zm0 0"/></symbol><symbol id="icon-ruble" viewBox="0 0 277.971 362.803"><path d="M267.684 55.638c-5.868-15.14-14.416-24.125-23.472-32.6s-25.14-16.663-38.47-19.488C196.11 1.086 181.983 0 163.87 0H23.038v168.072H0v37.67h23.038v15.287H0v37.67h23.038v104.103H63.39V258.7h144.6v-37.67H63.39v-15.287H167.06c38.902 0 66.794-10.866 84.18-32.02 16.59-20.213 26.732-37.89 26.732-68.896 0-17.966-4.998-34.484-10.36-49.263l.072.074zm-53.03 95.192c-10.143 11.59-23.545 17.242-47.017 17.242H63.462V38.612h103.38c16.517 0 27.963 1.088 33.83 3.19 9.708 6.157 17.314 10.938 22.966 21.443 5.868 10.94 8.766 23.907 8.766 38.686 0 21.083-8.187 37.672-17.82 48.9h.07z"/></symbol><symbol id="icon-search" viewBox="0 0 18 18"><title>&#x41F;&#x43E;&#x438;&#x441;&#x43A;</title><path fill-rule="evenodd" d="M0 6.75c0 3.73 3.02 6.75 6.75 6.75s6.75-3.02 6.75-6.75S10.48 0 6.75 0 0 3.02 0 6.75zm2.57 0c0-2.3 1.88-4.18 4.18-4.18s4.18 1.88 4.18 4.18-1.88 4.18-4.18 4.18a4.19 4.19 0 0 1-4.18-4.18zm10 7.95l3.02 3.01c.34.35 1.09.39 1.69.08.65-.33.91-1.66.57-2.08l-2.97-3.03c-.51-.63-1.53-.62-2.2.04-.59.59-.61 1.48-.11 1.98zm0 0"/></symbol><symbol id="icon-thumbs-up" viewBox="0 0 17 14"><path fill-rule="evenodd" d="M5.56 5.28c0-.29-.24-.53-.53-.53H.53c-.29 0-.53.24-.53.53V12c0 .29.24.53.53.53h4.5c.29 0 .53-.24.53-.53V5.28zm10.25.37h-3.83l.3-1.48c.07-.34.11-.69.13-1.04l.08-1.9c.02-.59-.4-1.12-1-1.21-.71-.12-1.35.4-1.38 1.08l-.1.96c-.07.67-.38 1.3-.87 1.79l-2.66 2.6c-.13.13-.21.31-.21.5v4.59c0 .31.19.6.49.73l.79.34c.8.35 1.67.96 2.54.96h4.16c.61 0 1.12-.48 1.12-1.08 0-.28-.11-.53-.29-.72.53-.11.94-.58.94-1.13 0-.31-.14-.6-.35-.81.5-.14.86-.58.86-1.11 0-.32-.14-.61-.36-.82.48-.15.83-.58.83-1.09 0-.64-.54-1.16-1.19-1.16zm0 0"/></symbol><symbol id="icon-vk" viewBox="0 0 35 35"><title>vk.com</title><path fill-rule="evenodd" d="M1 4c0-1.66 1.33-3 3-3h27c1.66 0 3 1.33 3 3v27c0 1.66-1.33 3-3 3H4c-1.66 0-3-1.33-3-3V4zm10.92 4.2h5.57c.59 0 1.11.02 1.57.06.45.05.87.12 1.25.24.38.11.73.28 1.05.48.32.21.65.47.98.78.72.73 1.09 1.7 1.09 2.92 0 .81-.17 1.49-.51 2.04-.34.56-.81 1.01-1.42 1.35.97.18 1.77.65 2.41 1.41.63.76.95 1.7.95 2.82 0 1.57-.5 2.85-1.51 3.84-.51.51-1.19.91-2.05 1.19-.86.28-2.06.42-3.62.42h-5.76V8.2zm5.39 6.83c.83 0 1.41-.17 1.76-.52.18-.18.33-.39.45-.64a2.143 2.143 0 0 0 .07-1.49c-.07-.21-.18-.4-.35-.56-.19-.2-.43-.34-.69-.43-.26-.08-.65-.12-1.16-.12h-1.76v3.76h1.68zm.65 7.63c1.09 0 1.87-.2 2.36-.59.49-.38.73-.95.73-1.69 0-.28-.04-.57-.12-.88-.09-.3-.23-.56-.42-.75-.3-.3-.64-.49-1.03-.56-.39-.08-.85-.11-1.38-.11h-2.47v4.58h2.33zm0 0"/></symbol></svg>