<?xml version="1.0" encoding="utf-8"?>
<!-- Generator: Avocode 2.6.0 - http://avocode.com -->
<svg height="26" width="26" xmlns:xlink="http://www.w3.org/1999/xlink" xmlns="http://www.w3.org/2000/svg" viewBox="0 0 26 26">
    <path fill="#ffffff" fill-rule="evenodd" d="M 18.53 15.56 C 18 15.56 17.57 15.99 17.57 16.53 L 17.57 24.06 L 1.94 24.06 L 1.94 8.43 L 9.47 8.43 C 10.01 8.43 10.44 8 10.44 7.47 C 10.44 6.93 10.01 6.5 9.47 6.5 L 0.97 6.5 C 0.43 6.5 0 6.93 0 7.47 L 0 25.03 C 0 25.57 0.43 26 0.97 26 L 18.53 26 C 19.07 26 19.5 25.57 19.5 25.03 L 19.5 16.53 C 19.5 15.99 19.07 15.56 18.53 15.56 L 18.53 15.56 Z M 23.88 4.4 L 22.01 6.27 L 19.73 3.99 L 21.6 2.12 C 21.84 1.88 22.26 1.88 22.51 2.12 L 23.88 3.49 C 24.13 3.74 24.13 4.15 23.88 4.4 L 23.88 4.4 Z M 10.36 17.92 L 8.08 17.92 L 8.08 15.64 L 18.36 5.36 L 20.64 7.64 L 10.36 17.92 Z M 25.25 2.12 L 23.88 0.76 C 23.39 0.27 22.74 0 22.05 0 C 21.36 0 20.71 0.27 20.23 0.76 L 6.14 14.84 L 6.14 19.86 L 11.16 19.86 L 25.25 5.77 C 26.25 4.77 26.25 3.13 25.25 2.12 L 25.25 2.12 Z M 25.25 2.12" />
</svg>