<?xml version="1.0" encoding="utf-8"?>
<!-- Generator: Adobe Illustrator 16.0.0, SVG Export Plug-In . SVG Version: 6.00 Build 0)  -->
<!DOCTYPE svg PUBLIC "-//W3C//DTD SVG 1.1//EN" "http://www.w3.org/Graphics/SVG/1.1/DTD/svg11.dtd">
<svg version="1.1" id="Слой_1" xmlns="http://www.w3.org/2000/svg" xmlns:xlink="http://www.w3.org/1999/xlink" x="0px" y="0px"
	 width="277.971px" height="362.803px" viewBox="0 0 277.971 362.803" enable-background="new 0 0 277.971 362.803"
	 xml:space="preserve">
<path id="path26" fill="#383535" d="M267.684,55.638c-5.868-15.141-14.416-24.125-23.472-32.601S219.073,6.375,205.743,3.55
	C196.108,1.086,181.981,0,163.87,0H23.038v168.072H0v37.671h23.038v15.286H0v37.672h23.038v104.102h40.352V258.701h144.6v-37.672
	h-144.6v-15.286h2.536h101.133c38.903,0,66.795-10.866,84.182-32.021c16.59-20.212,26.731-37.889,26.731-68.895
	c0-17.966-4.998-34.484-10.359-49.263L267.684,55.638z M214.654,150.83L214.654,150.83c-10.143,11.591-23.545,17.242-47.017,17.242
	H65.997l0,0h-2.535V38.613h103.379c16.518,0,27.964,1.087,33.831,3.188c9.708,6.158,17.314,10.939,22.966,21.444
	c5.868,10.939,8.766,23.907,8.766,38.686c0,21.082-8.187,37.671-17.821,48.9H214.654z"/>
</svg>
