<?xml version="1.0" encoding="UTF-8"?><!DOCTYPE svg PUBLIC "-//W3C//DTD SVG 1.1//EN" "http://www.w3.org/Graphics/SVG/1.1/DTD/svg11.dtd"><svg xmlns="http://www.w3.org/2000/svg"><symbol id="img-act-category-1" viewBox="0 0 73 102"><path fill="#6ac5b2" fill-rule="evenodd" d="M38.89 81.31l-6.32-5.38a4.227 4.227 0 0 0 3.05-4.06V56c0-3.05-2.77-5.61-5.77-4.37l-4.31 1.82V40.82l13.35-5.92v46.41zm3.19 10.26l-5.73 3.26-3.76-13.86 16.27 13.86-6.78-3.26zm-24.19-5.4l2.15-21.25 7.15-3.01v9.96A4.21 4.21 0 0 0 30.53 76L17.74 86.89c.07-.23.12-.47.15-.72zm.61-54.45c3.72 0 6.74-3.01 6.74-6.73 0-3.72-3.02-6.74-6.74-6.74s-6.74 3.02-6.74 6.74 3.02 6.73 6.74 6.73zm-5.75 19.29l-3.78-5.74 3.78-2.38v8.12zM38.89 28l-15.95 7.07h-7.95c-1.75 0-2.43.5-2.89.78l-9.24 5.82c-1.46.95-1.89 2.93-.93 4.38l8.13 12.33c.51.78 1.31 1.25 2.16 1.38C11.3 68.52 9.5 85.3 9.5 85.3a4.225 4.225 0 0 0 3.76 4.63c.14.01.29.02.44.02.17 0 .34-.03.51-.05L0 102h63.18L41.74 83.74V33.63l.37-.16a3.15 3.15 0 0 0 1.6-4.16 3.15 3.15 0 0 0-1.97-1.73v-3.11c-3.38.52-2.85 3.53-2.85 3.53zm0 0"/><path fill="#f6941d" fill-rule="evenodd" d="M41.94 27.37v-3.11c15.63-4.02 18.97 3.71 30.45 1.58L66.35 14.9l5.74-10.92C60.98 6.33 55.14-.65 41.9 1.61c-.15-.63-.71-1.1-1.38-1.1-.79 0-1.43.64-1.43 1.43v25.84"/></symbol><symbol id="img-act-category-2" viewBox="0 0 121 97"><path fill="#6ac5b2" fill-rule="evenodd" d="M19.02 28.8h3.54l-1.77 5.21-1.77-5.21zm5.33 0l11.96-12.03c.94-.99 2.51-1.03 3.5-.09.99.94 1.02 2.51.08 3.5L27.32 32.76l.02 41.75c0 1.5-1.21 2.71-2.71 2.71-1.51 0-2.72-1.21-2.72-2.71l-.02-22.65h-2.2v22.65c0 1.5-1.22 2.71-2.72 2.71-1.5 0-2.72-1.21-2.72-2.71V32.76L1.68 20.18c-.94-.99-.9-2.56.09-3.5s2.55-.9 3.49.09L17.3 28.8h.61l2.17 6.39c.23-.06.46-.1.71-.1.24 0 .48.04.71.1l2.17-6.39h.68zm-5.85 9.11c0 1.26 1.03 2.29 2.29 2.29s2.28-1.03 2.28-2.29a2.28 2.28 0 0 0-2.28-2.28c-1.26 0-2.29 1.02-2.29 2.28zm2.26-10.2c-2.67 0-4.83-2.16-4.83-4.83s2.16-4.83 4.83-4.83 4.83 2.16 4.83 4.83-2.16 4.83-4.83 4.83zm0 0"/><path fill="#fd9321" fill-rule="evenodd" d="M58.78 14.06l3.89-.01-1.94 5.73-1.95-5.72zm5.86-.01L77.77.84a2.717 2.717 0 0 1 3.84-.09 2.708 2.708 0 0 1 .09 3.84L67.9 18.41l.02 45.83c0 1.65-1.33 2.98-2.98 2.98s-2.98-1.33-2.98-2.98l-.03-24.86h-2.41v24.86c0 1.65-1.34 2.98-2.99 2.98a2.98 2.98 0 0 1-2.98-2.98V18.41L39.75 4.59A2.717 2.717 0 0 1 43.68.84l13.21 13.22h.67l2.39 7.01c.25-.07.51-.11.78-.11s.53.04.78.11l2.38-7.02h.75zm-6.42 10.01c0 1.38 1.12 2.51 2.51 2.51 1.38 0 2.51-1.13 2.51-2.51 0-1.39-1.13-2.51-2.51-2.51-1.39 0-2.51 1.12-2.51 2.51zm2.48-11.2c-2.93 0-5.31-2.38-5.31-5.31 0-2.93 2.38-5.3 5.31-5.3 2.93 0 5.3 2.37 5.3 5.3 0 2.93-2.37 5.31-5.3 5.31zm0 0"/><path fill="#6ac5b2" fill-rule="evenodd" d="M100.37 38.92h3.02l-1.51 4.45-1.51-4.45zm4.55 0l10.2-10.27c.8-.84 2.14-.87 2.98-.07.85.8.88 2.14.08 2.98L107.45 42.3l.02 35.61c0 1.28-1.04 2.31-2.32 2.31-1.28 0-2.31-1.03-2.31-2.31l-.02-19.32h-1.88v19.32c0 1.28-1.04 2.31-2.32 2.31-1.28 0-2.32-1.03-2.32-2.31V42.3L85.58 31.56c-.8-.84-.77-2.18.08-2.98.84-.8 2.17-.77 2.98.07L98.9 38.92h.52l1.85 5.45c.2-.06.4-.08.61-.08.21 0 .41.02.6.08l1.86-5.45h.58zm-4.99 7.77c0 1.08.87 1.95 1.95 1.95s1.95-.87 1.95-1.95-.87-1.95-1.95-1.95-1.95.87-1.95 1.95zm1.93-8.7a4.13 4.13 0 0 1-4.13-4.12c0-2.28 1.85-4.12 4.13-4.12a4.12 4.12 0 0 1 4.12 4.12c0 2.27-1.85 4.12-4.12 4.12zm0 0"/><path fill="#6ac5b2" fill-rule="evenodd" d="M35.99 66.4v9.59H0V97h120.65V80.15H84.66V66.4H35.99zm0 0"/></symbol><symbol id="img-act-category-3" viewBox="0 0 80 97"><path fill="#62c4b5" fill-rule="evenodd" d="M44.93 79.83l-5.17-3.76-5.17 3.82 1.97-6.29-5.17-3.93h6.39l1.98-6.16-6.86-1.22 1.07-9.55 7.93-3.68 5.58 8.02-7.72 6.43 1.97 6.16h6.4l-5.18 3.94 1.98 6.22zm25.92-23.29c-2.57-6.51-2.57-10.14-5.58-12.31-3-2.17-3-2.25-3-2.25s1.93-1.56 4.08-2.64c2.14-1.09-7.22.2-11.58-1.33-3.42-1.19-6.13-1.87-9.24-1.53l-2.34 1.09s-.5-3.7-1.65-6.52c-1.14-2.82-1.37-3.84-.92-3.9 1.41-1.17 2.91-3.41 3.69-6.73.95-4.01-1.76-4.12-1.76-4.12s1.28-4.56 1.07-8.46C43.4 3.94 31.61.46 23.46.03c-8.15-.43-9.86 4.01-7.93 10.95 0 0-2.47 4.18.32 13.78 2.64 9.1 5.25 12.37 5.25 12.37v5.2s-1-1.2-1.86-1.42C18.38 40.7 2.07 47.7.36 49.14c2.57 1.87 3.72 1.87 3.72 1.87s-1.67 4.01-3.6 9.87C-1.45 66.74 3.09 97 3.09 97h51.46l-3.11-8.03s1.61-4.66 4.19-9c.85 4.77 5.36 8.73 5.36 8.73L58.41 97h16.73s3.43-7.5 4.72-15.35c1.28-7.86-6.44-18.6-9.01-25.11zm0 0"/><path fill="#ff911d" fill-rule="evenodd" d="M45.46 51l-10.58 3.63L34 61l16-4.66L45.46 51zm0 0"/></symbol><symbol id="img-act-category-4" viewBox="0 0 88 97"><path fill="#6ac5b2" fill-rule="evenodd" d="M58.46 48.99c-.11.03-.22-.02-.24-.11-.03-.09.04-.19.15-.22.11-.03.21.02.24.11.02.09-.04.19-.15.22m-1.92-4.51c-.05-.19.09-.38.3-.44.22-.06.44.04.49.22.05.18-.08.38-.3.44-.22.06-.44-.04-.49-.22m1.49 5.86c-.11.03-.22-.02-.24-.11-.03-.09.04-.19.15-.22.1-.03.21.02.24.11.02.1-.04.19-.15.22m-1.14-2.37c-.04-.14.07-.3.23-.34.17-.05.34.03.38.17.04.14-.06.3-.23.34-.17.05-.34-.03-.38-.17m-.5-.42c-.17.05-.34-.03-.38-.17-.04-.15.06-.3.23-.35.17-.04.34.03.38.18.04.14-.06.29-.23.34m-1.52-3.44c-.06-.23.1-.47.37-.55.26-.07.53.05.59.28.07.22-.1.47-.37.54-.26.07-.53-.05-.59-.27m-1.11-1.41c-.06-.23.1-.47.37-.54.27-.08.53.05.59.27.07.23-.1.47-.36.54-.27.08-.54-.05-.6-.27m2.82 3c.05.19-.09.39-.3.45-.22.06-.44-.04-.49-.23-.05-.18.08-.38.3-.44.22-.06.44.04.49.22m11.09 3.01c.11-.03.21.02.23.11.03.08-.04.18-.14.21-.1.02-.2-.02-.23-.11-.02-.09.04-.18.14-.21m1 1.16c.1-.03.21.02.23.11.03.08-.04.18-.14.2-.1.03-.2-.02-.23-.1-.02-.09.04-.18.14-.21m-.65-3.06c.18-.05.37.03.41.19.05.15-.07.32-.25.37-.19.05-.37-.03-.41-.19-.05-.15.07-.32.25-.37m1.04-1.58c.26-.08.53.05.59.27.06.23-.1.47-.37.54-.26.08-.53-.05-.59-.27-.06-.23.1-.47.37-.54M86.7 88.97c-1.32-.61-4.97-.1-4.97-.1-1.53.07-3.59.4-5.44-1.2-1.84-1.6-5.52-10.74-7.01-20.38-.81-5.19.43-6.04 1.12-8.6 1.29-4.82 1.35-10.96.48-16.64-1.77-11.45-6.2-21.24-6.48-21.88-.29-.64-5.16.87-8.88 1.91l-.62.17c-3.73 1.03-8.68 2.25-8.59 2.94.08.7 1.34 11.37 5.74 22.09 2.18 5.32 5.4 10.54 8.99 14.01 1.91 1.84 3.41 1.92 5.4 6.79 3.69 9.03 5.25 18.76 4.5 21.08-.75 2.32-2.69 3.1-4.04 3.83 0 0-3.39 1.45-4.21 2.65-.87 1.27 2.58 2.47 12.94-.45C86 92.27 88.1 89.61 86.7 88.97M24.06 45.62c-.1-.04-.16-.14-.13-.23s.15-.13.25-.09c.11.04.16.14.13.23s-.14.13-.25.09m1.06-4.78c.07-.18.29-.26.51-.19.21.08.33.29.26.47-.06.18-.29.26-.5.18-.21-.07-.33-.28-.27-.46m-2.2 5.64c-.1-.04-.16-.15-.13-.23.04-.09.15-.13.25-.1.11.04.17.15.13.23-.03.09-.14.13-.25.1m.46-2.6c.05-.14.22-.2.39-.14.16.06.25.22.2.36-.05.14-.22.21-.39.14-.16-.06-.25-.22-.2-.36m-.17-.63c-.17-.06-.26-.22-.21-.36.05-.14.23-.2.39-.15.17.06.26.23.21.37-.05.14-.23.2-.39.14m.77-3.69c.08-.21.35-.32.61-.22.26.09.41.35.33.56-.08.23-.36.33-.62.23-.26-.09-.4-.35-.32-.57m-.09-1.79c.08-.21.36-.32.62-.22.26.09.4.35.32.57-.08.22-.35.32-.61.22-.26-.09-.41-.34-.33-.57m.55 4.09c-.07.18-.29.26-.51.18-.21-.07-.33-.28-.26-.46.06-.18.29-.26.5-.19.21.08.33.29.27.47m7.28 8.89c.1.04.16.13.13.22-.03.08-.14.12-.24.09-.1-.04-.15-.14-.12-.22.03-.09.13-.13.23-.09m.14 1.52c.1.04.16.14.13.22-.03.09-.14.13-.24.09-.1-.04-.15-.14-.12-.22.03-.08.13-.12.23-.09m1.25-2.87c.18.07.28.24.23.39-.06.15-.25.23-.43.16-.18-.06-.28-.24-.22-.39.05-.15.24-.22.42-.16m1.76-.68c.26.09.41.35.33.56-.08.23-.36.33-.61.23-.26-.09-.41-.35-.33-.57.08-.22.35-.32.61-.22M23.83 94.57c-.72-1.26-3.99-2.96-3.99-2.96-1.29-.84-3.16-1.76-3.73-4.14-.57-2.37 1.75-11.95 6.13-20.66 2.36-4.7 3.86-4.67 5.9-6.36 3.86-3.17 7.47-8.13 10.06-13.26 5.21-10.35 7.3-20.89 7.44-21.58.14-.68-4.71-2.28-8.34-3.6l-.61-.22c-3.63-1.32-8.37-3.21-8.7-2.6-.33.62-5.51 10.04-8.16 21.32-1.31 5.59-1.72 11.72-.81 16.63.48 2.6 1.65 3.54.45 8.66-2.24 9.49-6.62 18.32-8.58 19.77-1.96 1.46-3.99.96-5.52.78 0 0-3.6-.8-4.96-.29-1.45.53.66 3.51 10.8 7.15 10.13 3.64 13.39 2.7 12.62 1.36"/><path fill="#f6941d" fill-rule="evenodd" d="M54.33 3.7a1.965 1.965 0 1 1 0 0M52.36 10.51a1.965 1.965 0 1 1 0 0M55.09 15.19a1.44 1.44 0 0 1-2.88 0c0-.79.65-1.43 1.44-1.43.79 0 1.44.64 1.44 1.43M55.99 7.79c0 .79-.64 1.43-1.43 1.43a1.434 1.434 0 1 1 1.43-1.43M46.32 5.59c0 .8-.65 1.44-1.44 1.44-.79 0-1.43-.64-1.43-1.44 0-.79.64-1.43 1.43-1.43.79 0 1.44.64 1.44 1.43M46.77 12.17c0 .79-.64 1.44-1.44 1.44-.79 0-1.43-.65-1.43-1.44 0-.79.64-1.43 1.43-1.43.8 0 1.44.64 1.44 1.43M41.78 19.81c0 .66-.54 1.21-1.21 1.21-.67 0-1.21-.55-1.21-1.21 0-.67.54-1.21 1.21-1.21.67 0 1.21.54 1.21 1.21M43.37 2.19a.68.68 0 1 1-.68-.68c.37 0 .68.31.68.68M54.25.98a.68.68 0 0 1-1.36 0c0-.37.31-.68.68-.68.38 0 .68.31.68.68M57.73 11.42c0 .37-.3.68-.68.68-.37 0-.68-.31-.68-.68a.68.68 0 0 1 1.36 0M51.16 15.27a.68.68 0 1 1-1.36 0 .68.68 0 0 1 1.36 0M50.7 10.13a.68.68 0 1 1 0 0M51.23 6.65c0 .38-.3.68-.68.68a.68.68 0 1 1 .68-.68M46.85 8.92a.68.68 0 1 1-.68-.68c.37 0 .68.31.68.68M47.07 19.66c0 .37-.3.68-.68.68-.37 0-.68-.31-.68-.68a.68.68 0 0 1 1.36 0M57.7 14.29a.425.425 0 1 1 0 0M35.51 18.75a.425.425 0 1 1-.85-.01.425.425 0 0 1 .85.01M41.86 10.28c0 1.25-1.02 2.27-2.27 2.27s-2.27-1.02-2.27-2.27 1.02-2.27 2.27-2.27 2.27 1.02 2.27 2.27M38.88 15.42a.425.425 0 1 1-.85.01.425.425 0 0 1 .85-.01M47.57 14.49a.425.425 0 1 1 0 0M45.33 16.25a.68.68 0 0 1-1.36 0c0-.37.31-.68.68-.68.38 0 .68.31.68.68M43.37 13.91c0 .67-.54 1.21-1.21 1.21-.67 0-1.21-.54-1.21-1.21 0-.67.54-1.21 1.21-1.21.67 0 1.21.54 1.21 1.21"/></symbol><symbol id="img-pdf" viewBox="0 0 42 56"><path fill="#e74f44" fill-rule="evenodd" d="M30.21 0v6h-3.53l7.68 7.59L42.05 6h-3.84V0h-8zm-.08 7.42h1.5v-6h5.16v6h1.81l-4.24 4.18-4.23-4.18zm0 0M15.55 14.19c-.09.02-.52.47-.66 2.01-.12 1.25.26 2.82 1.07 4.54 1.03-3.18.5-5.34-.01-6.15-.21-.33-.37-.4-.4-.4m.69 10.08c-.78 1.92-1.58 3.76-2.37 5.43 1.74-.62 3.66-1.09 5.7-1.31a28.21 28.21 0 0 1-1.82-2.08c-.55-.68-1.06-1.37-1.51-2.04m7.15 5.56c1.19.93 2.32 1.62 3.26 1.94.99.35 1.48.23 1.59.17-.01-.07-.07-.26-.32-.51-.7-.72-2.2-1.4-4.53-1.6m-12.91 3.12c-2.56 1.52-4.2 3.25-4.44 4.35-.06.3.03.35.11.4.05.03.17.1.44 0 .99-.36 2.36-2.08 3.89-4.75m-4.14 6.31c-.4 0-.71-.12-.94-.25-.72-.41-1.03-1.15-.83-2.03.4-1.86 3.14-4.52 7.19-6.41 1.14-2.26 2.34-4.95 3.49-7.91-1.38-2.46-2.04-4.75-1.87-6.61.22-2.31 1.03-3.06 1.67-3.29.6-.21 1.25-.03 1.77.5 1.25 1.27 1.88 4.52.33 8.64-.07.21-.15.42-.23.62.57.93 1.24 1.89 2.01 2.85.83 1.04 1.74 2.02 2.66 2.89 4.43-.07 7.15 1.3 7.94 2.83.33.66.29 1.34-.13 1.83-.6.68-1.78.79-3.24.28-1.5-.52-3.33-1.75-5.15-3.4-.3.01-.62.03-.94.06-2.68.24-5.13.95-7.2 1.87-.24.45-.48.89-.71 1.32-1.97 3.57-3.63 5.56-5.06 6.07-.28.1-.53.14-.76.14"/><path fill="#45464a" fill-rule="evenodd" d="M12.74 43.69c0-.38-.09-.66-.28-.82-.19-.17-.44-.25-.77-.25h-.97v2.21h.99c.27 0 .51-.08.72-.25.21-.18.31-.47.31-.89m1.82.03c0 .42-.06.81-.19 1.16-.13.35-.31.65-.55.9-.24.25-.53.44-.87.58-.34.13-.73.2-1.15.2h-1.08v3.25H8.86V40.9h2.83c.42 0 .81.06 1.16.17.36.11.66.28.91.51.25.23.45.52.59.88.14.35.21.77.21 1.26M19.31 44.6c0-.26-.01-.5-.03-.74a2.4 2.4 0 0 0-.16-.64 1.17 1.17 0 0 0-.36-.43c-.16-.11-.37-.16-.64-.16h-.77v5.47h.79c.46 0 .78-.12.94-.36.15-.24.23-.57.23-.99V44.6zm-.85-3.7c.59 0 1.1.11 1.53.33.42.23.73.59.92 1.1.12.3.19.67.22 1.11.02.44.03.93.03 1.47 0 .77-.01 1.43-.02 1.98 0 .54-.08 1-.23 1.39-.11.29-.25.54-.42.74-.18.2-.38.35-.61.47-.23.11-.48.19-.75.25-.27.05-.55.07-.84.07h-2.78V40.9h2.95zm0 0M24.44 42.62v1.88h2.86v1.69h-2.86v3.62h-1.86V40.9h5.18v1.72h-3.32zm0 0"/><path fill="#45464a" fill-rule="evenodd" d="M22.86 9.13H3.21c-.99 0-1.79.8-1.79 1.79v40.95c0 .99.8 1.79 1.79 1.79h30.15c.99 0 1.79-.8 1.79-1.79V21.13c-.2-1.56-10.54-11.67-12.29-12m10.5 45.95H3.21C1.44 55.08 0 53.64 0 51.87V10.92c0-1.77 1.44-3.21 3.21-3.21H22.9c1.79 0 13.67 10.94 13.67 13.42v30.74c0 1.77-1.44 3.21-3.21 3.21"/><path fill="#45464a" fill-rule="evenodd" d="M35.86 21.45h-9.53c-2.52 0-4.14-1.31-4.14-3.33v-9.7h1.41v9.7c0 1.72 1.91 1.91 2.73 1.91h9.53v1.42zm0 0"/></symbol></svg>